M48
; DRILL file {KiCad (5.1.7-0-10_14)} date Tuesday, January 19, 2021 at 07:39:14 AM
; FORMAT={-:-/ absolute / inch / decimal}
; #@! TF.CreationDate,2021-01-19T07:39:14-05:00
; #@! TF.GenerationSoftware,Kicad,Pcbnew,(5.1.7-0-10_14)
FMAT,2
INCH
T1C0.0157
T2C0.0276
T3C0.0315
T4C0.0354
T5C0.0394
T6C0.0433
T7C0.0472
T8C0.0669
T9C0.1378
%
G90
G05
T1
X3.4724Y-3.8583
X3.4803Y-2.9528
X3.5748Y-2.9528
X3.5906Y-3.8583
X4.9685Y-2.8898
X4.9685Y-3.0315
T2
X3.2205Y-2.9512
X3.2205Y-3.0512
X3.2205Y-3.315
X3.2205Y-3.415
T3
X4.5157Y-2.9055
X4.5157Y-3.0039
X4.5079Y-3.1496
X4.5079Y-3.248
X4.5276Y-3.7244
X4.5276Y-3.8228
X4.5118Y-3.4724
X4.5118Y-3.5709
T4
X3.063Y-3.315
X3.063Y-3.415
X3.063Y-2.9528
X3.063Y-3.0528
T5
X3.963Y-2.0472
X3.963Y-2.1472
X3.963Y-2.2472
X3.963Y-2.3472
X3.963Y-2.4472
X4.063Y-2.0472
X4.063Y-2.1472
X4.063Y-2.2472
X4.063Y-2.3472
X4.063Y-2.4472
X6.9157Y-2.0472
X6.9157Y-2.1472
X6.9157Y-2.2472
X6.9157Y-2.3472
X6.9157Y-2.4472
X7.0157Y-2.0472
X7.0157Y-2.1472
X7.0157Y-2.2472
X7.0157Y-2.3472
X7.0157Y-2.4472
X5.1441Y-2.0472
X5.1441Y-2.1472
X5.1441Y-2.2472
X5.1441Y-2.3472
X5.1441Y-2.4472
X5.2441Y-2.0472
X5.2441Y-2.1472
X5.2441Y-2.2472
X5.2441Y-2.3472
X5.2441Y-2.4472
X4.5535Y-2.0472
X4.5535Y-2.1472
X4.5535Y-2.2472
X4.5535Y-2.3472
X4.5535Y-2.4472
X4.6535Y-2.0472
X4.6535Y-2.1472
X4.6535Y-2.2472
X4.6535Y-2.3472
X4.6535Y-2.4472
X6.3252Y-2.0472
X6.3252Y-2.1472
X6.3252Y-2.2472
X6.3252Y-2.3472
X6.3252Y-2.4472
X6.4252Y-2.0472
X6.4252Y-2.1472
X6.4252Y-2.2472
X6.4252Y-2.3472
X6.4252Y-2.4472
X5.7346Y-2.0472
X5.7346Y-2.1472
X5.7346Y-2.2472
X5.7346Y-2.3472
X5.7346Y-2.4472
X5.8346Y-2.0472
X5.8346Y-2.1472
X5.8346Y-2.2472
X5.8346Y-2.3472
X5.8346Y-2.4472
T6
X3.5709Y-3.9646
X3.8709Y-3.9646
X3.6055Y-2.7874
X3.9055Y-2.7874
X4.3189Y-3.0205
X4.3189Y-3.1205
X4.3189Y-3.2205
X4.7953Y-3.5039
X4.7953Y-3.8039
X4.7913Y-2.9685
X4.7913Y-3.2685
X4.3055Y-3.5142
X4.3055Y-3.6142
X4.3055Y-3.7142
X4.0433Y-3.9606
X4.3433Y-3.9606
X4.074Y-2.7795
X4.374Y-2.7795
T7
X5.3228Y-2.8346
X5.3228Y-3.1299
X6.7913Y-3.5709
X6.7913Y-3.8661
X6.0591Y-3.5709
X6.0591Y-3.8661
X6.7913Y-2.8346
X6.7913Y-3.1299
X5.3228Y-3.563
X5.3228Y-3.8583
X6.0591Y-2.8346
X6.0591Y-3.1299
T8
X3.3071Y-2.0079
X3.3071Y-2.2835
T9
X3.663Y-3.1205
X3.6496Y-3.6142
T3
G00X2.9606Y-3.7598
M15
G01X2.9606Y-3.8465
M16
G05
G00X3.0453Y-3.9921
M15
G01X3.1319Y-3.9921
M16
G05
T5
G00X3.2067Y-3.7539
M15
G01X3.2067Y-3.8524
M16
G05
T0
M30
