%TF.GenerationSoftware,KiCad,Pcbnew,(5.1.7-0-10_14)*%
%TF.CreationDate,2021-01-19T07:42:21-05:00*%
%TF.ProjectId,Power Supply,506f7765-7220-4537-9570-706c792e6b69,rev?*%
%TF.SameCoordinates,Original*%
%TF.FileFunction,Legend,Top*%
%TF.FilePolarity,Positive*%
%FSLAX46Y46*%
G04 Gerber Fmt 4.6, Leading zero omitted, Abs format (unit mm)*
G04 Created by KiCad (PCBNEW (5.1.7-0-10_14)) date 2021-01-19 07:42:21*
%MOMM*%
%LPD*%
G01*
G04 APERTURE LIST*
%ADD10C,0.150000*%
%ADD11C,0.120000*%
%ADD12C,0.200000*%
%ADD13C,0.500000*%
G04 APERTURE END LIST*
D10*
X84485714Y-85471428D02*
X85247619Y-85471428D01*
X86247619Y-85852380D02*
X85676190Y-85852380D01*
X85961904Y-85852380D02*
X85961904Y-84852380D01*
X85866666Y-84995238D01*
X85771428Y-85090476D01*
X85676190Y-85138095D01*
X86628571Y-84947619D02*
X86676190Y-84900000D01*
X86771428Y-84852380D01*
X87009523Y-84852380D01*
X87104761Y-84900000D01*
X87152380Y-84947619D01*
X87200000Y-85042857D01*
X87200000Y-85138095D01*
X87152380Y-85280952D01*
X86580952Y-85852380D01*
X87200000Y-85852380D01*
X87533333Y-85185714D02*
X87771428Y-85852380D01*
X88009523Y-85185714D01*
X86028571Y-80252380D02*
X85457142Y-80252380D01*
X85742857Y-80252380D02*
X85742857Y-79252380D01*
X85647619Y-79395238D01*
X85552380Y-79490476D01*
X85457142Y-79538095D01*
X86409523Y-79347619D02*
X86457142Y-79300000D01*
X86552380Y-79252380D01*
X86790476Y-79252380D01*
X86885714Y-79300000D01*
X86933333Y-79347619D01*
X86980952Y-79442857D01*
X86980952Y-79538095D01*
X86933333Y-79680952D01*
X86361904Y-80252380D01*
X86980952Y-80252380D01*
X87314285Y-79585714D02*
X87552380Y-80252380D01*
X87790476Y-79585714D01*
D11*
X97000000Y-59600000D02*
X98200000Y-59600000D01*
X97000000Y-58200000D02*
X97000000Y-59600000D01*
X97000000Y-54400000D02*
X98200000Y-54400000D01*
X97000000Y-56000000D02*
X97000000Y-54400000D01*
D10*
X96328571Y-52452380D02*
X95757142Y-52452380D01*
X96042857Y-52452380D02*
X96042857Y-51452380D01*
X95947619Y-51595238D01*
X95852380Y-51690476D01*
X95757142Y-51738095D01*
X96709523Y-51547619D02*
X96757142Y-51500000D01*
X96852380Y-51452380D01*
X97090476Y-51452380D01*
X97185714Y-51500000D01*
X97233333Y-51547619D01*
X97280952Y-51642857D01*
X97280952Y-51738095D01*
X97233333Y-51880952D01*
X96661904Y-52452380D01*
X97280952Y-52452380D01*
X97614285Y-51785714D02*
X97852380Y-52452380D01*
X98090476Y-51785714D01*
X96309523Y-56785714D02*
X96309523Y-57595238D01*
X96261904Y-57690476D01*
X96214285Y-57738095D01*
X96119047Y-57785714D01*
X95976190Y-57785714D01*
X95880952Y-57738095D01*
X96309523Y-57404761D02*
X96214285Y-57452380D01*
X96023809Y-57452380D01*
X95928571Y-57404761D01*
X95880952Y-57357142D01*
X95833333Y-57261904D01*
X95833333Y-56976190D01*
X95880952Y-56880952D01*
X95928571Y-56833333D01*
X96023809Y-56785714D01*
X96214285Y-56785714D01*
X96309523Y-56833333D01*
X96785714Y-56785714D02*
X96785714Y-57452380D01*
X96785714Y-56880952D02*
X96833333Y-56833333D01*
X96928571Y-56785714D01*
X97071428Y-56785714D01*
X97166666Y-56833333D01*
X97214285Y-56928571D01*
X97214285Y-57452380D01*
X98119047Y-57452380D02*
X98119047Y-56452380D01*
X98119047Y-57404761D02*
X98023809Y-57452380D01*
X97833333Y-57452380D01*
X97738095Y-57404761D01*
X97690476Y-57357142D01*
X97642857Y-57261904D01*
X97642857Y-56976190D01*
X97690476Y-56880952D01*
X97738095Y-56833333D01*
X97833333Y-56785714D01*
X98023809Y-56785714D01*
X98119047Y-56833333D01*
X94585714Y-62221428D02*
X95347619Y-62221428D01*
X96347619Y-62602380D02*
X95776190Y-62602380D01*
X96061904Y-62602380D02*
X96061904Y-61602380D01*
X95966666Y-61745238D01*
X95871428Y-61840476D01*
X95776190Y-61888095D01*
X96728571Y-61697619D02*
X96776190Y-61650000D01*
X96871428Y-61602380D01*
X97109523Y-61602380D01*
X97204761Y-61650000D01*
X97252380Y-61697619D01*
X97300000Y-61792857D01*
X97300000Y-61888095D01*
X97252380Y-62030952D01*
X96680952Y-62602380D01*
X97300000Y-62602380D01*
X97633333Y-61935714D02*
X97871428Y-62602380D01*
X98109523Y-61935714D01*
D12*
X166892857Y-65454761D02*
X167016666Y-65502380D01*
X167264285Y-65502380D01*
X167388095Y-65454761D01*
X167450000Y-65359523D01*
X167450000Y-65311904D01*
X167388095Y-65216666D01*
X167264285Y-65169047D01*
X167078571Y-65169047D01*
X166954761Y-65121428D01*
X166892857Y-65026190D01*
X166892857Y-64978571D01*
X166954761Y-64883333D01*
X167078571Y-64835714D01*
X167264285Y-64835714D01*
X167388095Y-64883333D01*
X167821428Y-64835714D02*
X168316666Y-64835714D01*
X168007142Y-64502380D02*
X168007142Y-65359523D01*
X168069047Y-65454761D01*
X168192857Y-65502380D01*
X168316666Y-65502380D01*
X168750000Y-65502380D02*
X168750000Y-64835714D01*
X168750000Y-65026190D02*
X168811904Y-64930952D01*
X168873809Y-64883333D01*
X168997619Y-64835714D01*
X169121428Y-64835714D01*
X169554761Y-65502380D02*
X169554761Y-64835714D01*
X169554761Y-64502380D02*
X169492857Y-64550000D01*
X169554761Y-64597619D01*
X169616666Y-64550000D01*
X169554761Y-64502380D01*
X169554761Y-64597619D01*
X170173809Y-64835714D02*
X170173809Y-65835714D01*
X170173809Y-64883333D02*
X170297619Y-64835714D01*
X170545238Y-64835714D01*
X170669047Y-64883333D01*
X170730952Y-64930952D01*
X170792857Y-65026190D01*
X170792857Y-65311904D01*
X170730952Y-65407142D01*
X170669047Y-65454761D01*
X170545238Y-65502380D01*
X170297619Y-65502380D01*
X170173809Y-65454761D01*
X171845238Y-65454761D02*
X171721428Y-65502380D01*
X171473809Y-65502380D01*
X171350000Y-65454761D01*
X171288095Y-65359523D01*
X171288095Y-64978571D01*
X171350000Y-64883333D01*
X171473809Y-64835714D01*
X171721428Y-64835714D01*
X171845238Y-64883333D01*
X171907142Y-64978571D01*
X171907142Y-65073809D01*
X171288095Y-65169047D01*
X151892857Y-65454761D02*
X152016666Y-65502380D01*
X152264285Y-65502380D01*
X152388095Y-65454761D01*
X152450000Y-65359523D01*
X152450000Y-65311904D01*
X152388095Y-65216666D01*
X152264285Y-65169047D01*
X152078571Y-65169047D01*
X151954761Y-65121428D01*
X151892857Y-65026190D01*
X151892857Y-64978571D01*
X151954761Y-64883333D01*
X152078571Y-64835714D01*
X152264285Y-64835714D01*
X152388095Y-64883333D01*
X152821428Y-64835714D02*
X153316666Y-64835714D01*
X153007142Y-64502380D02*
X153007142Y-65359523D01*
X153069047Y-65454761D01*
X153192857Y-65502380D01*
X153316666Y-65502380D01*
X153750000Y-65502380D02*
X153750000Y-64835714D01*
X153750000Y-65026190D02*
X153811904Y-64930952D01*
X153873809Y-64883333D01*
X153997619Y-64835714D01*
X154121428Y-64835714D01*
X154554761Y-65502380D02*
X154554761Y-64835714D01*
X154554761Y-64502380D02*
X154492857Y-64550000D01*
X154554761Y-64597619D01*
X154616666Y-64550000D01*
X154554761Y-64502380D01*
X154554761Y-64597619D01*
X155173809Y-64835714D02*
X155173809Y-65835714D01*
X155173809Y-64883333D02*
X155297619Y-64835714D01*
X155545238Y-64835714D01*
X155669047Y-64883333D01*
X155730952Y-64930952D01*
X155792857Y-65026190D01*
X155792857Y-65311904D01*
X155730952Y-65407142D01*
X155669047Y-65454761D01*
X155545238Y-65502380D01*
X155297619Y-65502380D01*
X155173809Y-65454761D01*
X156845238Y-65454761D02*
X156721428Y-65502380D01*
X156473809Y-65502380D01*
X156350000Y-65454761D01*
X156288095Y-65359523D01*
X156288095Y-64978571D01*
X156350000Y-64883333D01*
X156473809Y-64835714D01*
X156721428Y-64835714D01*
X156845238Y-64883333D01*
X156907142Y-64978571D01*
X156907142Y-65073809D01*
X156288095Y-65169047D01*
X136892857Y-65454761D02*
X137016666Y-65502380D01*
X137264285Y-65502380D01*
X137388095Y-65454761D01*
X137450000Y-65359523D01*
X137450000Y-65311904D01*
X137388095Y-65216666D01*
X137264285Y-65169047D01*
X137078571Y-65169047D01*
X136954761Y-65121428D01*
X136892857Y-65026190D01*
X136892857Y-64978571D01*
X136954761Y-64883333D01*
X137078571Y-64835714D01*
X137264285Y-64835714D01*
X137388095Y-64883333D01*
X137821428Y-64835714D02*
X138316666Y-64835714D01*
X138007142Y-64502380D02*
X138007142Y-65359523D01*
X138069047Y-65454761D01*
X138192857Y-65502380D01*
X138316666Y-65502380D01*
X138750000Y-65502380D02*
X138750000Y-64835714D01*
X138750000Y-65026190D02*
X138811904Y-64930952D01*
X138873809Y-64883333D01*
X138997619Y-64835714D01*
X139121428Y-64835714D01*
X139554761Y-65502380D02*
X139554761Y-64835714D01*
X139554761Y-64502380D02*
X139492857Y-64550000D01*
X139554761Y-64597619D01*
X139616666Y-64550000D01*
X139554761Y-64502380D01*
X139554761Y-64597619D01*
X140173809Y-64835714D02*
X140173809Y-65835714D01*
X140173809Y-64883333D02*
X140297619Y-64835714D01*
X140545238Y-64835714D01*
X140669047Y-64883333D01*
X140730952Y-64930952D01*
X140792857Y-65026190D01*
X140792857Y-65311904D01*
X140730952Y-65407142D01*
X140669047Y-65454761D01*
X140545238Y-65502380D01*
X140297619Y-65502380D01*
X140173809Y-65454761D01*
X141845238Y-65454761D02*
X141721428Y-65502380D01*
X141473809Y-65502380D01*
X141350000Y-65454761D01*
X141288095Y-65359523D01*
X141288095Y-64978571D01*
X141350000Y-64883333D01*
X141473809Y-64835714D01*
X141721428Y-64835714D01*
X141845238Y-64883333D01*
X141907142Y-64978571D01*
X141907142Y-65073809D01*
X141288095Y-65169047D01*
X121892857Y-65454761D02*
X122016666Y-65502380D01*
X122264285Y-65502380D01*
X122388095Y-65454761D01*
X122450000Y-65359523D01*
X122450000Y-65311904D01*
X122388095Y-65216666D01*
X122264285Y-65169047D01*
X122078571Y-65169047D01*
X121954761Y-65121428D01*
X121892857Y-65026190D01*
X121892857Y-64978571D01*
X121954761Y-64883333D01*
X122078571Y-64835714D01*
X122264285Y-64835714D01*
X122388095Y-64883333D01*
X122821428Y-64835714D02*
X123316666Y-64835714D01*
X123007142Y-64502380D02*
X123007142Y-65359523D01*
X123069047Y-65454761D01*
X123192857Y-65502380D01*
X123316666Y-65502380D01*
X123750000Y-65502380D02*
X123750000Y-64835714D01*
X123750000Y-65026190D02*
X123811904Y-64930952D01*
X123873809Y-64883333D01*
X123997619Y-64835714D01*
X124121428Y-64835714D01*
X124554761Y-65502380D02*
X124554761Y-64835714D01*
X124554761Y-64502380D02*
X124492857Y-64550000D01*
X124554761Y-64597619D01*
X124616666Y-64550000D01*
X124554761Y-64502380D01*
X124554761Y-64597619D01*
X125173809Y-64835714D02*
X125173809Y-65835714D01*
X125173809Y-64883333D02*
X125297619Y-64835714D01*
X125545238Y-64835714D01*
X125669047Y-64883333D01*
X125730952Y-64930952D01*
X125792857Y-65026190D01*
X125792857Y-65311904D01*
X125730952Y-65407142D01*
X125669047Y-65454761D01*
X125545238Y-65502380D01*
X125297619Y-65502380D01*
X125173809Y-65454761D01*
X126845238Y-65454761D02*
X126721428Y-65502380D01*
X126473809Y-65502380D01*
X126350000Y-65454761D01*
X126288095Y-65359523D01*
X126288095Y-64978571D01*
X126350000Y-64883333D01*
X126473809Y-64835714D01*
X126721428Y-64835714D01*
X126845238Y-64883333D01*
X126907142Y-64978571D01*
X126907142Y-65073809D01*
X126288095Y-65169047D01*
X106892857Y-65454761D02*
X107016666Y-65502380D01*
X107264285Y-65502380D01*
X107388095Y-65454761D01*
X107450000Y-65359523D01*
X107450000Y-65311904D01*
X107388095Y-65216666D01*
X107264285Y-65169047D01*
X107078571Y-65169047D01*
X106954761Y-65121428D01*
X106892857Y-65026190D01*
X106892857Y-64978571D01*
X106954761Y-64883333D01*
X107078571Y-64835714D01*
X107264285Y-64835714D01*
X107388095Y-64883333D01*
X107821428Y-64835714D02*
X108316666Y-64835714D01*
X108007142Y-64502380D02*
X108007142Y-65359523D01*
X108069047Y-65454761D01*
X108192857Y-65502380D01*
X108316666Y-65502380D01*
X108750000Y-65502380D02*
X108750000Y-64835714D01*
X108750000Y-65026190D02*
X108811904Y-64930952D01*
X108873809Y-64883333D01*
X108997619Y-64835714D01*
X109121428Y-64835714D01*
X109554761Y-65502380D02*
X109554761Y-64835714D01*
X109554761Y-64502380D02*
X109492857Y-64550000D01*
X109554761Y-64597619D01*
X109616666Y-64550000D01*
X109554761Y-64502380D01*
X109554761Y-64597619D01*
X110173809Y-64835714D02*
X110173809Y-65835714D01*
X110173809Y-64883333D02*
X110297619Y-64835714D01*
X110545238Y-64835714D01*
X110669047Y-64883333D01*
X110730952Y-64930952D01*
X110792857Y-65026190D01*
X110792857Y-65311904D01*
X110730952Y-65407142D01*
X110669047Y-65454761D01*
X110545238Y-65502380D01*
X110297619Y-65502380D01*
X110173809Y-65454761D01*
X111845238Y-65454761D02*
X111721428Y-65502380D01*
X111473809Y-65502380D01*
X111350000Y-65454761D01*
X111288095Y-65359523D01*
X111288095Y-64978571D01*
X111350000Y-64883333D01*
X111473809Y-64835714D01*
X111721428Y-64835714D01*
X111845238Y-64883333D01*
X111907142Y-64978571D01*
X111907142Y-65073809D01*
X111288095Y-65169047D01*
D13*
X173790000Y-65000000D02*
X179990000Y-65000000D01*
X158790000Y-65000000D02*
X164990000Y-65000000D01*
X143790000Y-65000000D02*
X149990000Y-65000000D01*
X128840000Y-64950000D02*
X135040000Y-64950000D01*
X113840000Y-64950000D02*
X120040000Y-64950000D01*
X98800000Y-65000000D02*
X105000000Y-65000000D01*
D11*
%TO.C,SW101*%
X67400000Y-67250000D02*
X84000000Y-67250000D01*
X84000000Y-67250000D02*
X84000000Y-60000000D01*
X84000000Y-48750000D02*
X67400000Y-48750000D01*
X67400000Y-67250000D02*
X67400000Y-48750000D01*
X84000000Y-56000000D02*
X84000000Y-53150000D01*
%TO.C,P101*%
X67700000Y-91800000D02*
X75200000Y-91800000D01*
X67700000Y-101400000D02*
X67700000Y-91800000D01*
X67700000Y-101400000D02*
X75200000Y-101400000D01*
%TO.C,J106*%
X174330000Y-63490000D02*
X179530000Y-63490000D01*
X174330000Y-53270000D02*
X174330000Y-63490000D01*
X179530000Y-50670000D02*
X179530000Y-63490000D01*
X174330000Y-53270000D02*
X176930000Y-53270000D01*
X176930000Y-53270000D02*
X176930000Y-50670000D01*
X176930000Y-50670000D02*
X179530000Y-50670000D01*
X174330000Y-52000000D02*
X174330000Y-50670000D01*
X174330000Y-50670000D02*
X175660000Y-50670000D01*
%TO.C,J105*%
X159330000Y-63490000D02*
X164530000Y-63490000D01*
X159330000Y-53270000D02*
X159330000Y-63490000D01*
X164530000Y-50670000D02*
X164530000Y-63490000D01*
X159330000Y-53270000D02*
X161930000Y-53270000D01*
X161930000Y-53270000D02*
X161930000Y-50670000D01*
X161930000Y-50670000D02*
X164530000Y-50670000D01*
X159330000Y-52000000D02*
X159330000Y-50670000D01*
X159330000Y-50670000D02*
X160660000Y-50670000D01*
%TO.C,J104*%
X144330000Y-63490000D02*
X149530000Y-63490000D01*
X144330000Y-53270000D02*
X144330000Y-63490000D01*
X149530000Y-50670000D02*
X149530000Y-63490000D01*
X144330000Y-53270000D02*
X146930000Y-53270000D01*
X146930000Y-53270000D02*
X146930000Y-50670000D01*
X146930000Y-50670000D02*
X149530000Y-50670000D01*
X144330000Y-52000000D02*
X144330000Y-50670000D01*
X144330000Y-50670000D02*
X145660000Y-50670000D01*
%TO.C,J103*%
X129330000Y-63490000D02*
X134530000Y-63490000D01*
X129330000Y-53270000D02*
X129330000Y-63490000D01*
X134530000Y-50670000D02*
X134530000Y-63490000D01*
X129330000Y-53270000D02*
X131930000Y-53270000D01*
X131930000Y-53270000D02*
X131930000Y-50670000D01*
X131930000Y-50670000D02*
X134530000Y-50670000D01*
X129330000Y-52000000D02*
X129330000Y-50670000D01*
X129330000Y-50670000D02*
X130660000Y-50670000D01*
%TO.C,J102*%
X114330000Y-63490000D02*
X119530000Y-63490000D01*
X114330000Y-53270000D02*
X114330000Y-63490000D01*
X119530000Y-50670000D02*
X119530000Y-63490000D01*
X114330000Y-53270000D02*
X116930000Y-53270000D01*
X116930000Y-53270000D02*
X116930000Y-50670000D01*
X116930000Y-50670000D02*
X119530000Y-50670000D01*
X114330000Y-52000000D02*
X114330000Y-50670000D01*
X114330000Y-50670000D02*
X115660000Y-50670000D01*
%TO.C,J101*%
X99330000Y-63490000D02*
X104530000Y-63490000D01*
X99330000Y-53270000D02*
X99330000Y-63490000D01*
X104530000Y-50670000D02*
X104530000Y-63490000D01*
X99330000Y-53270000D02*
X101930000Y-53270000D01*
X101930000Y-53270000D02*
X101930000Y-50670000D01*
X101930000Y-50670000D02*
X104530000Y-50670000D01*
X99330000Y-52000000D02*
X99330000Y-50670000D01*
X99330000Y-50670000D02*
X100660000Y-50670000D01*
%TO.C,R102*%
X82720000Y-84200000D02*
G75*
G03*
X82720000Y-84200000I-920000J0D01*
G01*
X81800000Y-85120000D02*
X81800000Y-85740000D01*
%TO.C,R101*%
X82720000Y-77500000D02*
G75*
G03*
X82720000Y-77500000I-920000J0D01*
G01*
X81800000Y-76580000D02*
X81800000Y-75960000D01*
%TO.C,U102*%
X105670000Y-89260000D02*
X108210000Y-89260000D01*
X105670000Y-91800000D02*
X108210000Y-91800000D01*
X105670000Y-94340000D02*
X108210000Y-94340000D01*
X89780000Y-86680000D02*
X105670000Y-86680000D01*
X89780000Y-96920000D02*
X105670000Y-96920000D01*
X89780000Y-96920000D02*
X89780000Y-86680000D01*
X105670000Y-96920000D02*
X105670000Y-86680000D01*
%TO.C,U101*%
X106010000Y-76720000D02*
X108550000Y-76720000D01*
X106010000Y-79260000D02*
X108550000Y-79260000D01*
X106010000Y-81800000D02*
X108550000Y-81800000D01*
X90120000Y-74140000D02*
X106010000Y-74140000D01*
X90120000Y-84380000D02*
X106010000Y-84380000D01*
X90120000Y-84380000D02*
X90120000Y-74140000D01*
X106010000Y-84380000D02*
X106010000Y-74140000D01*
%TO.C,D108*%
X76720000Y-86740000D02*
X76720000Y-86740000D01*
X76590000Y-86740000D02*
X76720000Y-86740000D01*
X76590000Y-86740000D02*
X76590000Y-86740000D01*
X76720000Y-86740000D02*
X76590000Y-86740000D01*
X76720000Y-84200000D02*
X76720000Y-84200000D01*
X76590000Y-84200000D02*
X76720000Y-84200000D01*
X76590000Y-84200000D02*
X76590000Y-84200000D01*
X76720000Y-84200000D02*
X76590000Y-84200000D01*
X76590000Y-88030000D02*
X76590000Y-88430000D01*
X75470000Y-88030000D02*
X76590000Y-88030000D01*
X75470000Y-88430000D02*
X75470000Y-88030000D01*
X76590000Y-88430000D02*
X75470000Y-88430000D01*
X76590000Y-82910000D02*
X76590000Y-88030000D01*
X76590000Y-88030000D02*
X70430000Y-88030000D01*
X76590000Y-82910000D02*
X70430000Y-82910000D01*
X70430000Y-88030000D02*
G75*
G02*
X70430000Y-82910000I0J2560000D01*
G01*
%TO.C,D107*%
X76720000Y-77540000D02*
X76720000Y-77540000D01*
X76590000Y-77540000D02*
X76720000Y-77540000D01*
X76590000Y-77540000D02*
X76590000Y-77540000D01*
X76720000Y-77540000D02*
X76590000Y-77540000D01*
X76720000Y-75000000D02*
X76720000Y-75000000D01*
X76590000Y-75000000D02*
X76720000Y-75000000D01*
X76590000Y-75000000D02*
X76590000Y-75000000D01*
X76720000Y-75000000D02*
X76590000Y-75000000D01*
X76590000Y-78830000D02*
X76590000Y-79230000D01*
X75470000Y-78830000D02*
X76590000Y-78830000D01*
X75470000Y-79230000D02*
X75470000Y-78830000D01*
X76590000Y-79230000D02*
X75470000Y-79230000D01*
X76590000Y-73710000D02*
X76590000Y-78830000D01*
X76590000Y-78830000D02*
X70430000Y-78830000D01*
X76590000Y-73710000D02*
X70430000Y-73710000D01*
X70430000Y-78830000D02*
G75*
G02*
X70430000Y-73710000I0J2560000D01*
G01*
%TO.C,D106*%
X123270000Y-90870000D02*
X120330000Y-90870000D01*
X123270000Y-91110000D02*
X120330000Y-91110000D01*
X123270000Y-90990000D02*
X120330000Y-90990000D01*
X120330000Y-95530000D02*
X120460000Y-95530000D01*
X120330000Y-90090000D02*
X120330000Y-95530000D01*
X120460000Y-90090000D02*
X120330000Y-90090000D01*
X123270000Y-95530000D02*
X123140000Y-95530000D01*
X123270000Y-90090000D02*
X123270000Y-95530000D01*
X123140000Y-90090000D02*
X123270000Y-90090000D01*
%TO.C,D105*%
X123170000Y-77270000D02*
X120230000Y-77270000D01*
X123170000Y-77510000D02*
X120230000Y-77510000D01*
X123170000Y-77390000D02*
X120230000Y-77390000D01*
X120230000Y-81930000D02*
X120360000Y-81930000D01*
X120230000Y-76490000D02*
X120230000Y-81930000D01*
X120360000Y-76490000D02*
X120230000Y-76490000D01*
X123170000Y-81930000D02*
X123040000Y-81930000D01*
X123170000Y-76490000D02*
X123170000Y-81930000D01*
X123040000Y-76490000D02*
X123170000Y-76490000D01*
%TO.C,D104*%
X104570000Y-99130000D02*
X104570000Y-102070000D01*
X104810000Y-99130000D02*
X104810000Y-102070000D01*
X104690000Y-99130000D02*
X104690000Y-102070000D01*
X109230000Y-102070000D02*
X109230000Y-101940000D01*
X103790000Y-102070000D02*
X109230000Y-102070000D01*
X103790000Y-101940000D02*
X103790000Y-102070000D01*
X109230000Y-99130000D02*
X109230000Y-99260000D01*
X103790000Y-99130000D02*
X109230000Y-99130000D01*
X103790000Y-99260000D02*
X103790000Y-99130000D01*
%TO.C,D103*%
X109230000Y-72070000D02*
X109230000Y-69130000D01*
X108990000Y-72070000D02*
X108990000Y-69130000D01*
X109110000Y-72070000D02*
X109110000Y-69130000D01*
X104570000Y-69130000D02*
X104570000Y-69260000D01*
X110010000Y-69130000D02*
X104570000Y-69130000D01*
X110010000Y-69260000D02*
X110010000Y-69130000D01*
X104570000Y-72070000D02*
X104570000Y-71940000D01*
X110010000Y-72070000D02*
X104570000Y-72070000D01*
X110010000Y-71940000D02*
X110010000Y-72070000D01*
%TO.C,D102*%
X92570000Y-99230000D02*
X92570000Y-102170000D01*
X92810000Y-99230000D02*
X92810000Y-102170000D01*
X92690000Y-99230000D02*
X92690000Y-102170000D01*
X97230000Y-102170000D02*
X97230000Y-102040000D01*
X91790000Y-102170000D02*
X97230000Y-102170000D01*
X91790000Y-102040000D02*
X91790000Y-102170000D01*
X97230000Y-99230000D02*
X97230000Y-99360000D01*
X91790000Y-99230000D02*
X97230000Y-99230000D01*
X91790000Y-99360000D02*
X91790000Y-99230000D01*
%TO.C,D101*%
X97330000Y-72270000D02*
X97330000Y-69330000D01*
X97090000Y-72270000D02*
X97090000Y-69330000D01*
X97210000Y-72270000D02*
X97210000Y-69330000D01*
X92670000Y-69330000D02*
X92670000Y-69460000D01*
X98110000Y-69330000D02*
X92670000Y-69330000D01*
X98110000Y-69460000D02*
X98110000Y-69330000D01*
X92670000Y-72270000D02*
X92670000Y-72140000D01*
X98110000Y-72270000D02*
X92670000Y-72270000D01*
X98110000Y-72140000D02*
X98110000Y-72270000D01*
%TO.C,C110*%
X116325000Y-86895225D02*
X115825000Y-86895225D01*
X116075000Y-86645225D02*
X116075000Y-87145225D01*
X114884000Y-92051000D02*
X114316000Y-92051000D01*
X115118000Y-92011000D02*
X114082000Y-92011000D01*
X115277000Y-91971000D02*
X113923000Y-91971000D01*
X115405000Y-91931000D02*
X113795000Y-91931000D01*
X115515000Y-91891000D02*
X113685000Y-91891000D01*
X115611000Y-91851000D02*
X113589000Y-91851000D01*
X115698000Y-91811000D02*
X113502000Y-91811000D01*
X115778000Y-91771000D02*
X113422000Y-91771000D01*
X113560000Y-91731000D02*
X113349000Y-91731000D01*
X115851000Y-91731000D02*
X115640000Y-91731000D01*
X113560000Y-91691000D02*
X113281000Y-91691000D01*
X115919000Y-91691000D02*
X115640000Y-91691000D01*
X113560000Y-91651000D02*
X113217000Y-91651000D01*
X115983000Y-91651000D02*
X115640000Y-91651000D01*
X113560000Y-91611000D02*
X113157000Y-91611000D01*
X116043000Y-91611000D02*
X115640000Y-91611000D01*
X113560000Y-91571000D02*
X113100000Y-91571000D01*
X116100000Y-91571000D02*
X115640000Y-91571000D01*
X113560000Y-91531000D02*
X113046000Y-91531000D01*
X116154000Y-91531000D02*
X115640000Y-91531000D01*
X113560000Y-91491000D02*
X112995000Y-91491000D01*
X116205000Y-91491000D02*
X115640000Y-91491000D01*
X113560000Y-91451000D02*
X112947000Y-91451000D01*
X116253000Y-91451000D02*
X115640000Y-91451000D01*
X113560000Y-91411000D02*
X112901000Y-91411000D01*
X116299000Y-91411000D02*
X115640000Y-91411000D01*
X113560000Y-91371000D02*
X112857000Y-91371000D01*
X116343000Y-91371000D02*
X115640000Y-91371000D01*
X113560000Y-91331000D02*
X112815000Y-91331000D01*
X116385000Y-91331000D02*
X115640000Y-91331000D01*
X113560000Y-91291000D02*
X112774000Y-91291000D01*
X116426000Y-91291000D02*
X115640000Y-91291000D01*
X113560000Y-91251000D02*
X112736000Y-91251000D01*
X116464000Y-91251000D02*
X115640000Y-91251000D01*
X113560000Y-91211000D02*
X112699000Y-91211000D01*
X116501000Y-91211000D02*
X115640000Y-91211000D01*
X113560000Y-91171000D02*
X112663000Y-91171000D01*
X116537000Y-91171000D02*
X115640000Y-91171000D01*
X113560000Y-91131000D02*
X112629000Y-91131000D01*
X116571000Y-91131000D02*
X115640000Y-91131000D01*
X113560000Y-91091000D02*
X112596000Y-91091000D01*
X116604000Y-91091000D02*
X115640000Y-91091000D01*
X113560000Y-91051000D02*
X112565000Y-91051000D01*
X116635000Y-91051000D02*
X115640000Y-91051000D01*
X113560000Y-91011000D02*
X112535000Y-91011000D01*
X116665000Y-91011000D02*
X115640000Y-91011000D01*
X113560000Y-90971000D02*
X112505000Y-90971000D01*
X116695000Y-90971000D02*
X115640000Y-90971000D01*
X113560000Y-90931000D02*
X112478000Y-90931000D01*
X116722000Y-90931000D02*
X115640000Y-90931000D01*
X113560000Y-90891000D02*
X112451000Y-90891000D01*
X116749000Y-90891000D02*
X115640000Y-90891000D01*
X113560000Y-90851000D02*
X112425000Y-90851000D01*
X116775000Y-90851000D02*
X115640000Y-90851000D01*
X113560000Y-90811000D02*
X112400000Y-90811000D01*
X116800000Y-90811000D02*
X115640000Y-90811000D01*
X113560000Y-90771000D02*
X112376000Y-90771000D01*
X116824000Y-90771000D02*
X115640000Y-90771000D01*
X113560000Y-90731000D02*
X112353000Y-90731000D01*
X116847000Y-90731000D02*
X115640000Y-90731000D01*
X113560000Y-90691000D02*
X112332000Y-90691000D01*
X116868000Y-90691000D02*
X115640000Y-90691000D01*
X113560000Y-90651000D02*
X112310000Y-90651000D01*
X116890000Y-90651000D02*
X115640000Y-90651000D01*
X113560000Y-90611000D02*
X112290000Y-90611000D01*
X116910000Y-90611000D02*
X115640000Y-90611000D01*
X113560000Y-90571000D02*
X112271000Y-90571000D01*
X116929000Y-90571000D02*
X115640000Y-90571000D01*
X113560000Y-90531000D02*
X112252000Y-90531000D01*
X116948000Y-90531000D02*
X115640000Y-90531000D01*
X113560000Y-90491000D02*
X112235000Y-90491000D01*
X116965000Y-90491000D02*
X115640000Y-90491000D01*
X113560000Y-90451000D02*
X112218000Y-90451000D01*
X116982000Y-90451000D02*
X115640000Y-90451000D01*
X113560000Y-90411000D02*
X112202000Y-90411000D01*
X116998000Y-90411000D02*
X115640000Y-90411000D01*
X113560000Y-90371000D02*
X112186000Y-90371000D01*
X117014000Y-90371000D02*
X115640000Y-90371000D01*
X113560000Y-90331000D02*
X112172000Y-90331000D01*
X117028000Y-90331000D02*
X115640000Y-90331000D01*
X113560000Y-90291000D02*
X112158000Y-90291000D01*
X117042000Y-90291000D02*
X115640000Y-90291000D01*
X113560000Y-90251000D02*
X112145000Y-90251000D01*
X117055000Y-90251000D02*
X115640000Y-90251000D01*
X113560000Y-90211000D02*
X112132000Y-90211000D01*
X117068000Y-90211000D02*
X115640000Y-90211000D01*
X113560000Y-90171000D02*
X112120000Y-90171000D01*
X117080000Y-90171000D02*
X115640000Y-90171000D01*
X113560000Y-90130000D02*
X112109000Y-90130000D01*
X117091000Y-90130000D02*
X115640000Y-90130000D01*
X113560000Y-90090000D02*
X112099000Y-90090000D01*
X117101000Y-90090000D02*
X115640000Y-90090000D01*
X113560000Y-90050000D02*
X112089000Y-90050000D01*
X117111000Y-90050000D02*
X115640000Y-90050000D01*
X113560000Y-90010000D02*
X112080000Y-90010000D01*
X117120000Y-90010000D02*
X115640000Y-90010000D01*
X113560000Y-89970000D02*
X112072000Y-89970000D01*
X117128000Y-89970000D02*
X115640000Y-89970000D01*
X113560000Y-89930000D02*
X112064000Y-89930000D01*
X117136000Y-89930000D02*
X115640000Y-89930000D01*
X113560000Y-89890000D02*
X112057000Y-89890000D01*
X117143000Y-89890000D02*
X115640000Y-89890000D01*
X113560000Y-89850000D02*
X112050000Y-89850000D01*
X117150000Y-89850000D02*
X115640000Y-89850000D01*
X113560000Y-89810000D02*
X112044000Y-89810000D01*
X117156000Y-89810000D02*
X115640000Y-89810000D01*
X113560000Y-89770000D02*
X112039000Y-89770000D01*
X117161000Y-89770000D02*
X115640000Y-89770000D01*
X113560000Y-89730000D02*
X112035000Y-89730000D01*
X117165000Y-89730000D02*
X115640000Y-89730000D01*
X113560000Y-89690000D02*
X112031000Y-89690000D01*
X117169000Y-89690000D02*
X115640000Y-89690000D01*
X117173000Y-89650000D02*
X112027000Y-89650000D01*
X117176000Y-89610000D02*
X112024000Y-89610000D01*
X117178000Y-89570000D02*
X112022000Y-89570000D01*
X117179000Y-89530000D02*
X112021000Y-89530000D01*
X117180000Y-89490000D02*
X112020000Y-89490000D01*
X117180000Y-89450000D02*
X112020000Y-89450000D01*
X117220000Y-89450000D02*
G75*
G03*
X117220000Y-89450000I-2620000J0D01*
G01*
%TO.C,C109*%
X116425000Y-72495225D02*
X115925000Y-72495225D01*
X116175000Y-72245225D02*
X116175000Y-72745225D01*
X114984000Y-77651000D02*
X114416000Y-77651000D01*
X115218000Y-77611000D02*
X114182000Y-77611000D01*
X115377000Y-77571000D02*
X114023000Y-77571000D01*
X115505000Y-77531000D02*
X113895000Y-77531000D01*
X115615000Y-77491000D02*
X113785000Y-77491000D01*
X115711000Y-77451000D02*
X113689000Y-77451000D01*
X115798000Y-77411000D02*
X113602000Y-77411000D01*
X115878000Y-77371000D02*
X113522000Y-77371000D01*
X113660000Y-77331000D02*
X113449000Y-77331000D01*
X115951000Y-77331000D02*
X115740000Y-77331000D01*
X113660000Y-77291000D02*
X113381000Y-77291000D01*
X116019000Y-77291000D02*
X115740000Y-77291000D01*
X113660000Y-77251000D02*
X113317000Y-77251000D01*
X116083000Y-77251000D02*
X115740000Y-77251000D01*
X113660000Y-77211000D02*
X113257000Y-77211000D01*
X116143000Y-77211000D02*
X115740000Y-77211000D01*
X113660000Y-77171000D02*
X113200000Y-77171000D01*
X116200000Y-77171000D02*
X115740000Y-77171000D01*
X113660000Y-77131000D02*
X113146000Y-77131000D01*
X116254000Y-77131000D02*
X115740000Y-77131000D01*
X113660000Y-77091000D02*
X113095000Y-77091000D01*
X116305000Y-77091000D02*
X115740000Y-77091000D01*
X113660000Y-77051000D02*
X113047000Y-77051000D01*
X116353000Y-77051000D02*
X115740000Y-77051000D01*
X113660000Y-77011000D02*
X113001000Y-77011000D01*
X116399000Y-77011000D02*
X115740000Y-77011000D01*
X113660000Y-76971000D02*
X112957000Y-76971000D01*
X116443000Y-76971000D02*
X115740000Y-76971000D01*
X113660000Y-76931000D02*
X112915000Y-76931000D01*
X116485000Y-76931000D02*
X115740000Y-76931000D01*
X113660000Y-76891000D02*
X112874000Y-76891000D01*
X116526000Y-76891000D02*
X115740000Y-76891000D01*
X113660000Y-76851000D02*
X112836000Y-76851000D01*
X116564000Y-76851000D02*
X115740000Y-76851000D01*
X113660000Y-76811000D02*
X112799000Y-76811000D01*
X116601000Y-76811000D02*
X115740000Y-76811000D01*
X113660000Y-76771000D02*
X112763000Y-76771000D01*
X116637000Y-76771000D02*
X115740000Y-76771000D01*
X113660000Y-76731000D02*
X112729000Y-76731000D01*
X116671000Y-76731000D02*
X115740000Y-76731000D01*
X113660000Y-76691000D02*
X112696000Y-76691000D01*
X116704000Y-76691000D02*
X115740000Y-76691000D01*
X113660000Y-76651000D02*
X112665000Y-76651000D01*
X116735000Y-76651000D02*
X115740000Y-76651000D01*
X113660000Y-76611000D02*
X112635000Y-76611000D01*
X116765000Y-76611000D02*
X115740000Y-76611000D01*
X113660000Y-76571000D02*
X112605000Y-76571000D01*
X116795000Y-76571000D02*
X115740000Y-76571000D01*
X113660000Y-76531000D02*
X112578000Y-76531000D01*
X116822000Y-76531000D02*
X115740000Y-76531000D01*
X113660000Y-76491000D02*
X112551000Y-76491000D01*
X116849000Y-76491000D02*
X115740000Y-76491000D01*
X113660000Y-76451000D02*
X112525000Y-76451000D01*
X116875000Y-76451000D02*
X115740000Y-76451000D01*
X113660000Y-76411000D02*
X112500000Y-76411000D01*
X116900000Y-76411000D02*
X115740000Y-76411000D01*
X113660000Y-76371000D02*
X112476000Y-76371000D01*
X116924000Y-76371000D02*
X115740000Y-76371000D01*
X113660000Y-76331000D02*
X112453000Y-76331000D01*
X116947000Y-76331000D02*
X115740000Y-76331000D01*
X113660000Y-76291000D02*
X112432000Y-76291000D01*
X116968000Y-76291000D02*
X115740000Y-76291000D01*
X113660000Y-76251000D02*
X112410000Y-76251000D01*
X116990000Y-76251000D02*
X115740000Y-76251000D01*
X113660000Y-76211000D02*
X112390000Y-76211000D01*
X117010000Y-76211000D02*
X115740000Y-76211000D01*
X113660000Y-76171000D02*
X112371000Y-76171000D01*
X117029000Y-76171000D02*
X115740000Y-76171000D01*
X113660000Y-76131000D02*
X112352000Y-76131000D01*
X117048000Y-76131000D02*
X115740000Y-76131000D01*
X113660000Y-76091000D02*
X112335000Y-76091000D01*
X117065000Y-76091000D02*
X115740000Y-76091000D01*
X113660000Y-76051000D02*
X112318000Y-76051000D01*
X117082000Y-76051000D02*
X115740000Y-76051000D01*
X113660000Y-76011000D02*
X112302000Y-76011000D01*
X117098000Y-76011000D02*
X115740000Y-76011000D01*
X113660000Y-75971000D02*
X112286000Y-75971000D01*
X117114000Y-75971000D02*
X115740000Y-75971000D01*
X113660000Y-75931000D02*
X112272000Y-75931000D01*
X117128000Y-75931000D02*
X115740000Y-75931000D01*
X113660000Y-75891000D02*
X112258000Y-75891000D01*
X117142000Y-75891000D02*
X115740000Y-75891000D01*
X113660000Y-75851000D02*
X112245000Y-75851000D01*
X117155000Y-75851000D02*
X115740000Y-75851000D01*
X113660000Y-75811000D02*
X112232000Y-75811000D01*
X117168000Y-75811000D02*
X115740000Y-75811000D01*
X113660000Y-75771000D02*
X112220000Y-75771000D01*
X117180000Y-75771000D02*
X115740000Y-75771000D01*
X113660000Y-75730000D02*
X112209000Y-75730000D01*
X117191000Y-75730000D02*
X115740000Y-75730000D01*
X113660000Y-75690000D02*
X112199000Y-75690000D01*
X117201000Y-75690000D02*
X115740000Y-75690000D01*
X113660000Y-75650000D02*
X112189000Y-75650000D01*
X117211000Y-75650000D02*
X115740000Y-75650000D01*
X113660000Y-75610000D02*
X112180000Y-75610000D01*
X117220000Y-75610000D02*
X115740000Y-75610000D01*
X113660000Y-75570000D02*
X112172000Y-75570000D01*
X117228000Y-75570000D02*
X115740000Y-75570000D01*
X113660000Y-75530000D02*
X112164000Y-75530000D01*
X117236000Y-75530000D02*
X115740000Y-75530000D01*
X113660000Y-75490000D02*
X112157000Y-75490000D01*
X117243000Y-75490000D02*
X115740000Y-75490000D01*
X113660000Y-75450000D02*
X112150000Y-75450000D01*
X117250000Y-75450000D02*
X115740000Y-75450000D01*
X113660000Y-75410000D02*
X112144000Y-75410000D01*
X117256000Y-75410000D02*
X115740000Y-75410000D01*
X113660000Y-75370000D02*
X112139000Y-75370000D01*
X117261000Y-75370000D02*
X115740000Y-75370000D01*
X113660000Y-75330000D02*
X112135000Y-75330000D01*
X117265000Y-75330000D02*
X115740000Y-75330000D01*
X113660000Y-75290000D02*
X112131000Y-75290000D01*
X117269000Y-75290000D02*
X115740000Y-75290000D01*
X117273000Y-75250000D02*
X112127000Y-75250000D01*
X117276000Y-75210000D02*
X112124000Y-75210000D01*
X117278000Y-75170000D02*
X112122000Y-75170000D01*
X117279000Y-75130000D02*
X112121000Y-75130000D01*
X117280000Y-75090000D02*
X112120000Y-75090000D01*
X117280000Y-75050000D02*
X112120000Y-75050000D01*
X117320000Y-75050000D02*
G75*
G03*
X117320000Y-75050000I-2620000J0D01*
G01*
%TO.C,C108*%
X116725000Y-93295225D02*
X116225000Y-93295225D01*
X116475000Y-93045225D02*
X116475000Y-93545225D01*
X115284000Y-98451000D02*
X114716000Y-98451000D01*
X115518000Y-98411000D02*
X114482000Y-98411000D01*
X115677000Y-98371000D02*
X114323000Y-98371000D01*
X115805000Y-98331000D02*
X114195000Y-98331000D01*
X115915000Y-98291000D02*
X114085000Y-98291000D01*
X116011000Y-98251000D02*
X113989000Y-98251000D01*
X116098000Y-98211000D02*
X113902000Y-98211000D01*
X116178000Y-98171000D02*
X113822000Y-98171000D01*
X113960000Y-98131000D02*
X113749000Y-98131000D01*
X116251000Y-98131000D02*
X116040000Y-98131000D01*
X113960000Y-98091000D02*
X113681000Y-98091000D01*
X116319000Y-98091000D02*
X116040000Y-98091000D01*
X113960000Y-98051000D02*
X113617000Y-98051000D01*
X116383000Y-98051000D02*
X116040000Y-98051000D01*
X113960000Y-98011000D02*
X113557000Y-98011000D01*
X116443000Y-98011000D02*
X116040000Y-98011000D01*
X113960000Y-97971000D02*
X113500000Y-97971000D01*
X116500000Y-97971000D02*
X116040000Y-97971000D01*
X113960000Y-97931000D02*
X113446000Y-97931000D01*
X116554000Y-97931000D02*
X116040000Y-97931000D01*
X113960000Y-97891000D02*
X113395000Y-97891000D01*
X116605000Y-97891000D02*
X116040000Y-97891000D01*
X113960000Y-97851000D02*
X113347000Y-97851000D01*
X116653000Y-97851000D02*
X116040000Y-97851000D01*
X113960000Y-97811000D02*
X113301000Y-97811000D01*
X116699000Y-97811000D02*
X116040000Y-97811000D01*
X113960000Y-97771000D02*
X113257000Y-97771000D01*
X116743000Y-97771000D02*
X116040000Y-97771000D01*
X113960000Y-97731000D02*
X113215000Y-97731000D01*
X116785000Y-97731000D02*
X116040000Y-97731000D01*
X113960000Y-97691000D02*
X113174000Y-97691000D01*
X116826000Y-97691000D02*
X116040000Y-97691000D01*
X113960000Y-97651000D02*
X113136000Y-97651000D01*
X116864000Y-97651000D02*
X116040000Y-97651000D01*
X113960000Y-97611000D02*
X113099000Y-97611000D01*
X116901000Y-97611000D02*
X116040000Y-97611000D01*
X113960000Y-97571000D02*
X113063000Y-97571000D01*
X116937000Y-97571000D02*
X116040000Y-97571000D01*
X113960000Y-97531000D02*
X113029000Y-97531000D01*
X116971000Y-97531000D02*
X116040000Y-97531000D01*
X113960000Y-97491000D02*
X112996000Y-97491000D01*
X117004000Y-97491000D02*
X116040000Y-97491000D01*
X113960000Y-97451000D02*
X112965000Y-97451000D01*
X117035000Y-97451000D02*
X116040000Y-97451000D01*
X113960000Y-97411000D02*
X112935000Y-97411000D01*
X117065000Y-97411000D02*
X116040000Y-97411000D01*
X113960000Y-97371000D02*
X112905000Y-97371000D01*
X117095000Y-97371000D02*
X116040000Y-97371000D01*
X113960000Y-97331000D02*
X112878000Y-97331000D01*
X117122000Y-97331000D02*
X116040000Y-97331000D01*
X113960000Y-97291000D02*
X112851000Y-97291000D01*
X117149000Y-97291000D02*
X116040000Y-97291000D01*
X113960000Y-97251000D02*
X112825000Y-97251000D01*
X117175000Y-97251000D02*
X116040000Y-97251000D01*
X113960000Y-97211000D02*
X112800000Y-97211000D01*
X117200000Y-97211000D02*
X116040000Y-97211000D01*
X113960000Y-97171000D02*
X112776000Y-97171000D01*
X117224000Y-97171000D02*
X116040000Y-97171000D01*
X113960000Y-97131000D02*
X112753000Y-97131000D01*
X117247000Y-97131000D02*
X116040000Y-97131000D01*
X113960000Y-97091000D02*
X112732000Y-97091000D01*
X117268000Y-97091000D02*
X116040000Y-97091000D01*
X113960000Y-97051000D02*
X112710000Y-97051000D01*
X117290000Y-97051000D02*
X116040000Y-97051000D01*
X113960000Y-97011000D02*
X112690000Y-97011000D01*
X117310000Y-97011000D02*
X116040000Y-97011000D01*
X113960000Y-96971000D02*
X112671000Y-96971000D01*
X117329000Y-96971000D02*
X116040000Y-96971000D01*
X113960000Y-96931000D02*
X112652000Y-96931000D01*
X117348000Y-96931000D02*
X116040000Y-96931000D01*
X113960000Y-96891000D02*
X112635000Y-96891000D01*
X117365000Y-96891000D02*
X116040000Y-96891000D01*
X113960000Y-96851000D02*
X112618000Y-96851000D01*
X117382000Y-96851000D02*
X116040000Y-96851000D01*
X113960000Y-96811000D02*
X112602000Y-96811000D01*
X117398000Y-96811000D02*
X116040000Y-96811000D01*
X113960000Y-96771000D02*
X112586000Y-96771000D01*
X117414000Y-96771000D02*
X116040000Y-96771000D01*
X113960000Y-96731000D02*
X112572000Y-96731000D01*
X117428000Y-96731000D02*
X116040000Y-96731000D01*
X113960000Y-96691000D02*
X112558000Y-96691000D01*
X117442000Y-96691000D02*
X116040000Y-96691000D01*
X113960000Y-96651000D02*
X112545000Y-96651000D01*
X117455000Y-96651000D02*
X116040000Y-96651000D01*
X113960000Y-96611000D02*
X112532000Y-96611000D01*
X117468000Y-96611000D02*
X116040000Y-96611000D01*
X113960000Y-96571000D02*
X112520000Y-96571000D01*
X117480000Y-96571000D02*
X116040000Y-96571000D01*
X113960000Y-96530000D02*
X112509000Y-96530000D01*
X117491000Y-96530000D02*
X116040000Y-96530000D01*
X113960000Y-96490000D02*
X112499000Y-96490000D01*
X117501000Y-96490000D02*
X116040000Y-96490000D01*
X113960000Y-96450000D02*
X112489000Y-96450000D01*
X117511000Y-96450000D02*
X116040000Y-96450000D01*
X113960000Y-96410000D02*
X112480000Y-96410000D01*
X117520000Y-96410000D02*
X116040000Y-96410000D01*
X113960000Y-96370000D02*
X112472000Y-96370000D01*
X117528000Y-96370000D02*
X116040000Y-96370000D01*
X113960000Y-96330000D02*
X112464000Y-96330000D01*
X117536000Y-96330000D02*
X116040000Y-96330000D01*
X113960000Y-96290000D02*
X112457000Y-96290000D01*
X117543000Y-96290000D02*
X116040000Y-96290000D01*
X113960000Y-96250000D02*
X112450000Y-96250000D01*
X117550000Y-96250000D02*
X116040000Y-96250000D01*
X113960000Y-96210000D02*
X112444000Y-96210000D01*
X117556000Y-96210000D02*
X116040000Y-96210000D01*
X113960000Y-96170000D02*
X112439000Y-96170000D01*
X117561000Y-96170000D02*
X116040000Y-96170000D01*
X113960000Y-96130000D02*
X112435000Y-96130000D01*
X117565000Y-96130000D02*
X116040000Y-96130000D01*
X113960000Y-96090000D02*
X112431000Y-96090000D01*
X117569000Y-96090000D02*
X116040000Y-96090000D01*
X117573000Y-96050000D02*
X112427000Y-96050000D01*
X117576000Y-96010000D02*
X112424000Y-96010000D01*
X117578000Y-95970000D02*
X112422000Y-95970000D01*
X117579000Y-95930000D02*
X112421000Y-95930000D01*
X117580000Y-95890000D02*
X112420000Y-95890000D01*
X117580000Y-95850000D02*
X112420000Y-95850000D01*
X117620000Y-95850000D02*
G75*
G03*
X117620000Y-95850000I-2620000J0D01*
G01*
%TO.C,C107*%
X116225000Y-78695225D02*
X115725000Y-78695225D01*
X115975000Y-78445225D02*
X115975000Y-78945225D01*
X114784000Y-83851000D02*
X114216000Y-83851000D01*
X115018000Y-83811000D02*
X113982000Y-83811000D01*
X115177000Y-83771000D02*
X113823000Y-83771000D01*
X115305000Y-83731000D02*
X113695000Y-83731000D01*
X115415000Y-83691000D02*
X113585000Y-83691000D01*
X115511000Y-83651000D02*
X113489000Y-83651000D01*
X115598000Y-83611000D02*
X113402000Y-83611000D01*
X115678000Y-83571000D02*
X113322000Y-83571000D01*
X113460000Y-83531000D02*
X113249000Y-83531000D01*
X115751000Y-83531000D02*
X115540000Y-83531000D01*
X113460000Y-83491000D02*
X113181000Y-83491000D01*
X115819000Y-83491000D02*
X115540000Y-83491000D01*
X113460000Y-83451000D02*
X113117000Y-83451000D01*
X115883000Y-83451000D02*
X115540000Y-83451000D01*
X113460000Y-83411000D02*
X113057000Y-83411000D01*
X115943000Y-83411000D02*
X115540000Y-83411000D01*
X113460000Y-83371000D02*
X113000000Y-83371000D01*
X116000000Y-83371000D02*
X115540000Y-83371000D01*
X113460000Y-83331000D02*
X112946000Y-83331000D01*
X116054000Y-83331000D02*
X115540000Y-83331000D01*
X113460000Y-83291000D02*
X112895000Y-83291000D01*
X116105000Y-83291000D02*
X115540000Y-83291000D01*
X113460000Y-83251000D02*
X112847000Y-83251000D01*
X116153000Y-83251000D02*
X115540000Y-83251000D01*
X113460000Y-83211000D02*
X112801000Y-83211000D01*
X116199000Y-83211000D02*
X115540000Y-83211000D01*
X113460000Y-83171000D02*
X112757000Y-83171000D01*
X116243000Y-83171000D02*
X115540000Y-83171000D01*
X113460000Y-83131000D02*
X112715000Y-83131000D01*
X116285000Y-83131000D02*
X115540000Y-83131000D01*
X113460000Y-83091000D02*
X112674000Y-83091000D01*
X116326000Y-83091000D02*
X115540000Y-83091000D01*
X113460000Y-83051000D02*
X112636000Y-83051000D01*
X116364000Y-83051000D02*
X115540000Y-83051000D01*
X113460000Y-83011000D02*
X112599000Y-83011000D01*
X116401000Y-83011000D02*
X115540000Y-83011000D01*
X113460000Y-82971000D02*
X112563000Y-82971000D01*
X116437000Y-82971000D02*
X115540000Y-82971000D01*
X113460000Y-82931000D02*
X112529000Y-82931000D01*
X116471000Y-82931000D02*
X115540000Y-82931000D01*
X113460000Y-82891000D02*
X112496000Y-82891000D01*
X116504000Y-82891000D02*
X115540000Y-82891000D01*
X113460000Y-82851000D02*
X112465000Y-82851000D01*
X116535000Y-82851000D02*
X115540000Y-82851000D01*
X113460000Y-82811000D02*
X112435000Y-82811000D01*
X116565000Y-82811000D02*
X115540000Y-82811000D01*
X113460000Y-82771000D02*
X112405000Y-82771000D01*
X116595000Y-82771000D02*
X115540000Y-82771000D01*
X113460000Y-82731000D02*
X112378000Y-82731000D01*
X116622000Y-82731000D02*
X115540000Y-82731000D01*
X113460000Y-82691000D02*
X112351000Y-82691000D01*
X116649000Y-82691000D02*
X115540000Y-82691000D01*
X113460000Y-82651000D02*
X112325000Y-82651000D01*
X116675000Y-82651000D02*
X115540000Y-82651000D01*
X113460000Y-82611000D02*
X112300000Y-82611000D01*
X116700000Y-82611000D02*
X115540000Y-82611000D01*
X113460000Y-82571000D02*
X112276000Y-82571000D01*
X116724000Y-82571000D02*
X115540000Y-82571000D01*
X113460000Y-82531000D02*
X112253000Y-82531000D01*
X116747000Y-82531000D02*
X115540000Y-82531000D01*
X113460000Y-82491000D02*
X112232000Y-82491000D01*
X116768000Y-82491000D02*
X115540000Y-82491000D01*
X113460000Y-82451000D02*
X112210000Y-82451000D01*
X116790000Y-82451000D02*
X115540000Y-82451000D01*
X113460000Y-82411000D02*
X112190000Y-82411000D01*
X116810000Y-82411000D02*
X115540000Y-82411000D01*
X113460000Y-82371000D02*
X112171000Y-82371000D01*
X116829000Y-82371000D02*
X115540000Y-82371000D01*
X113460000Y-82331000D02*
X112152000Y-82331000D01*
X116848000Y-82331000D02*
X115540000Y-82331000D01*
X113460000Y-82291000D02*
X112135000Y-82291000D01*
X116865000Y-82291000D02*
X115540000Y-82291000D01*
X113460000Y-82251000D02*
X112118000Y-82251000D01*
X116882000Y-82251000D02*
X115540000Y-82251000D01*
X113460000Y-82211000D02*
X112102000Y-82211000D01*
X116898000Y-82211000D02*
X115540000Y-82211000D01*
X113460000Y-82171000D02*
X112086000Y-82171000D01*
X116914000Y-82171000D02*
X115540000Y-82171000D01*
X113460000Y-82131000D02*
X112072000Y-82131000D01*
X116928000Y-82131000D02*
X115540000Y-82131000D01*
X113460000Y-82091000D02*
X112058000Y-82091000D01*
X116942000Y-82091000D02*
X115540000Y-82091000D01*
X113460000Y-82051000D02*
X112045000Y-82051000D01*
X116955000Y-82051000D02*
X115540000Y-82051000D01*
X113460000Y-82011000D02*
X112032000Y-82011000D01*
X116968000Y-82011000D02*
X115540000Y-82011000D01*
X113460000Y-81971000D02*
X112020000Y-81971000D01*
X116980000Y-81971000D02*
X115540000Y-81971000D01*
X113460000Y-81930000D02*
X112009000Y-81930000D01*
X116991000Y-81930000D02*
X115540000Y-81930000D01*
X113460000Y-81890000D02*
X111999000Y-81890000D01*
X117001000Y-81890000D02*
X115540000Y-81890000D01*
X113460000Y-81850000D02*
X111989000Y-81850000D01*
X117011000Y-81850000D02*
X115540000Y-81850000D01*
X113460000Y-81810000D02*
X111980000Y-81810000D01*
X117020000Y-81810000D02*
X115540000Y-81810000D01*
X113460000Y-81770000D02*
X111972000Y-81770000D01*
X117028000Y-81770000D02*
X115540000Y-81770000D01*
X113460000Y-81730000D02*
X111964000Y-81730000D01*
X117036000Y-81730000D02*
X115540000Y-81730000D01*
X113460000Y-81690000D02*
X111957000Y-81690000D01*
X117043000Y-81690000D02*
X115540000Y-81690000D01*
X113460000Y-81650000D02*
X111950000Y-81650000D01*
X117050000Y-81650000D02*
X115540000Y-81650000D01*
X113460000Y-81610000D02*
X111944000Y-81610000D01*
X117056000Y-81610000D02*
X115540000Y-81610000D01*
X113460000Y-81570000D02*
X111939000Y-81570000D01*
X117061000Y-81570000D02*
X115540000Y-81570000D01*
X113460000Y-81530000D02*
X111935000Y-81530000D01*
X117065000Y-81530000D02*
X115540000Y-81530000D01*
X113460000Y-81490000D02*
X111931000Y-81490000D01*
X117069000Y-81490000D02*
X115540000Y-81490000D01*
X117073000Y-81450000D02*
X111927000Y-81450000D01*
X117076000Y-81410000D02*
X111924000Y-81410000D01*
X117078000Y-81370000D02*
X111922000Y-81370000D01*
X117079000Y-81330000D02*
X111921000Y-81330000D01*
X117080000Y-81290000D02*
X111920000Y-81290000D01*
X117080000Y-81250000D02*
X111920000Y-81250000D01*
X117120000Y-81250000D02*
G75*
G03*
X117120000Y-81250000I-2620000J0D01*
G01*
%TO.C,C106*%
X177855000Y-86560509D02*
X176255000Y-86560509D01*
X177055000Y-85760509D02*
X177055000Y-87360509D01*
X173265000Y-102531000D02*
X171735000Y-102531000D01*
X173598000Y-102491000D02*
X171402000Y-102491000D01*
X173851000Y-102451000D02*
X171149000Y-102451000D01*
X174064000Y-102411000D02*
X170936000Y-102411000D01*
X174252000Y-102371000D02*
X170748000Y-102371000D01*
X174420000Y-102331000D02*
X170580000Y-102331000D01*
X174574000Y-102291000D02*
X170426000Y-102291000D01*
X174718000Y-102251000D02*
X170282000Y-102251000D01*
X174851000Y-102211000D02*
X170149000Y-102211000D01*
X174978000Y-102171000D02*
X170022000Y-102171000D01*
X175097000Y-102131000D02*
X169903000Y-102131000D01*
X175211000Y-102091000D02*
X169789000Y-102091000D01*
X175320000Y-102051000D02*
X169680000Y-102051000D01*
X175424000Y-102011000D02*
X169576000Y-102011000D01*
X175524000Y-101971000D02*
X169476000Y-101971000D01*
X175620000Y-101931000D02*
X169380000Y-101931000D01*
X175713000Y-101891000D02*
X169287000Y-101891000D01*
X175803000Y-101851000D02*
X169197000Y-101851000D01*
X175890000Y-101811000D02*
X169110000Y-101811000D01*
X175975000Y-101771000D02*
X169025000Y-101771000D01*
X176057000Y-101731000D02*
X168943000Y-101731000D01*
X176137000Y-101691000D02*
X168863000Y-101691000D01*
X176215000Y-101651000D02*
X168785000Y-101651000D01*
X176290000Y-101611000D02*
X168710000Y-101611000D01*
X176364000Y-101571000D02*
X168636000Y-101571000D01*
X176436000Y-101531000D02*
X168564000Y-101531000D01*
X176507000Y-101491000D02*
X168493000Y-101491000D01*
X176576000Y-101451000D02*
X168424000Y-101451000D01*
X176643000Y-101411000D02*
X168357000Y-101411000D01*
X176709000Y-101371000D02*
X168291000Y-101371000D01*
X176773000Y-101331000D02*
X168227000Y-101331000D01*
X176836000Y-101291000D02*
X168164000Y-101291000D01*
X176898000Y-101251000D02*
X168102000Y-101251000D01*
X176959000Y-101211000D02*
X168041000Y-101211000D01*
X177019000Y-101171000D02*
X167981000Y-101171000D01*
X177077000Y-101131000D02*
X167923000Y-101131000D01*
X177134000Y-101091000D02*
X167866000Y-101091000D01*
X177191000Y-101051000D02*
X167809000Y-101051000D01*
X177246000Y-101011000D02*
X167754000Y-101011000D01*
X177300000Y-100971000D02*
X167700000Y-100971000D01*
X177354000Y-100931000D02*
X167646000Y-100931000D01*
X177406000Y-100891000D02*
X167594000Y-100891000D01*
X177458000Y-100851000D02*
X167542000Y-100851000D01*
X177509000Y-100811000D02*
X167491000Y-100811000D01*
X177559000Y-100771000D02*
X167441000Y-100771000D01*
X177608000Y-100731000D02*
X167392000Y-100731000D01*
X177656000Y-100691000D02*
X167344000Y-100691000D01*
X177704000Y-100651000D02*
X167296000Y-100651000D01*
X177751000Y-100611000D02*
X167249000Y-100611000D01*
X177797000Y-100571000D02*
X167203000Y-100571000D01*
X177843000Y-100531000D02*
X167157000Y-100531000D01*
X177888000Y-100491000D02*
X167112000Y-100491000D01*
X177932000Y-100451000D02*
X167068000Y-100451000D01*
X177975000Y-100411000D02*
X167025000Y-100411000D01*
X178018000Y-100371000D02*
X166982000Y-100371000D01*
X178060000Y-100331000D02*
X166940000Y-100331000D01*
X178102000Y-100291000D02*
X166898000Y-100291000D01*
X178143000Y-100251000D02*
X166857000Y-100251000D01*
X178184000Y-100211000D02*
X166816000Y-100211000D01*
X178224000Y-100171000D02*
X166776000Y-100171000D01*
X178263000Y-100131000D02*
X166737000Y-100131000D01*
X178302000Y-100091000D02*
X166698000Y-100091000D01*
X178340000Y-100051000D02*
X166660000Y-100051000D01*
X178378000Y-100011000D02*
X166622000Y-100011000D01*
X178416000Y-99971000D02*
X166584000Y-99971000D01*
X178452000Y-99931000D02*
X166548000Y-99931000D01*
X178489000Y-99891000D02*
X166511000Y-99891000D01*
X178525000Y-99851000D02*
X166475000Y-99851000D01*
X178560000Y-99811000D02*
X166440000Y-99811000D01*
X178595000Y-99771000D02*
X166405000Y-99771000D01*
X178629000Y-99731000D02*
X166371000Y-99731000D01*
X178663000Y-99691000D02*
X166337000Y-99691000D01*
X178697000Y-99651000D02*
X166303000Y-99651000D01*
X171060000Y-99611000D02*
X166270000Y-99611000D01*
X178730000Y-99611000D02*
X173940000Y-99611000D01*
X171060000Y-99571000D02*
X166237000Y-99571000D01*
X178763000Y-99571000D02*
X173940000Y-99571000D01*
X171060000Y-99531000D02*
X166205000Y-99531000D01*
X178795000Y-99531000D02*
X173940000Y-99531000D01*
X171060000Y-99491000D02*
X166173000Y-99491000D01*
X178827000Y-99491000D02*
X173940000Y-99491000D01*
X171060000Y-99451000D02*
X166142000Y-99451000D01*
X178858000Y-99451000D02*
X173940000Y-99451000D01*
X171060000Y-99411000D02*
X166110000Y-99411000D01*
X178890000Y-99411000D02*
X173940000Y-99411000D01*
X171060000Y-99371000D02*
X166080000Y-99371000D01*
X178920000Y-99371000D02*
X173940000Y-99371000D01*
X171060000Y-99331000D02*
X166050000Y-99331000D01*
X178950000Y-99331000D02*
X173940000Y-99331000D01*
X171060000Y-99291000D02*
X166020000Y-99291000D01*
X178980000Y-99291000D02*
X173940000Y-99291000D01*
X171060000Y-99251000D02*
X165990000Y-99251000D01*
X179010000Y-99251000D02*
X173940000Y-99251000D01*
X171060000Y-99211000D02*
X165961000Y-99211000D01*
X179039000Y-99211000D02*
X173940000Y-99211000D01*
X171060000Y-99171000D02*
X165932000Y-99171000D01*
X179068000Y-99171000D02*
X173940000Y-99171000D01*
X171060000Y-99131000D02*
X165904000Y-99131000D01*
X179096000Y-99131000D02*
X173940000Y-99131000D01*
X171060000Y-99091000D02*
X165876000Y-99091000D01*
X179124000Y-99091000D02*
X173940000Y-99091000D01*
X171060000Y-99051000D02*
X165848000Y-99051000D01*
X179152000Y-99051000D02*
X173940000Y-99051000D01*
X171060000Y-99011000D02*
X165821000Y-99011000D01*
X179179000Y-99011000D02*
X173940000Y-99011000D01*
X171060000Y-98971000D02*
X165794000Y-98971000D01*
X179206000Y-98971000D02*
X173940000Y-98971000D01*
X171060000Y-98931000D02*
X165767000Y-98931000D01*
X179233000Y-98931000D02*
X173940000Y-98931000D01*
X171060000Y-98891000D02*
X165741000Y-98891000D01*
X179259000Y-98891000D02*
X173940000Y-98891000D01*
X171060000Y-98851000D02*
X165715000Y-98851000D01*
X179285000Y-98851000D02*
X173940000Y-98851000D01*
X171060000Y-98811000D02*
X165689000Y-98811000D01*
X179311000Y-98811000D02*
X173940000Y-98811000D01*
X171060000Y-98771000D02*
X165664000Y-98771000D01*
X179336000Y-98771000D02*
X173940000Y-98771000D01*
X171060000Y-98731000D02*
X165639000Y-98731000D01*
X179361000Y-98731000D02*
X173940000Y-98731000D01*
X171060000Y-98691000D02*
X165614000Y-98691000D01*
X179386000Y-98691000D02*
X173940000Y-98691000D01*
X171060000Y-98651000D02*
X165590000Y-98651000D01*
X179410000Y-98651000D02*
X173940000Y-98651000D01*
X171060000Y-98611000D02*
X165566000Y-98611000D01*
X179434000Y-98611000D02*
X173940000Y-98611000D01*
X171060000Y-98571000D02*
X165542000Y-98571000D01*
X179458000Y-98571000D02*
X173940000Y-98571000D01*
X171060000Y-98531000D02*
X165519000Y-98531000D01*
X179481000Y-98531000D02*
X173940000Y-98531000D01*
X171060000Y-98491000D02*
X165496000Y-98491000D01*
X179504000Y-98491000D02*
X173940000Y-98491000D01*
X171060000Y-98451000D02*
X165473000Y-98451000D01*
X179527000Y-98451000D02*
X173940000Y-98451000D01*
X171060000Y-98411000D02*
X165451000Y-98411000D01*
X179549000Y-98411000D02*
X173940000Y-98411000D01*
X171060000Y-98371000D02*
X165428000Y-98371000D01*
X179572000Y-98371000D02*
X173940000Y-98371000D01*
X171060000Y-98331000D02*
X165406000Y-98331000D01*
X179594000Y-98331000D02*
X173940000Y-98331000D01*
X171060000Y-98291000D02*
X165385000Y-98291000D01*
X179615000Y-98291000D02*
X173940000Y-98291000D01*
X171060000Y-98251000D02*
X165364000Y-98251000D01*
X179636000Y-98251000D02*
X173940000Y-98251000D01*
X171060000Y-98211000D02*
X165343000Y-98211000D01*
X179657000Y-98211000D02*
X173940000Y-98211000D01*
X171060000Y-98171000D02*
X165322000Y-98171000D01*
X179678000Y-98171000D02*
X173940000Y-98171000D01*
X171060000Y-98131000D02*
X165301000Y-98131000D01*
X179699000Y-98131000D02*
X173940000Y-98131000D01*
X171060000Y-98091000D02*
X165281000Y-98091000D01*
X179719000Y-98091000D02*
X173940000Y-98091000D01*
X171060000Y-98051000D02*
X165261000Y-98051000D01*
X179739000Y-98051000D02*
X173940000Y-98051000D01*
X171060000Y-98011000D02*
X165242000Y-98011000D01*
X179758000Y-98011000D02*
X173940000Y-98011000D01*
X171060000Y-97971000D02*
X165222000Y-97971000D01*
X179778000Y-97971000D02*
X173940000Y-97971000D01*
X171060000Y-97931000D02*
X165203000Y-97931000D01*
X179797000Y-97931000D02*
X173940000Y-97931000D01*
X171060000Y-97891000D02*
X165184000Y-97891000D01*
X179816000Y-97891000D02*
X173940000Y-97891000D01*
X171060000Y-97851000D02*
X165166000Y-97851000D01*
X179834000Y-97851000D02*
X173940000Y-97851000D01*
X171060000Y-97811000D02*
X165147000Y-97811000D01*
X179853000Y-97811000D02*
X173940000Y-97811000D01*
X171060000Y-97771000D02*
X165129000Y-97771000D01*
X179871000Y-97771000D02*
X173940000Y-97771000D01*
X171060000Y-97731000D02*
X165111000Y-97731000D01*
X179889000Y-97731000D02*
X173940000Y-97731000D01*
X171060000Y-97691000D02*
X165094000Y-97691000D01*
X179906000Y-97691000D02*
X173940000Y-97691000D01*
X171060000Y-97651000D02*
X165077000Y-97651000D01*
X179923000Y-97651000D02*
X173940000Y-97651000D01*
X171060000Y-97611000D02*
X165060000Y-97611000D01*
X179940000Y-97611000D02*
X173940000Y-97611000D01*
X171060000Y-97571000D02*
X165043000Y-97571000D01*
X179957000Y-97571000D02*
X173940000Y-97571000D01*
X171060000Y-97531000D02*
X165026000Y-97531000D01*
X179974000Y-97531000D02*
X173940000Y-97531000D01*
X171060000Y-97491000D02*
X165010000Y-97491000D01*
X179990000Y-97491000D02*
X173940000Y-97491000D01*
X171060000Y-97451000D02*
X164994000Y-97451000D01*
X180006000Y-97451000D02*
X173940000Y-97451000D01*
X171060000Y-97411000D02*
X164978000Y-97411000D01*
X180022000Y-97411000D02*
X173940000Y-97411000D01*
X171060000Y-97371000D02*
X164963000Y-97371000D01*
X180037000Y-97371000D02*
X173940000Y-97371000D01*
X171060000Y-97331000D02*
X164947000Y-97331000D01*
X180053000Y-97331000D02*
X173940000Y-97331000D01*
X171060000Y-97291000D02*
X164932000Y-97291000D01*
X180068000Y-97291000D02*
X173940000Y-97291000D01*
X171060000Y-97251000D02*
X164918000Y-97251000D01*
X180082000Y-97251000D02*
X173940000Y-97251000D01*
X171060000Y-97211000D02*
X164903000Y-97211000D01*
X180097000Y-97211000D02*
X173940000Y-97211000D01*
X171060000Y-97171000D02*
X164889000Y-97171000D01*
X180111000Y-97171000D02*
X173940000Y-97171000D01*
X171060000Y-97131000D02*
X164875000Y-97131000D01*
X180125000Y-97131000D02*
X173940000Y-97131000D01*
X171060000Y-97091000D02*
X164861000Y-97091000D01*
X180139000Y-97091000D02*
X173940000Y-97091000D01*
X171060000Y-97051000D02*
X164847000Y-97051000D01*
X180153000Y-97051000D02*
X173940000Y-97051000D01*
X171060000Y-97011000D02*
X164834000Y-97011000D01*
X180166000Y-97011000D02*
X173940000Y-97011000D01*
X171060000Y-96971000D02*
X164820000Y-96971000D01*
X180180000Y-96971000D02*
X173940000Y-96971000D01*
X171060000Y-96931000D02*
X164807000Y-96931000D01*
X180193000Y-96931000D02*
X173940000Y-96931000D01*
X171060000Y-96891000D02*
X164795000Y-96891000D01*
X180205000Y-96891000D02*
X173940000Y-96891000D01*
X171060000Y-96851000D02*
X164782000Y-96851000D01*
X180218000Y-96851000D02*
X173940000Y-96851000D01*
X171060000Y-96811000D02*
X164770000Y-96811000D01*
X180230000Y-96811000D02*
X173940000Y-96811000D01*
X171060000Y-96771000D02*
X164758000Y-96771000D01*
X180242000Y-96771000D02*
X173940000Y-96771000D01*
X180254000Y-96731000D02*
X164746000Y-96731000D01*
X180265000Y-96691000D02*
X164735000Y-96691000D01*
X180277000Y-96651000D02*
X164723000Y-96651000D01*
X180288000Y-96611000D02*
X164712000Y-96611000D01*
X180299000Y-96571000D02*
X164701000Y-96571000D01*
X180310000Y-96531000D02*
X164690000Y-96531000D01*
X180320000Y-96491000D02*
X164680000Y-96491000D01*
X180330000Y-96451000D02*
X164670000Y-96451000D01*
X180340000Y-96411000D02*
X164660000Y-96411000D01*
X180350000Y-96371000D02*
X164650000Y-96371000D01*
X180360000Y-96331000D02*
X164640000Y-96331000D01*
X180369000Y-96291000D02*
X164631000Y-96291000D01*
X180378000Y-96251000D02*
X164622000Y-96251000D01*
X180387000Y-96211000D02*
X164613000Y-96211000D01*
X180396000Y-96171000D02*
X164604000Y-96171000D01*
X180405000Y-96131000D02*
X164595000Y-96131000D01*
X180413000Y-96091000D02*
X164587000Y-96091000D01*
X180421000Y-96051000D02*
X164579000Y-96051000D01*
X180429000Y-96011000D02*
X164571000Y-96011000D01*
X180437000Y-95971000D02*
X164563000Y-95971000D01*
X180444000Y-95931000D02*
X164556000Y-95931000D01*
X180452000Y-95891000D02*
X164548000Y-95891000D01*
X180459000Y-95851000D02*
X164541000Y-95851000D01*
X180466000Y-95811000D02*
X164534000Y-95811000D01*
X180472000Y-95771000D02*
X164528000Y-95771000D01*
X180479000Y-95731000D02*
X164521000Y-95731000D01*
X180485000Y-95691000D02*
X164515000Y-95691000D01*
X180491000Y-95651000D02*
X164509000Y-95651000D01*
X180497000Y-95611000D02*
X164503000Y-95611000D01*
X180503000Y-95571000D02*
X164497000Y-95571000D01*
X180508000Y-95531000D02*
X164492000Y-95531000D01*
X180514000Y-95491000D02*
X164486000Y-95491000D01*
X180519000Y-95451000D02*
X164481000Y-95451000D01*
X180524000Y-95411000D02*
X164476000Y-95411000D01*
X180528000Y-95371000D02*
X164472000Y-95371000D01*
X180533000Y-95331000D02*
X164467000Y-95331000D01*
X180537000Y-95291000D02*
X164463000Y-95291000D01*
X180541000Y-95251000D02*
X164459000Y-95251000D01*
X180545000Y-95211000D02*
X164455000Y-95211000D01*
X180549000Y-95171000D02*
X164451000Y-95171000D01*
X180552000Y-95130000D02*
X164448000Y-95130000D01*
X180555000Y-95090000D02*
X164445000Y-95090000D01*
X180558000Y-95050000D02*
X164442000Y-95050000D01*
X180561000Y-95010000D02*
X164439000Y-95010000D01*
X180564000Y-94970000D02*
X164436000Y-94970000D01*
X180566000Y-94930000D02*
X164434000Y-94930000D01*
X180569000Y-94890000D02*
X164431000Y-94890000D01*
X180571000Y-94850000D02*
X164429000Y-94850000D01*
X180573000Y-94810000D02*
X164427000Y-94810000D01*
X180574000Y-94770000D02*
X164426000Y-94770000D01*
X180576000Y-94730000D02*
X164424000Y-94730000D01*
X180577000Y-94690000D02*
X164423000Y-94690000D01*
X180578000Y-94650000D02*
X164422000Y-94650000D01*
X180579000Y-94610000D02*
X164421000Y-94610000D01*
X180580000Y-94570000D02*
X164420000Y-94570000D01*
X180580000Y-94530000D02*
X164420000Y-94530000D01*
X180580000Y-94490000D02*
X164420000Y-94490000D01*
X180581000Y-94450000D02*
X164419000Y-94450000D01*
X180620000Y-94450000D02*
G75*
G03*
X180620000Y-94450000I-8120000J0D01*
G01*
%TO.C,C105*%
X140555000Y-67860509D02*
X138955000Y-67860509D01*
X139755000Y-67060509D02*
X139755000Y-68660509D01*
X135965000Y-83831000D02*
X134435000Y-83831000D01*
X136298000Y-83791000D02*
X134102000Y-83791000D01*
X136551000Y-83751000D02*
X133849000Y-83751000D01*
X136764000Y-83711000D02*
X133636000Y-83711000D01*
X136952000Y-83671000D02*
X133448000Y-83671000D01*
X137120000Y-83631000D02*
X133280000Y-83631000D01*
X137274000Y-83591000D02*
X133126000Y-83591000D01*
X137418000Y-83551000D02*
X132982000Y-83551000D01*
X137551000Y-83511000D02*
X132849000Y-83511000D01*
X137678000Y-83471000D02*
X132722000Y-83471000D01*
X137797000Y-83431000D02*
X132603000Y-83431000D01*
X137911000Y-83391000D02*
X132489000Y-83391000D01*
X138020000Y-83351000D02*
X132380000Y-83351000D01*
X138124000Y-83311000D02*
X132276000Y-83311000D01*
X138224000Y-83271000D02*
X132176000Y-83271000D01*
X138320000Y-83231000D02*
X132080000Y-83231000D01*
X138413000Y-83191000D02*
X131987000Y-83191000D01*
X138503000Y-83151000D02*
X131897000Y-83151000D01*
X138590000Y-83111000D02*
X131810000Y-83111000D01*
X138675000Y-83071000D02*
X131725000Y-83071000D01*
X138757000Y-83031000D02*
X131643000Y-83031000D01*
X138837000Y-82991000D02*
X131563000Y-82991000D01*
X138915000Y-82951000D02*
X131485000Y-82951000D01*
X138990000Y-82911000D02*
X131410000Y-82911000D01*
X139064000Y-82871000D02*
X131336000Y-82871000D01*
X139136000Y-82831000D02*
X131264000Y-82831000D01*
X139207000Y-82791000D02*
X131193000Y-82791000D01*
X139276000Y-82751000D02*
X131124000Y-82751000D01*
X139343000Y-82711000D02*
X131057000Y-82711000D01*
X139409000Y-82671000D02*
X130991000Y-82671000D01*
X139473000Y-82631000D02*
X130927000Y-82631000D01*
X139536000Y-82591000D02*
X130864000Y-82591000D01*
X139598000Y-82551000D02*
X130802000Y-82551000D01*
X139659000Y-82511000D02*
X130741000Y-82511000D01*
X139719000Y-82471000D02*
X130681000Y-82471000D01*
X139777000Y-82431000D02*
X130623000Y-82431000D01*
X139834000Y-82391000D02*
X130566000Y-82391000D01*
X139891000Y-82351000D02*
X130509000Y-82351000D01*
X139946000Y-82311000D02*
X130454000Y-82311000D01*
X140000000Y-82271000D02*
X130400000Y-82271000D01*
X140054000Y-82231000D02*
X130346000Y-82231000D01*
X140106000Y-82191000D02*
X130294000Y-82191000D01*
X140158000Y-82151000D02*
X130242000Y-82151000D01*
X140209000Y-82111000D02*
X130191000Y-82111000D01*
X140259000Y-82071000D02*
X130141000Y-82071000D01*
X140308000Y-82031000D02*
X130092000Y-82031000D01*
X140356000Y-81991000D02*
X130044000Y-81991000D01*
X140404000Y-81951000D02*
X129996000Y-81951000D01*
X140451000Y-81911000D02*
X129949000Y-81911000D01*
X140497000Y-81871000D02*
X129903000Y-81871000D01*
X140543000Y-81831000D02*
X129857000Y-81831000D01*
X140588000Y-81791000D02*
X129812000Y-81791000D01*
X140632000Y-81751000D02*
X129768000Y-81751000D01*
X140675000Y-81711000D02*
X129725000Y-81711000D01*
X140718000Y-81671000D02*
X129682000Y-81671000D01*
X140760000Y-81631000D02*
X129640000Y-81631000D01*
X140802000Y-81591000D02*
X129598000Y-81591000D01*
X140843000Y-81551000D02*
X129557000Y-81551000D01*
X140884000Y-81511000D02*
X129516000Y-81511000D01*
X140924000Y-81471000D02*
X129476000Y-81471000D01*
X140963000Y-81431000D02*
X129437000Y-81431000D01*
X141002000Y-81391000D02*
X129398000Y-81391000D01*
X141040000Y-81351000D02*
X129360000Y-81351000D01*
X141078000Y-81311000D02*
X129322000Y-81311000D01*
X141116000Y-81271000D02*
X129284000Y-81271000D01*
X141152000Y-81231000D02*
X129248000Y-81231000D01*
X141189000Y-81191000D02*
X129211000Y-81191000D01*
X141225000Y-81151000D02*
X129175000Y-81151000D01*
X141260000Y-81111000D02*
X129140000Y-81111000D01*
X141295000Y-81071000D02*
X129105000Y-81071000D01*
X141329000Y-81031000D02*
X129071000Y-81031000D01*
X141363000Y-80991000D02*
X129037000Y-80991000D01*
X141397000Y-80951000D02*
X129003000Y-80951000D01*
X133760000Y-80911000D02*
X128970000Y-80911000D01*
X141430000Y-80911000D02*
X136640000Y-80911000D01*
X133760000Y-80871000D02*
X128937000Y-80871000D01*
X141463000Y-80871000D02*
X136640000Y-80871000D01*
X133760000Y-80831000D02*
X128905000Y-80831000D01*
X141495000Y-80831000D02*
X136640000Y-80831000D01*
X133760000Y-80791000D02*
X128873000Y-80791000D01*
X141527000Y-80791000D02*
X136640000Y-80791000D01*
X133760000Y-80751000D02*
X128842000Y-80751000D01*
X141558000Y-80751000D02*
X136640000Y-80751000D01*
X133760000Y-80711000D02*
X128810000Y-80711000D01*
X141590000Y-80711000D02*
X136640000Y-80711000D01*
X133760000Y-80671000D02*
X128780000Y-80671000D01*
X141620000Y-80671000D02*
X136640000Y-80671000D01*
X133760000Y-80631000D02*
X128750000Y-80631000D01*
X141650000Y-80631000D02*
X136640000Y-80631000D01*
X133760000Y-80591000D02*
X128720000Y-80591000D01*
X141680000Y-80591000D02*
X136640000Y-80591000D01*
X133760000Y-80551000D02*
X128690000Y-80551000D01*
X141710000Y-80551000D02*
X136640000Y-80551000D01*
X133760000Y-80511000D02*
X128661000Y-80511000D01*
X141739000Y-80511000D02*
X136640000Y-80511000D01*
X133760000Y-80471000D02*
X128632000Y-80471000D01*
X141768000Y-80471000D02*
X136640000Y-80471000D01*
X133760000Y-80431000D02*
X128604000Y-80431000D01*
X141796000Y-80431000D02*
X136640000Y-80431000D01*
X133760000Y-80391000D02*
X128576000Y-80391000D01*
X141824000Y-80391000D02*
X136640000Y-80391000D01*
X133760000Y-80351000D02*
X128548000Y-80351000D01*
X141852000Y-80351000D02*
X136640000Y-80351000D01*
X133760000Y-80311000D02*
X128521000Y-80311000D01*
X141879000Y-80311000D02*
X136640000Y-80311000D01*
X133760000Y-80271000D02*
X128494000Y-80271000D01*
X141906000Y-80271000D02*
X136640000Y-80271000D01*
X133760000Y-80231000D02*
X128467000Y-80231000D01*
X141933000Y-80231000D02*
X136640000Y-80231000D01*
X133760000Y-80191000D02*
X128441000Y-80191000D01*
X141959000Y-80191000D02*
X136640000Y-80191000D01*
X133760000Y-80151000D02*
X128415000Y-80151000D01*
X141985000Y-80151000D02*
X136640000Y-80151000D01*
X133760000Y-80111000D02*
X128389000Y-80111000D01*
X142011000Y-80111000D02*
X136640000Y-80111000D01*
X133760000Y-80071000D02*
X128364000Y-80071000D01*
X142036000Y-80071000D02*
X136640000Y-80071000D01*
X133760000Y-80031000D02*
X128339000Y-80031000D01*
X142061000Y-80031000D02*
X136640000Y-80031000D01*
X133760000Y-79991000D02*
X128314000Y-79991000D01*
X142086000Y-79991000D02*
X136640000Y-79991000D01*
X133760000Y-79951000D02*
X128290000Y-79951000D01*
X142110000Y-79951000D02*
X136640000Y-79951000D01*
X133760000Y-79911000D02*
X128266000Y-79911000D01*
X142134000Y-79911000D02*
X136640000Y-79911000D01*
X133760000Y-79871000D02*
X128242000Y-79871000D01*
X142158000Y-79871000D02*
X136640000Y-79871000D01*
X133760000Y-79831000D02*
X128219000Y-79831000D01*
X142181000Y-79831000D02*
X136640000Y-79831000D01*
X133760000Y-79791000D02*
X128196000Y-79791000D01*
X142204000Y-79791000D02*
X136640000Y-79791000D01*
X133760000Y-79751000D02*
X128173000Y-79751000D01*
X142227000Y-79751000D02*
X136640000Y-79751000D01*
X133760000Y-79711000D02*
X128151000Y-79711000D01*
X142249000Y-79711000D02*
X136640000Y-79711000D01*
X133760000Y-79671000D02*
X128128000Y-79671000D01*
X142272000Y-79671000D02*
X136640000Y-79671000D01*
X133760000Y-79631000D02*
X128106000Y-79631000D01*
X142294000Y-79631000D02*
X136640000Y-79631000D01*
X133760000Y-79591000D02*
X128085000Y-79591000D01*
X142315000Y-79591000D02*
X136640000Y-79591000D01*
X133760000Y-79551000D02*
X128064000Y-79551000D01*
X142336000Y-79551000D02*
X136640000Y-79551000D01*
X133760000Y-79511000D02*
X128043000Y-79511000D01*
X142357000Y-79511000D02*
X136640000Y-79511000D01*
X133760000Y-79471000D02*
X128022000Y-79471000D01*
X142378000Y-79471000D02*
X136640000Y-79471000D01*
X133760000Y-79431000D02*
X128001000Y-79431000D01*
X142399000Y-79431000D02*
X136640000Y-79431000D01*
X133760000Y-79391000D02*
X127981000Y-79391000D01*
X142419000Y-79391000D02*
X136640000Y-79391000D01*
X133760000Y-79351000D02*
X127961000Y-79351000D01*
X142439000Y-79351000D02*
X136640000Y-79351000D01*
X133760000Y-79311000D02*
X127942000Y-79311000D01*
X142458000Y-79311000D02*
X136640000Y-79311000D01*
X133760000Y-79271000D02*
X127922000Y-79271000D01*
X142478000Y-79271000D02*
X136640000Y-79271000D01*
X133760000Y-79231000D02*
X127903000Y-79231000D01*
X142497000Y-79231000D02*
X136640000Y-79231000D01*
X133760000Y-79191000D02*
X127884000Y-79191000D01*
X142516000Y-79191000D02*
X136640000Y-79191000D01*
X133760000Y-79151000D02*
X127866000Y-79151000D01*
X142534000Y-79151000D02*
X136640000Y-79151000D01*
X133760000Y-79111000D02*
X127847000Y-79111000D01*
X142553000Y-79111000D02*
X136640000Y-79111000D01*
X133760000Y-79071000D02*
X127829000Y-79071000D01*
X142571000Y-79071000D02*
X136640000Y-79071000D01*
X133760000Y-79031000D02*
X127811000Y-79031000D01*
X142589000Y-79031000D02*
X136640000Y-79031000D01*
X133760000Y-78991000D02*
X127794000Y-78991000D01*
X142606000Y-78991000D02*
X136640000Y-78991000D01*
X133760000Y-78951000D02*
X127777000Y-78951000D01*
X142623000Y-78951000D02*
X136640000Y-78951000D01*
X133760000Y-78911000D02*
X127760000Y-78911000D01*
X142640000Y-78911000D02*
X136640000Y-78911000D01*
X133760000Y-78871000D02*
X127743000Y-78871000D01*
X142657000Y-78871000D02*
X136640000Y-78871000D01*
X133760000Y-78831000D02*
X127726000Y-78831000D01*
X142674000Y-78831000D02*
X136640000Y-78831000D01*
X133760000Y-78791000D02*
X127710000Y-78791000D01*
X142690000Y-78791000D02*
X136640000Y-78791000D01*
X133760000Y-78751000D02*
X127694000Y-78751000D01*
X142706000Y-78751000D02*
X136640000Y-78751000D01*
X133760000Y-78711000D02*
X127678000Y-78711000D01*
X142722000Y-78711000D02*
X136640000Y-78711000D01*
X133760000Y-78671000D02*
X127663000Y-78671000D01*
X142737000Y-78671000D02*
X136640000Y-78671000D01*
X133760000Y-78631000D02*
X127647000Y-78631000D01*
X142753000Y-78631000D02*
X136640000Y-78631000D01*
X133760000Y-78591000D02*
X127632000Y-78591000D01*
X142768000Y-78591000D02*
X136640000Y-78591000D01*
X133760000Y-78551000D02*
X127618000Y-78551000D01*
X142782000Y-78551000D02*
X136640000Y-78551000D01*
X133760000Y-78511000D02*
X127603000Y-78511000D01*
X142797000Y-78511000D02*
X136640000Y-78511000D01*
X133760000Y-78471000D02*
X127589000Y-78471000D01*
X142811000Y-78471000D02*
X136640000Y-78471000D01*
X133760000Y-78431000D02*
X127575000Y-78431000D01*
X142825000Y-78431000D02*
X136640000Y-78431000D01*
X133760000Y-78391000D02*
X127561000Y-78391000D01*
X142839000Y-78391000D02*
X136640000Y-78391000D01*
X133760000Y-78351000D02*
X127547000Y-78351000D01*
X142853000Y-78351000D02*
X136640000Y-78351000D01*
X133760000Y-78311000D02*
X127534000Y-78311000D01*
X142866000Y-78311000D02*
X136640000Y-78311000D01*
X133760000Y-78271000D02*
X127520000Y-78271000D01*
X142880000Y-78271000D02*
X136640000Y-78271000D01*
X133760000Y-78231000D02*
X127507000Y-78231000D01*
X142893000Y-78231000D02*
X136640000Y-78231000D01*
X133760000Y-78191000D02*
X127495000Y-78191000D01*
X142905000Y-78191000D02*
X136640000Y-78191000D01*
X133760000Y-78151000D02*
X127482000Y-78151000D01*
X142918000Y-78151000D02*
X136640000Y-78151000D01*
X133760000Y-78111000D02*
X127470000Y-78111000D01*
X142930000Y-78111000D02*
X136640000Y-78111000D01*
X133760000Y-78071000D02*
X127458000Y-78071000D01*
X142942000Y-78071000D02*
X136640000Y-78071000D01*
X142954000Y-78031000D02*
X127446000Y-78031000D01*
X142965000Y-77991000D02*
X127435000Y-77991000D01*
X142977000Y-77951000D02*
X127423000Y-77951000D01*
X142988000Y-77911000D02*
X127412000Y-77911000D01*
X142999000Y-77871000D02*
X127401000Y-77871000D01*
X143010000Y-77831000D02*
X127390000Y-77831000D01*
X143020000Y-77791000D02*
X127380000Y-77791000D01*
X143030000Y-77751000D02*
X127370000Y-77751000D01*
X143040000Y-77711000D02*
X127360000Y-77711000D01*
X143050000Y-77671000D02*
X127350000Y-77671000D01*
X143060000Y-77631000D02*
X127340000Y-77631000D01*
X143069000Y-77591000D02*
X127331000Y-77591000D01*
X143078000Y-77551000D02*
X127322000Y-77551000D01*
X143087000Y-77511000D02*
X127313000Y-77511000D01*
X143096000Y-77471000D02*
X127304000Y-77471000D01*
X143105000Y-77431000D02*
X127295000Y-77431000D01*
X143113000Y-77391000D02*
X127287000Y-77391000D01*
X143121000Y-77351000D02*
X127279000Y-77351000D01*
X143129000Y-77311000D02*
X127271000Y-77311000D01*
X143137000Y-77271000D02*
X127263000Y-77271000D01*
X143144000Y-77231000D02*
X127256000Y-77231000D01*
X143152000Y-77191000D02*
X127248000Y-77191000D01*
X143159000Y-77151000D02*
X127241000Y-77151000D01*
X143166000Y-77111000D02*
X127234000Y-77111000D01*
X143172000Y-77071000D02*
X127228000Y-77071000D01*
X143179000Y-77031000D02*
X127221000Y-77031000D01*
X143185000Y-76991000D02*
X127215000Y-76991000D01*
X143191000Y-76951000D02*
X127209000Y-76951000D01*
X143197000Y-76911000D02*
X127203000Y-76911000D01*
X143203000Y-76871000D02*
X127197000Y-76871000D01*
X143208000Y-76831000D02*
X127192000Y-76831000D01*
X143214000Y-76791000D02*
X127186000Y-76791000D01*
X143219000Y-76751000D02*
X127181000Y-76751000D01*
X143224000Y-76711000D02*
X127176000Y-76711000D01*
X143228000Y-76671000D02*
X127172000Y-76671000D01*
X143233000Y-76631000D02*
X127167000Y-76631000D01*
X143237000Y-76591000D02*
X127163000Y-76591000D01*
X143241000Y-76551000D02*
X127159000Y-76551000D01*
X143245000Y-76511000D02*
X127155000Y-76511000D01*
X143249000Y-76471000D02*
X127151000Y-76471000D01*
X143252000Y-76430000D02*
X127148000Y-76430000D01*
X143255000Y-76390000D02*
X127145000Y-76390000D01*
X143258000Y-76350000D02*
X127142000Y-76350000D01*
X143261000Y-76310000D02*
X127139000Y-76310000D01*
X143264000Y-76270000D02*
X127136000Y-76270000D01*
X143266000Y-76230000D02*
X127134000Y-76230000D01*
X143269000Y-76190000D02*
X127131000Y-76190000D01*
X143271000Y-76150000D02*
X127129000Y-76150000D01*
X143273000Y-76110000D02*
X127127000Y-76110000D01*
X143274000Y-76070000D02*
X127126000Y-76070000D01*
X143276000Y-76030000D02*
X127124000Y-76030000D01*
X143277000Y-75990000D02*
X127123000Y-75990000D01*
X143278000Y-75950000D02*
X127122000Y-75950000D01*
X143279000Y-75910000D02*
X127121000Y-75910000D01*
X143280000Y-75870000D02*
X127120000Y-75870000D01*
X143280000Y-75830000D02*
X127120000Y-75830000D01*
X143280000Y-75790000D02*
X127120000Y-75790000D01*
X143281000Y-75750000D02*
X127119000Y-75750000D01*
X143320000Y-75750000D02*
G75*
G03*
X143320000Y-75750000I-8120000J0D01*
G01*
%TO.C,C104*%
X159255000Y-86560509D02*
X157655000Y-86560509D01*
X158455000Y-85760509D02*
X158455000Y-87360509D01*
X154665000Y-102531000D02*
X153135000Y-102531000D01*
X154998000Y-102491000D02*
X152802000Y-102491000D01*
X155251000Y-102451000D02*
X152549000Y-102451000D01*
X155464000Y-102411000D02*
X152336000Y-102411000D01*
X155652000Y-102371000D02*
X152148000Y-102371000D01*
X155820000Y-102331000D02*
X151980000Y-102331000D01*
X155974000Y-102291000D02*
X151826000Y-102291000D01*
X156118000Y-102251000D02*
X151682000Y-102251000D01*
X156251000Y-102211000D02*
X151549000Y-102211000D01*
X156378000Y-102171000D02*
X151422000Y-102171000D01*
X156497000Y-102131000D02*
X151303000Y-102131000D01*
X156611000Y-102091000D02*
X151189000Y-102091000D01*
X156720000Y-102051000D02*
X151080000Y-102051000D01*
X156824000Y-102011000D02*
X150976000Y-102011000D01*
X156924000Y-101971000D02*
X150876000Y-101971000D01*
X157020000Y-101931000D02*
X150780000Y-101931000D01*
X157113000Y-101891000D02*
X150687000Y-101891000D01*
X157203000Y-101851000D02*
X150597000Y-101851000D01*
X157290000Y-101811000D02*
X150510000Y-101811000D01*
X157375000Y-101771000D02*
X150425000Y-101771000D01*
X157457000Y-101731000D02*
X150343000Y-101731000D01*
X157537000Y-101691000D02*
X150263000Y-101691000D01*
X157615000Y-101651000D02*
X150185000Y-101651000D01*
X157690000Y-101611000D02*
X150110000Y-101611000D01*
X157764000Y-101571000D02*
X150036000Y-101571000D01*
X157836000Y-101531000D02*
X149964000Y-101531000D01*
X157907000Y-101491000D02*
X149893000Y-101491000D01*
X157976000Y-101451000D02*
X149824000Y-101451000D01*
X158043000Y-101411000D02*
X149757000Y-101411000D01*
X158109000Y-101371000D02*
X149691000Y-101371000D01*
X158173000Y-101331000D02*
X149627000Y-101331000D01*
X158236000Y-101291000D02*
X149564000Y-101291000D01*
X158298000Y-101251000D02*
X149502000Y-101251000D01*
X158359000Y-101211000D02*
X149441000Y-101211000D01*
X158419000Y-101171000D02*
X149381000Y-101171000D01*
X158477000Y-101131000D02*
X149323000Y-101131000D01*
X158534000Y-101091000D02*
X149266000Y-101091000D01*
X158591000Y-101051000D02*
X149209000Y-101051000D01*
X158646000Y-101011000D02*
X149154000Y-101011000D01*
X158700000Y-100971000D02*
X149100000Y-100971000D01*
X158754000Y-100931000D02*
X149046000Y-100931000D01*
X158806000Y-100891000D02*
X148994000Y-100891000D01*
X158858000Y-100851000D02*
X148942000Y-100851000D01*
X158909000Y-100811000D02*
X148891000Y-100811000D01*
X158959000Y-100771000D02*
X148841000Y-100771000D01*
X159008000Y-100731000D02*
X148792000Y-100731000D01*
X159056000Y-100691000D02*
X148744000Y-100691000D01*
X159104000Y-100651000D02*
X148696000Y-100651000D01*
X159151000Y-100611000D02*
X148649000Y-100611000D01*
X159197000Y-100571000D02*
X148603000Y-100571000D01*
X159243000Y-100531000D02*
X148557000Y-100531000D01*
X159288000Y-100491000D02*
X148512000Y-100491000D01*
X159332000Y-100451000D02*
X148468000Y-100451000D01*
X159375000Y-100411000D02*
X148425000Y-100411000D01*
X159418000Y-100371000D02*
X148382000Y-100371000D01*
X159460000Y-100331000D02*
X148340000Y-100331000D01*
X159502000Y-100291000D02*
X148298000Y-100291000D01*
X159543000Y-100251000D02*
X148257000Y-100251000D01*
X159584000Y-100211000D02*
X148216000Y-100211000D01*
X159624000Y-100171000D02*
X148176000Y-100171000D01*
X159663000Y-100131000D02*
X148137000Y-100131000D01*
X159702000Y-100091000D02*
X148098000Y-100091000D01*
X159740000Y-100051000D02*
X148060000Y-100051000D01*
X159778000Y-100011000D02*
X148022000Y-100011000D01*
X159816000Y-99971000D02*
X147984000Y-99971000D01*
X159852000Y-99931000D02*
X147948000Y-99931000D01*
X159889000Y-99891000D02*
X147911000Y-99891000D01*
X159925000Y-99851000D02*
X147875000Y-99851000D01*
X159960000Y-99811000D02*
X147840000Y-99811000D01*
X159995000Y-99771000D02*
X147805000Y-99771000D01*
X160029000Y-99731000D02*
X147771000Y-99731000D01*
X160063000Y-99691000D02*
X147737000Y-99691000D01*
X160097000Y-99651000D02*
X147703000Y-99651000D01*
X152460000Y-99611000D02*
X147670000Y-99611000D01*
X160130000Y-99611000D02*
X155340000Y-99611000D01*
X152460000Y-99571000D02*
X147637000Y-99571000D01*
X160163000Y-99571000D02*
X155340000Y-99571000D01*
X152460000Y-99531000D02*
X147605000Y-99531000D01*
X160195000Y-99531000D02*
X155340000Y-99531000D01*
X152460000Y-99491000D02*
X147573000Y-99491000D01*
X160227000Y-99491000D02*
X155340000Y-99491000D01*
X152460000Y-99451000D02*
X147542000Y-99451000D01*
X160258000Y-99451000D02*
X155340000Y-99451000D01*
X152460000Y-99411000D02*
X147510000Y-99411000D01*
X160290000Y-99411000D02*
X155340000Y-99411000D01*
X152460000Y-99371000D02*
X147480000Y-99371000D01*
X160320000Y-99371000D02*
X155340000Y-99371000D01*
X152460000Y-99331000D02*
X147450000Y-99331000D01*
X160350000Y-99331000D02*
X155340000Y-99331000D01*
X152460000Y-99291000D02*
X147420000Y-99291000D01*
X160380000Y-99291000D02*
X155340000Y-99291000D01*
X152460000Y-99251000D02*
X147390000Y-99251000D01*
X160410000Y-99251000D02*
X155340000Y-99251000D01*
X152460000Y-99211000D02*
X147361000Y-99211000D01*
X160439000Y-99211000D02*
X155340000Y-99211000D01*
X152460000Y-99171000D02*
X147332000Y-99171000D01*
X160468000Y-99171000D02*
X155340000Y-99171000D01*
X152460000Y-99131000D02*
X147304000Y-99131000D01*
X160496000Y-99131000D02*
X155340000Y-99131000D01*
X152460000Y-99091000D02*
X147276000Y-99091000D01*
X160524000Y-99091000D02*
X155340000Y-99091000D01*
X152460000Y-99051000D02*
X147248000Y-99051000D01*
X160552000Y-99051000D02*
X155340000Y-99051000D01*
X152460000Y-99011000D02*
X147221000Y-99011000D01*
X160579000Y-99011000D02*
X155340000Y-99011000D01*
X152460000Y-98971000D02*
X147194000Y-98971000D01*
X160606000Y-98971000D02*
X155340000Y-98971000D01*
X152460000Y-98931000D02*
X147167000Y-98931000D01*
X160633000Y-98931000D02*
X155340000Y-98931000D01*
X152460000Y-98891000D02*
X147141000Y-98891000D01*
X160659000Y-98891000D02*
X155340000Y-98891000D01*
X152460000Y-98851000D02*
X147115000Y-98851000D01*
X160685000Y-98851000D02*
X155340000Y-98851000D01*
X152460000Y-98811000D02*
X147089000Y-98811000D01*
X160711000Y-98811000D02*
X155340000Y-98811000D01*
X152460000Y-98771000D02*
X147064000Y-98771000D01*
X160736000Y-98771000D02*
X155340000Y-98771000D01*
X152460000Y-98731000D02*
X147039000Y-98731000D01*
X160761000Y-98731000D02*
X155340000Y-98731000D01*
X152460000Y-98691000D02*
X147014000Y-98691000D01*
X160786000Y-98691000D02*
X155340000Y-98691000D01*
X152460000Y-98651000D02*
X146990000Y-98651000D01*
X160810000Y-98651000D02*
X155340000Y-98651000D01*
X152460000Y-98611000D02*
X146966000Y-98611000D01*
X160834000Y-98611000D02*
X155340000Y-98611000D01*
X152460000Y-98571000D02*
X146942000Y-98571000D01*
X160858000Y-98571000D02*
X155340000Y-98571000D01*
X152460000Y-98531000D02*
X146919000Y-98531000D01*
X160881000Y-98531000D02*
X155340000Y-98531000D01*
X152460000Y-98491000D02*
X146896000Y-98491000D01*
X160904000Y-98491000D02*
X155340000Y-98491000D01*
X152460000Y-98451000D02*
X146873000Y-98451000D01*
X160927000Y-98451000D02*
X155340000Y-98451000D01*
X152460000Y-98411000D02*
X146851000Y-98411000D01*
X160949000Y-98411000D02*
X155340000Y-98411000D01*
X152460000Y-98371000D02*
X146828000Y-98371000D01*
X160972000Y-98371000D02*
X155340000Y-98371000D01*
X152460000Y-98331000D02*
X146806000Y-98331000D01*
X160994000Y-98331000D02*
X155340000Y-98331000D01*
X152460000Y-98291000D02*
X146785000Y-98291000D01*
X161015000Y-98291000D02*
X155340000Y-98291000D01*
X152460000Y-98251000D02*
X146764000Y-98251000D01*
X161036000Y-98251000D02*
X155340000Y-98251000D01*
X152460000Y-98211000D02*
X146743000Y-98211000D01*
X161057000Y-98211000D02*
X155340000Y-98211000D01*
X152460000Y-98171000D02*
X146722000Y-98171000D01*
X161078000Y-98171000D02*
X155340000Y-98171000D01*
X152460000Y-98131000D02*
X146701000Y-98131000D01*
X161099000Y-98131000D02*
X155340000Y-98131000D01*
X152460000Y-98091000D02*
X146681000Y-98091000D01*
X161119000Y-98091000D02*
X155340000Y-98091000D01*
X152460000Y-98051000D02*
X146661000Y-98051000D01*
X161139000Y-98051000D02*
X155340000Y-98051000D01*
X152460000Y-98011000D02*
X146642000Y-98011000D01*
X161158000Y-98011000D02*
X155340000Y-98011000D01*
X152460000Y-97971000D02*
X146622000Y-97971000D01*
X161178000Y-97971000D02*
X155340000Y-97971000D01*
X152460000Y-97931000D02*
X146603000Y-97931000D01*
X161197000Y-97931000D02*
X155340000Y-97931000D01*
X152460000Y-97891000D02*
X146584000Y-97891000D01*
X161216000Y-97891000D02*
X155340000Y-97891000D01*
X152460000Y-97851000D02*
X146566000Y-97851000D01*
X161234000Y-97851000D02*
X155340000Y-97851000D01*
X152460000Y-97811000D02*
X146547000Y-97811000D01*
X161253000Y-97811000D02*
X155340000Y-97811000D01*
X152460000Y-97771000D02*
X146529000Y-97771000D01*
X161271000Y-97771000D02*
X155340000Y-97771000D01*
X152460000Y-97731000D02*
X146511000Y-97731000D01*
X161289000Y-97731000D02*
X155340000Y-97731000D01*
X152460000Y-97691000D02*
X146494000Y-97691000D01*
X161306000Y-97691000D02*
X155340000Y-97691000D01*
X152460000Y-97651000D02*
X146477000Y-97651000D01*
X161323000Y-97651000D02*
X155340000Y-97651000D01*
X152460000Y-97611000D02*
X146460000Y-97611000D01*
X161340000Y-97611000D02*
X155340000Y-97611000D01*
X152460000Y-97571000D02*
X146443000Y-97571000D01*
X161357000Y-97571000D02*
X155340000Y-97571000D01*
X152460000Y-97531000D02*
X146426000Y-97531000D01*
X161374000Y-97531000D02*
X155340000Y-97531000D01*
X152460000Y-97491000D02*
X146410000Y-97491000D01*
X161390000Y-97491000D02*
X155340000Y-97491000D01*
X152460000Y-97451000D02*
X146394000Y-97451000D01*
X161406000Y-97451000D02*
X155340000Y-97451000D01*
X152460000Y-97411000D02*
X146378000Y-97411000D01*
X161422000Y-97411000D02*
X155340000Y-97411000D01*
X152460000Y-97371000D02*
X146363000Y-97371000D01*
X161437000Y-97371000D02*
X155340000Y-97371000D01*
X152460000Y-97331000D02*
X146347000Y-97331000D01*
X161453000Y-97331000D02*
X155340000Y-97331000D01*
X152460000Y-97291000D02*
X146332000Y-97291000D01*
X161468000Y-97291000D02*
X155340000Y-97291000D01*
X152460000Y-97251000D02*
X146318000Y-97251000D01*
X161482000Y-97251000D02*
X155340000Y-97251000D01*
X152460000Y-97211000D02*
X146303000Y-97211000D01*
X161497000Y-97211000D02*
X155340000Y-97211000D01*
X152460000Y-97171000D02*
X146289000Y-97171000D01*
X161511000Y-97171000D02*
X155340000Y-97171000D01*
X152460000Y-97131000D02*
X146275000Y-97131000D01*
X161525000Y-97131000D02*
X155340000Y-97131000D01*
X152460000Y-97091000D02*
X146261000Y-97091000D01*
X161539000Y-97091000D02*
X155340000Y-97091000D01*
X152460000Y-97051000D02*
X146247000Y-97051000D01*
X161553000Y-97051000D02*
X155340000Y-97051000D01*
X152460000Y-97011000D02*
X146234000Y-97011000D01*
X161566000Y-97011000D02*
X155340000Y-97011000D01*
X152460000Y-96971000D02*
X146220000Y-96971000D01*
X161580000Y-96971000D02*
X155340000Y-96971000D01*
X152460000Y-96931000D02*
X146207000Y-96931000D01*
X161593000Y-96931000D02*
X155340000Y-96931000D01*
X152460000Y-96891000D02*
X146195000Y-96891000D01*
X161605000Y-96891000D02*
X155340000Y-96891000D01*
X152460000Y-96851000D02*
X146182000Y-96851000D01*
X161618000Y-96851000D02*
X155340000Y-96851000D01*
X152460000Y-96811000D02*
X146170000Y-96811000D01*
X161630000Y-96811000D02*
X155340000Y-96811000D01*
X152460000Y-96771000D02*
X146158000Y-96771000D01*
X161642000Y-96771000D02*
X155340000Y-96771000D01*
X161654000Y-96731000D02*
X146146000Y-96731000D01*
X161665000Y-96691000D02*
X146135000Y-96691000D01*
X161677000Y-96651000D02*
X146123000Y-96651000D01*
X161688000Y-96611000D02*
X146112000Y-96611000D01*
X161699000Y-96571000D02*
X146101000Y-96571000D01*
X161710000Y-96531000D02*
X146090000Y-96531000D01*
X161720000Y-96491000D02*
X146080000Y-96491000D01*
X161730000Y-96451000D02*
X146070000Y-96451000D01*
X161740000Y-96411000D02*
X146060000Y-96411000D01*
X161750000Y-96371000D02*
X146050000Y-96371000D01*
X161760000Y-96331000D02*
X146040000Y-96331000D01*
X161769000Y-96291000D02*
X146031000Y-96291000D01*
X161778000Y-96251000D02*
X146022000Y-96251000D01*
X161787000Y-96211000D02*
X146013000Y-96211000D01*
X161796000Y-96171000D02*
X146004000Y-96171000D01*
X161805000Y-96131000D02*
X145995000Y-96131000D01*
X161813000Y-96091000D02*
X145987000Y-96091000D01*
X161821000Y-96051000D02*
X145979000Y-96051000D01*
X161829000Y-96011000D02*
X145971000Y-96011000D01*
X161837000Y-95971000D02*
X145963000Y-95971000D01*
X161844000Y-95931000D02*
X145956000Y-95931000D01*
X161852000Y-95891000D02*
X145948000Y-95891000D01*
X161859000Y-95851000D02*
X145941000Y-95851000D01*
X161866000Y-95811000D02*
X145934000Y-95811000D01*
X161872000Y-95771000D02*
X145928000Y-95771000D01*
X161879000Y-95731000D02*
X145921000Y-95731000D01*
X161885000Y-95691000D02*
X145915000Y-95691000D01*
X161891000Y-95651000D02*
X145909000Y-95651000D01*
X161897000Y-95611000D02*
X145903000Y-95611000D01*
X161903000Y-95571000D02*
X145897000Y-95571000D01*
X161908000Y-95531000D02*
X145892000Y-95531000D01*
X161914000Y-95491000D02*
X145886000Y-95491000D01*
X161919000Y-95451000D02*
X145881000Y-95451000D01*
X161924000Y-95411000D02*
X145876000Y-95411000D01*
X161928000Y-95371000D02*
X145872000Y-95371000D01*
X161933000Y-95331000D02*
X145867000Y-95331000D01*
X161937000Y-95291000D02*
X145863000Y-95291000D01*
X161941000Y-95251000D02*
X145859000Y-95251000D01*
X161945000Y-95211000D02*
X145855000Y-95211000D01*
X161949000Y-95171000D02*
X145851000Y-95171000D01*
X161952000Y-95130000D02*
X145848000Y-95130000D01*
X161955000Y-95090000D02*
X145845000Y-95090000D01*
X161958000Y-95050000D02*
X145842000Y-95050000D01*
X161961000Y-95010000D02*
X145839000Y-95010000D01*
X161964000Y-94970000D02*
X145836000Y-94970000D01*
X161966000Y-94930000D02*
X145834000Y-94930000D01*
X161969000Y-94890000D02*
X145831000Y-94890000D01*
X161971000Y-94850000D02*
X145829000Y-94850000D01*
X161973000Y-94810000D02*
X145827000Y-94810000D01*
X161974000Y-94770000D02*
X145826000Y-94770000D01*
X161976000Y-94730000D02*
X145824000Y-94730000D01*
X161977000Y-94690000D02*
X145823000Y-94690000D01*
X161978000Y-94650000D02*
X145822000Y-94650000D01*
X161979000Y-94610000D02*
X145821000Y-94610000D01*
X161980000Y-94570000D02*
X145820000Y-94570000D01*
X161980000Y-94530000D02*
X145820000Y-94530000D01*
X161980000Y-94490000D02*
X145820000Y-94490000D01*
X161981000Y-94450000D02*
X145819000Y-94450000D01*
X162020000Y-94450000D02*
G75*
G03*
X162020000Y-94450000I-8120000J0D01*
G01*
%TO.C,C103*%
X177855000Y-67860509D02*
X176255000Y-67860509D01*
X177055000Y-67060509D02*
X177055000Y-68660509D01*
X173265000Y-83831000D02*
X171735000Y-83831000D01*
X173598000Y-83791000D02*
X171402000Y-83791000D01*
X173851000Y-83751000D02*
X171149000Y-83751000D01*
X174064000Y-83711000D02*
X170936000Y-83711000D01*
X174252000Y-83671000D02*
X170748000Y-83671000D01*
X174420000Y-83631000D02*
X170580000Y-83631000D01*
X174574000Y-83591000D02*
X170426000Y-83591000D01*
X174718000Y-83551000D02*
X170282000Y-83551000D01*
X174851000Y-83511000D02*
X170149000Y-83511000D01*
X174978000Y-83471000D02*
X170022000Y-83471000D01*
X175097000Y-83431000D02*
X169903000Y-83431000D01*
X175211000Y-83391000D02*
X169789000Y-83391000D01*
X175320000Y-83351000D02*
X169680000Y-83351000D01*
X175424000Y-83311000D02*
X169576000Y-83311000D01*
X175524000Y-83271000D02*
X169476000Y-83271000D01*
X175620000Y-83231000D02*
X169380000Y-83231000D01*
X175713000Y-83191000D02*
X169287000Y-83191000D01*
X175803000Y-83151000D02*
X169197000Y-83151000D01*
X175890000Y-83111000D02*
X169110000Y-83111000D01*
X175975000Y-83071000D02*
X169025000Y-83071000D01*
X176057000Y-83031000D02*
X168943000Y-83031000D01*
X176137000Y-82991000D02*
X168863000Y-82991000D01*
X176215000Y-82951000D02*
X168785000Y-82951000D01*
X176290000Y-82911000D02*
X168710000Y-82911000D01*
X176364000Y-82871000D02*
X168636000Y-82871000D01*
X176436000Y-82831000D02*
X168564000Y-82831000D01*
X176507000Y-82791000D02*
X168493000Y-82791000D01*
X176576000Y-82751000D02*
X168424000Y-82751000D01*
X176643000Y-82711000D02*
X168357000Y-82711000D01*
X176709000Y-82671000D02*
X168291000Y-82671000D01*
X176773000Y-82631000D02*
X168227000Y-82631000D01*
X176836000Y-82591000D02*
X168164000Y-82591000D01*
X176898000Y-82551000D02*
X168102000Y-82551000D01*
X176959000Y-82511000D02*
X168041000Y-82511000D01*
X177019000Y-82471000D02*
X167981000Y-82471000D01*
X177077000Y-82431000D02*
X167923000Y-82431000D01*
X177134000Y-82391000D02*
X167866000Y-82391000D01*
X177191000Y-82351000D02*
X167809000Y-82351000D01*
X177246000Y-82311000D02*
X167754000Y-82311000D01*
X177300000Y-82271000D02*
X167700000Y-82271000D01*
X177354000Y-82231000D02*
X167646000Y-82231000D01*
X177406000Y-82191000D02*
X167594000Y-82191000D01*
X177458000Y-82151000D02*
X167542000Y-82151000D01*
X177509000Y-82111000D02*
X167491000Y-82111000D01*
X177559000Y-82071000D02*
X167441000Y-82071000D01*
X177608000Y-82031000D02*
X167392000Y-82031000D01*
X177656000Y-81991000D02*
X167344000Y-81991000D01*
X177704000Y-81951000D02*
X167296000Y-81951000D01*
X177751000Y-81911000D02*
X167249000Y-81911000D01*
X177797000Y-81871000D02*
X167203000Y-81871000D01*
X177843000Y-81831000D02*
X167157000Y-81831000D01*
X177888000Y-81791000D02*
X167112000Y-81791000D01*
X177932000Y-81751000D02*
X167068000Y-81751000D01*
X177975000Y-81711000D02*
X167025000Y-81711000D01*
X178018000Y-81671000D02*
X166982000Y-81671000D01*
X178060000Y-81631000D02*
X166940000Y-81631000D01*
X178102000Y-81591000D02*
X166898000Y-81591000D01*
X178143000Y-81551000D02*
X166857000Y-81551000D01*
X178184000Y-81511000D02*
X166816000Y-81511000D01*
X178224000Y-81471000D02*
X166776000Y-81471000D01*
X178263000Y-81431000D02*
X166737000Y-81431000D01*
X178302000Y-81391000D02*
X166698000Y-81391000D01*
X178340000Y-81351000D02*
X166660000Y-81351000D01*
X178378000Y-81311000D02*
X166622000Y-81311000D01*
X178416000Y-81271000D02*
X166584000Y-81271000D01*
X178452000Y-81231000D02*
X166548000Y-81231000D01*
X178489000Y-81191000D02*
X166511000Y-81191000D01*
X178525000Y-81151000D02*
X166475000Y-81151000D01*
X178560000Y-81111000D02*
X166440000Y-81111000D01*
X178595000Y-81071000D02*
X166405000Y-81071000D01*
X178629000Y-81031000D02*
X166371000Y-81031000D01*
X178663000Y-80991000D02*
X166337000Y-80991000D01*
X178697000Y-80951000D02*
X166303000Y-80951000D01*
X171060000Y-80911000D02*
X166270000Y-80911000D01*
X178730000Y-80911000D02*
X173940000Y-80911000D01*
X171060000Y-80871000D02*
X166237000Y-80871000D01*
X178763000Y-80871000D02*
X173940000Y-80871000D01*
X171060000Y-80831000D02*
X166205000Y-80831000D01*
X178795000Y-80831000D02*
X173940000Y-80831000D01*
X171060000Y-80791000D02*
X166173000Y-80791000D01*
X178827000Y-80791000D02*
X173940000Y-80791000D01*
X171060000Y-80751000D02*
X166142000Y-80751000D01*
X178858000Y-80751000D02*
X173940000Y-80751000D01*
X171060000Y-80711000D02*
X166110000Y-80711000D01*
X178890000Y-80711000D02*
X173940000Y-80711000D01*
X171060000Y-80671000D02*
X166080000Y-80671000D01*
X178920000Y-80671000D02*
X173940000Y-80671000D01*
X171060000Y-80631000D02*
X166050000Y-80631000D01*
X178950000Y-80631000D02*
X173940000Y-80631000D01*
X171060000Y-80591000D02*
X166020000Y-80591000D01*
X178980000Y-80591000D02*
X173940000Y-80591000D01*
X171060000Y-80551000D02*
X165990000Y-80551000D01*
X179010000Y-80551000D02*
X173940000Y-80551000D01*
X171060000Y-80511000D02*
X165961000Y-80511000D01*
X179039000Y-80511000D02*
X173940000Y-80511000D01*
X171060000Y-80471000D02*
X165932000Y-80471000D01*
X179068000Y-80471000D02*
X173940000Y-80471000D01*
X171060000Y-80431000D02*
X165904000Y-80431000D01*
X179096000Y-80431000D02*
X173940000Y-80431000D01*
X171060000Y-80391000D02*
X165876000Y-80391000D01*
X179124000Y-80391000D02*
X173940000Y-80391000D01*
X171060000Y-80351000D02*
X165848000Y-80351000D01*
X179152000Y-80351000D02*
X173940000Y-80351000D01*
X171060000Y-80311000D02*
X165821000Y-80311000D01*
X179179000Y-80311000D02*
X173940000Y-80311000D01*
X171060000Y-80271000D02*
X165794000Y-80271000D01*
X179206000Y-80271000D02*
X173940000Y-80271000D01*
X171060000Y-80231000D02*
X165767000Y-80231000D01*
X179233000Y-80231000D02*
X173940000Y-80231000D01*
X171060000Y-80191000D02*
X165741000Y-80191000D01*
X179259000Y-80191000D02*
X173940000Y-80191000D01*
X171060000Y-80151000D02*
X165715000Y-80151000D01*
X179285000Y-80151000D02*
X173940000Y-80151000D01*
X171060000Y-80111000D02*
X165689000Y-80111000D01*
X179311000Y-80111000D02*
X173940000Y-80111000D01*
X171060000Y-80071000D02*
X165664000Y-80071000D01*
X179336000Y-80071000D02*
X173940000Y-80071000D01*
X171060000Y-80031000D02*
X165639000Y-80031000D01*
X179361000Y-80031000D02*
X173940000Y-80031000D01*
X171060000Y-79991000D02*
X165614000Y-79991000D01*
X179386000Y-79991000D02*
X173940000Y-79991000D01*
X171060000Y-79951000D02*
X165590000Y-79951000D01*
X179410000Y-79951000D02*
X173940000Y-79951000D01*
X171060000Y-79911000D02*
X165566000Y-79911000D01*
X179434000Y-79911000D02*
X173940000Y-79911000D01*
X171060000Y-79871000D02*
X165542000Y-79871000D01*
X179458000Y-79871000D02*
X173940000Y-79871000D01*
X171060000Y-79831000D02*
X165519000Y-79831000D01*
X179481000Y-79831000D02*
X173940000Y-79831000D01*
X171060000Y-79791000D02*
X165496000Y-79791000D01*
X179504000Y-79791000D02*
X173940000Y-79791000D01*
X171060000Y-79751000D02*
X165473000Y-79751000D01*
X179527000Y-79751000D02*
X173940000Y-79751000D01*
X171060000Y-79711000D02*
X165451000Y-79711000D01*
X179549000Y-79711000D02*
X173940000Y-79711000D01*
X171060000Y-79671000D02*
X165428000Y-79671000D01*
X179572000Y-79671000D02*
X173940000Y-79671000D01*
X171060000Y-79631000D02*
X165406000Y-79631000D01*
X179594000Y-79631000D02*
X173940000Y-79631000D01*
X171060000Y-79591000D02*
X165385000Y-79591000D01*
X179615000Y-79591000D02*
X173940000Y-79591000D01*
X171060000Y-79551000D02*
X165364000Y-79551000D01*
X179636000Y-79551000D02*
X173940000Y-79551000D01*
X171060000Y-79511000D02*
X165343000Y-79511000D01*
X179657000Y-79511000D02*
X173940000Y-79511000D01*
X171060000Y-79471000D02*
X165322000Y-79471000D01*
X179678000Y-79471000D02*
X173940000Y-79471000D01*
X171060000Y-79431000D02*
X165301000Y-79431000D01*
X179699000Y-79431000D02*
X173940000Y-79431000D01*
X171060000Y-79391000D02*
X165281000Y-79391000D01*
X179719000Y-79391000D02*
X173940000Y-79391000D01*
X171060000Y-79351000D02*
X165261000Y-79351000D01*
X179739000Y-79351000D02*
X173940000Y-79351000D01*
X171060000Y-79311000D02*
X165242000Y-79311000D01*
X179758000Y-79311000D02*
X173940000Y-79311000D01*
X171060000Y-79271000D02*
X165222000Y-79271000D01*
X179778000Y-79271000D02*
X173940000Y-79271000D01*
X171060000Y-79231000D02*
X165203000Y-79231000D01*
X179797000Y-79231000D02*
X173940000Y-79231000D01*
X171060000Y-79191000D02*
X165184000Y-79191000D01*
X179816000Y-79191000D02*
X173940000Y-79191000D01*
X171060000Y-79151000D02*
X165166000Y-79151000D01*
X179834000Y-79151000D02*
X173940000Y-79151000D01*
X171060000Y-79111000D02*
X165147000Y-79111000D01*
X179853000Y-79111000D02*
X173940000Y-79111000D01*
X171060000Y-79071000D02*
X165129000Y-79071000D01*
X179871000Y-79071000D02*
X173940000Y-79071000D01*
X171060000Y-79031000D02*
X165111000Y-79031000D01*
X179889000Y-79031000D02*
X173940000Y-79031000D01*
X171060000Y-78991000D02*
X165094000Y-78991000D01*
X179906000Y-78991000D02*
X173940000Y-78991000D01*
X171060000Y-78951000D02*
X165077000Y-78951000D01*
X179923000Y-78951000D02*
X173940000Y-78951000D01*
X171060000Y-78911000D02*
X165060000Y-78911000D01*
X179940000Y-78911000D02*
X173940000Y-78911000D01*
X171060000Y-78871000D02*
X165043000Y-78871000D01*
X179957000Y-78871000D02*
X173940000Y-78871000D01*
X171060000Y-78831000D02*
X165026000Y-78831000D01*
X179974000Y-78831000D02*
X173940000Y-78831000D01*
X171060000Y-78791000D02*
X165010000Y-78791000D01*
X179990000Y-78791000D02*
X173940000Y-78791000D01*
X171060000Y-78751000D02*
X164994000Y-78751000D01*
X180006000Y-78751000D02*
X173940000Y-78751000D01*
X171060000Y-78711000D02*
X164978000Y-78711000D01*
X180022000Y-78711000D02*
X173940000Y-78711000D01*
X171060000Y-78671000D02*
X164963000Y-78671000D01*
X180037000Y-78671000D02*
X173940000Y-78671000D01*
X171060000Y-78631000D02*
X164947000Y-78631000D01*
X180053000Y-78631000D02*
X173940000Y-78631000D01*
X171060000Y-78591000D02*
X164932000Y-78591000D01*
X180068000Y-78591000D02*
X173940000Y-78591000D01*
X171060000Y-78551000D02*
X164918000Y-78551000D01*
X180082000Y-78551000D02*
X173940000Y-78551000D01*
X171060000Y-78511000D02*
X164903000Y-78511000D01*
X180097000Y-78511000D02*
X173940000Y-78511000D01*
X171060000Y-78471000D02*
X164889000Y-78471000D01*
X180111000Y-78471000D02*
X173940000Y-78471000D01*
X171060000Y-78431000D02*
X164875000Y-78431000D01*
X180125000Y-78431000D02*
X173940000Y-78431000D01*
X171060000Y-78391000D02*
X164861000Y-78391000D01*
X180139000Y-78391000D02*
X173940000Y-78391000D01*
X171060000Y-78351000D02*
X164847000Y-78351000D01*
X180153000Y-78351000D02*
X173940000Y-78351000D01*
X171060000Y-78311000D02*
X164834000Y-78311000D01*
X180166000Y-78311000D02*
X173940000Y-78311000D01*
X171060000Y-78271000D02*
X164820000Y-78271000D01*
X180180000Y-78271000D02*
X173940000Y-78271000D01*
X171060000Y-78231000D02*
X164807000Y-78231000D01*
X180193000Y-78231000D02*
X173940000Y-78231000D01*
X171060000Y-78191000D02*
X164795000Y-78191000D01*
X180205000Y-78191000D02*
X173940000Y-78191000D01*
X171060000Y-78151000D02*
X164782000Y-78151000D01*
X180218000Y-78151000D02*
X173940000Y-78151000D01*
X171060000Y-78111000D02*
X164770000Y-78111000D01*
X180230000Y-78111000D02*
X173940000Y-78111000D01*
X171060000Y-78071000D02*
X164758000Y-78071000D01*
X180242000Y-78071000D02*
X173940000Y-78071000D01*
X180254000Y-78031000D02*
X164746000Y-78031000D01*
X180265000Y-77991000D02*
X164735000Y-77991000D01*
X180277000Y-77951000D02*
X164723000Y-77951000D01*
X180288000Y-77911000D02*
X164712000Y-77911000D01*
X180299000Y-77871000D02*
X164701000Y-77871000D01*
X180310000Y-77831000D02*
X164690000Y-77831000D01*
X180320000Y-77791000D02*
X164680000Y-77791000D01*
X180330000Y-77751000D02*
X164670000Y-77751000D01*
X180340000Y-77711000D02*
X164660000Y-77711000D01*
X180350000Y-77671000D02*
X164650000Y-77671000D01*
X180360000Y-77631000D02*
X164640000Y-77631000D01*
X180369000Y-77591000D02*
X164631000Y-77591000D01*
X180378000Y-77551000D02*
X164622000Y-77551000D01*
X180387000Y-77511000D02*
X164613000Y-77511000D01*
X180396000Y-77471000D02*
X164604000Y-77471000D01*
X180405000Y-77431000D02*
X164595000Y-77431000D01*
X180413000Y-77391000D02*
X164587000Y-77391000D01*
X180421000Y-77351000D02*
X164579000Y-77351000D01*
X180429000Y-77311000D02*
X164571000Y-77311000D01*
X180437000Y-77271000D02*
X164563000Y-77271000D01*
X180444000Y-77231000D02*
X164556000Y-77231000D01*
X180452000Y-77191000D02*
X164548000Y-77191000D01*
X180459000Y-77151000D02*
X164541000Y-77151000D01*
X180466000Y-77111000D02*
X164534000Y-77111000D01*
X180472000Y-77071000D02*
X164528000Y-77071000D01*
X180479000Y-77031000D02*
X164521000Y-77031000D01*
X180485000Y-76991000D02*
X164515000Y-76991000D01*
X180491000Y-76951000D02*
X164509000Y-76951000D01*
X180497000Y-76911000D02*
X164503000Y-76911000D01*
X180503000Y-76871000D02*
X164497000Y-76871000D01*
X180508000Y-76831000D02*
X164492000Y-76831000D01*
X180514000Y-76791000D02*
X164486000Y-76791000D01*
X180519000Y-76751000D02*
X164481000Y-76751000D01*
X180524000Y-76711000D02*
X164476000Y-76711000D01*
X180528000Y-76671000D02*
X164472000Y-76671000D01*
X180533000Y-76631000D02*
X164467000Y-76631000D01*
X180537000Y-76591000D02*
X164463000Y-76591000D01*
X180541000Y-76551000D02*
X164459000Y-76551000D01*
X180545000Y-76511000D02*
X164455000Y-76511000D01*
X180549000Y-76471000D02*
X164451000Y-76471000D01*
X180552000Y-76430000D02*
X164448000Y-76430000D01*
X180555000Y-76390000D02*
X164445000Y-76390000D01*
X180558000Y-76350000D02*
X164442000Y-76350000D01*
X180561000Y-76310000D02*
X164439000Y-76310000D01*
X180564000Y-76270000D02*
X164436000Y-76270000D01*
X180566000Y-76230000D02*
X164434000Y-76230000D01*
X180569000Y-76190000D02*
X164431000Y-76190000D01*
X180571000Y-76150000D02*
X164429000Y-76150000D01*
X180573000Y-76110000D02*
X164427000Y-76110000D01*
X180574000Y-76070000D02*
X164426000Y-76070000D01*
X180576000Y-76030000D02*
X164424000Y-76030000D01*
X180577000Y-75990000D02*
X164423000Y-75990000D01*
X180578000Y-75950000D02*
X164422000Y-75950000D01*
X180579000Y-75910000D02*
X164421000Y-75910000D01*
X180580000Y-75870000D02*
X164420000Y-75870000D01*
X180580000Y-75830000D02*
X164420000Y-75830000D01*
X180580000Y-75790000D02*
X164420000Y-75790000D01*
X180581000Y-75750000D02*
X164419000Y-75750000D01*
X180620000Y-75750000D02*
G75*
G03*
X180620000Y-75750000I-8120000J0D01*
G01*
%TO.C,C102*%
X140555000Y-86360509D02*
X138955000Y-86360509D01*
X139755000Y-85560509D02*
X139755000Y-87160509D01*
X135965000Y-102331000D02*
X134435000Y-102331000D01*
X136298000Y-102291000D02*
X134102000Y-102291000D01*
X136551000Y-102251000D02*
X133849000Y-102251000D01*
X136764000Y-102211000D02*
X133636000Y-102211000D01*
X136952000Y-102171000D02*
X133448000Y-102171000D01*
X137120000Y-102131000D02*
X133280000Y-102131000D01*
X137274000Y-102091000D02*
X133126000Y-102091000D01*
X137418000Y-102051000D02*
X132982000Y-102051000D01*
X137551000Y-102011000D02*
X132849000Y-102011000D01*
X137678000Y-101971000D02*
X132722000Y-101971000D01*
X137797000Y-101931000D02*
X132603000Y-101931000D01*
X137911000Y-101891000D02*
X132489000Y-101891000D01*
X138020000Y-101851000D02*
X132380000Y-101851000D01*
X138124000Y-101811000D02*
X132276000Y-101811000D01*
X138224000Y-101771000D02*
X132176000Y-101771000D01*
X138320000Y-101731000D02*
X132080000Y-101731000D01*
X138413000Y-101691000D02*
X131987000Y-101691000D01*
X138503000Y-101651000D02*
X131897000Y-101651000D01*
X138590000Y-101611000D02*
X131810000Y-101611000D01*
X138675000Y-101571000D02*
X131725000Y-101571000D01*
X138757000Y-101531000D02*
X131643000Y-101531000D01*
X138837000Y-101491000D02*
X131563000Y-101491000D01*
X138915000Y-101451000D02*
X131485000Y-101451000D01*
X138990000Y-101411000D02*
X131410000Y-101411000D01*
X139064000Y-101371000D02*
X131336000Y-101371000D01*
X139136000Y-101331000D02*
X131264000Y-101331000D01*
X139207000Y-101291000D02*
X131193000Y-101291000D01*
X139276000Y-101251000D02*
X131124000Y-101251000D01*
X139343000Y-101211000D02*
X131057000Y-101211000D01*
X139409000Y-101171000D02*
X130991000Y-101171000D01*
X139473000Y-101131000D02*
X130927000Y-101131000D01*
X139536000Y-101091000D02*
X130864000Y-101091000D01*
X139598000Y-101051000D02*
X130802000Y-101051000D01*
X139659000Y-101011000D02*
X130741000Y-101011000D01*
X139719000Y-100971000D02*
X130681000Y-100971000D01*
X139777000Y-100931000D02*
X130623000Y-100931000D01*
X139834000Y-100891000D02*
X130566000Y-100891000D01*
X139891000Y-100851000D02*
X130509000Y-100851000D01*
X139946000Y-100811000D02*
X130454000Y-100811000D01*
X140000000Y-100771000D02*
X130400000Y-100771000D01*
X140054000Y-100731000D02*
X130346000Y-100731000D01*
X140106000Y-100691000D02*
X130294000Y-100691000D01*
X140158000Y-100651000D02*
X130242000Y-100651000D01*
X140209000Y-100611000D02*
X130191000Y-100611000D01*
X140259000Y-100571000D02*
X130141000Y-100571000D01*
X140308000Y-100531000D02*
X130092000Y-100531000D01*
X140356000Y-100491000D02*
X130044000Y-100491000D01*
X140404000Y-100451000D02*
X129996000Y-100451000D01*
X140451000Y-100411000D02*
X129949000Y-100411000D01*
X140497000Y-100371000D02*
X129903000Y-100371000D01*
X140543000Y-100331000D02*
X129857000Y-100331000D01*
X140588000Y-100291000D02*
X129812000Y-100291000D01*
X140632000Y-100251000D02*
X129768000Y-100251000D01*
X140675000Y-100211000D02*
X129725000Y-100211000D01*
X140718000Y-100171000D02*
X129682000Y-100171000D01*
X140760000Y-100131000D02*
X129640000Y-100131000D01*
X140802000Y-100091000D02*
X129598000Y-100091000D01*
X140843000Y-100051000D02*
X129557000Y-100051000D01*
X140884000Y-100011000D02*
X129516000Y-100011000D01*
X140924000Y-99971000D02*
X129476000Y-99971000D01*
X140963000Y-99931000D02*
X129437000Y-99931000D01*
X141002000Y-99891000D02*
X129398000Y-99891000D01*
X141040000Y-99851000D02*
X129360000Y-99851000D01*
X141078000Y-99811000D02*
X129322000Y-99811000D01*
X141116000Y-99771000D02*
X129284000Y-99771000D01*
X141152000Y-99731000D02*
X129248000Y-99731000D01*
X141189000Y-99691000D02*
X129211000Y-99691000D01*
X141225000Y-99651000D02*
X129175000Y-99651000D01*
X141260000Y-99611000D02*
X129140000Y-99611000D01*
X141295000Y-99571000D02*
X129105000Y-99571000D01*
X141329000Y-99531000D02*
X129071000Y-99531000D01*
X141363000Y-99491000D02*
X129037000Y-99491000D01*
X141397000Y-99451000D02*
X129003000Y-99451000D01*
X133760000Y-99411000D02*
X128970000Y-99411000D01*
X141430000Y-99411000D02*
X136640000Y-99411000D01*
X133760000Y-99371000D02*
X128937000Y-99371000D01*
X141463000Y-99371000D02*
X136640000Y-99371000D01*
X133760000Y-99331000D02*
X128905000Y-99331000D01*
X141495000Y-99331000D02*
X136640000Y-99331000D01*
X133760000Y-99291000D02*
X128873000Y-99291000D01*
X141527000Y-99291000D02*
X136640000Y-99291000D01*
X133760000Y-99251000D02*
X128842000Y-99251000D01*
X141558000Y-99251000D02*
X136640000Y-99251000D01*
X133760000Y-99211000D02*
X128810000Y-99211000D01*
X141590000Y-99211000D02*
X136640000Y-99211000D01*
X133760000Y-99171000D02*
X128780000Y-99171000D01*
X141620000Y-99171000D02*
X136640000Y-99171000D01*
X133760000Y-99131000D02*
X128750000Y-99131000D01*
X141650000Y-99131000D02*
X136640000Y-99131000D01*
X133760000Y-99091000D02*
X128720000Y-99091000D01*
X141680000Y-99091000D02*
X136640000Y-99091000D01*
X133760000Y-99051000D02*
X128690000Y-99051000D01*
X141710000Y-99051000D02*
X136640000Y-99051000D01*
X133760000Y-99011000D02*
X128661000Y-99011000D01*
X141739000Y-99011000D02*
X136640000Y-99011000D01*
X133760000Y-98971000D02*
X128632000Y-98971000D01*
X141768000Y-98971000D02*
X136640000Y-98971000D01*
X133760000Y-98931000D02*
X128604000Y-98931000D01*
X141796000Y-98931000D02*
X136640000Y-98931000D01*
X133760000Y-98891000D02*
X128576000Y-98891000D01*
X141824000Y-98891000D02*
X136640000Y-98891000D01*
X133760000Y-98851000D02*
X128548000Y-98851000D01*
X141852000Y-98851000D02*
X136640000Y-98851000D01*
X133760000Y-98811000D02*
X128521000Y-98811000D01*
X141879000Y-98811000D02*
X136640000Y-98811000D01*
X133760000Y-98771000D02*
X128494000Y-98771000D01*
X141906000Y-98771000D02*
X136640000Y-98771000D01*
X133760000Y-98731000D02*
X128467000Y-98731000D01*
X141933000Y-98731000D02*
X136640000Y-98731000D01*
X133760000Y-98691000D02*
X128441000Y-98691000D01*
X141959000Y-98691000D02*
X136640000Y-98691000D01*
X133760000Y-98651000D02*
X128415000Y-98651000D01*
X141985000Y-98651000D02*
X136640000Y-98651000D01*
X133760000Y-98611000D02*
X128389000Y-98611000D01*
X142011000Y-98611000D02*
X136640000Y-98611000D01*
X133760000Y-98571000D02*
X128364000Y-98571000D01*
X142036000Y-98571000D02*
X136640000Y-98571000D01*
X133760000Y-98531000D02*
X128339000Y-98531000D01*
X142061000Y-98531000D02*
X136640000Y-98531000D01*
X133760000Y-98491000D02*
X128314000Y-98491000D01*
X142086000Y-98491000D02*
X136640000Y-98491000D01*
X133760000Y-98451000D02*
X128290000Y-98451000D01*
X142110000Y-98451000D02*
X136640000Y-98451000D01*
X133760000Y-98411000D02*
X128266000Y-98411000D01*
X142134000Y-98411000D02*
X136640000Y-98411000D01*
X133760000Y-98371000D02*
X128242000Y-98371000D01*
X142158000Y-98371000D02*
X136640000Y-98371000D01*
X133760000Y-98331000D02*
X128219000Y-98331000D01*
X142181000Y-98331000D02*
X136640000Y-98331000D01*
X133760000Y-98291000D02*
X128196000Y-98291000D01*
X142204000Y-98291000D02*
X136640000Y-98291000D01*
X133760000Y-98251000D02*
X128173000Y-98251000D01*
X142227000Y-98251000D02*
X136640000Y-98251000D01*
X133760000Y-98211000D02*
X128151000Y-98211000D01*
X142249000Y-98211000D02*
X136640000Y-98211000D01*
X133760000Y-98171000D02*
X128128000Y-98171000D01*
X142272000Y-98171000D02*
X136640000Y-98171000D01*
X133760000Y-98131000D02*
X128106000Y-98131000D01*
X142294000Y-98131000D02*
X136640000Y-98131000D01*
X133760000Y-98091000D02*
X128085000Y-98091000D01*
X142315000Y-98091000D02*
X136640000Y-98091000D01*
X133760000Y-98051000D02*
X128064000Y-98051000D01*
X142336000Y-98051000D02*
X136640000Y-98051000D01*
X133760000Y-98011000D02*
X128043000Y-98011000D01*
X142357000Y-98011000D02*
X136640000Y-98011000D01*
X133760000Y-97971000D02*
X128022000Y-97971000D01*
X142378000Y-97971000D02*
X136640000Y-97971000D01*
X133760000Y-97931000D02*
X128001000Y-97931000D01*
X142399000Y-97931000D02*
X136640000Y-97931000D01*
X133760000Y-97891000D02*
X127981000Y-97891000D01*
X142419000Y-97891000D02*
X136640000Y-97891000D01*
X133760000Y-97851000D02*
X127961000Y-97851000D01*
X142439000Y-97851000D02*
X136640000Y-97851000D01*
X133760000Y-97811000D02*
X127942000Y-97811000D01*
X142458000Y-97811000D02*
X136640000Y-97811000D01*
X133760000Y-97771000D02*
X127922000Y-97771000D01*
X142478000Y-97771000D02*
X136640000Y-97771000D01*
X133760000Y-97731000D02*
X127903000Y-97731000D01*
X142497000Y-97731000D02*
X136640000Y-97731000D01*
X133760000Y-97691000D02*
X127884000Y-97691000D01*
X142516000Y-97691000D02*
X136640000Y-97691000D01*
X133760000Y-97651000D02*
X127866000Y-97651000D01*
X142534000Y-97651000D02*
X136640000Y-97651000D01*
X133760000Y-97611000D02*
X127847000Y-97611000D01*
X142553000Y-97611000D02*
X136640000Y-97611000D01*
X133760000Y-97571000D02*
X127829000Y-97571000D01*
X142571000Y-97571000D02*
X136640000Y-97571000D01*
X133760000Y-97531000D02*
X127811000Y-97531000D01*
X142589000Y-97531000D02*
X136640000Y-97531000D01*
X133760000Y-97491000D02*
X127794000Y-97491000D01*
X142606000Y-97491000D02*
X136640000Y-97491000D01*
X133760000Y-97451000D02*
X127777000Y-97451000D01*
X142623000Y-97451000D02*
X136640000Y-97451000D01*
X133760000Y-97411000D02*
X127760000Y-97411000D01*
X142640000Y-97411000D02*
X136640000Y-97411000D01*
X133760000Y-97371000D02*
X127743000Y-97371000D01*
X142657000Y-97371000D02*
X136640000Y-97371000D01*
X133760000Y-97331000D02*
X127726000Y-97331000D01*
X142674000Y-97331000D02*
X136640000Y-97331000D01*
X133760000Y-97291000D02*
X127710000Y-97291000D01*
X142690000Y-97291000D02*
X136640000Y-97291000D01*
X133760000Y-97251000D02*
X127694000Y-97251000D01*
X142706000Y-97251000D02*
X136640000Y-97251000D01*
X133760000Y-97211000D02*
X127678000Y-97211000D01*
X142722000Y-97211000D02*
X136640000Y-97211000D01*
X133760000Y-97171000D02*
X127663000Y-97171000D01*
X142737000Y-97171000D02*
X136640000Y-97171000D01*
X133760000Y-97131000D02*
X127647000Y-97131000D01*
X142753000Y-97131000D02*
X136640000Y-97131000D01*
X133760000Y-97091000D02*
X127632000Y-97091000D01*
X142768000Y-97091000D02*
X136640000Y-97091000D01*
X133760000Y-97051000D02*
X127618000Y-97051000D01*
X142782000Y-97051000D02*
X136640000Y-97051000D01*
X133760000Y-97011000D02*
X127603000Y-97011000D01*
X142797000Y-97011000D02*
X136640000Y-97011000D01*
X133760000Y-96971000D02*
X127589000Y-96971000D01*
X142811000Y-96971000D02*
X136640000Y-96971000D01*
X133760000Y-96931000D02*
X127575000Y-96931000D01*
X142825000Y-96931000D02*
X136640000Y-96931000D01*
X133760000Y-96891000D02*
X127561000Y-96891000D01*
X142839000Y-96891000D02*
X136640000Y-96891000D01*
X133760000Y-96851000D02*
X127547000Y-96851000D01*
X142853000Y-96851000D02*
X136640000Y-96851000D01*
X133760000Y-96811000D02*
X127534000Y-96811000D01*
X142866000Y-96811000D02*
X136640000Y-96811000D01*
X133760000Y-96771000D02*
X127520000Y-96771000D01*
X142880000Y-96771000D02*
X136640000Y-96771000D01*
X133760000Y-96731000D02*
X127507000Y-96731000D01*
X142893000Y-96731000D02*
X136640000Y-96731000D01*
X133760000Y-96691000D02*
X127495000Y-96691000D01*
X142905000Y-96691000D02*
X136640000Y-96691000D01*
X133760000Y-96651000D02*
X127482000Y-96651000D01*
X142918000Y-96651000D02*
X136640000Y-96651000D01*
X133760000Y-96611000D02*
X127470000Y-96611000D01*
X142930000Y-96611000D02*
X136640000Y-96611000D01*
X133760000Y-96571000D02*
X127458000Y-96571000D01*
X142942000Y-96571000D02*
X136640000Y-96571000D01*
X142954000Y-96531000D02*
X127446000Y-96531000D01*
X142965000Y-96491000D02*
X127435000Y-96491000D01*
X142977000Y-96451000D02*
X127423000Y-96451000D01*
X142988000Y-96411000D02*
X127412000Y-96411000D01*
X142999000Y-96371000D02*
X127401000Y-96371000D01*
X143010000Y-96331000D02*
X127390000Y-96331000D01*
X143020000Y-96291000D02*
X127380000Y-96291000D01*
X143030000Y-96251000D02*
X127370000Y-96251000D01*
X143040000Y-96211000D02*
X127360000Y-96211000D01*
X143050000Y-96171000D02*
X127350000Y-96171000D01*
X143060000Y-96131000D02*
X127340000Y-96131000D01*
X143069000Y-96091000D02*
X127331000Y-96091000D01*
X143078000Y-96051000D02*
X127322000Y-96051000D01*
X143087000Y-96011000D02*
X127313000Y-96011000D01*
X143096000Y-95971000D02*
X127304000Y-95971000D01*
X143105000Y-95931000D02*
X127295000Y-95931000D01*
X143113000Y-95891000D02*
X127287000Y-95891000D01*
X143121000Y-95851000D02*
X127279000Y-95851000D01*
X143129000Y-95811000D02*
X127271000Y-95811000D01*
X143137000Y-95771000D02*
X127263000Y-95771000D01*
X143144000Y-95731000D02*
X127256000Y-95731000D01*
X143152000Y-95691000D02*
X127248000Y-95691000D01*
X143159000Y-95651000D02*
X127241000Y-95651000D01*
X143166000Y-95611000D02*
X127234000Y-95611000D01*
X143172000Y-95571000D02*
X127228000Y-95571000D01*
X143179000Y-95531000D02*
X127221000Y-95531000D01*
X143185000Y-95491000D02*
X127215000Y-95491000D01*
X143191000Y-95451000D02*
X127209000Y-95451000D01*
X143197000Y-95411000D02*
X127203000Y-95411000D01*
X143203000Y-95371000D02*
X127197000Y-95371000D01*
X143208000Y-95331000D02*
X127192000Y-95331000D01*
X143214000Y-95291000D02*
X127186000Y-95291000D01*
X143219000Y-95251000D02*
X127181000Y-95251000D01*
X143224000Y-95211000D02*
X127176000Y-95211000D01*
X143228000Y-95171000D02*
X127172000Y-95171000D01*
X143233000Y-95131000D02*
X127167000Y-95131000D01*
X143237000Y-95091000D02*
X127163000Y-95091000D01*
X143241000Y-95051000D02*
X127159000Y-95051000D01*
X143245000Y-95011000D02*
X127155000Y-95011000D01*
X143249000Y-94971000D02*
X127151000Y-94971000D01*
X143252000Y-94930000D02*
X127148000Y-94930000D01*
X143255000Y-94890000D02*
X127145000Y-94890000D01*
X143258000Y-94850000D02*
X127142000Y-94850000D01*
X143261000Y-94810000D02*
X127139000Y-94810000D01*
X143264000Y-94770000D02*
X127136000Y-94770000D01*
X143266000Y-94730000D02*
X127134000Y-94730000D01*
X143269000Y-94690000D02*
X127131000Y-94690000D01*
X143271000Y-94650000D02*
X127129000Y-94650000D01*
X143273000Y-94610000D02*
X127127000Y-94610000D01*
X143274000Y-94570000D02*
X127126000Y-94570000D01*
X143276000Y-94530000D02*
X127124000Y-94530000D01*
X143277000Y-94490000D02*
X127123000Y-94490000D01*
X143278000Y-94450000D02*
X127122000Y-94450000D01*
X143279000Y-94410000D02*
X127121000Y-94410000D01*
X143280000Y-94370000D02*
X127120000Y-94370000D01*
X143280000Y-94330000D02*
X127120000Y-94330000D01*
X143280000Y-94290000D02*
X127120000Y-94290000D01*
X143281000Y-94250000D02*
X127119000Y-94250000D01*
X143320000Y-94250000D02*
G75*
G03*
X143320000Y-94250000I-8120000J0D01*
G01*
%TO.C,C101*%
X159255000Y-67860509D02*
X157655000Y-67860509D01*
X158455000Y-67060509D02*
X158455000Y-68660509D01*
X154665000Y-83831000D02*
X153135000Y-83831000D01*
X154998000Y-83791000D02*
X152802000Y-83791000D01*
X155251000Y-83751000D02*
X152549000Y-83751000D01*
X155464000Y-83711000D02*
X152336000Y-83711000D01*
X155652000Y-83671000D02*
X152148000Y-83671000D01*
X155820000Y-83631000D02*
X151980000Y-83631000D01*
X155974000Y-83591000D02*
X151826000Y-83591000D01*
X156118000Y-83551000D02*
X151682000Y-83551000D01*
X156251000Y-83511000D02*
X151549000Y-83511000D01*
X156378000Y-83471000D02*
X151422000Y-83471000D01*
X156497000Y-83431000D02*
X151303000Y-83431000D01*
X156611000Y-83391000D02*
X151189000Y-83391000D01*
X156720000Y-83351000D02*
X151080000Y-83351000D01*
X156824000Y-83311000D02*
X150976000Y-83311000D01*
X156924000Y-83271000D02*
X150876000Y-83271000D01*
X157020000Y-83231000D02*
X150780000Y-83231000D01*
X157113000Y-83191000D02*
X150687000Y-83191000D01*
X157203000Y-83151000D02*
X150597000Y-83151000D01*
X157290000Y-83111000D02*
X150510000Y-83111000D01*
X157375000Y-83071000D02*
X150425000Y-83071000D01*
X157457000Y-83031000D02*
X150343000Y-83031000D01*
X157537000Y-82991000D02*
X150263000Y-82991000D01*
X157615000Y-82951000D02*
X150185000Y-82951000D01*
X157690000Y-82911000D02*
X150110000Y-82911000D01*
X157764000Y-82871000D02*
X150036000Y-82871000D01*
X157836000Y-82831000D02*
X149964000Y-82831000D01*
X157907000Y-82791000D02*
X149893000Y-82791000D01*
X157976000Y-82751000D02*
X149824000Y-82751000D01*
X158043000Y-82711000D02*
X149757000Y-82711000D01*
X158109000Y-82671000D02*
X149691000Y-82671000D01*
X158173000Y-82631000D02*
X149627000Y-82631000D01*
X158236000Y-82591000D02*
X149564000Y-82591000D01*
X158298000Y-82551000D02*
X149502000Y-82551000D01*
X158359000Y-82511000D02*
X149441000Y-82511000D01*
X158419000Y-82471000D02*
X149381000Y-82471000D01*
X158477000Y-82431000D02*
X149323000Y-82431000D01*
X158534000Y-82391000D02*
X149266000Y-82391000D01*
X158591000Y-82351000D02*
X149209000Y-82351000D01*
X158646000Y-82311000D02*
X149154000Y-82311000D01*
X158700000Y-82271000D02*
X149100000Y-82271000D01*
X158754000Y-82231000D02*
X149046000Y-82231000D01*
X158806000Y-82191000D02*
X148994000Y-82191000D01*
X158858000Y-82151000D02*
X148942000Y-82151000D01*
X158909000Y-82111000D02*
X148891000Y-82111000D01*
X158959000Y-82071000D02*
X148841000Y-82071000D01*
X159008000Y-82031000D02*
X148792000Y-82031000D01*
X159056000Y-81991000D02*
X148744000Y-81991000D01*
X159104000Y-81951000D02*
X148696000Y-81951000D01*
X159151000Y-81911000D02*
X148649000Y-81911000D01*
X159197000Y-81871000D02*
X148603000Y-81871000D01*
X159243000Y-81831000D02*
X148557000Y-81831000D01*
X159288000Y-81791000D02*
X148512000Y-81791000D01*
X159332000Y-81751000D02*
X148468000Y-81751000D01*
X159375000Y-81711000D02*
X148425000Y-81711000D01*
X159418000Y-81671000D02*
X148382000Y-81671000D01*
X159460000Y-81631000D02*
X148340000Y-81631000D01*
X159502000Y-81591000D02*
X148298000Y-81591000D01*
X159543000Y-81551000D02*
X148257000Y-81551000D01*
X159584000Y-81511000D02*
X148216000Y-81511000D01*
X159624000Y-81471000D02*
X148176000Y-81471000D01*
X159663000Y-81431000D02*
X148137000Y-81431000D01*
X159702000Y-81391000D02*
X148098000Y-81391000D01*
X159740000Y-81351000D02*
X148060000Y-81351000D01*
X159778000Y-81311000D02*
X148022000Y-81311000D01*
X159816000Y-81271000D02*
X147984000Y-81271000D01*
X159852000Y-81231000D02*
X147948000Y-81231000D01*
X159889000Y-81191000D02*
X147911000Y-81191000D01*
X159925000Y-81151000D02*
X147875000Y-81151000D01*
X159960000Y-81111000D02*
X147840000Y-81111000D01*
X159995000Y-81071000D02*
X147805000Y-81071000D01*
X160029000Y-81031000D02*
X147771000Y-81031000D01*
X160063000Y-80991000D02*
X147737000Y-80991000D01*
X160097000Y-80951000D02*
X147703000Y-80951000D01*
X152460000Y-80911000D02*
X147670000Y-80911000D01*
X160130000Y-80911000D02*
X155340000Y-80911000D01*
X152460000Y-80871000D02*
X147637000Y-80871000D01*
X160163000Y-80871000D02*
X155340000Y-80871000D01*
X152460000Y-80831000D02*
X147605000Y-80831000D01*
X160195000Y-80831000D02*
X155340000Y-80831000D01*
X152460000Y-80791000D02*
X147573000Y-80791000D01*
X160227000Y-80791000D02*
X155340000Y-80791000D01*
X152460000Y-80751000D02*
X147542000Y-80751000D01*
X160258000Y-80751000D02*
X155340000Y-80751000D01*
X152460000Y-80711000D02*
X147510000Y-80711000D01*
X160290000Y-80711000D02*
X155340000Y-80711000D01*
X152460000Y-80671000D02*
X147480000Y-80671000D01*
X160320000Y-80671000D02*
X155340000Y-80671000D01*
X152460000Y-80631000D02*
X147450000Y-80631000D01*
X160350000Y-80631000D02*
X155340000Y-80631000D01*
X152460000Y-80591000D02*
X147420000Y-80591000D01*
X160380000Y-80591000D02*
X155340000Y-80591000D01*
X152460000Y-80551000D02*
X147390000Y-80551000D01*
X160410000Y-80551000D02*
X155340000Y-80551000D01*
X152460000Y-80511000D02*
X147361000Y-80511000D01*
X160439000Y-80511000D02*
X155340000Y-80511000D01*
X152460000Y-80471000D02*
X147332000Y-80471000D01*
X160468000Y-80471000D02*
X155340000Y-80471000D01*
X152460000Y-80431000D02*
X147304000Y-80431000D01*
X160496000Y-80431000D02*
X155340000Y-80431000D01*
X152460000Y-80391000D02*
X147276000Y-80391000D01*
X160524000Y-80391000D02*
X155340000Y-80391000D01*
X152460000Y-80351000D02*
X147248000Y-80351000D01*
X160552000Y-80351000D02*
X155340000Y-80351000D01*
X152460000Y-80311000D02*
X147221000Y-80311000D01*
X160579000Y-80311000D02*
X155340000Y-80311000D01*
X152460000Y-80271000D02*
X147194000Y-80271000D01*
X160606000Y-80271000D02*
X155340000Y-80271000D01*
X152460000Y-80231000D02*
X147167000Y-80231000D01*
X160633000Y-80231000D02*
X155340000Y-80231000D01*
X152460000Y-80191000D02*
X147141000Y-80191000D01*
X160659000Y-80191000D02*
X155340000Y-80191000D01*
X152460000Y-80151000D02*
X147115000Y-80151000D01*
X160685000Y-80151000D02*
X155340000Y-80151000D01*
X152460000Y-80111000D02*
X147089000Y-80111000D01*
X160711000Y-80111000D02*
X155340000Y-80111000D01*
X152460000Y-80071000D02*
X147064000Y-80071000D01*
X160736000Y-80071000D02*
X155340000Y-80071000D01*
X152460000Y-80031000D02*
X147039000Y-80031000D01*
X160761000Y-80031000D02*
X155340000Y-80031000D01*
X152460000Y-79991000D02*
X147014000Y-79991000D01*
X160786000Y-79991000D02*
X155340000Y-79991000D01*
X152460000Y-79951000D02*
X146990000Y-79951000D01*
X160810000Y-79951000D02*
X155340000Y-79951000D01*
X152460000Y-79911000D02*
X146966000Y-79911000D01*
X160834000Y-79911000D02*
X155340000Y-79911000D01*
X152460000Y-79871000D02*
X146942000Y-79871000D01*
X160858000Y-79871000D02*
X155340000Y-79871000D01*
X152460000Y-79831000D02*
X146919000Y-79831000D01*
X160881000Y-79831000D02*
X155340000Y-79831000D01*
X152460000Y-79791000D02*
X146896000Y-79791000D01*
X160904000Y-79791000D02*
X155340000Y-79791000D01*
X152460000Y-79751000D02*
X146873000Y-79751000D01*
X160927000Y-79751000D02*
X155340000Y-79751000D01*
X152460000Y-79711000D02*
X146851000Y-79711000D01*
X160949000Y-79711000D02*
X155340000Y-79711000D01*
X152460000Y-79671000D02*
X146828000Y-79671000D01*
X160972000Y-79671000D02*
X155340000Y-79671000D01*
X152460000Y-79631000D02*
X146806000Y-79631000D01*
X160994000Y-79631000D02*
X155340000Y-79631000D01*
X152460000Y-79591000D02*
X146785000Y-79591000D01*
X161015000Y-79591000D02*
X155340000Y-79591000D01*
X152460000Y-79551000D02*
X146764000Y-79551000D01*
X161036000Y-79551000D02*
X155340000Y-79551000D01*
X152460000Y-79511000D02*
X146743000Y-79511000D01*
X161057000Y-79511000D02*
X155340000Y-79511000D01*
X152460000Y-79471000D02*
X146722000Y-79471000D01*
X161078000Y-79471000D02*
X155340000Y-79471000D01*
X152460000Y-79431000D02*
X146701000Y-79431000D01*
X161099000Y-79431000D02*
X155340000Y-79431000D01*
X152460000Y-79391000D02*
X146681000Y-79391000D01*
X161119000Y-79391000D02*
X155340000Y-79391000D01*
X152460000Y-79351000D02*
X146661000Y-79351000D01*
X161139000Y-79351000D02*
X155340000Y-79351000D01*
X152460000Y-79311000D02*
X146642000Y-79311000D01*
X161158000Y-79311000D02*
X155340000Y-79311000D01*
X152460000Y-79271000D02*
X146622000Y-79271000D01*
X161178000Y-79271000D02*
X155340000Y-79271000D01*
X152460000Y-79231000D02*
X146603000Y-79231000D01*
X161197000Y-79231000D02*
X155340000Y-79231000D01*
X152460000Y-79191000D02*
X146584000Y-79191000D01*
X161216000Y-79191000D02*
X155340000Y-79191000D01*
X152460000Y-79151000D02*
X146566000Y-79151000D01*
X161234000Y-79151000D02*
X155340000Y-79151000D01*
X152460000Y-79111000D02*
X146547000Y-79111000D01*
X161253000Y-79111000D02*
X155340000Y-79111000D01*
X152460000Y-79071000D02*
X146529000Y-79071000D01*
X161271000Y-79071000D02*
X155340000Y-79071000D01*
X152460000Y-79031000D02*
X146511000Y-79031000D01*
X161289000Y-79031000D02*
X155340000Y-79031000D01*
X152460000Y-78991000D02*
X146494000Y-78991000D01*
X161306000Y-78991000D02*
X155340000Y-78991000D01*
X152460000Y-78951000D02*
X146477000Y-78951000D01*
X161323000Y-78951000D02*
X155340000Y-78951000D01*
X152460000Y-78911000D02*
X146460000Y-78911000D01*
X161340000Y-78911000D02*
X155340000Y-78911000D01*
X152460000Y-78871000D02*
X146443000Y-78871000D01*
X161357000Y-78871000D02*
X155340000Y-78871000D01*
X152460000Y-78831000D02*
X146426000Y-78831000D01*
X161374000Y-78831000D02*
X155340000Y-78831000D01*
X152460000Y-78791000D02*
X146410000Y-78791000D01*
X161390000Y-78791000D02*
X155340000Y-78791000D01*
X152460000Y-78751000D02*
X146394000Y-78751000D01*
X161406000Y-78751000D02*
X155340000Y-78751000D01*
X152460000Y-78711000D02*
X146378000Y-78711000D01*
X161422000Y-78711000D02*
X155340000Y-78711000D01*
X152460000Y-78671000D02*
X146363000Y-78671000D01*
X161437000Y-78671000D02*
X155340000Y-78671000D01*
X152460000Y-78631000D02*
X146347000Y-78631000D01*
X161453000Y-78631000D02*
X155340000Y-78631000D01*
X152460000Y-78591000D02*
X146332000Y-78591000D01*
X161468000Y-78591000D02*
X155340000Y-78591000D01*
X152460000Y-78551000D02*
X146318000Y-78551000D01*
X161482000Y-78551000D02*
X155340000Y-78551000D01*
X152460000Y-78511000D02*
X146303000Y-78511000D01*
X161497000Y-78511000D02*
X155340000Y-78511000D01*
X152460000Y-78471000D02*
X146289000Y-78471000D01*
X161511000Y-78471000D02*
X155340000Y-78471000D01*
X152460000Y-78431000D02*
X146275000Y-78431000D01*
X161525000Y-78431000D02*
X155340000Y-78431000D01*
X152460000Y-78391000D02*
X146261000Y-78391000D01*
X161539000Y-78391000D02*
X155340000Y-78391000D01*
X152460000Y-78351000D02*
X146247000Y-78351000D01*
X161553000Y-78351000D02*
X155340000Y-78351000D01*
X152460000Y-78311000D02*
X146234000Y-78311000D01*
X161566000Y-78311000D02*
X155340000Y-78311000D01*
X152460000Y-78271000D02*
X146220000Y-78271000D01*
X161580000Y-78271000D02*
X155340000Y-78271000D01*
X152460000Y-78231000D02*
X146207000Y-78231000D01*
X161593000Y-78231000D02*
X155340000Y-78231000D01*
X152460000Y-78191000D02*
X146195000Y-78191000D01*
X161605000Y-78191000D02*
X155340000Y-78191000D01*
X152460000Y-78151000D02*
X146182000Y-78151000D01*
X161618000Y-78151000D02*
X155340000Y-78151000D01*
X152460000Y-78111000D02*
X146170000Y-78111000D01*
X161630000Y-78111000D02*
X155340000Y-78111000D01*
X152460000Y-78071000D02*
X146158000Y-78071000D01*
X161642000Y-78071000D02*
X155340000Y-78071000D01*
X161654000Y-78031000D02*
X146146000Y-78031000D01*
X161665000Y-77991000D02*
X146135000Y-77991000D01*
X161677000Y-77951000D02*
X146123000Y-77951000D01*
X161688000Y-77911000D02*
X146112000Y-77911000D01*
X161699000Y-77871000D02*
X146101000Y-77871000D01*
X161710000Y-77831000D02*
X146090000Y-77831000D01*
X161720000Y-77791000D02*
X146080000Y-77791000D01*
X161730000Y-77751000D02*
X146070000Y-77751000D01*
X161740000Y-77711000D02*
X146060000Y-77711000D01*
X161750000Y-77671000D02*
X146050000Y-77671000D01*
X161760000Y-77631000D02*
X146040000Y-77631000D01*
X161769000Y-77591000D02*
X146031000Y-77591000D01*
X161778000Y-77551000D02*
X146022000Y-77551000D01*
X161787000Y-77511000D02*
X146013000Y-77511000D01*
X161796000Y-77471000D02*
X146004000Y-77471000D01*
X161805000Y-77431000D02*
X145995000Y-77431000D01*
X161813000Y-77391000D02*
X145987000Y-77391000D01*
X161821000Y-77351000D02*
X145979000Y-77351000D01*
X161829000Y-77311000D02*
X145971000Y-77311000D01*
X161837000Y-77271000D02*
X145963000Y-77271000D01*
X161844000Y-77231000D02*
X145956000Y-77231000D01*
X161852000Y-77191000D02*
X145948000Y-77191000D01*
X161859000Y-77151000D02*
X145941000Y-77151000D01*
X161866000Y-77111000D02*
X145934000Y-77111000D01*
X161872000Y-77071000D02*
X145928000Y-77071000D01*
X161879000Y-77031000D02*
X145921000Y-77031000D01*
X161885000Y-76991000D02*
X145915000Y-76991000D01*
X161891000Y-76951000D02*
X145909000Y-76951000D01*
X161897000Y-76911000D02*
X145903000Y-76911000D01*
X161903000Y-76871000D02*
X145897000Y-76871000D01*
X161908000Y-76831000D02*
X145892000Y-76831000D01*
X161914000Y-76791000D02*
X145886000Y-76791000D01*
X161919000Y-76751000D02*
X145881000Y-76751000D01*
X161924000Y-76711000D02*
X145876000Y-76711000D01*
X161928000Y-76671000D02*
X145872000Y-76671000D01*
X161933000Y-76631000D02*
X145867000Y-76631000D01*
X161937000Y-76591000D02*
X145863000Y-76591000D01*
X161941000Y-76551000D02*
X145859000Y-76551000D01*
X161945000Y-76511000D02*
X145855000Y-76511000D01*
X161949000Y-76471000D02*
X145851000Y-76471000D01*
X161952000Y-76430000D02*
X145848000Y-76430000D01*
X161955000Y-76390000D02*
X145845000Y-76390000D01*
X161958000Y-76350000D02*
X145842000Y-76350000D01*
X161961000Y-76310000D02*
X145839000Y-76310000D01*
X161964000Y-76270000D02*
X145836000Y-76270000D01*
X161966000Y-76230000D02*
X145834000Y-76230000D01*
X161969000Y-76190000D02*
X145831000Y-76190000D01*
X161971000Y-76150000D02*
X145829000Y-76150000D01*
X161973000Y-76110000D02*
X145827000Y-76110000D01*
X161974000Y-76070000D02*
X145826000Y-76070000D01*
X161976000Y-76030000D02*
X145824000Y-76030000D01*
X161977000Y-75990000D02*
X145823000Y-75990000D01*
X161978000Y-75950000D02*
X145822000Y-75950000D01*
X161979000Y-75910000D02*
X145821000Y-75910000D01*
X161980000Y-75870000D02*
X145820000Y-75870000D01*
X161980000Y-75830000D02*
X145820000Y-75830000D01*
X161980000Y-75790000D02*
X145820000Y-75790000D01*
X161981000Y-75750000D02*
X145819000Y-75750000D01*
X162020000Y-75750000D02*
G75*
G03*
X162020000Y-75750000I-8120000J0D01*
G01*
%TO.C,SW101*%
D10*
X77354761Y-60285714D02*
X77402380Y-60142857D01*
X77402380Y-59904761D01*
X77354761Y-59809523D01*
X77307142Y-59761904D01*
X77211904Y-59714285D01*
X77116666Y-59714285D01*
X77021428Y-59761904D01*
X76973809Y-59809523D01*
X76926190Y-59904761D01*
X76878571Y-60095238D01*
X76830952Y-60190476D01*
X76783333Y-60238095D01*
X76688095Y-60285714D01*
X76592857Y-60285714D01*
X76497619Y-60238095D01*
X76450000Y-60190476D01*
X76402380Y-60095238D01*
X76402380Y-59857142D01*
X76450000Y-59714285D01*
X76402380Y-59380952D02*
X77402380Y-59142857D01*
X76688095Y-58952380D01*
X77402380Y-58761904D01*
X76402380Y-58523809D01*
X77402380Y-57619047D02*
X77402380Y-58190476D01*
X77402380Y-57904761D02*
X76402380Y-57904761D01*
X76545238Y-58000000D01*
X76640476Y-58095238D01*
X76688095Y-58190476D01*
X76402380Y-57000000D02*
X76402380Y-56904761D01*
X76450000Y-56809523D01*
X76497619Y-56761904D01*
X76592857Y-56714285D01*
X76783333Y-56666666D01*
X77021428Y-56666666D01*
X77211904Y-56714285D01*
X77307142Y-56761904D01*
X77354761Y-56809523D01*
X77402380Y-56904761D01*
X77402380Y-57000000D01*
X77354761Y-57095238D01*
X77307142Y-57142857D01*
X77211904Y-57190476D01*
X77021428Y-57238095D01*
X76783333Y-57238095D01*
X76592857Y-57190476D01*
X76497619Y-57142857D01*
X76450000Y-57095238D01*
X76402380Y-57000000D01*
X77402380Y-55714285D02*
X77402380Y-56285714D01*
X77402380Y-56000000D02*
X76402380Y-56000000D01*
X76545238Y-56095238D01*
X76640476Y-56190476D01*
X76688095Y-56285714D01*
%TO.C,P101*%
X76659523Y-93702380D02*
X76659523Y-92702380D01*
X77040476Y-92702380D01*
X77135714Y-92750000D01*
X77183333Y-92797619D01*
X77230952Y-92892857D01*
X77230952Y-93035714D01*
X77183333Y-93130952D01*
X77135714Y-93178571D01*
X77040476Y-93226190D01*
X76659523Y-93226190D01*
X78183333Y-93702380D02*
X77611904Y-93702380D01*
X77897619Y-93702380D02*
X77897619Y-92702380D01*
X77802380Y-92845238D01*
X77707142Y-92940476D01*
X77611904Y-92988095D01*
X78802380Y-92702380D02*
X78897619Y-92702380D01*
X78992857Y-92750000D01*
X79040476Y-92797619D01*
X79088095Y-92892857D01*
X79135714Y-93083333D01*
X79135714Y-93321428D01*
X79088095Y-93511904D01*
X79040476Y-93607142D01*
X78992857Y-93654761D01*
X78897619Y-93702380D01*
X78802380Y-93702380D01*
X78707142Y-93654761D01*
X78659523Y-93607142D01*
X78611904Y-93511904D01*
X78564285Y-93321428D01*
X78564285Y-93083333D01*
X78611904Y-92892857D01*
X78659523Y-92797619D01*
X78707142Y-92750000D01*
X78802380Y-92702380D01*
X80088095Y-93702380D02*
X79516666Y-93702380D01*
X79802380Y-93702380D02*
X79802380Y-92702380D01*
X79707142Y-92845238D01*
X79611904Y-92940476D01*
X79516666Y-92988095D01*
%TO.C,R102*%
X84172380Y-86589047D02*
X83696190Y-86922380D01*
X84172380Y-87160476D02*
X83172380Y-87160476D01*
X83172380Y-86779523D01*
X83220000Y-86684285D01*
X83267619Y-86636666D01*
X83362857Y-86589047D01*
X83505714Y-86589047D01*
X83600952Y-86636666D01*
X83648571Y-86684285D01*
X83696190Y-86779523D01*
X83696190Y-87160476D01*
X84172380Y-85636666D02*
X84172380Y-86208095D01*
X84172380Y-85922380D02*
X83172380Y-85922380D01*
X83315238Y-86017619D01*
X83410476Y-86112857D01*
X83458095Y-86208095D01*
X83172380Y-85017619D02*
X83172380Y-84922380D01*
X83220000Y-84827142D01*
X83267619Y-84779523D01*
X83362857Y-84731904D01*
X83553333Y-84684285D01*
X83791428Y-84684285D01*
X83981904Y-84731904D01*
X84077142Y-84779523D01*
X84124761Y-84827142D01*
X84172380Y-84922380D01*
X84172380Y-85017619D01*
X84124761Y-85112857D01*
X84077142Y-85160476D01*
X83981904Y-85208095D01*
X83791428Y-85255714D01*
X83553333Y-85255714D01*
X83362857Y-85208095D01*
X83267619Y-85160476D01*
X83220000Y-85112857D01*
X83172380Y-85017619D01*
X83267619Y-84303333D02*
X83220000Y-84255714D01*
X83172380Y-84160476D01*
X83172380Y-83922380D01*
X83220000Y-83827142D01*
X83267619Y-83779523D01*
X83362857Y-83731904D01*
X83458095Y-83731904D01*
X83600952Y-83779523D01*
X84172380Y-84350952D01*
X84172380Y-83731904D01*
%TO.C,R101*%
X84152380Y-77349047D02*
X83676190Y-77682380D01*
X84152380Y-77920476D02*
X83152380Y-77920476D01*
X83152380Y-77539523D01*
X83200000Y-77444285D01*
X83247619Y-77396666D01*
X83342857Y-77349047D01*
X83485714Y-77349047D01*
X83580952Y-77396666D01*
X83628571Y-77444285D01*
X83676190Y-77539523D01*
X83676190Y-77920476D01*
X84152380Y-76396666D02*
X84152380Y-76968095D01*
X84152380Y-76682380D02*
X83152380Y-76682380D01*
X83295238Y-76777619D01*
X83390476Y-76872857D01*
X83438095Y-76968095D01*
X83152380Y-75777619D02*
X83152380Y-75682380D01*
X83200000Y-75587142D01*
X83247619Y-75539523D01*
X83342857Y-75491904D01*
X83533333Y-75444285D01*
X83771428Y-75444285D01*
X83961904Y-75491904D01*
X84057142Y-75539523D01*
X84104761Y-75587142D01*
X84152380Y-75682380D01*
X84152380Y-75777619D01*
X84104761Y-75872857D01*
X84057142Y-75920476D01*
X83961904Y-75968095D01*
X83771428Y-76015714D01*
X83533333Y-76015714D01*
X83342857Y-75968095D01*
X83247619Y-75920476D01*
X83200000Y-75872857D01*
X83152380Y-75777619D01*
X84152380Y-74491904D02*
X84152380Y-75063333D01*
X84152380Y-74777619D02*
X83152380Y-74777619D01*
X83295238Y-74872857D01*
X83390476Y-74968095D01*
X83438095Y-75063333D01*
%TO.C,U102*%
X88232380Y-93514285D02*
X89041904Y-93514285D01*
X89137142Y-93466666D01*
X89184761Y-93419047D01*
X89232380Y-93323809D01*
X89232380Y-93133333D01*
X89184761Y-93038095D01*
X89137142Y-92990476D01*
X89041904Y-92942857D01*
X88232380Y-92942857D01*
X89232380Y-91942857D02*
X89232380Y-92514285D01*
X89232380Y-92228571D02*
X88232380Y-92228571D01*
X88375238Y-92323809D01*
X88470476Y-92419047D01*
X88518095Y-92514285D01*
X88232380Y-91323809D02*
X88232380Y-91228571D01*
X88280000Y-91133333D01*
X88327619Y-91085714D01*
X88422857Y-91038095D01*
X88613333Y-90990476D01*
X88851428Y-90990476D01*
X89041904Y-91038095D01*
X89137142Y-91085714D01*
X89184761Y-91133333D01*
X89232380Y-91228571D01*
X89232380Y-91323809D01*
X89184761Y-91419047D01*
X89137142Y-91466666D01*
X89041904Y-91514285D01*
X88851428Y-91561904D01*
X88613333Y-91561904D01*
X88422857Y-91514285D01*
X88327619Y-91466666D01*
X88280000Y-91419047D01*
X88232380Y-91323809D01*
X88327619Y-90609523D02*
X88280000Y-90561904D01*
X88232380Y-90466666D01*
X88232380Y-90228571D01*
X88280000Y-90133333D01*
X88327619Y-90085714D01*
X88422857Y-90038095D01*
X88518095Y-90038095D01*
X88660952Y-90085714D01*
X89232380Y-90657142D01*
X89232380Y-90038095D01*
%TO.C,U101*%
X88572380Y-80974285D02*
X89381904Y-80974285D01*
X89477142Y-80926666D01*
X89524761Y-80879047D01*
X89572380Y-80783809D01*
X89572380Y-80593333D01*
X89524761Y-80498095D01*
X89477142Y-80450476D01*
X89381904Y-80402857D01*
X88572380Y-80402857D01*
X89572380Y-79402857D02*
X89572380Y-79974285D01*
X89572380Y-79688571D02*
X88572380Y-79688571D01*
X88715238Y-79783809D01*
X88810476Y-79879047D01*
X88858095Y-79974285D01*
X88572380Y-78783809D02*
X88572380Y-78688571D01*
X88620000Y-78593333D01*
X88667619Y-78545714D01*
X88762857Y-78498095D01*
X88953333Y-78450476D01*
X89191428Y-78450476D01*
X89381904Y-78498095D01*
X89477142Y-78545714D01*
X89524761Y-78593333D01*
X89572380Y-78688571D01*
X89572380Y-78783809D01*
X89524761Y-78879047D01*
X89477142Y-78926666D01*
X89381904Y-78974285D01*
X89191428Y-79021904D01*
X88953333Y-79021904D01*
X88762857Y-78974285D01*
X88667619Y-78926666D01*
X88620000Y-78879047D01*
X88572380Y-78783809D01*
X89572380Y-77498095D02*
X89572380Y-78069523D01*
X89572380Y-77783809D02*
X88572380Y-77783809D01*
X88715238Y-77879047D01*
X88810476Y-77974285D01*
X88858095Y-78069523D01*
%TO.C,D108*%
X80212380Y-87160476D02*
X79212380Y-87160476D01*
X79212380Y-86922380D01*
X79260000Y-86779523D01*
X79355238Y-86684285D01*
X79450476Y-86636666D01*
X79640952Y-86589047D01*
X79783809Y-86589047D01*
X79974285Y-86636666D01*
X80069523Y-86684285D01*
X80164761Y-86779523D01*
X80212380Y-86922380D01*
X80212380Y-87160476D01*
X80212380Y-85636666D02*
X80212380Y-86208095D01*
X80212380Y-85922380D02*
X79212380Y-85922380D01*
X79355238Y-86017619D01*
X79450476Y-86112857D01*
X79498095Y-86208095D01*
X79212380Y-85017619D02*
X79212380Y-84922380D01*
X79260000Y-84827142D01*
X79307619Y-84779523D01*
X79402857Y-84731904D01*
X79593333Y-84684285D01*
X79831428Y-84684285D01*
X80021904Y-84731904D01*
X80117142Y-84779523D01*
X80164761Y-84827142D01*
X80212380Y-84922380D01*
X80212380Y-85017619D01*
X80164761Y-85112857D01*
X80117142Y-85160476D01*
X80021904Y-85208095D01*
X79831428Y-85255714D01*
X79593333Y-85255714D01*
X79402857Y-85208095D01*
X79307619Y-85160476D01*
X79260000Y-85112857D01*
X79212380Y-85017619D01*
X79640952Y-84112857D02*
X79593333Y-84208095D01*
X79545714Y-84255714D01*
X79450476Y-84303333D01*
X79402857Y-84303333D01*
X79307619Y-84255714D01*
X79260000Y-84208095D01*
X79212380Y-84112857D01*
X79212380Y-83922380D01*
X79260000Y-83827142D01*
X79307619Y-83779523D01*
X79402857Y-83731904D01*
X79450476Y-83731904D01*
X79545714Y-83779523D01*
X79593333Y-83827142D01*
X79640952Y-83922380D01*
X79640952Y-84112857D01*
X79688571Y-84208095D01*
X79736190Y-84255714D01*
X79831428Y-84303333D01*
X80021904Y-84303333D01*
X80117142Y-84255714D01*
X80164761Y-84208095D01*
X80212380Y-84112857D01*
X80212380Y-83922380D01*
X80164761Y-83827142D01*
X80117142Y-83779523D01*
X80021904Y-83731904D01*
X79831428Y-83731904D01*
X79736190Y-83779523D01*
X79688571Y-83827142D01*
X79640952Y-83922380D01*
%TO.C,D107*%
X80212380Y-77960476D02*
X79212380Y-77960476D01*
X79212380Y-77722380D01*
X79260000Y-77579523D01*
X79355238Y-77484285D01*
X79450476Y-77436666D01*
X79640952Y-77389047D01*
X79783809Y-77389047D01*
X79974285Y-77436666D01*
X80069523Y-77484285D01*
X80164761Y-77579523D01*
X80212380Y-77722380D01*
X80212380Y-77960476D01*
X80212380Y-76436666D02*
X80212380Y-77008095D01*
X80212380Y-76722380D02*
X79212380Y-76722380D01*
X79355238Y-76817619D01*
X79450476Y-76912857D01*
X79498095Y-77008095D01*
X79212380Y-75817619D02*
X79212380Y-75722380D01*
X79260000Y-75627142D01*
X79307619Y-75579523D01*
X79402857Y-75531904D01*
X79593333Y-75484285D01*
X79831428Y-75484285D01*
X80021904Y-75531904D01*
X80117142Y-75579523D01*
X80164761Y-75627142D01*
X80212380Y-75722380D01*
X80212380Y-75817619D01*
X80164761Y-75912857D01*
X80117142Y-75960476D01*
X80021904Y-76008095D01*
X79831428Y-76055714D01*
X79593333Y-76055714D01*
X79402857Y-76008095D01*
X79307619Y-75960476D01*
X79260000Y-75912857D01*
X79212380Y-75817619D01*
X79212380Y-75150952D02*
X79212380Y-74484285D01*
X80212380Y-74912857D01*
%TO.C,D106*%
X124722380Y-94500476D02*
X123722380Y-94500476D01*
X123722380Y-94262380D01*
X123770000Y-94119523D01*
X123865238Y-94024285D01*
X123960476Y-93976666D01*
X124150952Y-93929047D01*
X124293809Y-93929047D01*
X124484285Y-93976666D01*
X124579523Y-94024285D01*
X124674761Y-94119523D01*
X124722380Y-94262380D01*
X124722380Y-94500476D01*
X124722380Y-92976666D02*
X124722380Y-93548095D01*
X124722380Y-93262380D02*
X123722380Y-93262380D01*
X123865238Y-93357619D01*
X123960476Y-93452857D01*
X124008095Y-93548095D01*
X123722380Y-92357619D02*
X123722380Y-92262380D01*
X123770000Y-92167142D01*
X123817619Y-92119523D01*
X123912857Y-92071904D01*
X124103333Y-92024285D01*
X124341428Y-92024285D01*
X124531904Y-92071904D01*
X124627142Y-92119523D01*
X124674761Y-92167142D01*
X124722380Y-92262380D01*
X124722380Y-92357619D01*
X124674761Y-92452857D01*
X124627142Y-92500476D01*
X124531904Y-92548095D01*
X124341428Y-92595714D01*
X124103333Y-92595714D01*
X123912857Y-92548095D01*
X123817619Y-92500476D01*
X123770000Y-92452857D01*
X123722380Y-92357619D01*
X123722380Y-91167142D02*
X123722380Y-91357619D01*
X123770000Y-91452857D01*
X123817619Y-91500476D01*
X123960476Y-91595714D01*
X124150952Y-91643333D01*
X124531904Y-91643333D01*
X124627142Y-91595714D01*
X124674761Y-91548095D01*
X124722380Y-91452857D01*
X124722380Y-91262380D01*
X124674761Y-91167142D01*
X124627142Y-91119523D01*
X124531904Y-91071904D01*
X124293809Y-91071904D01*
X124198571Y-91119523D01*
X124150952Y-91167142D01*
X124103333Y-91262380D01*
X124103333Y-91452857D01*
X124150952Y-91548095D01*
X124198571Y-91595714D01*
X124293809Y-91643333D01*
X124352380Y-89261904D02*
X123352380Y-89261904D01*
X124352380Y-88690476D02*
X123780952Y-89119047D01*
X123352380Y-88690476D02*
X123923809Y-89261904D01*
%TO.C,D105*%
X124622380Y-80900476D02*
X123622380Y-80900476D01*
X123622380Y-80662380D01*
X123670000Y-80519523D01*
X123765238Y-80424285D01*
X123860476Y-80376666D01*
X124050952Y-80329047D01*
X124193809Y-80329047D01*
X124384285Y-80376666D01*
X124479523Y-80424285D01*
X124574761Y-80519523D01*
X124622380Y-80662380D01*
X124622380Y-80900476D01*
X124622380Y-79376666D02*
X124622380Y-79948095D01*
X124622380Y-79662380D02*
X123622380Y-79662380D01*
X123765238Y-79757619D01*
X123860476Y-79852857D01*
X123908095Y-79948095D01*
X123622380Y-78757619D02*
X123622380Y-78662380D01*
X123670000Y-78567142D01*
X123717619Y-78519523D01*
X123812857Y-78471904D01*
X124003333Y-78424285D01*
X124241428Y-78424285D01*
X124431904Y-78471904D01*
X124527142Y-78519523D01*
X124574761Y-78567142D01*
X124622380Y-78662380D01*
X124622380Y-78757619D01*
X124574761Y-78852857D01*
X124527142Y-78900476D01*
X124431904Y-78948095D01*
X124241428Y-78995714D01*
X124003333Y-78995714D01*
X123812857Y-78948095D01*
X123717619Y-78900476D01*
X123670000Y-78852857D01*
X123622380Y-78757619D01*
X123622380Y-77519523D02*
X123622380Y-77995714D01*
X124098571Y-78043333D01*
X124050952Y-77995714D01*
X124003333Y-77900476D01*
X124003333Y-77662380D01*
X124050952Y-77567142D01*
X124098571Y-77519523D01*
X124193809Y-77471904D01*
X124431904Y-77471904D01*
X124527142Y-77519523D01*
X124574761Y-77567142D01*
X124622380Y-77662380D01*
X124622380Y-77900476D01*
X124574761Y-77995714D01*
X124527142Y-78043333D01*
X124252380Y-75661904D02*
X123252380Y-75661904D01*
X124252380Y-75090476D02*
X123680952Y-75519047D01*
X123252380Y-75090476D02*
X123823809Y-75661904D01*
%TO.C,D104*%
X104819523Y-98582380D02*
X104819523Y-97582380D01*
X105057619Y-97582380D01*
X105200476Y-97630000D01*
X105295714Y-97725238D01*
X105343333Y-97820476D01*
X105390952Y-98010952D01*
X105390952Y-98153809D01*
X105343333Y-98344285D01*
X105295714Y-98439523D01*
X105200476Y-98534761D01*
X105057619Y-98582380D01*
X104819523Y-98582380D01*
X106343333Y-98582380D02*
X105771904Y-98582380D01*
X106057619Y-98582380D02*
X106057619Y-97582380D01*
X105962380Y-97725238D01*
X105867142Y-97820476D01*
X105771904Y-97868095D01*
X106962380Y-97582380D02*
X107057619Y-97582380D01*
X107152857Y-97630000D01*
X107200476Y-97677619D01*
X107248095Y-97772857D01*
X107295714Y-97963333D01*
X107295714Y-98201428D01*
X107248095Y-98391904D01*
X107200476Y-98487142D01*
X107152857Y-98534761D01*
X107057619Y-98582380D01*
X106962380Y-98582380D01*
X106867142Y-98534761D01*
X106819523Y-98487142D01*
X106771904Y-98391904D01*
X106724285Y-98201428D01*
X106724285Y-97963333D01*
X106771904Y-97772857D01*
X106819523Y-97677619D01*
X106867142Y-97630000D01*
X106962380Y-97582380D01*
X108152857Y-97915714D02*
X108152857Y-98582380D01*
X107914761Y-97534761D02*
X107676666Y-98249047D01*
X108295714Y-98249047D01*
X102438095Y-98952380D02*
X102438095Y-97952380D01*
X103009523Y-98952380D02*
X102580952Y-98380952D01*
X103009523Y-97952380D02*
X102438095Y-98523809D01*
%TO.C,D103*%
X105599523Y-73522380D02*
X105599523Y-72522380D01*
X105837619Y-72522380D01*
X105980476Y-72570000D01*
X106075714Y-72665238D01*
X106123333Y-72760476D01*
X106170952Y-72950952D01*
X106170952Y-73093809D01*
X106123333Y-73284285D01*
X106075714Y-73379523D01*
X105980476Y-73474761D01*
X105837619Y-73522380D01*
X105599523Y-73522380D01*
X107123333Y-73522380D02*
X106551904Y-73522380D01*
X106837619Y-73522380D02*
X106837619Y-72522380D01*
X106742380Y-72665238D01*
X106647142Y-72760476D01*
X106551904Y-72808095D01*
X107742380Y-72522380D02*
X107837619Y-72522380D01*
X107932857Y-72570000D01*
X107980476Y-72617619D01*
X108028095Y-72712857D01*
X108075714Y-72903333D01*
X108075714Y-73141428D01*
X108028095Y-73331904D01*
X107980476Y-73427142D01*
X107932857Y-73474761D01*
X107837619Y-73522380D01*
X107742380Y-73522380D01*
X107647142Y-73474761D01*
X107599523Y-73427142D01*
X107551904Y-73331904D01*
X107504285Y-73141428D01*
X107504285Y-72903333D01*
X107551904Y-72712857D01*
X107599523Y-72617619D01*
X107647142Y-72570000D01*
X107742380Y-72522380D01*
X108409047Y-72522380D02*
X109028095Y-72522380D01*
X108694761Y-72903333D01*
X108837619Y-72903333D01*
X108932857Y-72950952D01*
X108980476Y-72998571D01*
X109028095Y-73093809D01*
X109028095Y-73331904D01*
X108980476Y-73427142D01*
X108932857Y-73474761D01*
X108837619Y-73522380D01*
X108551904Y-73522380D01*
X108456666Y-73474761D01*
X108409047Y-73427142D01*
X110838095Y-73152380D02*
X110838095Y-72152380D01*
X111409523Y-73152380D02*
X110980952Y-72580952D01*
X111409523Y-72152380D02*
X110838095Y-72723809D01*
%TO.C,D102*%
X92819523Y-98682380D02*
X92819523Y-97682380D01*
X93057619Y-97682380D01*
X93200476Y-97730000D01*
X93295714Y-97825238D01*
X93343333Y-97920476D01*
X93390952Y-98110952D01*
X93390952Y-98253809D01*
X93343333Y-98444285D01*
X93295714Y-98539523D01*
X93200476Y-98634761D01*
X93057619Y-98682380D01*
X92819523Y-98682380D01*
X94343333Y-98682380D02*
X93771904Y-98682380D01*
X94057619Y-98682380D02*
X94057619Y-97682380D01*
X93962380Y-97825238D01*
X93867142Y-97920476D01*
X93771904Y-97968095D01*
X94962380Y-97682380D02*
X95057619Y-97682380D01*
X95152857Y-97730000D01*
X95200476Y-97777619D01*
X95248095Y-97872857D01*
X95295714Y-98063333D01*
X95295714Y-98301428D01*
X95248095Y-98491904D01*
X95200476Y-98587142D01*
X95152857Y-98634761D01*
X95057619Y-98682380D01*
X94962380Y-98682380D01*
X94867142Y-98634761D01*
X94819523Y-98587142D01*
X94771904Y-98491904D01*
X94724285Y-98301428D01*
X94724285Y-98063333D01*
X94771904Y-97872857D01*
X94819523Y-97777619D01*
X94867142Y-97730000D01*
X94962380Y-97682380D01*
X95676666Y-97777619D02*
X95724285Y-97730000D01*
X95819523Y-97682380D01*
X96057619Y-97682380D01*
X96152857Y-97730000D01*
X96200476Y-97777619D01*
X96248095Y-97872857D01*
X96248095Y-97968095D01*
X96200476Y-98110952D01*
X95629047Y-98682380D01*
X96248095Y-98682380D01*
X90438095Y-99052380D02*
X90438095Y-98052380D01*
X91009523Y-99052380D02*
X90580952Y-98480952D01*
X91009523Y-98052380D02*
X90438095Y-98623809D01*
%TO.C,D101*%
X93699523Y-73722380D02*
X93699523Y-72722380D01*
X93937619Y-72722380D01*
X94080476Y-72770000D01*
X94175714Y-72865238D01*
X94223333Y-72960476D01*
X94270952Y-73150952D01*
X94270952Y-73293809D01*
X94223333Y-73484285D01*
X94175714Y-73579523D01*
X94080476Y-73674761D01*
X93937619Y-73722380D01*
X93699523Y-73722380D01*
X95223333Y-73722380D02*
X94651904Y-73722380D01*
X94937619Y-73722380D02*
X94937619Y-72722380D01*
X94842380Y-72865238D01*
X94747142Y-72960476D01*
X94651904Y-73008095D01*
X95842380Y-72722380D02*
X95937619Y-72722380D01*
X96032857Y-72770000D01*
X96080476Y-72817619D01*
X96128095Y-72912857D01*
X96175714Y-73103333D01*
X96175714Y-73341428D01*
X96128095Y-73531904D01*
X96080476Y-73627142D01*
X96032857Y-73674761D01*
X95937619Y-73722380D01*
X95842380Y-73722380D01*
X95747142Y-73674761D01*
X95699523Y-73627142D01*
X95651904Y-73531904D01*
X95604285Y-73341428D01*
X95604285Y-73103333D01*
X95651904Y-72912857D01*
X95699523Y-72817619D01*
X95747142Y-72770000D01*
X95842380Y-72722380D01*
X97128095Y-73722380D02*
X96556666Y-73722380D01*
X96842380Y-73722380D02*
X96842380Y-72722380D01*
X96747142Y-72865238D01*
X96651904Y-72960476D01*
X96556666Y-73008095D01*
X98938095Y-73352380D02*
X98938095Y-72352380D01*
X99509523Y-73352380D02*
X99080952Y-72780952D01*
X99509523Y-72352380D02*
X98938095Y-72923809D01*
%TO.C,C110*%
X111257142Y-90619047D02*
X111304761Y-90666666D01*
X111352380Y-90809523D01*
X111352380Y-90904761D01*
X111304761Y-91047619D01*
X111209523Y-91142857D01*
X111114285Y-91190476D01*
X110923809Y-91238095D01*
X110780952Y-91238095D01*
X110590476Y-91190476D01*
X110495238Y-91142857D01*
X110400000Y-91047619D01*
X110352380Y-90904761D01*
X110352380Y-90809523D01*
X110400000Y-90666666D01*
X110447619Y-90619047D01*
X111352380Y-89666666D02*
X111352380Y-90238095D01*
X111352380Y-89952380D02*
X110352380Y-89952380D01*
X110495238Y-90047619D01*
X110590476Y-90142857D01*
X110638095Y-90238095D01*
X111352380Y-88714285D02*
X111352380Y-89285714D01*
X111352380Y-89000000D02*
X110352380Y-89000000D01*
X110495238Y-89095238D01*
X110590476Y-89190476D01*
X110638095Y-89285714D01*
X110352380Y-88095238D02*
X110352380Y-88000000D01*
X110400000Y-87904761D01*
X110447619Y-87857142D01*
X110542857Y-87809523D01*
X110733333Y-87761904D01*
X110971428Y-87761904D01*
X111161904Y-87809523D01*
X111257142Y-87857142D01*
X111304761Y-87904761D01*
X111352380Y-88000000D01*
X111352380Y-88095238D01*
X111304761Y-88190476D01*
X111257142Y-88238095D01*
X111161904Y-88285714D01*
X110971428Y-88333333D01*
X110733333Y-88333333D01*
X110542857Y-88285714D01*
X110447619Y-88238095D01*
X110400000Y-88190476D01*
X110352380Y-88095238D01*
%TO.C,C109*%
X118807142Y-76169047D02*
X118854761Y-76216666D01*
X118902380Y-76359523D01*
X118902380Y-76454761D01*
X118854761Y-76597619D01*
X118759523Y-76692857D01*
X118664285Y-76740476D01*
X118473809Y-76788095D01*
X118330952Y-76788095D01*
X118140476Y-76740476D01*
X118045238Y-76692857D01*
X117950000Y-76597619D01*
X117902380Y-76454761D01*
X117902380Y-76359523D01*
X117950000Y-76216666D01*
X117997619Y-76169047D01*
X118902380Y-75216666D02*
X118902380Y-75788095D01*
X118902380Y-75502380D02*
X117902380Y-75502380D01*
X118045238Y-75597619D01*
X118140476Y-75692857D01*
X118188095Y-75788095D01*
X117902380Y-74597619D02*
X117902380Y-74502380D01*
X117950000Y-74407142D01*
X117997619Y-74359523D01*
X118092857Y-74311904D01*
X118283333Y-74264285D01*
X118521428Y-74264285D01*
X118711904Y-74311904D01*
X118807142Y-74359523D01*
X118854761Y-74407142D01*
X118902380Y-74502380D01*
X118902380Y-74597619D01*
X118854761Y-74692857D01*
X118807142Y-74740476D01*
X118711904Y-74788095D01*
X118521428Y-74835714D01*
X118283333Y-74835714D01*
X118092857Y-74788095D01*
X117997619Y-74740476D01*
X117950000Y-74692857D01*
X117902380Y-74597619D01*
X118902380Y-73788095D02*
X118902380Y-73597619D01*
X118854761Y-73502380D01*
X118807142Y-73454761D01*
X118664285Y-73359523D01*
X118473809Y-73311904D01*
X118092857Y-73311904D01*
X117997619Y-73359523D01*
X117950000Y-73407142D01*
X117902380Y-73502380D01*
X117902380Y-73692857D01*
X117950000Y-73788095D01*
X117997619Y-73835714D01*
X118092857Y-73883333D01*
X118330952Y-73883333D01*
X118426190Y-73835714D01*
X118473809Y-73788095D01*
X118521428Y-73692857D01*
X118521428Y-73502380D01*
X118473809Y-73407142D01*
X118426190Y-73359523D01*
X118330952Y-73311904D01*
%TO.C,C108*%
X111557142Y-96969047D02*
X111604761Y-97016666D01*
X111652380Y-97159523D01*
X111652380Y-97254761D01*
X111604761Y-97397619D01*
X111509523Y-97492857D01*
X111414285Y-97540476D01*
X111223809Y-97588095D01*
X111080952Y-97588095D01*
X110890476Y-97540476D01*
X110795238Y-97492857D01*
X110700000Y-97397619D01*
X110652380Y-97254761D01*
X110652380Y-97159523D01*
X110700000Y-97016666D01*
X110747619Y-96969047D01*
X111652380Y-96016666D02*
X111652380Y-96588095D01*
X111652380Y-96302380D02*
X110652380Y-96302380D01*
X110795238Y-96397619D01*
X110890476Y-96492857D01*
X110938095Y-96588095D01*
X110652380Y-95397619D02*
X110652380Y-95302380D01*
X110700000Y-95207142D01*
X110747619Y-95159523D01*
X110842857Y-95111904D01*
X111033333Y-95064285D01*
X111271428Y-95064285D01*
X111461904Y-95111904D01*
X111557142Y-95159523D01*
X111604761Y-95207142D01*
X111652380Y-95302380D01*
X111652380Y-95397619D01*
X111604761Y-95492857D01*
X111557142Y-95540476D01*
X111461904Y-95588095D01*
X111271428Y-95635714D01*
X111033333Y-95635714D01*
X110842857Y-95588095D01*
X110747619Y-95540476D01*
X110700000Y-95492857D01*
X110652380Y-95397619D01*
X111080952Y-94492857D02*
X111033333Y-94588095D01*
X110985714Y-94635714D01*
X110890476Y-94683333D01*
X110842857Y-94683333D01*
X110747619Y-94635714D01*
X110700000Y-94588095D01*
X110652380Y-94492857D01*
X110652380Y-94302380D01*
X110700000Y-94207142D01*
X110747619Y-94159523D01*
X110842857Y-94111904D01*
X110890476Y-94111904D01*
X110985714Y-94159523D01*
X111033333Y-94207142D01*
X111080952Y-94302380D01*
X111080952Y-94492857D01*
X111128571Y-94588095D01*
X111176190Y-94635714D01*
X111271428Y-94683333D01*
X111461904Y-94683333D01*
X111557142Y-94635714D01*
X111604761Y-94588095D01*
X111652380Y-94492857D01*
X111652380Y-94302380D01*
X111604761Y-94207142D01*
X111557142Y-94159523D01*
X111461904Y-94111904D01*
X111271428Y-94111904D01*
X111176190Y-94159523D01*
X111128571Y-94207142D01*
X111080952Y-94302380D01*
%TO.C,C107*%
X110857142Y-82369047D02*
X110904761Y-82416666D01*
X110952380Y-82559523D01*
X110952380Y-82654761D01*
X110904761Y-82797619D01*
X110809523Y-82892857D01*
X110714285Y-82940476D01*
X110523809Y-82988095D01*
X110380952Y-82988095D01*
X110190476Y-82940476D01*
X110095238Y-82892857D01*
X110000000Y-82797619D01*
X109952380Y-82654761D01*
X109952380Y-82559523D01*
X110000000Y-82416666D01*
X110047619Y-82369047D01*
X110952380Y-81416666D02*
X110952380Y-81988095D01*
X110952380Y-81702380D02*
X109952380Y-81702380D01*
X110095238Y-81797619D01*
X110190476Y-81892857D01*
X110238095Y-81988095D01*
X109952380Y-80797619D02*
X109952380Y-80702380D01*
X110000000Y-80607142D01*
X110047619Y-80559523D01*
X110142857Y-80511904D01*
X110333333Y-80464285D01*
X110571428Y-80464285D01*
X110761904Y-80511904D01*
X110857142Y-80559523D01*
X110904761Y-80607142D01*
X110952380Y-80702380D01*
X110952380Y-80797619D01*
X110904761Y-80892857D01*
X110857142Y-80940476D01*
X110761904Y-80988095D01*
X110571428Y-81035714D01*
X110333333Y-81035714D01*
X110142857Y-80988095D01*
X110047619Y-80940476D01*
X110000000Y-80892857D01*
X109952380Y-80797619D01*
X109952380Y-80130952D02*
X109952380Y-79464285D01*
X110952380Y-79892857D01*
%TO.C,C106*%
X182107142Y-95569047D02*
X182154761Y-95616666D01*
X182202380Y-95759523D01*
X182202380Y-95854761D01*
X182154761Y-95997619D01*
X182059523Y-96092857D01*
X181964285Y-96140476D01*
X181773809Y-96188095D01*
X181630952Y-96188095D01*
X181440476Y-96140476D01*
X181345238Y-96092857D01*
X181250000Y-95997619D01*
X181202380Y-95854761D01*
X181202380Y-95759523D01*
X181250000Y-95616666D01*
X181297619Y-95569047D01*
X182202380Y-94616666D02*
X182202380Y-95188095D01*
X182202380Y-94902380D02*
X181202380Y-94902380D01*
X181345238Y-94997619D01*
X181440476Y-95092857D01*
X181488095Y-95188095D01*
X181202380Y-93997619D02*
X181202380Y-93902380D01*
X181250000Y-93807142D01*
X181297619Y-93759523D01*
X181392857Y-93711904D01*
X181583333Y-93664285D01*
X181821428Y-93664285D01*
X182011904Y-93711904D01*
X182107142Y-93759523D01*
X182154761Y-93807142D01*
X182202380Y-93902380D01*
X182202380Y-93997619D01*
X182154761Y-94092857D01*
X182107142Y-94140476D01*
X182011904Y-94188095D01*
X181821428Y-94235714D01*
X181583333Y-94235714D01*
X181392857Y-94188095D01*
X181297619Y-94140476D01*
X181250000Y-94092857D01*
X181202380Y-93997619D01*
X181202380Y-92807142D02*
X181202380Y-92997619D01*
X181250000Y-93092857D01*
X181297619Y-93140476D01*
X181440476Y-93235714D01*
X181630952Y-93283333D01*
X182011904Y-93283333D01*
X182107142Y-93235714D01*
X182154761Y-93188095D01*
X182202380Y-93092857D01*
X182202380Y-92902380D01*
X182154761Y-92807142D01*
X182107142Y-92759523D01*
X182011904Y-92711904D01*
X181773809Y-92711904D01*
X181678571Y-92759523D01*
X181630952Y-92807142D01*
X181583333Y-92902380D01*
X181583333Y-93092857D01*
X181630952Y-93188095D01*
X181678571Y-93235714D01*
X181773809Y-93283333D01*
%TO.C,C105*%
X144807142Y-76869047D02*
X144854761Y-76916666D01*
X144902380Y-77059523D01*
X144902380Y-77154761D01*
X144854761Y-77297619D01*
X144759523Y-77392857D01*
X144664285Y-77440476D01*
X144473809Y-77488095D01*
X144330952Y-77488095D01*
X144140476Y-77440476D01*
X144045238Y-77392857D01*
X143950000Y-77297619D01*
X143902380Y-77154761D01*
X143902380Y-77059523D01*
X143950000Y-76916666D01*
X143997619Y-76869047D01*
X144902380Y-75916666D02*
X144902380Y-76488095D01*
X144902380Y-76202380D02*
X143902380Y-76202380D01*
X144045238Y-76297619D01*
X144140476Y-76392857D01*
X144188095Y-76488095D01*
X143902380Y-75297619D02*
X143902380Y-75202380D01*
X143950000Y-75107142D01*
X143997619Y-75059523D01*
X144092857Y-75011904D01*
X144283333Y-74964285D01*
X144521428Y-74964285D01*
X144711904Y-75011904D01*
X144807142Y-75059523D01*
X144854761Y-75107142D01*
X144902380Y-75202380D01*
X144902380Y-75297619D01*
X144854761Y-75392857D01*
X144807142Y-75440476D01*
X144711904Y-75488095D01*
X144521428Y-75535714D01*
X144283333Y-75535714D01*
X144092857Y-75488095D01*
X143997619Y-75440476D01*
X143950000Y-75392857D01*
X143902380Y-75297619D01*
X143902380Y-74059523D02*
X143902380Y-74535714D01*
X144378571Y-74583333D01*
X144330952Y-74535714D01*
X144283333Y-74440476D01*
X144283333Y-74202380D01*
X144330952Y-74107142D01*
X144378571Y-74059523D01*
X144473809Y-74011904D01*
X144711904Y-74011904D01*
X144807142Y-74059523D01*
X144854761Y-74107142D01*
X144902380Y-74202380D01*
X144902380Y-74440476D01*
X144854761Y-74535714D01*
X144807142Y-74583333D01*
%TO.C,C104*%
X163507142Y-95569047D02*
X163554761Y-95616666D01*
X163602380Y-95759523D01*
X163602380Y-95854761D01*
X163554761Y-95997619D01*
X163459523Y-96092857D01*
X163364285Y-96140476D01*
X163173809Y-96188095D01*
X163030952Y-96188095D01*
X162840476Y-96140476D01*
X162745238Y-96092857D01*
X162650000Y-95997619D01*
X162602380Y-95854761D01*
X162602380Y-95759523D01*
X162650000Y-95616666D01*
X162697619Y-95569047D01*
X163602380Y-94616666D02*
X163602380Y-95188095D01*
X163602380Y-94902380D02*
X162602380Y-94902380D01*
X162745238Y-94997619D01*
X162840476Y-95092857D01*
X162888095Y-95188095D01*
X162602380Y-93997619D02*
X162602380Y-93902380D01*
X162650000Y-93807142D01*
X162697619Y-93759523D01*
X162792857Y-93711904D01*
X162983333Y-93664285D01*
X163221428Y-93664285D01*
X163411904Y-93711904D01*
X163507142Y-93759523D01*
X163554761Y-93807142D01*
X163602380Y-93902380D01*
X163602380Y-93997619D01*
X163554761Y-94092857D01*
X163507142Y-94140476D01*
X163411904Y-94188095D01*
X163221428Y-94235714D01*
X162983333Y-94235714D01*
X162792857Y-94188095D01*
X162697619Y-94140476D01*
X162650000Y-94092857D01*
X162602380Y-93997619D01*
X162935714Y-92807142D02*
X163602380Y-92807142D01*
X162554761Y-93045238D02*
X163269047Y-93283333D01*
X163269047Y-92664285D01*
%TO.C,C103*%
X182107142Y-76869047D02*
X182154761Y-76916666D01*
X182202380Y-77059523D01*
X182202380Y-77154761D01*
X182154761Y-77297619D01*
X182059523Y-77392857D01*
X181964285Y-77440476D01*
X181773809Y-77488095D01*
X181630952Y-77488095D01*
X181440476Y-77440476D01*
X181345238Y-77392857D01*
X181250000Y-77297619D01*
X181202380Y-77154761D01*
X181202380Y-77059523D01*
X181250000Y-76916666D01*
X181297619Y-76869047D01*
X182202380Y-75916666D02*
X182202380Y-76488095D01*
X182202380Y-76202380D02*
X181202380Y-76202380D01*
X181345238Y-76297619D01*
X181440476Y-76392857D01*
X181488095Y-76488095D01*
X181202380Y-75297619D02*
X181202380Y-75202380D01*
X181250000Y-75107142D01*
X181297619Y-75059523D01*
X181392857Y-75011904D01*
X181583333Y-74964285D01*
X181821428Y-74964285D01*
X182011904Y-75011904D01*
X182107142Y-75059523D01*
X182154761Y-75107142D01*
X182202380Y-75202380D01*
X182202380Y-75297619D01*
X182154761Y-75392857D01*
X182107142Y-75440476D01*
X182011904Y-75488095D01*
X181821428Y-75535714D01*
X181583333Y-75535714D01*
X181392857Y-75488095D01*
X181297619Y-75440476D01*
X181250000Y-75392857D01*
X181202380Y-75297619D01*
X181202380Y-74630952D02*
X181202380Y-74011904D01*
X181583333Y-74345238D01*
X181583333Y-74202380D01*
X181630952Y-74107142D01*
X181678571Y-74059523D01*
X181773809Y-74011904D01*
X182011904Y-74011904D01*
X182107142Y-74059523D01*
X182154761Y-74107142D01*
X182202380Y-74202380D01*
X182202380Y-74488095D01*
X182154761Y-74583333D01*
X182107142Y-74630952D01*
%TO.C,C102*%
X144807142Y-95369047D02*
X144854761Y-95416666D01*
X144902380Y-95559523D01*
X144902380Y-95654761D01*
X144854761Y-95797619D01*
X144759523Y-95892857D01*
X144664285Y-95940476D01*
X144473809Y-95988095D01*
X144330952Y-95988095D01*
X144140476Y-95940476D01*
X144045238Y-95892857D01*
X143950000Y-95797619D01*
X143902380Y-95654761D01*
X143902380Y-95559523D01*
X143950000Y-95416666D01*
X143997619Y-95369047D01*
X144902380Y-94416666D02*
X144902380Y-94988095D01*
X144902380Y-94702380D02*
X143902380Y-94702380D01*
X144045238Y-94797619D01*
X144140476Y-94892857D01*
X144188095Y-94988095D01*
X143902380Y-93797619D02*
X143902380Y-93702380D01*
X143950000Y-93607142D01*
X143997619Y-93559523D01*
X144092857Y-93511904D01*
X144283333Y-93464285D01*
X144521428Y-93464285D01*
X144711904Y-93511904D01*
X144807142Y-93559523D01*
X144854761Y-93607142D01*
X144902380Y-93702380D01*
X144902380Y-93797619D01*
X144854761Y-93892857D01*
X144807142Y-93940476D01*
X144711904Y-93988095D01*
X144521428Y-94035714D01*
X144283333Y-94035714D01*
X144092857Y-93988095D01*
X143997619Y-93940476D01*
X143950000Y-93892857D01*
X143902380Y-93797619D01*
X143997619Y-93083333D02*
X143950000Y-93035714D01*
X143902380Y-92940476D01*
X143902380Y-92702380D01*
X143950000Y-92607142D01*
X143997619Y-92559523D01*
X144092857Y-92511904D01*
X144188095Y-92511904D01*
X144330952Y-92559523D01*
X144902380Y-93130952D01*
X144902380Y-92511904D01*
%TO.C,C101*%
X163507142Y-76869047D02*
X163554761Y-76916666D01*
X163602380Y-77059523D01*
X163602380Y-77154761D01*
X163554761Y-77297619D01*
X163459523Y-77392857D01*
X163364285Y-77440476D01*
X163173809Y-77488095D01*
X163030952Y-77488095D01*
X162840476Y-77440476D01*
X162745238Y-77392857D01*
X162650000Y-77297619D01*
X162602380Y-77154761D01*
X162602380Y-77059523D01*
X162650000Y-76916666D01*
X162697619Y-76869047D01*
X163602380Y-75916666D02*
X163602380Y-76488095D01*
X163602380Y-76202380D02*
X162602380Y-76202380D01*
X162745238Y-76297619D01*
X162840476Y-76392857D01*
X162888095Y-76488095D01*
X162602380Y-75297619D02*
X162602380Y-75202380D01*
X162650000Y-75107142D01*
X162697619Y-75059523D01*
X162792857Y-75011904D01*
X162983333Y-74964285D01*
X163221428Y-74964285D01*
X163411904Y-75011904D01*
X163507142Y-75059523D01*
X163554761Y-75107142D01*
X163602380Y-75202380D01*
X163602380Y-75297619D01*
X163554761Y-75392857D01*
X163507142Y-75440476D01*
X163411904Y-75488095D01*
X163221428Y-75535714D01*
X162983333Y-75535714D01*
X162792857Y-75488095D01*
X162697619Y-75440476D01*
X162650000Y-75392857D01*
X162602380Y-75297619D01*
X163602380Y-74011904D02*
X163602380Y-74583333D01*
X163602380Y-74297619D02*
X162602380Y-74297619D01*
X162745238Y-74392857D01*
X162840476Y-74488095D01*
X162888095Y-74583333D01*
%TD*%
M02*
