%TF.GenerationSoftware,KiCad,Pcbnew,(5.1.7-0-10_14)*%
%TF.CreationDate,2021-01-19T07:42:21-05:00*%
%TF.ProjectId,Power Supply,506f7765-7220-4537-9570-706c792e6b69,rev?*%
%TF.SameCoordinates,Original*%
%TF.FileFunction,Copper,L1,Top*%
%TF.FilePolarity,Positive*%
%FSLAX46Y46*%
G04 Gerber Fmt 4.6, Leading zero omitted, Abs format (unit mm)*
G04 Created by KiCad (PCBNEW (5.1.7-0-10_14)) date 2021-01-19 07:42:21*
%MOMM*%
%LPD*%
G01*
G04 APERTURE LIST*
%TA.AperFunction,ComponentPad*%
%ADD10C,3.000000*%
%TD*%
%TA.AperFunction,ComponentPad*%
%ADD11O,4.000000X1.800000*%
%TD*%
%TA.AperFunction,ComponentPad*%
%ADD12O,1.800000X4.000000*%
%TD*%
%TA.AperFunction,ComponentPad*%
%ADD13R,2.000000X4.500000*%
%TD*%
%TA.AperFunction,ComponentPad*%
%ADD14O,1.700000X1.700000*%
%TD*%
%TA.AperFunction,ComponentPad*%
%ADD15R,1.700000X1.700000*%
%TD*%
%TA.AperFunction,ComponentPad*%
%ADD16O,1.400000X1.400000*%
%TD*%
%TA.AperFunction,ComponentPad*%
%ADD17C,1.400000*%
%TD*%
%TA.AperFunction,ComponentPad*%
%ADD18O,2.000000X1.905000*%
%TD*%
%TA.AperFunction,ComponentPad*%
%ADD19R,2.000000X1.905000*%
%TD*%
%TA.AperFunction,ComponentPad*%
%ADD20C,1.800000*%
%TD*%
%TA.AperFunction,ComponentPad*%
%ADD21R,1.800000X1.800000*%
%TD*%
%TA.AperFunction,ComponentPad*%
%ADD22O,2.200000X2.200000*%
%TD*%
%TA.AperFunction,ComponentPad*%
%ADD23R,2.200000X2.200000*%
%TD*%
%TA.AperFunction,ComponentPad*%
%ADD24C,1.600000*%
%TD*%
%TA.AperFunction,ComponentPad*%
%ADD25R,1.600000X1.600000*%
%TD*%
%TA.AperFunction,ComponentPad*%
%ADD26C,2.400000*%
%TD*%
%TA.AperFunction,ComponentPad*%
%ADD27R,2.400000X2.400000*%
%TD*%
%TA.AperFunction,ViaPad*%
%ADD28C,0.800000*%
%TD*%
%TA.AperFunction,Conductor*%
%ADD29C,0.250000*%
%TD*%
G04 APERTURE END LIST*
D10*
%TO.P,SW101,2*%
%TO.N,Net-(D101-Pad2)*%
X84000000Y-58000000D03*
%TO.P,SW101,1*%
%TO.N,Net-(P101-Pad1)*%
X84000000Y-51000000D03*
%TD*%
D11*
%TO.P,P101,2*%
%TO.N,GNDREF*%
X78450000Y-101400000D03*
D12*
X75200000Y-96600000D03*
D13*
%TO.P,P101,1*%
%TO.N,Net-(P101-Pad1)*%
X81450000Y-96600000D03*
%TD*%
D14*
%TO.P,J106,10*%
%TO.N,-12V*%
X178200000Y-62160000D03*
%TO.P,J106,9*%
X175660000Y-62160000D03*
%TO.P,J106,8*%
%TO.N,GNDREF*%
X178200000Y-59620000D03*
%TO.P,J106,7*%
X175660000Y-59620000D03*
%TO.P,J106,6*%
X178200000Y-57080000D03*
%TO.P,J106,5*%
X175660000Y-57080000D03*
%TO.P,J106,4*%
X178200000Y-54540000D03*
%TO.P,J106,3*%
X175660000Y-54540000D03*
%TO.P,J106,2*%
%TO.N,+12V*%
X178200000Y-52000000D03*
D15*
%TO.P,J106,1*%
X175660000Y-52000000D03*
%TD*%
D14*
%TO.P,J105,10*%
%TO.N,-12V*%
X163200000Y-62160000D03*
%TO.P,J105,9*%
X160660000Y-62160000D03*
%TO.P,J105,8*%
%TO.N,GNDREF*%
X163200000Y-59620000D03*
%TO.P,J105,7*%
X160660000Y-59620000D03*
%TO.P,J105,6*%
X163200000Y-57080000D03*
%TO.P,J105,5*%
X160660000Y-57080000D03*
%TO.P,J105,4*%
X163200000Y-54540000D03*
%TO.P,J105,3*%
X160660000Y-54540000D03*
%TO.P,J105,2*%
%TO.N,+12V*%
X163200000Y-52000000D03*
D15*
%TO.P,J105,1*%
X160660000Y-52000000D03*
%TD*%
D14*
%TO.P,J104,10*%
%TO.N,-12V*%
X148200000Y-62160000D03*
%TO.P,J104,9*%
X145660000Y-62160000D03*
%TO.P,J104,8*%
%TO.N,GNDREF*%
X148200000Y-59620000D03*
%TO.P,J104,7*%
X145660000Y-59620000D03*
%TO.P,J104,6*%
X148200000Y-57080000D03*
%TO.P,J104,5*%
X145660000Y-57080000D03*
%TO.P,J104,4*%
X148200000Y-54540000D03*
%TO.P,J104,3*%
X145660000Y-54540000D03*
%TO.P,J104,2*%
%TO.N,+12V*%
X148200000Y-52000000D03*
D15*
%TO.P,J104,1*%
X145660000Y-52000000D03*
%TD*%
D14*
%TO.P,J103,10*%
%TO.N,-12V*%
X133200000Y-62160000D03*
%TO.P,J103,9*%
X130660000Y-62160000D03*
%TO.P,J103,8*%
%TO.N,GNDREF*%
X133200000Y-59620000D03*
%TO.P,J103,7*%
X130660000Y-59620000D03*
%TO.P,J103,6*%
X133200000Y-57080000D03*
%TO.P,J103,5*%
X130660000Y-57080000D03*
%TO.P,J103,4*%
X133200000Y-54540000D03*
%TO.P,J103,3*%
X130660000Y-54540000D03*
%TO.P,J103,2*%
%TO.N,+12V*%
X133200000Y-52000000D03*
D15*
%TO.P,J103,1*%
X130660000Y-52000000D03*
%TD*%
D14*
%TO.P,J102,10*%
%TO.N,-12V*%
X118200000Y-62160000D03*
%TO.P,J102,9*%
X115660000Y-62160000D03*
%TO.P,J102,8*%
%TO.N,GNDREF*%
X118200000Y-59620000D03*
%TO.P,J102,7*%
X115660000Y-59620000D03*
%TO.P,J102,6*%
X118200000Y-57080000D03*
%TO.P,J102,5*%
X115660000Y-57080000D03*
%TO.P,J102,4*%
X118200000Y-54540000D03*
%TO.P,J102,3*%
X115660000Y-54540000D03*
%TO.P,J102,2*%
%TO.N,+12V*%
X118200000Y-52000000D03*
D15*
%TO.P,J102,1*%
X115660000Y-52000000D03*
%TD*%
D14*
%TO.P,J101,10*%
%TO.N,-12V*%
X103200000Y-62160000D03*
%TO.P,J101,9*%
X100660000Y-62160000D03*
%TO.P,J101,8*%
%TO.N,GNDREF*%
X103200000Y-59620000D03*
%TO.P,J101,7*%
X100660000Y-59620000D03*
%TO.P,J101,6*%
X103200000Y-57080000D03*
%TO.P,J101,5*%
X100660000Y-57080000D03*
%TO.P,J101,4*%
X103200000Y-54540000D03*
%TO.P,J101,3*%
X100660000Y-54540000D03*
%TO.P,J101,2*%
%TO.N,+12V*%
X103200000Y-52000000D03*
D15*
%TO.P,J101,1*%
X100660000Y-52000000D03*
%TD*%
D16*
%TO.P,R102,2*%
%TO.N,-12V*%
X81800000Y-86740000D03*
D17*
%TO.P,R102,1*%
%TO.N,Net-(D108-Pad1)*%
X81800000Y-84200000D03*
%TD*%
D16*
%TO.P,R101,2*%
%TO.N,+12V*%
X81800000Y-74960000D03*
D17*
%TO.P,R101,1*%
%TO.N,Net-(D107-Pad2)*%
X81800000Y-77500000D03*
%TD*%
D18*
%TO.P,U102,3*%
%TO.N,-12V*%
X109360000Y-89260000D03*
%TO.P,U102,2*%
%TO.N,/VI-*%
X109360000Y-91800000D03*
D19*
%TO.P,U102,1*%
%TO.N,GNDREF*%
X109360000Y-94340000D03*
%TD*%
D18*
%TO.P,U101,3*%
%TO.N,+12V*%
X109700000Y-76720000D03*
%TO.P,U101,2*%
%TO.N,GNDREF*%
X109700000Y-79260000D03*
D19*
%TO.P,U101,1*%
%TO.N,/VI+*%
X109700000Y-81800000D03*
%TD*%
D20*
%TO.P,D108,2*%
%TO.N,GNDREF*%
X77800000Y-86740000D03*
D21*
%TO.P,D108,1*%
%TO.N,Net-(D108-Pad1)*%
X77800000Y-84200000D03*
%TD*%
D20*
%TO.P,D107,2*%
%TO.N,Net-(D107-Pad2)*%
X77800000Y-77540000D03*
D21*
%TO.P,D107,1*%
%TO.N,GNDREF*%
X77800000Y-75000000D03*
%TD*%
D22*
%TO.P,D106,2*%
%TO.N,-12V*%
X121800000Y-96620000D03*
D23*
%TO.P,D106,1*%
%TO.N,GNDREF*%
X121800000Y-89000000D03*
%TD*%
D22*
%TO.P,D105,2*%
%TO.N,GNDREF*%
X121700000Y-83020000D03*
D23*
%TO.P,D105,1*%
%TO.N,+12V*%
X121700000Y-75400000D03*
%TD*%
D22*
%TO.P,D104,2*%
%TO.N,/VI-*%
X110320000Y-100600000D03*
D23*
%TO.P,D104,1*%
%TO.N,-12V*%
X102700000Y-100600000D03*
%TD*%
D22*
%TO.P,D103,2*%
%TO.N,+12V*%
X103480000Y-70600000D03*
D23*
%TO.P,D103,1*%
%TO.N,/VI+*%
X111100000Y-70600000D03*
%TD*%
D22*
%TO.P,D102,2*%
%TO.N,/VI-*%
X98320000Y-100700000D03*
D23*
%TO.P,D102,1*%
%TO.N,Net-(D101-Pad2)*%
X90700000Y-100700000D03*
%TD*%
D22*
%TO.P,D101,2*%
%TO.N,Net-(D101-Pad2)*%
X91580000Y-70800000D03*
D23*
%TO.P,D101,1*%
%TO.N,/VI+*%
X99200000Y-70800000D03*
%TD*%
D24*
%TO.P,C110,2*%
%TO.N,-12V*%
X114600000Y-90700000D03*
D25*
%TO.P,C110,1*%
%TO.N,GNDREF*%
X114600000Y-88200000D03*
%TD*%
D24*
%TO.P,C109,2*%
%TO.N,GNDREF*%
X114700000Y-76300000D03*
D25*
%TO.P,C109,1*%
%TO.N,+12V*%
X114700000Y-73800000D03*
%TD*%
D24*
%TO.P,C108,2*%
%TO.N,/VI-*%
X115000000Y-97100000D03*
D25*
%TO.P,C108,1*%
%TO.N,GNDREF*%
X115000000Y-94600000D03*
%TD*%
D24*
%TO.P,C107,2*%
%TO.N,GNDREF*%
X114500000Y-82500000D03*
D25*
%TO.P,C107,1*%
%TO.N,/VI+*%
X114500000Y-80000000D03*
%TD*%
D26*
%TO.P,C106,2*%
%TO.N,/VI-*%
X172500000Y-98200000D03*
D27*
%TO.P,C106,1*%
%TO.N,GNDREF*%
X172500000Y-90700000D03*
%TD*%
D26*
%TO.P,C105,2*%
%TO.N,GNDREF*%
X135200000Y-79500000D03*
D27*
%TO.P,C105,1*%
%TO.N,/VI+*%
X135200000Y-72000000D03*
%TD*%
D26*
%TO.P,C104,2*%
%TO.N,/VI-*%
X153900000Y-98200000D03*
D27*
%TO.P,C104,1*%
%TO.N,GNDREF*%
X153900000Y-90700000D03*
%TD*%
D26*
%TO.P,C103,2*%
%TO.N,GNDREF*%
X172500000Y-79500000D03*
D27*
%TO.P,C103,1*%
%TO.N,/VI+*%
X172500000Y-72000000D03*
%TD*%
D26*
%TO.P,C102,2*%
%TO.N,/VI-*%
X135200000Y-98000000D03*
D27*
%TO.P,C102,1*%
%TO.N,GNDREF*%
X135200000Y-90500000D03*
%TD*%
D26*
%TO.P,C101,2*%
%TO.N,GNDREF*%
X153900000Y-79500000D03*
D27*
%TO.P,C101,1*%
%TO.N,/VI+*%
X153900000Y-72000000D03*
%TD*%
D28*
%TO.N,+12V*%
X88400000Y-74999998D03*
X90800000Y-75000000D03*
%TO.N,-12V*%
X126200000Y-73400000D03*
X126200000Y-77000000D03*
X91200000Y-98000000D03*
X88200000Y-98000000D03*
%TD*%
D29*
%TO.N,+12V*%
X133200000Y-52000000D02*
X145660000Y-52000000D01*
X145660000Y-52000000D02*
X148200000Y-52000000D01*
X148200000Y-52000000D02*
X160660000Y-52000000D01*
X163200000Y-52000000D02*
X160660000Y-52000000D01*
X163200000Y-52000000D02*
X175660000Y-52000000D01*
X175660000Y-52000000D02*
X178200000Y-52000000D01*
X130660000Y-52000000D02*
X118200000Y-52000000D01*
X118200000Y-52000000D02*
X115660000Y-52000000D01*
X103200000Y-52000000D02*
X115660000Y-52000000D01*
X103200000Y-52000000D02*
X100660000Y-52000000D01*
X116300000Y-75400000D02*
X114700000Y-73800000D01*
X121700000Y-75400000D02*
X116300000Y-75400000D01*
X109600000Y-76720000D02*
X109700000Y-76720000D01*
X103480000Y-70600000D02*
X109600000Y-76720000D01*
X130660000Y-52000000D02*
X133200000Y-52000000D01*
X81800000Y-74960000D02*
X88360002Y-74960000D01*
X88360002Y-74960000D02*
X88400000Y-74999998D01*
X95600000Y-75000000D02*
X90800000Y-75000000D01*
X103480000Y-70600000D02*
X99080000Y-75000000D01*
X100660000Y-52000000D02*
X96000000Y-56660000D01*
X96000000Y-74600000D02*
X96000000Y-75000000D01*
X96000000Y-75000000D02*
X95600000Y-75000000D01*
X99080000Y-75000000D02*
X96000000Y-75000000D01*
X96000000Y-56660000D02*
X96000000Y-74600000D01*
X96000000Y-74600000D02*
X96000000Y-74800000D01*
%TO.N,-12V*%
X100660000Y-62160000D02*
X103200000Y-62160000D01*
X103200000Y-62160000D02*
X115660000Y-62160000D01*
X118200000Y-62160000D02*
X115660000Y-62160000D01*
X118200000Y-62160000D02*
X130660000Y-62160000D01*
X130660000Y-62160000D02*
X133200000Y-62160000D01*
X145660000Y-62160000D02*
X133200000Y-62160000D01*
X148200000Y-62160000D02*
X145660000Y-62160000D01*
X148200000Y-62160000D02*
X160660000Y-62160000D01*
X160660000Y-62160000D02*
X163200000Y-62160000D01*
X175660000Y-62160000D02*
X163200000Y-62160000D01*
X178200000Y-62160000D02*
X175660000Y-62160000D01*
X109360000Y-89260000D02*
X107400000Y-91220000D01*
X107400000Y-95900000D02*
X102700000Y-100600000D01*
X107400000Y-91220000D02*
X107400000Y-95900000D01*
X126200000Y-72700000D02*
X126200000Y-73400000D01*
X115660000Y-62160000D02*
X126200000Y-72700000D01*
X126200000Y-92220000D02*
X121800000Y-96620000D01*
X126200000Y-77000000D02*
X126200000Y-92220000D01*
X100100000Y-98000000D02*
X91200000Y-98000000D01*
X102700000Y-100600000D02*
X100100000Y-98000000D01*
X88200000Y-98000000D02*
X88200000Y-94540000D01*
X81800000Y-86740000D02*
X81800000Y-88140000D01*
X81800000Y-88140000D02*
X82130000Y-88470000D01*
X82130000Y-88470000D02*
X82000000Y-88340000D01*
X88200000Y-94540000D02*
X82130000Y-88470000D01*
X115880000Y-90700000D02*
X121800000Y-96620000D01*
X114600000Y-90700000D02*
X115880000Y-90700000D01*
X110800000Y-90700000D02*
X109360000Y-89260000D01*
X114600000Y-90700000D02*
X110800000Y-90700000D01*
%TO.N,Net-(D101-Pad2)*%
X91580000Y-70800000D02*
X89400000Y-72980000D01*
X89400000Y-99400000D02*
X90700000Y-100700000D01*
X89400000Y-72980000D02*
X89400000Y-99400000D01*
X84000000Y-63220000D02*
X86690000Y-65910000D01*
X86690000Y-65910000D02*
X91580000Y-70800000D01*
X84000000Y-58000000D02*
X84000000Y-63220000D01*
X86580000Y-65800000D02*
X86690000Y-65910000D01*
%TO.N,Net-(P101-Pad1)*%
X71200000Y-86350000D02*
X81450000Y-96600000D01*
X71200000Y-63800000D02*
X71200000Y-86350000D01*
X84000000Y-51000000D02*
X71200000Y-63800000D01*
%TO.N,Net-(D107-Pad2)*%
X81760000Y-77540000D02*
X81800000Y-77500000D01*
X77800000Y-77540000D02*
X81760000Y-77540000D01*
%TO.N,Net-(D108-Pad1)*%
X81800000Y-84200000D02*
X77800000Y-84200000D01*
%TO.N,/VI+*%
X172500000Y-72000000D02*
X153900000Y-72000000D01*
X153900000Y-72000000D02*
X135200000Y-72000000D01*
X109674999Y-69174999D02*
X111100000Y-70600000D01*
X100825001Y-69174999D02*
X109674999Y-69174999D01*
X99200000Y-70800000D02*
X100825001Y-69174999D01*
X119885002Y-80000000D02*
X114500000Y-80000000D01*
X125760001Y-74125001D02*
X119885002Y-80000000D01*
X133074999Y-74125001D02*
X125760001Y-74125001D01*
X135200000Y-72000000D02*
X133074999Y-74125001D01*
X114500000Y-80000000D02*
X113250000Y-78750000D01*
X113250000Y-78750000D02*
X113250000Y-72750000D01*
X113250000Y-72750000D02*
X111100000Y-70600000D01*
X111500000Y-80000000D02*
X109700000Y-81800000D01*
X114500000Y-80000000D02*
X111500000Y-80000000D01*
%TO.N,/VI-*%
X153700000Y-98000000D02*
X153900000Y-98200000D01*
X135200000Y-98000000D02*
X153700000Y-98000000D01*
X172500000Y-98200000D02*
X153900000Y-98200000D01*
X99645001Y-102025001D02*
X98320000Y-100700000D01*
X108894999Y-102025001D02*
X99645001Y-102025001D01*
X110320000Y-100600000D02*
X108894999Y-102025001D01*
X116500000Y-98600000D02*
X115000000Y-97100000D01*
X134600000Y-98600000D02*
X116500000Y-98600000D01*
X135200000Y-98000000D02*
X134600000Y-98600000D01*
X113820000Y-97100000D02*
X110320000Y-100600000D01*
X115000000Y-97100000D02*
X113820000Y-97100000D01*
X109700000Y-91800000D02*
X109360000Y-91800000D01*
X115000000Y-97100000D02*
X109700000Y-91800000D01*
%TD*%
M02*
