%TF.GenerationSoftware,KiCad,Pcbnew,(5.1.7-0-10_14)*%
%TF.CreationDate,2021-01-19T07:42:21-05:00*%
%TF.ProjectId,Power Supply,506f7765-7220-4537-9570-706c792e6b69,rev?*%
%TF.SameCoordinates,Original*%
%TF.FileFunction,Legend,Bot*%
%TF.FilePolarity,Positive*%
%FSLAX46Y46*%
G04 Gerber Fmt 4.6, Leading zero omitted, Abs format (unit mm)*
G04 Created by KiCad (PCBNEW (5.1.7-0-10_14)) date 2021-01-19 07:42:21*
%MOMM*%
%LPD*%
G01*
G04 APERTURE LIST*
%ADD10C,0.150000*%
G04 APERTURE END LIST*
D10*
X153333333Y-84427380D02*
X153333333Y-83427380D01*
X153333333Y-83808333D02*
X153238095Y-83760714D01*
X153047619Y-83760714D01*
X152952380Y-83808333D01*
X152904761Y-83855952D01*
X152857142Y-83951190D01*
X152857142Y-84236904D01*
X152904761Y-84332142D01*
X152952380Y-84379761D01*
X153047619Y-84427380D01*
X153238095Y-84427380D01*
X153333333Y-84379761D01*
X152428571Y-84427380D02*
X152428571Y-83760714D01*
X152428571Y-83427380D02*
X152476190Y-83475000D01*
X152428571Y-83522619D01*
X152380952Y-83475000D01*
X152428571Y-83427380D01*
X152428571Y-83522619D01*
X151952380Y-83760714D02*
X151952380Y-84760714D01*
X151952380Y-83808333D02*
X151857142Y-83760714D01*
X151666666Y-83760714D01*
X151571428Y-83808333D01*
X151523809Y-83855952D01*
X151476190Y-83951190D01*
X151476190Y-84236904D01*
X151523809Y-84332142D01*
X151571428Y-84379761D01*
X151666666Y-84427380D01*
X151857142Y-84427380D01*
X151952380Y-84379761D01*
X150904761Y-84427380D02*
X151000000Y-84379761D01*
X151047619Y-84332142D01*
X151095238Y-84236904D01*
X151095238Y-83951190D01*
X151047619Y-83855952D01*
X151000000Y-83808333D01*
X150904761Y-83760714D01*
X150761904Y-83760714D01*
X150666666Y-83808333D01*
X150619047Y-83855952D01*
X150571428Y-83951190D01*
X150571428Y-84236904D01*
X150619047Y-84332142D01*
X150666666Y-84379761D01*
X150761904Y-84427380D01*
X150904761Y-84427380D01*
X150000000Y-84427380D02*
X150095238Y-84379761D01*
X150142857Y-84284523D01*
X150142857Y-83427380D01*
X149190476Y-84427380D02*
X149190476Y-83903571D01*
X149238095Y-83808333D01*
X149333333Y-83760714D01*
X149523809Y-83760714D01*
X149619047Y-83808333D01*
X149190476Y-84379761D02*
X149285714Y-84427380D01*
X149523809Y-84427380D01*
X149619047Y-84379761D01*
X149666666Y-84284523D01*
X149666666Y-84189285D01*
X149619047Y-84094047D01*
X149523809Y-84046428D01*
X149285714Y-84046428D01*
X149190476Y-83998809D01*
X148714285Y-84427380D02*
X148714285Y-83760714D01*
X148714285Y-83951190D02*
X148666666Y-83855952D01*
X148619047Y-83808333D01*
X148523809Y-83760714D01*
X148428571Y-83760714D01*
X147333333Y-83760714D02*
X147333333Y-84760714D01*
X147333333Y-83808333D02*
X147238095Y-83760714D01*
X147047619Y-83760714D01*
X146952380Y-83808333D01*
X146904761Y-83855952D01*
X146857142Y-83951190D01*
X146857142Y-84236904D01*
X146904761Y-84332142D01*
X146952380Y-84379761D01*
X147047619Y-84427380D01*
X147238095Y-84427380D01*
X147333333Y-84379761D01*
X146285714Y-84427380D02*
X146380952Y-84379761D01*
X146428571Y-84332142D01*
X146476190Y-84236904D01*
X146476190Y-83951190D01*
X146428571Y-83855952D01*
X146380952Y-83808333D01*
X146285714Y-83760714D01*
X146142857Y-83760714D01*
X146047619Y-83808333D01*
X146000000Y-83855952D01*
X145952380Y-83951190D01*
X145952380Y-84236904D01*
X146000000Y-84332142D01*
X146047619Y-84379761D01*
X146142857Y-84427380D01*
X146285714Y-84427380D01*
X145619047Y-83760714D02*
X145428571Y-84427380D01*
X145238095Y-83951190D01*
X145047619Y-84427380D01*
X144857142Y-83760714D01*
X144095238Y-84379761D02*
X144190476Y-84427380D01*
X144380952Y-84427380D01*
X144476190Y-84379761D01*
X144523809Y-84284523D01*
X144523809Y-83903571D01*
X144476190Y-83808333D01*
X144380952Y-83760714D01*
X144190476Y-83760714D01*
X144095238Y-83808333D01*
X144047619Y-83903571D01*
X144047619Y-83998809D01*
X144523809Y-84094047D01*
X143619047Y-84427380D02*
X143619047Y-83760714D01*
X143619047Y-83951190D02*
X143571428Y-83855952D01*
X143523809Y-83808333D01*
X143428571Y-83760714D01*
X143333333Y-83760714D01*
X142285714Y-84379761D02*
X142190476Y-84427380D01*
X142000000Y-84427380D01*
X141904761Y-84379761D01*
X141857142Y-84284523D01*
X141857142Y-84236904D01*
X141904761Y-84141666D01*
X142000000Y-84094047D01*
X142142857Y-84094047D01*
X142238095Y-84046428D01*
X142285714Y-83951190D01*
X142285714Y-83903571D01*
X142238095Y-83808333D01*
X142142857Y-83760714D01*
X142000000Y-83760714D01*
X141904761Y-83808333D01*
X141000000Y-83760714D02*
X141000000Y-84427380D01*
X141428571Y-83760714D02*
X141428571Y-84284523D01*
X141380952Y-84379761D01*
X141285714Y-84427380D01*
X141142857Y-84427380D01*
X141047619Y-84379761D01*
X141000000Y-84332142D01*
X140523809Y-83760714D02*
X140523809Y-84760714D01*
X140523809Y-83808333D02*
X140428571Y-83760714D01*
X140238095Y-83760714D01*
X140142857Y-83808333D01*
X140095238Y-83855952D01*
X140047619Y-83951190D01*
X140047619Y-84236904D01*
X140095238Y-84332142D01*
X140142857Y-84379761D01*
X140238095Y-84427380D01*
X140428571Y-84427380D01*
X140523809Y-84379761D01*
X139619047Y-83760714D02*
X139619047Y-84760714D01*
X139619047Y-83808333D02*
X139523809Y-83760714D01*
X139333333Y-83760714D01*
X139238095Y-83808333D01*
X139190476Y-83855952D01*
X139142857Y-83951190D01*
X139142857Y-84236904D01*
X139190476Y-84332142D01*
X139238095Y-84379761D01*
X139333333Y-84427380D01*
X139523809Y-84427380D01*
X139619047Y-84379761D01*
X138571428Y-84427380D02*
X138666666Y-84379761D01*
X138714285Y-84284523D01*
X138714285Y-83427380D01*
X138285714Y-83760714D02*
X138047619Y-84427380D01*
X137809523Y-83760714D02*
X138047619Y-84427380D01*
X138142857Y-84665476D01*
X138190476Y-84713095D01*
X138285714Y-84760714D01*
X136666666Y-84427380D02*
X136666666Y-83760714D01*
X136666666Y-83427380D02*
X136714285Y-83475000D01*
X136666666Y-83522619D01*
X136619047Y-83475000D01*
X136666666Y-83427380D01*
X136666666Y-83522619D01*
X150666666Y-86029761D02*
X150761904Y-86077380D01*
X150952380Y-86077380D01*
X151047619Y-86029761D01*
X151095238Y-85982142D01*
X151142857Y-85886904D01*
X151142857Y-85601190D01*
X151095238Y-85505952D01*
X151047619Y-85458333D01*
X150952380Y-85410714D01*
X150761904Y-85410714D01*
X150666666Y-85458333D01*
X150238095Y-86077380D02*
X150238095Y-85077380D01*
X149809523Y-86077380D02*
X149809523Y-85553571D01*
X149857142Y-85458333D01*
X149952380Y-85410714D01*
X150095238Y-85410714D01*
X150190476Y-85458333D01*
X150238095Y-85505952D01*
X149333333Y-86077380D02*
X149333333Y-85410714D01*
X149333333Y-85601190D02*
X149285714Y-85505952D01*
X149238095Y-85458333D01*
X149142857Y-85410714D01*
X149047619Y-85410714D01*
X148714285Y-86077380D02*
X148714285Y-85410714D01*
X148714285Y-85077380D02*
X148761904Y-85125000D01*
X148714285Y-85172619D01*
X148666666Y-85125000D01*
X148714285Y-85077380D01*
X148714285Y-85172619D01*
X148285714Y-86029761D02*
X148190476Y-86077380D01*
X148000000Y-86077380D01*
X147904761Y-86029761D01*
X147857142Y-85934523D01*
X147857142Y-85886904D01*
X147904761Y-85791666D01*
X148000000Y-85744047D01*
X148142857Y-85744047D01*
X148238095Y-85696428D01*
X148285714Y-85601190D01*
X148285714Y-85553571D01*
X148238095Y-85458333D01*
X148142857Y-85410714D01*
X148000000Y-85410714D01*
X147904761Y-85458333D01*
X146238095Y-86077380D02*
X146238095Y-85077380D01*
X146238095Y-86029761D02*
X146333333Y-86077380D01*
X146523809Y-86077380D01*
X146619047Y-86029761D01*
X146666666Y-85982142D01*
X146714285Y-85886904D01*
X146714285Y-85601190D01*
X146666666Y-85505952D01*
X146619047Y-85458333D01*
X146523809Y-85410714D01*
X146333333Y-85410714D01*
X146238095Y-85458333D01*
X145380952Y-86029761D02*
X145476190Y-86077380D01*
X145666666Y-86077380D01*
X145761904Y-86029761D01*
X145809523Y-85934523D01*
X145809523Y-85553571D01*
X145761904Y-85458333D01*
X145666666Y-85410714D01*
X145476190Y-85410714D01*
X145380952Y-85458333D01*
X145333333Y-85553571D01*
X145333333Y-85648809D01*
X145809523Y-85744047D01*
X145047619Y-85410714D02*
X144666666Y-85410714D01*
X144904761Y-86077380D02*
X144904761Y-85220238D01*
X144857142Y-85125000D01*
X144761904Y-85077380D01*
X144666666Y-85077380D01*
X144333333Y-86077380D02*
X144333333Y-85410714D01*
X144333333Y-85601190D02*
X144285714Y-85505952D01*
X144238095Y-85458333D01*
X144142857Y-85410714D01*
X144047619Y-85410714D01*
X143285714Y-86077380D02*
X143285714Y-85553571D01*
X143333333Y-85458333D01*
X143428571Y-85410714D01*
X143619047Y-85410714D01*
X143714285Y-85458333D01*
X143285714Y-86029761D02*
X143380952Y-86077380D01*
X143619047Y-86077380D01*
X143714285Y-86029761D01*
X143761904Y-85934523D01*
X143761904Y-85839285D01*
X143714285Y-85744047D01*
X143619047Y-85696428D01*
X143380952Y-85696428D01*
X143285714Y-85648809D01*
X142809523Y-85410714D02*
X142809523Y-86077380D01*
X142809523Y-85505952D02*
X142761904Y-85458333D01*
X142666666Y-85410714D01*
X142523809Y-85410714D01*
X142428571Y-85458333D01*
X142380952Y-85553571D01*
X142380952Y-86077380D01*
X141476190Y-86029761D02*
X141571428Y-86077380D01*
X141761904Y-86077380D01*
X141857142Y-86029761D01*
X141904761Y-85982142D01*
X141952380Y-85886904D01*
X141952380Y-85601190D01*
X141904761Y-85505952D01*
X141857142Y-85458333D01*
X141761904Y-85410714D01*
X141571428Y-85410714D01*
X141476190Y-85458333D01*
X141047619Y-86077380D02*
X141047619Y-85410714D01*
X141047619Y-85077380D02*
X141095238Y-85125000D01*
X141047619Y-85172619D01*
X141000000Y-85125000D01*
X141047619Y-85077380D01*
X141047619Y-85172619D01*
X140619047Y-86029761D02*
X140523809Y-86077380D01*
X140333333Y-86077380D01*
X140238095Y-86029761D01*
X140190476Y-85934523D01*
X140190476Y-85886904D01*
X140238095Y-85791666D01*
X140333333Y-85744047D01*
X140476190Y-85744047D01*
X140571428Y-85696428D01*
X140619047Y-85601190D01*
X140619047Y-85553571D01*
X140571428Y-85458333D01*
X140476190Y-85410714D01*
X140333333Y-85410714D01*
X140238095Y-85458333D01*
X139333333Y-86029761D02*
X139428571Y-86077380D01*
X139619047Y-86077380D01*
X139714285Y-86029761D01*
X139761904Y-85982142D01*
X139809523Y-85886904D01*
X139809523Y-85601190D01*
X139761904Y-85505952D01*
X139714285Y-85458333D01*
X139619047Y-85410714D01*
X139428571Y-85410714D01*
X139333333Y-85458333D01*
X138904761Y-86077380D02*
X138904761Y-85410714D01*
X138904761Y-85077380D02*
X138952380Y-85125000D01*
X138904761Y-85172619D01*
X138857142Y-85125000D01*
X138904761Y-85077380D01*
X138904761Y-85172619D01*
M02*
