%TF.GenerationSoftware,KiCad,Pcbnew,(5.1.7-0-10_14)*%
%TF.CreationDate,2021-01-19T07:42:21-05:00*%
%TF.ProjectId,Power Supply,506f7765-7220-4537-9570-706c792e6b69,rev?*%
%TF.SameCoordinates,Original*%
%TF.FileFunction,Copper,L2,Bot*%
%TF.FilePolarity,Positive*%
%FSLAX46Y46*%
G04 Gerber Fmt 4.6, Leading zero omitted, Abs format (unit mm)*
G04 Created by KiCad (PCBNEW (5.1.7-0-10_14)) date 2021-01-19 07:42:21*
%MOMM*%
%LPD*%
G01*
G04 APERTURE LIST*
%TA.AperFunction,ComponentPad*%
%ADD10C,3.000000*%
%TD*%
%TA.AperFunction,ComponentPad*%
%ADD11O,4.000000X1.800000*%
%TD*%
%TA.AperFunction,ComponentPad*%
%ADD12O,1.800000X4.000000*%
%TD*%
%TA.AperFunction,ComponentPad*%
%ADD13R,2.000000X4.500000*%
%TD*%
%TA.AperFunction,ComponentPad*%
%ADD14O,1.700000X1.700000*%
%TD*%
%TA.AperFunction,ComponentPad*%
%ADD15R,1.700000X1.700000*%
%TD*%
%TA.AperFunction,ComponentPad*%
%ADD16O,1.400000X1.400000*%
%TD*%
%TA.AperFunction,ComponentPad*%
%ADD17C,1.400000*%
%TD*%
%TA.AperFunction,ComponentPad*%
%ADD18O,2.000000X1.905000*%
%TD*%
%TA.AperFunction,ComponentPad*%
%ADD19R,2.000000X1.905000*%
%TD*%
%TA.AperFunction,ComponentPad*%
%ADD20C,1.800000*%
%TD*%
%TA.AperFunction,ComponentPad*%
%ADD21R,1.800000X1.800000*%
%TD*%
%TA.AperFunction,ComponentPad*%
%ADD22O,2.200000X2.200000*%
%TD*%
%TA.AperFunction,ComponentPad*%
%ADD23R,2.200000X2.200000*%
%TD*%
%TA.AperFunction,ComponentPad*%
%ADD24C,1.600000*%
%TD*%
%TA.AperFunction,ComponentPad*%
%ADD25R,1.600000X1.600000*%
%TD*%
%TA.AperFunction,ComponentPad*%
%ADD26C,2.400000*%
%TD*%
%TA.AperFunction,ComponentPad*%
%ADD27R,2.400000X2.400000*%
%TD*%
%TA.AperFunction,ViaPad*%
%ADD28C,0.800000*%
%TD*%
%TA.AperFunction,Conductor*%
%ADD29C,0.250000*%
%TD*%
%TA.AperFunction,Conductor*%
%ADD30C,0.254000*%
%TD*%
%TA.AperFunction,Conductor*%
%ADD31C,0.100000*%
%TD*%
G04 APERTURE END LIST*
D10*
%TO.P,SW101,2*%
%TO.N,Net-(D101-Pad2)*%
X84000000Y-58000000D03*
%TO.P,SW101,1*%
%TO.N,Net-(P101-Pad1)*%
X84000000Y-51000000D03*
%TD*%
D11*
%TO.P,P101,2*%
%TO.N,GNDREF*%
X78450000Y-101400000D03*
D12*
X75200000Y-96600000D03*
D13*
%TO.P,P101,1*%
%TO.N,Net-(P101-Pad1)*%
X81450000Y-96600000D03*
%TD*%
D14*
%TO.P,J106,10*%
%TO.N,-12V*%
X178200000Y-62160000D03*
%TO.P,J106,9*%
X175660000Y-62160000D03*
%TO.P,J106,8*%
%TO.N,GNDREF*%
X178200000Y-59620000D03*
%TO.P,J106,7*%
X175660000Y-59620000D03*
%TO.P,J106,6*%
X178200000Y-57080000D03*
%TO.P,J106,5*%
X175660000Y-57080000D03*
%TO.P,J106,4*%
X178200000Y-54540000D03*
%TO.P,J106,3*%
X175660000Y-54540000D03*
%TO.P,J106,2*%
%TO.N,+12V*%
X178200000Y-52000000D03*
D15*
%TO.P,J106,1*%
X175660000Y-52000000D03*
%TD*%
D14*
%TO.P,J105,10*%
%TO.N,-12V*%
X163200000Y-62160000D03*
%TO.P,J105,9*%
X160660000Y-62160000D03*
%TO.P,J105,8*%
%TO.N,GNDREF*%
X163200000Y-59620000D03*
%TO.P,J105,7*%
X160660000Y-59620000D03*
%TO.P,J105,6*%
X163200000Y-57080000D03*
%TO.P,J105,5*%
X160660000Y-57080000D03*
%TO.P,J105,4*%
X163200000Y-54540000D03*
%TO.P,J105,3*%
X160660000Y-54540000D03*
%TO.P,J105,2*%
%TO.N,+12V*%
X163200000Y-52000000D03*
D15*
%TO.P,J105,1*%
X160660000Y-52000000D03*
%TD*%
D14*
%TO.P,J104,10*%
%TO.N,-12V*%
X148200000Y-62160000D03*
%TO.P,J104,9*%
X145660000Y-62160000D03*
%TO.P,J104,8*%
%TO.N,GNDREF*%
X148200000Y-59620000D03*
%TO.P,J104,7*%
X145660000Y-59620000D03*
%TO.P,J104,6*%
X148200000Y-57080000D03*
%TO.P,J104,5*%
X145660000Y-57080000D03*
%TO.P,J104,4*%
X148200000Y-54540000D03*
%TO.P,J104,3*%
X145660000Y-54540000D03*
%TO.P,J104,2*%
%TO.N,+12V*%
X148200000Y-52000000D03*
D15*
%TO.P,J104,1*%
X145660000Y-52000000D03*
%TD*%
D14*
%TO.P,J103,10*%
%TO.N,-12V*%
X133200000Y-62160000D03*
%TO.P,J103,9*%
X130660000Y-62160000D03*
%TO.P,J103,8*%
%TO.N,GNDREF*%
X133200000Y-59620000D03*
%TO.P,J103,7*%
X130660000Y-59620000D03*
%TO.P,J103,6*%
X133200000Y-57080000D03*
%TO.P,J103,5*%
X130660000Y-57080000D03*
%TO.P,J103,4*%
X133200000Y-54540000D03*
%TO.P,J103,3*%
X130660000Y-54540000D03*
%TO.P,J103,2*%
%TO.N,+12V*%
X133200000Y-52000000D03*
D15*
%TO.P,J103,1*%
X130660000Y-52000000D03*
%TD*%
D14*
%TO.P,J102,10*%
%TO.N,-12V*%
X118200000Y-62160000D03*
%TO.P,J102,9*%
X115660000Y-62160000D03*
%TO.P,J102,8*%
%TO.N,GNDREF*%
X118200000Y-59620000D03*
%TO.P,J102,7*%
X115660000Y-59620000D03*
%TO.P,J102,6*%
X118200000Y-57080000D03*
%TO.P,J102,5*%
X115660000Y-57080000D03*
%TO.P,J102,4*%
X118200000Y-54540000D03*
%TO.P,J102,3*%
X115660000Y-54540000D03*
%TO.P,J102,2*%
%TO.N,+12V*%
X118200000Y-52000000D03*
D15*
%TO.P,J102,1*%
X115660000Y-52000000D03*
%TD*%
D14*
%TO.P,J101,10*%
%TO.N,-12V*%
X103200000Y-62160000D03*
%TO.P,J101,9*%
X100660000Y-62160000D03*
%TO.P,J101,8*%
%TO.N,GNDREF*%
X103200000Y-59620000D03*
%TO.P,J101,7*%
X100660000Y-59620000D03*
%TO.P,J101,6*%
X103200000Y-57080000D03*
%TO.P,J101,5*%
X100660000Y-57080000D03*
%TO.P,J101,4*%
X103200000Y-54540000D03*
%TO.P,J101,3*%
X100660000Y-54540000D03*
%TO.P,J101,2*%
%TO.N,+12V*%
X103200000Y-52000000D03*
D15*
%TO.P,J101,1*%
X100660000Y-52000000D03*
%TD*%
D16*
%TO.P,R102,2*%
%TO.N,-12V*%
X81800000Y-86740000D03*
D17*
%TO.P,R102,1*%
%TO.N,Net-(D108-Pad1)*%
X81800000Y-84200000D03*
%TD*%
D16*
%TO.P,R101,2*%
%TO.N,+12V*%
X81800000Y-74960000D03*
D17*
%TO.P,R101,1*%
%TO.N,Net-(D107-Pad2)*%
X81800000Y-77500000D03*
%TD*%
D18*
%TO.P,U102,3*%
%TO.N,-12V*%
X109360000Y-89260000D03*
%TO.P,U102,2*%
%TO.N,/VI-*%
X109360000Y-91800000D03*
D19*
%TO.P,U102,1*%
%TO.N,GNDREF*%
X109360000Y-94340000D03*
%TD*%
D18*
%TO.P,U101,3*%
%TO.N,+12V*%
X109700000Y-76720000D03*
%TO.P,U101,2*%
%TO.N,GNDREF*%
X109700000Y-79260000D03*
D19*
%TO.P,U101,1*%
%TO.N,/VI+*%
X109700000Y-81800000D03*
%TD*%
D20*
%TO.P,D108,2*%
%TO.N,GNDREF*%
X77800000Y-86740000D03*
D21*
%TO.P,D108,1*%
%TO.N,Net-(D108-Pad1)*%
X77800000Y-84200000D03*
%TD*%
D20*
%TO.P,D107,2*%
%TO.N,Net-(D107-Pad2)*%
X77800000Y-77540000D03*
D21*
%TO.P,D107,1*%
%TO.N,GNDREF*%
X77800000Y-75000000D03*
%TD*%
D22*
%TO.P,D106,2*%
%TO.N,-12V*%
X121800000Y-96620000D03*
D23*
%TO.P,D106,1*%
%TO.N,GNDREF*%
X121800000Y-89000000D03*
%TD*%
D22*
%TO.P,D105,2*%
%TO.N,GNDREF*%
X121700000Y-83020000D03*
D23*
%TO.P,D105,1*%
%TO.N,+12V*%
X121700000Y-75400000D03*
%TD*%
D22*
%TO.P,D104,2*%
%TO.N,/VI-*%
X110320000Y-100600000D03*
D23*
%TO.P,D104,1*%
%TO.N,-12V*%
X102700000Y-100600000D03*
%TD*%
D22*
%TO.P,D103,2*%
%TO.N,+12V*%
X103480000Y-70600000D03*
D23*
%TO.P,D103,1*%
%TO.N,/VI+*%
X111100000Y-70600000D03*
%TD*%
D22*
%TO.P,D102,2*%
%TO.N,/VI-*%
X98320000Y-100700000D03*
D23*
%TO.P,D102,1*%
%TO.N,Net-(D101-Pad2)*%
X90700000Y-100700000D03*
%TD*%
D22*
%TO.P,D101,2*%
%TO.N,Net-(D101-Pad2)*%
X91580000Y-70800000D03*
D23*
%TO.P,D101,1*%
%TO.N,/VI+*%
X99200000Y-70800000D03*
%TD*%
D24*
%TO.P,C110,2*%
%TO.N,-12V*%
X114600000Y-90700000D03*
D25*
%TO.P,C110,1*%
%TO.N,GNDREF*%
X114600000Y-88200000D03*
%TD*%
D24*
%TO.P,C109,2*%
%TO.N,GNDREF*%
X114700000Y-76300000D03*
D25*
%TO.P,C109,1*%
%TO.N,+12V*%
X114700000Y-73800000D03*
%TD*%
D24*
%TO.P,C108,2*%
%TO.N,/VI-*%
X115000000Y-97100000D03*
D25*
%TO.P,C108,1*%
%TO.N,GNDREF*%
X115000000Y-94600000D03*
%TD*%
D24*
%TO.P,C107,2*%
%TO.N,GNDREF*%
X114500000Y-82500000D03*
D25*
%TO.P,C107,1*%
%TO.N,/VI+*%
X114500000Y-80000000D03*
%TD*%
D26*
%TO.P,C106,2*%
%TO.N,/VI-*%
X172500000Y-98200000D03*
D27*
%TO.P,C106,1*%
%TO.N,GNDREF*%
X172500000Y-90700000D03*
%TD*%
D26*
%TO.P,C105,2*%
%TO.N,GNDREF*%
X135200000Y-79500000D03*
D27*
%TO.P,C105,1*%
%TO.N,/VI+*%
X135200000Y-72000000D03*
%TD*%
D26*
%TO.P,C104,2*%
%TO.N,/VI-*%
X153900000Y-98200000D03*
D27*
%TO.P,C104,1*%
%TO.N,GNDREF*%
X153900000Y-90700000D03*
%TD*%
D26*
%TO.P,C103,2*%
%TO.N,GNDREF*%
X172500000Y-79500000D03*
D27*
%TO.P,C103,1*%
%TO.N,/VI+*%
X172500000Y-72000000D03*
%TD*%
D26*
%TO.P,C102,2*%
%TO.N,/VI-*%
X135200000Y-98000000D03*
D27*
%TO.P,C102,1*%
%TO.N,GNDREF*%
X135200000Y-90500000D03*
%TD*%
D26*
%TO.P,C101,2*%
%TO.N,GNDREF*%
X153900000Y-79500000D03*
D27*
%TO.P,C101,1*%
%TO.N,/VI+*%
X153900000Y-72000000D03*
%TD*%
D28*
%TO.N,+12V*%
X88400000Y-74999998D03*
X90800000Y-75000000D03*
%TO.N,-12V*%
X126200000Y-73400000D03*
X126200000Y-77000000D03*
X91200000Y-98000000D03*
X88200000Y-98000000D03*
%TD*%
D29*
%TO.N,+12V*%
X112620000Y-73800000D02*
X109700000Y-76720000D01*
X114700000Y-73800000D02*
X112620000Y-73800000D01*
X88400000Y-74999998D02*
X90799998Y-74999998D01*
X90799998Y-74999998D02*
X90800000Y-75000000D01*
%TO.N,-12V*%
X126200000Y-73400000D02*
X126200000Y-77000000D01*
X91200000Y-98000000D02*
X88200000Y-98000000D01*
%TD*%
D30*
%TO.N,GNDREF*%
X181840000Y-104340000D02*
X125398902Y-104340000D01*
X125777963Y-104264600D01*
X126263343Y-104063549D01*
X126700174Y-103771668D01*
X127071668Y-103400174D01*
X127363549Y-102963343D01*
X127564600Y-102477963D01*
X127667095Y-101962686D01*
X127667095Y-101437314D01*
X127564600Y-100922037D01*
X127363549Y-100436657D01*
X127071668Y-99999826D01*
X126700174Y-99628332D01*
X126263343Y-99336451D01*
X125777963Y-99135400D01*
X125262686Y-99032905D01*
X124737314Y-99032905D01*
X124222037Y-99135400D01*
X123736657Y-99336451D01*
X123299826Y-99628332D01*
X122928332Y-99999826D01*
X122636451Y-100436657D01*
X122435400Y-100922037D01*
X122332905Y-101437314D01*
X122332905Y-101962686D01*
X122435400Y-102477963D01*
X122636451Y-102963343D01*
X122928332Y-103400174D01*
X123299826Y-103771668D01*
X123736657Y-104063549D01*
X124222037Y-104264600D01*
X124601098Y-104340000D01*
X68160000Y-104340000D01*
X68160000Y-101764740D01*
X75858964Y-101764740D01*
X75883245Y-101870087D01*
X76003138Y-102147204D01*
X76174790Y-102395606D01*
X76391604Y-102605748D01*
X76645249Y-102769554D01*
X76925977Y-102880729D01*
X77223000Y-102935000D01*
X78323000Y-102935000D01*
X78323000Y-101527000D01*
X78577000Y-101527000D01*
X78577000Y-102935000D01*
X79677000Y-102935000D01*
X79974023Y-102880729D01*
X80254751Y-102769554D01*
X80508396Y-102605748D01*
X80725210Y-102395606D01*
X80896862Y-102147204D01*
X81016755Y-101870087D01*
X81041036Y-101764740D01*
X80920378Y-101527000D01*
X78577000Y-101527000D01*
X78323000Y-101527000D01*
X75979622Y-101527000D01*
X75858964Y-101764740D01*
X68160000Y-101764740D01*
X68160000Y-101035260D01*
X75858964Y-101035260D01*
X75979622Y-101273000D01*
X78323000Y-101273000D01*
X78323000Y-99865000D01*
X78577000Y-99865000D01*
X78577000Y-101273000D01*
X80920378Y-101273000D01*
X81041036Y-101035260D01*
X81016755Y-100929913D01*
X80896862Y-100652796D01*
X80725210Y-100404394D01*
X80508396Y-100194252D01*
X80254751Y-100030446D01*
X79974023Y-99919271D01*
X79677000Y-99865000D01*
X78577000Y-99865000D01*
X78323000Y-99865000D01*
X77223000Y-99865000D01*
X76925977Y-99919271D01*
X76645249Y-100030446D01*
X76391604Y-100194252D01*
X76174790Y-100404394D01*
X76003138Y-100652796D01*
X75883245Y-100929913D01*
X75858964Y-101035260D01*
X68160000Y-101035260D01*
X68160000Y-96727000D01*
X73665000Y-96727000D01*
X73665000Y-97827000D01*
X73719271Y-98124023D01*
X73830446Y-98404751D01*
X73994252Y-98658396D01*
X74204394Y-98875210D01*
X74452796Y-99046862D01*
X74729913Y-99166755D01*
X74835260Y-99191036D01*
X75073000Y-99070378D01*
X75073000Y-96727000D01*
X75327000Y-96727000D01*
X75327000Y-99070378D01*
X75564740Y-99191036D01*
X75670087Y-99166755D01*
X75947204Y-99046862D01*
X76195606Y-98875210D01*
X76405748Y-98658396D01*
X76569554Y-98404751D01*
X76680729Y-98124023D01*
X76735000Y-97827000D01*
X76735000Y-96727000D01*
X75327000Y-96727000D01*
X75073000Y-96727000D01*
X73665000Y-96727000D01*
X68160000Y-96727000D01*
X68160000Y-95373000D01*
X73665000Y-95373000D01*
X73665000Y-96473000D01*
X75073000Y-96473000D01*
X75073000Y-94129622D01*
X75327000Y-94129622D01*
X75327000Y-96473000D01*
X76735000Y-96473000D01*
X76735000Y-95373000D01*
X76680729Y-95075977D01*
X76569554Y-94795249D01*
X76405748Y-94541604D01*
X76220041Y-94350000D01*
X79811928Y-94350000D01*
X79811928Y-98850000D01*
X79824188Y-98974482D01*
X79860498Y-99094180D01*
X79919463Y-99204494D01*
X79998815Y-99301185D01*
X80095506Y-99380537D01*
X80205820Y-99439502D01*
X80325518Y-99475812D01*
X80450000Y-99488072D01*
X82450000Y-99488072D01*
X82574482Y-99475812D01*
X82694180Y-99439502D01*
X82804494Y-99380537D01*
X82901185Y-99301185D01*
X82980537Y-99204494D01*
X83039502Y-99094180D01*
X83075812Y-98974482D01*
X83088072Y-98850000D01*
X83088072Y-97898061D01*
X87165000Y-97898061D01*
X87165000Y-98101939D01*
X87204774Y-98301898D01*
X87282795Y-98490256D01*
X87396063Y-98659774D01*
X87540226Y-98803937D01*
X87709744Y-98917205D01*
X87898102Y-98995226D01*
X88098061Y-99035000D01*
X88301939Y-99035000D01*
X88501898Y-98995226D01*
X88690256Y-98917205D01*
X88859774Y-98803937D01*
X88903711Y-98760000D01*
X90496289Y-98760000D01*
X90540226Y-98803937D01*
X90709744Y-98917205D01*
X90817714Y-98961928D01*
X89600000Y-98961928D01*
X89475518Y-98974188D01*
X89355820Y-99010498D01*
X89245506Y-99069463D01*
X89148815Y-99148815D01*
X89069463Y-99245506D01*
X89010498Y-99355820D01*
X88974188Y-99475518D01*
X88961928Y-99600000D01*
X88961928Y-101800000D01*
X88974188Y-101924482D01*
X89010498Y-102044180D01*
X89069463Y-102154494D01*
X89148815Y-102251185D01*
X89245506Y-102330537D01*
X89355820Y-102389502D01*
X89475518Y-102425812D01*
X89600000Y-102438072D01*
X91800000Y-102438072D01*
X91924482Y-102425812D01*
X92044180Y-102389502D01*
X92154494Y-102330537D01*
X92251185Y-102251185D01*
X92330537Y-102154494D01*
X92389502Y-102044180D01*
X92425812Y-101924482D01*
X92438072Y-101800000D01*
X92438072Y-100529117D01*
X96585000Y-100529117D01*
X96585000Y-100870883D01*
X96651675Y-101206081D01*
X96782463Y-101521831D01*
X96972337Y-101805998D01*
X97214002Y-102047663D01*
X97498169Y-102237537D01*
X97813919Y-102368325D01*
X98149117Y-102435000D01*
X98490883Y-102435000D01*
X98826081Y-102368325D01*
X99141831Y-102237537D01*
X99425998Y-102047663D01*
X99667663Y-101805998D01*
X99857537Y-101521831D01*
X99988325Y-101206081D01*
X100055000Y-100870883D01*
X100055000Y-100529117D01*
X99988325Y-100193919D01*
X99857537Y-99878169D01*
X99667663Y-99594002D01*
X99573661Y-99500000D01*
X100961928Y-99500000D01*
X100961928Y-101700000D01*
X100974188Y-101824482D01*
X101010498Y-101944180D01*
X101069463Y-102054494D01*
X101148815Y-102151185D01*
X101245506Y-102230537D01*
X101355820Y-102289502D01*
X101475518Y-102325812D01*
X101600000Y-102338072D01*
X103800000Y-102338072D01*
X103924482Y-102325812D01*
X104044180Y-102289502D01*
X104154494Y-102230537D01*
X104251185Y-102151185D01*
X104330537Y-102054494D01*
X104389502Y-101944180D01*
X104425812Y-101824482D01*
X104438072Y-101700000D01*
X104438072Y-100429117D01*
X108585000Y-100429117D01*
X108585000Y-100770883D01*
X108651675Y-101106081D01*
X108782463Y-101421831D01*
X108972337Y-101705998D01*
X109214002Y-101947663D01*
X109498169Y-102137537D01*
X109813919Y-102268325D01*
X110149117Y-102335000D01*
X110490883Y-102335000D01*
X110826081Y-102268325D01*
X111141831Y-102137537D01*
X111425998Y-101947663D01*
X111667663Y-101705998D01*
X111857537Y-101421831D01*
X111988325Y-101106081D01*
X112055000Y-100770883D01*
X112055000Y-100429117D01*
X111988325Y-100093919D01*
X111857537Y-99778169D01*
X111667663Y-99494002D01*
X111425998Y-99252337D01*
X111141831Y-99062463D01*
X110826081Y-98931675D01*
X110490883Y-98865000D01*
X110149117Y-98865000D01*
X109813919Y-98931675D01*
X109498169Y-99062463D01*
X109214002Y-99252337D01*
X108972337Y-99494002D01*
X108782463Y-99778169D01*
X108651675Y-100093919D01*
X108585000Y-100429117D01*
X104438072Y-100429117D01*
X104438072Y-99500000D01*
X104425812Y-99375518D01*
X104389502Y-99255820D01*
X104330537Y-99145506D01*
X104251185Y-99048815D01*
X104154494Y-98969463D01*
X104044180Y-98910498D01*
X103924482Y-98874188D01*
X103800000Y-98861928D01*
X101600000Y-98861928D01*
X101475518Y-98874188D01*
X101355820Y-98910498D01*
X101245506Y-98969463D01*
X101148815Y-99048815D01*
X101069463Y-99145506D01*
X101010498Y-99255820D01*
X100974188Y-99375518D01*
X100961928Y-99500000D01*
X99573661Y-99500000D01*
X99425998Y-99352337D01*
X99141831Y-99162463D01*
X98826081Y-99031675D01*
X98490883Y-98965000D01*
X98149117Y-98965000D01*
X97813919Y-99031675D01*
X97498169Y-99162463D01*
X97214002Y-99352337D01*
X96972337Y-99594002D01*
X96782463Y-99878169D01*
X96651675Y-100193919D01*
X96585000Y-100529117D01*
X92438072Y-100529117D01*
X92438072Y-99600000D01*
X92425812Y-99475518D01*
X92389502Y-99355820D01*
X92330537Y-99245506D01*
X92251185Y-99148815D01*
X92154494Y-99069463D01*
X92044180Y-99010498D01*
X91924482Y-98974188D01*
X91800000Y-98961928D01*
X91582286Y-98961928D01*
X91690256Y-98917205D01*
X91859774Y-98803937D01*
X92003937Y-98659774D01*
X92117205Y-98490256D01*
X92195226Y-98301898D01*
X92235000Y-98101939D01*
X92235000Y-97898061D01*
X92195226Y-97698102D01*
X92117205Y-97509744D01*
X92003937Y-97340226D01*
X91859774Y-97196063D01*
X91690256Y-97082795D01*
X91501898Y-97004774D01*
X91301939Y-96965000D01*
X91098061Y-96965000D01*
X90898102Y-97004774D01*
X90709744Y-97082795D01*
X90540226Y-97196063D01*
X90496289Y-97240000D01*
X88903711Y-97240000D01*
X88859774Y-97196063D01*
X88690256Y-97082795D01*
X88501898Y-97004774D01*
X88301939Y-96965000D01*
X88098061Y-96965000D01*
X87898102Y-97004774D01*
X87709744Y-97082795D01*
X87540226Y-97196063D01*
X87396063Y-97340226D01*
X87282795Y-97509744D01*
X87204774Y-97698102D01*
X87165000Y-97898061D01*
X83088072Y-97898061D01*
X83088072Y-95292500D01*
X107721928Y-95292500D01*
X107734188Y-95416982D01*
X107770498Y-95536680D01*
X107829463Y-95646994D01*
X107908815Y-95743685D01*
X108005506Y-95823037D01*
X108115820Y-95882002D01*
X108235518Y-95918312D01*
X108360000Y-95930572D01*
X109074250Y-95927500D01*
X109233000Y-95768750D01*
X109233000Y-94467000D01*
X109487000Y-94467000D01*
X109487000Y-95768750D01*
X109645750Y-95927500D01*
X110360000Y-95930572D01*
X110484482Y-95918312D01*
X110604180Y-95882002D01*
X110714494Y-95823037D01*
X110811185Y-95743685D01*
X110890537Y-95646994D01*
X110949502Y-95536680D01*
X110985812Y-95416982D01*
X110987484Y-95400000D01*
X113561928Y-95400000D01*
X113574188Y-95524482D01*
X113610498Y-95644180D01*
X113669463Y-95754494D01*
X113748815Y-95851185D01*
X113845506Y-95930537D01*
X113955820Y-95989502D01*
X114051943Y-96018661D01*
X113885363Y-96185241D01*
X113728320Y-96420273D01*
X113620147Y-96681426D01*
X113565000Y-96958665D01*
X113565000Y-97241335D01*
X113620147Y-97518574D01*
X113728320Y-97779727D01*
X113885363Y-98014759D01*
X114085241Y-98214637D01*
X114320273Y-98371680D01*
X114581426Y-98479853D01*
X114858665Y-98535000D01*
X115141335Y-98535000D01*
X115418574Y-98479853D01*
X115679727Y-98371680D01*
X115914759Y-98214637D01*
X116114637Y-98014759D01*
X116271680Y-97779727D01*
X116379853Y-97518574D01*
X116435000Y-97241335D01*
X116435000Y-96958665D01*
X116379853Y-96681426D01*
X116283628Y-96449117D01*
X120065000Y-96449117D01*
X120065000Y-96790883D01*
X120131675Y-97126081D01*
X120262463Y-97441831D01*
X120452337Y-97725998D01*
X120694002Y-97967663D01*
X120978169Y-98157537D01*
X121293919Y-98288325D01*
X121629117Y-98355000D01*
X121970883Y-98355000D01*
X122306081Y-98288325D01*
X122621831Y-98157537D01*
X122905998Y-97967663D01*
X123054393Y-97819268D01*
X133365000Y-97819268D01*
X133365000Y-98180732D01*
X133435518Y-98535250D01*
X133573844Y-98869199D01*
X133774662Y-99169744D01*
X134030256Y-99425338D01*
X134330801Y-99626156D01*
X134664750Y-99764482D01*
X135019268Y-99835000D01*
X135380732Y-99835000D01*
X135735250Y-99764482D01*
X136069199Y-99626156D01*
X136369744Y-99425338D01*
X136625338Y-99169744D01*
X136826156Y-98869199D01*
X136964482Y-98535250D01*
X137035000Y-98180732D01*
X137035000Y-98019268D01*
X152065000Y-98019268D01*
X152065000Y-98380732D01*
X152135518Y-98735250D01*
X152273844Y-99069199D01*
X152474662Y-99369744D01*
X152730256Y-99625338D01*
X153030801Y-99826156D01*
X153364750Y-99964482D01*
X153719268Y-100035000D01*
X154080732Y-100035000D01*
X154435250Y-99964482D01*
X154769199Y-99826156D01*
X155069744Y-99625338D01*
X155325338Y-99369744D01*
X155526156Y-99069199D01*
X155664482Y-98735250D01*
X155735000Y-98380732D01*
X155735000Y-98019268D01*
X170665000Y-98019268D01*
X170665000Y-98380732D01*
X170735518Y-98735250D01*
X170873844Y-99069199D01*
X171074662Y-99369744D01*
X171330256Y-99625338D01*
X171630801Y-99826156D01*
X171964750Y-99964482D01*
X172319268Y-100035000D01*
X172680732Y-100035000D01*
X173035250Y-99964482D01*
X173369199Y-99826156D01*
X173669744Y-99625338D01*
X173925338Y-99369744D01*
X174126156Y-99069199D01*
X174264482Y-98735250D01*
X174335000Y-98380732D01*
X174335000Y-98019268D01*
X174264482Y-97664750D01*
X174126156Y-97330801D01*
X173925338Y-97030256D01*
X173669744Y-96774662D01*
X173369199Y-96573844D01*
X173035250Y-96435518D01*
X172680732Y-96365000D01*
X172319268Y-96365000D01*
X171964750Y-96435518D01*
X171630801Y-96573844D01*
X171330256Y-96774662D01*
X171074662Y-97030256D01*
X170873844Y-97330801D01*
X170735518Y-97664750D01*
X170665000Y-98019268D01*
X155735000Y-98019268D01*
X155664482Y-97664750D01*
X155526156Y-97330801D01*
X155325338Y-97030256D01*
X155069744Y-96774662D01*
X154769199Y-96573844D01*
X154435250Y-96435518D01*
X154080732Y-96365000D01*
X153719268Y-96365000D01*
X153364750Y-96435518D01*
X153030801Y-96573844D01*
X152730256Y-96774662D01*
X152474662Y-97030256D01*
X152273844Y-97330801D01*
X152135518Y-97664750D01*
X152065000Y-98019268D01*
X137035000Y-98019268D01*
X137035000Y-97819268D01*
X136964482Y-97464750D01*
X136826156Y-97130801D01*
X136625338Y-96830256D01*
X136369744Y-96574662D01*
X136069199Y-96373844D01*
X135735250Y-96235518D01*
X135380732Y-96165000D01*
X135019268Y-96165000D01*
X134664750Y-96235518D01*
X134330801Y-96373844D01*
X134030256Y-96574662D01*
X133774662Y-96830256D01*
X133573844Y-97130801D01*
X133435518Y-97464750D01*
X133365000Y-97819268D01*
X123054393Y-97819268D01*
X123147663Y-97725998D01*
X123337537Y-97441831D01*
X123468325Y-97126081D01*
X123535000Y-96790883D01*
X123535000Y-96449117D01*
X123468325Y-96113919D01*
X123337537Y-95798169D01*
X123147663Y-95514002D01*
X122905998Y-95272337D01*
X122621831Y-95082463D01*
X122306081Y-94951675D01*
X121970883Y-94885000D01*
X121629117Y-94885000D01*
X121293919Y-94951675D01*
X120978169Y-95082463D01*
X120694002Y-95272337D01*
X120452337Y-95514002D01*
X120262463Y-95798169D01*
X120131675Y-96113919D01*
X120065000Y-96449117D01*
X116283628Y-96449117D01*
X116271680Y-96420273D01*
X116114637Y-96185241D01*
X115948057Y-96018661D01*
X116044180Y-95989502D01*
X116154494Y-95930537D01*
X116251185Y-95851185D01*
X116330537Y-95754494D01*
X116389502Y-95644180D01*
X116425812Y-95524482D01*
X116438072Y-95400000D01*
X116435000Y-94885750D01*
X116276250Y-94727000D01*
X115127000Y-94727000D01*
X115127000Y-94747000D01*
X114873000Y-94747000D01*
X114873000Y-94727000D01*
X113723750Y-94727000D01*
X113565000Y-94885750D01*
X113561928Y-95400000D01*
X110987484Y-95400000D01*
X110998072Y-95292500D01*
X110995000Y-94625750D01*
X110836250Y-94467000D01*
X109487000Y-94467000D01*
X109233000Y-94467000D01*
X107883750Y-94467000D01*
X107725000Y-94625750D01*
X107721928Y-95292500D01*
X83088072Y-95292500D01*
X83088072Y-94350000D01*
X83075812Y-94225518D01*
X83039502Y-94105820D01*
X82980537Y-93995506D01*
X82901185Y-93898815D01*
X82804494Y-93819463D01*
X82694180Y-93760498D01*
X82574482Y-93724188D01*
X82450000Y-93711928D01*
X80450000Y-93711928D01*
X80325518Y-93724188D01*
X80205820Y-93760498D01*
X80095506Y-93819463D01*
X79998815Y-93898815D01*
X79919463Y-93995506D01*
X79860498Y-94105820D01*
X79824188Y-94225518D01*
X79811928Y-94350000D01*
X76220041Y-94350000D01*
X76195606Y-94324790D01*
X75947204Y-94153138D01*
X75670087Y-94033245D01*
X75564740Y-94008964D01*
X75327000Y-94129622D01*
X75073000Y-94129622D01*
X74835260Y-94008964D01*
X74729913Y-94033245D01*
X74452796Y-94153138D01*
X74204394Y-94324790D01*
X73994252Y-94541604D01*
X73830446Y-94795249D01*
X73719271Y-95075977D01*
X73665000Y-95373000D01*
X68160000Y-95373000D01*
X68160000Y-91565098D01*
X90315000Y-91565098D01*
X90315000Y-92034902D01*
X90406654Y-92495679D01*
X90586440Y-92929721D01*
X90847450Y-93320349D01*
X91179651Y-93652550D01*
X91570279Y-93913560D01*
X92004321Y-94093346D01*
X92465098Y-94185000D01*
X92934902Y-94185000D01*
X93395679Y-94093346D01*
X93829721Y-93913560D01*
X94220349Y-93652550D01*
X94552550Y-93320349D01*
X94813560Y-92929721D01*
X94993346Y-92495679D01*
X95085000Y-92034902D01*
X95085000Y-91565098D01*
X94993346Y-91104321D01*
X94813560Y-90670279D01*
X94552550Y-90279651D01*
X94220349Y-89947450D01*
X93829721Y-89686440D01*
X93395679Y-89506654D01*
X92934902Y-89415000D01*
X92465098Y-89415000D01*
X92004321Y-89506654D01*
X91570279Y-89686440D01*
X91179651Y-89947450D01*
X90847450Y-90279651D01*
X90586440Y-90670279D01*
X90406654Y-91104321D01*
X90315000Y-91565098D01*
X68160000Y-91565098D01*
X68160000Y-89260000D01*
X107717319Y-89260000D01*
X107747970Y-89571204D01*
X107838745Y-89870449D01*
X107986155Y-90146235D01*
X108184537Y-90387963D01*
X108357609Y-90530000D01*
X108184537Y-90672037D01*
X107986155Y-90913765D01*
X107838745Y-91189551D01*
X107747970Y-91488796D01*
X107717319Y-91800000D01*
X107747970Y-92111204D01*
X107838745Y-92410449D01*
X107986155Y-92686235D01*
X108089446Y-92812095D01*
X108005506Y-92856963D01*
X107908815Y-92936315D01*
X107829463Y-93033006D01*
X107770498Y-93143320D01*
X107734188Y-93263018D01*
X107721928Y-93387500D01*
X107725000Y-94054250D01*
X107883750Y-94213000D01*
X109233000Y-94213000D01*
X109233000Y-94193000D01*
X109487000Y-94193000D01*
X109487000Y-94213000D01*
X110836250Y-94213000D01*
X110995000Y-94054250D01*
X110996171Y-93800000D01*
X113561928Y-93800000D01*
X113565000Y-94314250D01*
X113723750Y-94473000D01*
X114873000Y-94473000D01*
X114873000Y-93323750D01*
X115127000Y-93323750D01*
X115127000Y-94473000D01*
X116276250Y-94473000D01*
X116435000Y-94314250D01*
X116438072Y-93800000D01*
X116425812Y-93675518D01*
X116389502Y-93555820D01*
X116330537Y-93445506D01*
X116251185Y-93348815D01*
X116154494Y-93269463D01*
X116044180Y-93210498D01*
X115924482Y-93174188D01*
X115800000Y-93161928D01*
X115285750Y-93165000D01*
X115127000Y-93323750D01*
X114873000Y-93323750D01*
X114714250Y-93165000D01*
X114200000Y-93161928D01*
X114075518Y-93174188D01*
X113955820Y-93210498D01*
X113845506Y-93269463D01*
X113748815Y-93348815D01*
X113669463Y-93445506D01*
X113610498Y-93555820D01*
X113574188Y-93675518D01*
X113561928Y-93800000D01*
X110996171Y-93800000D01*
X110998072Y-93387500D01*
X110985812Y-93263018D01*
X110949502Y-93143320D01*
X110890537Y-93033006D01*
X110811185Y-92936315D01*
X110714494Y-92856963D01*
X110630554Y-92812095D01*
X110733845Y-92686235D01*
X110881255Y-92410449D01*
X110972030Y-92111204D01*
X111002681Y-91800000D01*
X110972030Y-91488796D01*
X110881255Y-91189551D01*
X110733845Y-90913765D01*
X110535463Y-90672037D01*
X110362391Y-90530000D01*
X110535463Y-90387963D01*
X110733845Y-90146235D01*
X110881255Y-89870449D01*
X110972030Y-89571204D01*
X111002681Y-89260000D01*
X110977074Y-89000000D01*
X113161928Y-89000000D01*
X113174188Y-89124482D01*
X113210498Y-89244180D01*
X113269463Y-89354494D01*
X113348815Y-89451185D01*
X113445506Y-89530537D01*
X113555820Y-89589502D01*
X113651943Y-89618661D01*
X113485363Y-89785241D01*
X113328320Y-90020273D01*
X113220147Y-90281426D01*
X113165000Y-90558665D01*
X113165000Y-90841335D01*
X113220147Y-91118574D01*
X113328320Y-91379727D01*
X113485363Y-91614759D01*
X113685241Y-91814637D01*
X113920273Y-91971680D01*
X114181426Y-92079853D01*
X114458665Y-92135000D01*
X114741335Y-92135000D01*
X115018574Y-92079853D01*
X115279727Y-91971680D01*
X115514759Y-91814637D01*
X115629396Y-91700000D01*
X133361928Y-91700000D01*
X133374188Y-91824482D01*
X133410498Y-91944180D01*
X133469463Y-92054494D01*
X133548815Y-92151185D01*
X133645506Y-92230537D01*
X133755820Y-92289502D01*
X133875518Y-92325812D01*
X134000000Y-92338072D01*
X134914250Y-92335000D01*
X135073000Y-92176250D01*
X135073000Y-90627000D01*
X135327000Y-90627000D01*
X135327000Y-92176250D01*
X135485750Y-92335000D01*
X136400000Y-92338072D01*
X136524482Y-92325812D01*
X136644180Y-92289502D01*
X136754494Y-92230537D01*
X136851185Y-92151185D01*
X136930537Y-92054494D01*
X136989502Y-91944180D01*
X137002903Y-91900000D01*
X152061928Y-91900000D01*
X152074188Y-92024482D01*
X152110498Y-92144180D01*
X152169463Y-92254494D01*
X152248815Y-92351185D01*
X152345506Y-92430537D01*
X152455820Y-92489502D01*
X152575518Y-92525812D01*
X152700000Y-92538072D01*
X153614250Y-92535000D01*
X153773000Y-92376250D01*
X153773000Y-90827000D01*
X154027000Y-90827000D01*
X154027000Y-92376250D01*
X154185750Y-92535000D01*
X155100000Y-92538072D01*
X155224482Y-92525812D01*
X155344180Y-92489502D01*
X155454494Y-92430537D01*
X155551185Y-92351185D01*
X155630537Y-92254494D01*
X155689502Y-92144180D01*
X155725812Y-92024482D01*
X155738072Y-91900000D01*
X170661928Y-91900000D01*
X170674188Y-92024482D01*
X170710498Y-92144180D01*
X170769463Y-92254494D01*
X170848815Y-92351185D01*
X170945506Y-92430537D01*
X171055820Y-92489502D01*
X171175518Y-92525812D01*
X171300000Y-92538072D01*
X172214250Y-92535000D01*
X172373000Y-92376250D01*
X172373000Y-90827000D01*
X172627000Y-90827000D01*
X172627000Y-92376250D01*
X172785750Y-92535000D01*
X173700000Y-92538072D01*
X173824482Y-92525812D01*
X173944180Y-92489502D01*
X174054494Y-92430537D01*
X174151185Y-92351185D01*
X174230537Y-92254494D01*
X174289502Y-92144180D01*
X174325812Y-92024482D01*
X174338072Y-91900000D01*
X174335000Y-90985750D01*
X174176250Y-90827000D01*
X172627000Y-90827000D01*
X172373000Y-90827000D01*
X170823750Y-90827000D01*
X170665000Y-90985750D01*
X170661928Y-91900000D01*
X155738072Y-91900000D01*
X155735000Y-90985750D01*
X155576250Y-90827000D01*
X154027000Y-90827000D01*
X153773000Y-90827000D01*
X152223750Y-90827000D01*
X152065000Y-90985750D01*
X152061928Y-91900000D01*
X137002903Y-91900000D01*
X137025812Y-91824482D01*
X137038072Y-91700000D01*
X137035000Y-90785750D01*
X136876250Y-90627000D01*
X135327000Y-90627000D01*
X135073000Y-90627000D01*
X133523750Y-90627000D01*
X133365000Y-90785750D01*
X133361928Y-91700000D01*
X115629396Y-91700000D01*
X115714637Y-91614759D01*
X115871680Y-91379727D01*
X115979853Y-91118574D01*
X116035000Y-90841335D01*
X116035000Y-90558665D01*
X115979853Y-90281426D01*
X115904704Y-90100000D01*
X120061928Y-90100000D01*
X120074188Y-90224482D01*
X120110498Y-90344180D01*
X120169463Y-90454494D01*
X120248815Y-90551185D01*
X120345506Y-90630537D01*
X120455820Y-90689502D01*
X120575518Y-90725812D01*
X120700000Y-90738072D01*
X121514250Y-90735000D01*
X121673000Y-90576250D01*
X121673000Y-89127000D01*
X121927000Y-89127000D01*
X121927000Y-90576250D01*
X122085750Y-90735000D01*
X122900000Y-90738072D01*
X123024482Y-90725812D01*
X123144180Y-90689502D01*
X123254494Y-90630537D01*
X123351185Y-90551185D01*
X123430537Y-90454494D01*
X123489502Y-90344180D01*
X123525812Y-90224482D01*
X123538072Y-90100000D01*
X123535054Y-89300000D01*
X133361928Y-89300000D01*
X133365000Y-90214250D01*
X133523750Y-90373000D01*
X135073000Y-90373000D01*
X135073000Y-88823750D01*
X135327000Y-88823750D01*
X135327000Y-90373000D01*
X136876250Y-90373000D01*
X137035000Y-90214250D01*
X137037399Y-89500000D01*
X152061928Y-89500000D01*
X152065000Y-90414250D01*
X152223750Y-90573000D01*
X153773000Y-90573000D01*
X153773000Y-89023750D01*
X154027000Y-89023750D01*
X154027000Y-90573000D01*
X155576250Y-90573000D01*
X155735000Y-90414250D01*
X155738072Y-89500000D01*
X170661928Y-89500000D01*
X170665000Y-90414250D01*
X170823750Y-90573000D01*
X172373000Y-90573000D01*
X172373000Y-89023750D01*
X172627000Y-89023750D01*
X172627000Y-90573000D01*
X174176250Y-90573000D01*
X174335000Y-90414250D01*
X174338072Y-89500000D01*
X174325812Y-89375518D01*
X174289502Y-89255820D01*
X174230537Y-89145506D01*
X174151185Y-89048815D01*
X174054494Y-88969463D01*
X173944180Y-88910498D01*
X173824482Y-88874188D01*
X173700000Y-88861928D01*
X172785750Y-88865000D01*
X172627000Y-89023750D01*
X172373000Y-89023750D01*
X172214250Y-88865000D01*
X171300000Y-88861928D01*
X171175518Y-88874188D01*
X171055820Y-88910498D01*
X170945506Y-88969463D01*
X170848815Y-89048815D01*
X170769463Y-89145506D01*
X170710498Y-89255820D01*
X170674188Y-89375518D01*
X170661928Y-89500000D01*
X155738072Y-89500000D01*
X155725812Y-89375518D01*
X155689502Y-89255820D01*
X155630537Y-89145506D01*
X155551185Y-89048815D01*
X155454494Y-88969463D01*
X155344180Y-88910498D01*
X155224482Y-88874188D01*
X155100000Y-88861928D01*
X154185750Y-88865000D01*
X154027000Y-89023750D01*
X153773000Y-89023750D01*
X153614250Y-88865000D01*
X152700000Y-88861928D01*
X152575518Y-88874188D01*
X152455820Y-88910498D01*
X152345506Y-88969463D01*
X152248815Y-89048815D01*
X152169463Y-89145506D01*
X152110498Y-89255820D01*
X152074188Y-89375518D01*
X152061928Y-89500000D01*
X137037399Y-89500000D01*
X137038072Y-89300000D01*
X137025812Y-89175518D01*
X136989502Y-89055820D01*
X136930537Y-88945506D01*
X136851185Y-88848815D01*
X136754494Y-88769463D01*
X136644180Y-88710498D01*
X136524482Y-88674188D01*
X136400000Y-88661928D01*
X135485750Y-88665000D01*
X135327000Y-88823750D01*
X135073000Y-88823750D01*
X134914250Y-88665000D01*
X134000000Y-88661928D01*
X133875518Y-88674188D01*
X133755820Y-88710498D01*
X133645506Y-88769463D01*
X133548815Y-88848815D01*
X133469463Y-88945506D01*
X133410498Y-89055820D01*
X133374188Y-89175518D01*
X133361928Y-89300000D01*
X123535054Y-89300000D01*
X123535000Y-89285750D01*
X123376250Y-89127000D01*
X121927000Y-89127000D01*
X121673000Y-89127000D01*
X120223750Y-89127000D01*
X120065000Y-89285750D01*
X120061928Y-90100000D01*
X115904704Y-90100000D01*
X115871680Y-90020273D01*
X115714637Y-89785241D01*
X115548057Y-89618661D01*
X115644180Y-89589502D01*
X115754494Y-89530537D01*
X115851185Y-89451185D01*
X115930537Y-89354494D01*
X115989502Y-89244180D01*
X116025812Y-89124482D01*
X116038072Y-89000000D01*
X116035000Y-88485750D01*
X115876250Y-88327000D01*
X114727000Y-88327000D01*
X114727000Y-88347000D01*
X114473000Y-88347000D01*
X114473000Y-88327000D01*
X113323750Y-88327000D01*
X113165000Y-88485750D01*
X113161928Y-89000000D01*
X110977074Y-89000000D01*
X110972030Y-88948796D01*
X110881255Y-88649551D01*
X110733845Y-88373765D01*
X110535463Y-88132037D01*
X110293735Y-87933655D01*
X110017949Y-87786245D01*
X109718704Y-87695470D01*
X109485486Y-87672500D01*
X109234514Y-87672500D01*
X109001296Y-87695470D01*
X108702051Y-87786245D01*
X108426265Y-87933655D01*
X108184537Y-88132037D01*
X107986155Y-88373765D01*
X107838745Y-88649551D01*
X107747970Y-88948796D01*
X107717319Y-89260000D01*
X68160000Y-89260000D01*
X68160000Y-87804080D01*
X76915525Y-87804080D01*
X76999208Y-88058261D01*
X77271775Y-88189158D01*
X77564642Y-88264365D01*
X77866553Y-88280991D01*
X78165907Y-88238397D01*
X78451199Y-88138222D01*
X78600792Y-88058261D01*
X78684475Y-87804080D01*
X77800000Y-86919605D01*
X76915525Y-87804080D01*
X68160000Y-87804080D01*
X68160000Y-86806553D01*
X76259009Y-86806553D01*
X76301603Y-87105907D01*
X76401778Y-87391199D01*
X76481739Y-87540792D01*
X76735920Y-87624475D01*
X77620395Y-86740000D01*
X77606253Y-86725858D01*
X77785858Y-86546253D01*
X77800000Y-86560395D01*
X77814143Y-86546253D01*
X77993748Y-86725858D01*
X77979605Y-86740000D01*
X78864080Y-87624475D01*
X79118261Y-87540792D01*
X79249158Y-87268225D01*
X79324365Y-86975358D01*
X79340991Y-86673447D01*
X79298397Y-86374093D01*
X79198222Y-86088801D01*
X79118261Y-85939208D01*
X78864082Y-85855526D01*
X78980030Y-85739578D01*
X78933265Y-85692813D01*
X78944180Y-85689502D01*
X79054494Y-85630537D01*
X79151185Y-85551185D01*
X79230537Y-85454494D01*
X79289502Y-85344180D01*
X79325812Y-85224482D01*
X79338072Y-85100000D01*
X79338072Y-84068514D01*
X80465000Y-84068514D01*
X80465000Y-84331486D01*
X80516304Y-84589405D01*
X80616939Y-84832359D01*
X80763038Y-85051013D01*
X80948987Y-85236962D01*
X81167641Y-85383061D01*
X81377530Y-85470000D01*
X81167641Y-85556939D01*
X80948987Y-85703038D01*
X80763038Y-85888987D01*
X80616939Y-86107641D01*
X80516304Y-86350595D01*
X80465000Y-86608514D01*
X80465000Y-86871486D01*
X80516304Y-87129405D01*
X80616939Y-87372359D01*
X80763038Y-87591013D01*
X80948987Y-87776962D01*
X81167641Y-87923061D01*
X81410595Y-88023696D01*
X81668514Y-88075000D01*
X81931486Y-88075000D01*
X82189405Y-88023696D01*
X82432359Y-87923061D01*
X82651013Y-87776962D01*
X82836962Y-87591013D01*
X82964591Y-87400000D01*
X113161928Y-87400000D01*
X113165000Y-87914250D01*
X113323750Y-88073000D01*
X114473000Y-88073000D01*
X114473000Y-86923750D01*
X114727000Y-86923750D01*
X114727000Y-88073000D01*
X115876250Y-88073000D01*
X116035000Y-87914250D01*
X116035085Y-87900000D01*
X120061928Y-87900000D01*
X120065000Y-88714250D01*
X120223750Y-88873000D01*
X121673000Y-88873000D01*
X121673000Y-87423750D01*
X121927000Y-87423750D01*
X121927000Y-88873000D01*
X123376250Y-88873000D01*
X123535000Y-88714250D01*
X123538072Y-87900000D01*
X123525812Y-87775518D01*
X123489502Y-87655820D01*
X123430537Y-87545506D01*
X123351185Y-87448815D01*
X123254494Y-87369463D01*
X123144180Y-87310498D01*
X123024482Y-87274188D01*
X122900000Y-87261928D01*
X122085750Y-87265000D01*
X121927000Y-87423750D01*
X121673000Y-87423750D01*
X121514250Y-87265000D01*
X120700000Y-87261928D01*
X120575518Y-87274188D01*
X120455820Y-87310498D01*
X120345506Y-87369463D01*
X120248815Y-87448815D01*
X120169463Y-87545506D01*
X120110498Y-87655820D01*
X120074188Y-87775518D01*
X120061928Y-87900000D01*
X116035085Y-87900000D01*
X116038072Y-87400000D01*
X116025812Y-87275518D01*
X115989502Y-87155820D01*
X115930537Y-87045506D01*
X115851185Y-86948815D01*
X115754494Y-86869463D01*
X115644180Y-86810498D01*
X115524482Y-86774188D01*
X115400000Y-86761928D01*
X114885750Y-86765000D01*
X114727000Y-86923750D01*
X114473000Y-86923750D01*
X114314250Y-86765000D01*
X113800000Y-86761928D01*
X113675518Y-86774188D01*
X113555820Y-86810498D01*
X113445506Y-86869463D01*
X113348815Y-86948815D01*
X113269463Y-87045506D01*
X113210498Y-87155820D01*
X113174188Y-87275518D01*
X113161928Y-87400000D01*
X82964591Y-87400000D01*
X82983061Y-87372359D01*
X83083696Y-87129405D01*
X83135000Y-86871486D01*
X83135000Y-86608514D01*
X83083696Y-86350595D01*
X82983061Y-86107641D01*
X82836962Y-85888987D01*
X82651013Y-85703038D01*
X82432359Y-85556939D01*
X82222470Y-85470000D01*
X82432359Y-85383061D01*
X82651013Y-85236962D01*
X82836962Y-85051013D01*
X82983061Y-84832359D01*
X83083696Y-84589405D01*
X83135000Y-84331486D01*
X83135000Y-84068514D01*
X83083696Y-83810595D01*
X82983061Y-83567641D01*
X82932989Y-83492702D01*
X113686903Y-83492702D01*
X113758486Y-83736671D01*
X114013996Y-83857571D01*
X114288184Y-83926300D01*
X114570512Y-83940217D01*
X114850130Y-83898787D01*
X115116292Y-83803603D01*
X115241514Y-83736671D01*
X115313097Y-83492702D01*
X115236518Y-83416123D01*
X120010821Y-83416123D01*
X120120558Y-83738054D01*
X120290992Y-84032391D01*
X120515573Y-84287822D01*
X120785671Y-84494531D01*
X121090906Y-84644575D01*
X121303878Y-84709175D01*
X121573000Y-84591125D01*
X121573000Y-83147000D01*
X121827000Y-83147000D01*
X121827000Y-84591125D01*
X122096122Y-84709175D01*
X122309094Y-84644575D01*
X122614329Y-84494531D01*
X122884427Y-84287822D01*
X123109008Y-84032391D01*
X123279442Y-83738054D01*
X123389179Y-83416123D01*
X123271600Y-83147000D01*
X121827000Y-83147000D01*
X121573000Y-83147000D01*
X120128400Y-83147000D01*
X120010821Y-83416123D01*
X115236518Y-83416123D01*
X114500000Y-82679605D01*
X113686903Y-83492702D01*
X82932989Y-83492702D01*
X82836962Y-83348987D01*
X82651013Y-83163038D01*
X82432359Y-83016939D01*
X82189405Y-82916304D01*
X81931486Y-82865000D01*
X81668514Y-82865000D01*
X81410595Y-82916304D01*
X81167641Y-83016939D01*
X80948987Y-83163038D01*
X80763038Y-83348987D01*
X80616939Y-83567641D01*
X80516304Y-83810595D01*
X80465000Y-84068514D01*
X79338072Y-84068514D01*
X79338072Y-83300000D01*
X79325812Y-83175518D01*
X79289502Y-83055820D01*
X79230537Y-82945506D01*
X79151185Y-82848815D01*
X79054494Y-82769463D01*
X78944180Y-82710498D01*
X78824482Y-82674188D01*
X78700000Y-82661928D01*
X76900000Y-82661928D01*
X76775518Y-82674188D01*
X76655820Y-82710498D01*
X76545506Y-82769463D01*
X76448815Y-82848815D01*
X76369463Y-82945506D01*
X76310498Y-83055820D01*
X76274188Y-83175518D01*
X76261928Y-83300000D01*
X76261928Y-85100000D01*
X76274188Y-85224482D01*
X76310498Y-85344180D01*
X76369463Y-85454494D01*
X76448815Y-85551185D01*
X76545506Y-85630537D01*
X76655820Y-85689502D01*
X76666735Y-85692813D01*
X76619970Y-85739578D01*
X76735918Y-85855526D01*
X76481739Y-85939208D01*
X76350842Y-86211775D01*
X76275635Y-86504642D01*
X76259009Y-86806553D01*
X68160000Y-86806553D01*
X68160000Y-75900000D01*
X76261928Y-75900000D01*
X76274188Y-76024482D01*
X76310498Y-76144180D01*
X76369463Y-76254494D01*
X76448815Y-76351185D01*
X76545506Y-76430537D01*
X76655820Y-76489502D01*
X76674127Y-76495056D01*
X76607688Y-76561495D01*
X76439701Y-76812905D01*
X76323989Y-77092257D01*
X76265000Y-77388816D01*
X76265000Y-77691184D01*
X76323989Y-77987743D01*
X76439701Y-78267095D01*
X76607688Y-78518505D01*
X76821495Y-78732312D01*
X77072905Y-78900299D01*
X77352257Y-79016011D01*
X77648816Y-79075000D01*
X77951184Y-79075000D01*
X78202059Y-79025098D01*
X90655000Y-79025098D01*
X90655000Y-79494902D01*
X90746654Y-79955679D01*
X90926440Y-80389721D01*
X91187450Y-80780349D01*
X91519651Y-81112550D01*
X91910279Y-81373560D01*
X92344321Y-81553346D01*
X92805098Y-81645000D01*
X93274902Y-81645000D01*
X93735679Y-81553346D01*
X94169721Y-81373560D01*
X94560349Y-81112550D01*
X94825399Y-80847500D01*
X108061928Y-80847500D01*
X108061928Y-82752500D01*
X108074188Y-82876982D01*
X108110498Y-82996680D01*
X108169463Y-83106994D01*
X108248815Y-83203685D01*
X108345506Y-83283037D01*
X108455820Y-83342002D01*
X108575518Y-83378312D01*
X108700000Y-83390572D01*
X110700000Y-83390572D01*
X110824482Y-83378312D01*
X110944180Y-83342002D01*
X111054494Y-83283037D01*
X111151185Y-83203685D01*
X111230537Y-83106994D01*
X111289502Y-82996680D01*
X111325812Y-82876982D01*
X111338072Y-82752500D01*
X111338072Y-82570512D01*
X113059783Y-82570512D01*
X113101213Y-82850130D01*
X113196397Y-83116292D01*
X113263329Y-83241514D01*
X113507298Y-83313097D01*
X114320395Y-82500000D01*
X114679605Y-82500000D01*
X115492702Y-83313097D01*
X115736671Y-83241514D01*
X115857571Y-82986004D01*
X115926300Y-82711816D01*
X115930634Y-82623877D01*
X120010821Y-82623877D01*
X120128400Y-82893000D01*
X121573000Y-82893000D01*
X121573000Y-81448875D01*
X121827000Y-81448875D01*
X121827000Y-82893000D01*
X123271600Y-82893000D01*
X123389179Y-82623877D01*
X123279442Y-82301946D01*
X123109008Y-82007609D01*
X122884427Y-81752178D01*
X122614329Y-81545469D01*
X122309094Y-81395425D01*
X122096122Y-81330825D01*
X121827000Y-81448875D01*
X121573000Y-81448875D01*
X121303878Y-81330825D01*
X121090906Y-81395425D01*
X120785671Y-81545469D01*
X120515573Y-81752178D01*
X120290992Y-82007609D01*
X120120558Y-82301946D01*
X120010821Y-82623877D01*
X115930634Y-82623877D01*
X115940217Y-82429488D01*
X115898787Y-82149870D01*
X115803603Y-81883708D01*
X115736671Y-81758486D01*
X115492702Y-81686903D01*
X114679605Y-82500000D01*
X114320395Y-82500000D01*
X113507298Y-81686903D01*
X113263329Y-81758486D01*
X113142429Y-82013996D01*
X113073700Y-82288184D01*
X113059783Y-82570512D01*
X111338072Y-82570512D01*
X111338072Y-80847500D01*
X111325812Y-80723018D01*
X111289502Y-80603320D01*
X111230537Y-80493006D01*
X111151185Y-80396315D01*
X111054494Y-80316963D01*
X110962781Y-80267941D01*
X111075969Y-80126923D01*
X111219571Y-79851094D01*
X111290563Y-79632980D01*
X111170594Y-79387000D01*
X109827000Y-79387000D01*
X109827000Y-79407000D01*
X109573000Y-79407000D01*
X109573000Y-79387000D01*
X108229406Y-79387000D01*
X108109437Y-79632980D01*
X108180429Y-79851094D01*
X108324031Y-80126923D01*
X108437219Y-80267941D01*
X108345506Y-80316963D01*
X108248815Y-80396315D01*
X108169463Y-80493006D01*
X108110498Y-80603320D01*
X108074188Y-80723018D01*
X108061928Y-80847500D01*
X94825399Y-80847500D01*
X94892550Y-80780349D01*
X95153560Y-80389721D01*
X95333346Y-79955679D01*
X95425000Y-79494902D01*
X95425000Y-79200000D01*
X113061928Y-79200000D01*
X113061928Y-80800000D01*
X113074188Y-80924482D01*
X113110498Y-81044180D01*
X113169463Y-81154494D01*
X113248815Y-81251185D01*
X113345506Y-81330537D01*
X113455820Y-81389502D01*
X113575518Y-81425812D01*
X113700000Y-81438072D01*
X113707215Y-81438072D01*
X113686903Y-81507298D01*
X114500000Y-82320395D01*
X115313097Y-81507298D01*
X115292785Y-81438072D01*
X115300000Y-81438072D01*
X115424482Y-81425812D01*
X115544180Y-81389502D01*
X115654494Y-81330537D01*
X115751185Y-81251185D01*
X115830537Y-81154494D01*
X115889502Y-81044180D01*
X115925812Y-80924482D01*
X115938072Y-80800000D01*
X115938072Y-80777980D01*
X134101626Y-80777980D01*
X134221514Y-81062836D01*
X134545210Y-81223699D01*
X134894069Y-81318322D01*
X135254684Y-81343067D01*
X135613198Y-81296985D01*
X135955833Y-81181846D01*
X136178486Y-81062836D01*
X136298374Y-80777980D01*
X152801626Y-80777980D01*
X152921514Y-81062836D01*
X153245210Y-81223699D01*
X153594069Y-81318322D01*
X153954684Y-81343067D01*
X154313198Y-81296985D01*
X154655833Y-81181846D01*
X154878486Y-81062836D01*
X154998374Y-80777980D01*
X171401626Y-80777980D01*
X171521514Y-81062836D01*
X171845210Y-81223699D01*
X172194069Y-81318322D01*
X172554684Y-81343067D01*
X172913198Y-81296985D01*
X173255833Y-81181846D01*
X173478486Y-81062836D01*
X173598374Y-80777980D01*
X172500000Y-79679605D01*
X171401626Y-80777980D01*
X154998374Y-80777980D01*
X153900000Y-79679605D01*
X152801626Y-80777980D01*
X136298374Y-80777980D01*
X135200000Y-79679605D01*
X134101626Y-80777980D01*
X115938072Y-80777980D01*
X115938072Y-79554684D01*
X133356933Y-79554684D01*
X133403015Y-79913198D01*
X133518154Y-80255833D01*
X133637164Y-80478486D01*
X133922020Y-80598374D01*
X135020395Y-79500000D01*
X135379605Y-79500000D01*
X136477980Y-80598374D01*
X136762836Y-80478486D01*
X136923699Y-80154790D01*
X137018322Y-79805931D01*
X137035562Y-79554684D01*
X152056933Y-79554684D01*
X152103015Y-79913198D01*
X152218154Y-80255833D01*
X152337164Y-80478486D01*
X152622020Y-80598374D01*
X153720395Y-79500000D01*
X154079605Y-79500000D01*
X155177980Y-80598374D01*
X155462836Y-80478486D01*
X155623699Y-80154790D01*
X155718322Y-79805931D01*
X155735562Y-79554684D01*
X170656933Y-79554684D01*
X170703015Y-79913198D01*
X170818154Y-80255833D01*
X170937164Y-80478486D01*
X171222020Y-80598374D01*
X172320395Y-79500000D01*
X172679605Y-79500000D01*
X173777980Y-80598374D01*
X174062836Y-80478486D01*
X174223699Y-80154790D01*
X174318322Y-79805931D01*
X174343067Y-79445316D01*
X174296985Y-79086802D01*
X174181846Y-78744167D01*
X174062836Y-78521514D01*
X173777980Y-78401626D01*
X172679605Y-79500000D01*
X172320395Y-79500000D01*
X171222020Y-78401626D01*
X170937164Y-78521514D01*
X170776301Y-78845210D01*
X170681678Y-79194069D01*
X170656933Y-79554684D01*
X155735562Y-79554684D01*
X155743067Y-79445316D01*
X155696985Y-79086802D01*
X155581846Y-78744167D01*
X155462836Y-78521514D01*
X155177980Y-78401626D01*
X154079605Y-79500000D01*
X153720395Y-79500000D01*
X152622020Y-78401626D01*
X152337164Y-78521514D01*
X152176301Y-78845210D01*
X152081678Y-79194069D01*
X152056933Y-79554684D01*
X137035562Y-79554684D01*
X137043067Y-79445316D01*
X136996985Y-79086802D01*
X136881846Y-78744167D01*
X136762836Y-78521514D01*
X136477980Y-78401626D01*
X135379605Y-79500000D01*
X135020395Y-79500000D01*
X133922020Y-78401626D01*
X133637164Y-78521514D01*
X133476301Y-78845210D01*
X133381678Y-79194069D01*
X133356933Y-79554684D01*
X115938072Y-79554684D01*
X115938072Y-79200000D01*
X115925812Y-79075518D01*
X115889502Y-78955820D01*
X115830537Y-78845506D01*
X115751185Y-78748815D01*
X115654494Y-78669463D01*
X115544180Y-78610498D01*
X115424482Y-78574188D01*
X115300000Y-78561928D01*
X113700000Y-78561928D01*
X113575518Y-78574188D01*
X113455820Y-78610498D01*
X113345506Y-78669463D01*
X113248815Y-78748815D01*
X113169463Y-78845506D01*
X113110498Y-78955820D01*
X113074188Y-79075518D01*
X113061928Y-79200000D01*
X95425000Y-79200000D01*
X95425000Y-79025098D01*
X95333346Y-78564321D01*
X95153560Y-78130279D01*
X94892550Y-77739651D01*
X94560349Y-77407450D01*
X94169721Y-77146440D01*
X93735679Y-76966654D01*
X93274902Y-76875000D01*
X92805098Y-76875000D01*
X92344321Y-76966654D01*
X91910279Y-77146440D01*
X91519651Y-77407450D01*
X91187450Y-77739651D01*
X90926440Y-78130279D01*
X90746654Y-78564321D01*
X90655000Y-79025098D01*
X78202059Y-79025098D01*
X78247743Y-79016011D01*
X78527095Y-78900299D01*
X78778505Y-78732312D01*
X78992312Y-78518505D01*
X79160299Y-78267095D01*
X79276011Y-77987743D01*
X79335000Y-77691184D01*
X79335000Y-77388816D01*
X79276011Y-77092257D01*
X79160299Y-76812905D01*
X78992312Y-76561495D01*
X78925873Y-76495056D01*
X78944180Y-76489502D01*
X79054494Y-76430537D01*
X79151185Y-76351185D01*
X79230537Y-76254494D01*
X79289502Y-76144180D01*
X79325812Y-76024482D01*
X79338072Y-75900000D01*
X79335000Y-75285750D01*
X79176250Y-75127000D01*
X77927000Y-75127000D01*
X77927000Y-75147000D01*
X77673000Y-75147000D01*
X77673000Y-75127000D01*
X76423750Y-75127000D01*
X76265000Y-75285750D01*
X76261928Y-75900000D01*
X68160000Y-75900000D01*
X68160000Y-74100000D01*
X76261928Y-74100000D01*
X76265000Y-74714250D01*
X76423750Y-74873000D01*
X77673000Y-74873000D01*
X77673000Y-73623750D01*
X77927000Y-73623750D01*
X77927000Y-74873000D01*
X79176250Y-74873000D01*
X79220736Y-74828514D01*
X80465000Y-74828514D01*
X80465000Y-75091486D01*
X80516304Y-75349405D01*
X80616939Y-75592359D01*
X80763038Y-75811013D01*
X80948987Y-75996962D01*
X81167641Y-76143061D01*
X81377530Y-76230000D01*
X81167641Y-76316939D01*
X80948987Y-76463038D01*
X80763038Y-76648987D01*
X80616939Y-76867641D01*
X80516304Y-77110595D01*
X80465000Y-77368514D01*
X80465000Y-77631486D01*
X80516304Y-77889405D01*
X80616939Y-78132359D01*
X80763038Y-78351013D01*
X80948987Y-78536962D01*
X81167641Y-78683061D01*
X81410595Y-78783696D01*
X81668514Y-78835000D01*
X81931486Y-78835000D01*
X82189405Y-78783696D01*
X82432359Y-78683061D01*
X82651013Y-78536962D01*
X82836962Y-78351013D01*
X82983061Y-78132359D01*
X83083696Y-77889405D01*
X83135000Y-77631486D01*
X83135000Y-77368514D01*
X83083696Y-77110595D01*
X82983061Y-76867641D01*
X82884412Y-76720000D01*
X108057319Y-76720000D01*
X108087970Y-77031204D01*
X108178745Y-77330449D01*
X108326155Y-77606235D01*
X108524537Y-77847963D01*
X108703899Y-77995163D01*
X108518685Y-78150563D01*
X108324031Y-78393077D01*
X108180429Y-78668906D01*
X108109437Y-78887020D01*
X108229406Y-79133000D01*
X109573000Y-79133000D01*
X109573000Y-79113000D01*
X109827000Y-79113000D01*
X109827000Y-79133000D01*
X111170594Y-79133000D01*
X111290563Y-78887020D01*
X111219571Y-78668906D01*
X111075969Y-78393077D01*
X110938671Y-78222020D01*
X134101626Y-78222020D01*
X135200000Y-79320395D01*
X136298374Y-78222020D01*
X152801626Y-78222020D01*
X153900000Y-79320395D01*
X154998374Y-78222020D01*
X171401626Y-78222020D01*
X172500000Y-79320395D01*
X173598374Y-78222020D01*
X173478486Y-77937164D01*
X173154790Y-77776301D01*
X172805931Y-77681678D01*
X172445316Y-77656933D01*
X172086802Y-77703015D01*
X171744167Y-77818154D01*
X171521514Y-77937164D01*
X171401626Y-78222020D01*
X154998374Y-78222020D01*
X154878486Y-77937164D01*
X154554790Y-77776301D01*
X154205931Y-77681678D01*
X153845316Y-77656933D01*
X153486802Y-77703015D01*
X153144167Y-77818154D01*
X152921514Y-77937164D01*
X152801626Y-78222020D01*
X136298374Y-78222020D01*
X136178486Y-77937164D01*
X135854790Y-77776301D01*
X135505931Y-77681678D01*
X135145316Y-77656933D01*
X134786802Y-77703015D01*
X134444167Y-77818154D01*
X134221514Y-77937164D01*
X134101626Y-78222020D01*
X110938671Y-78222020D01*
X110881315Y-78150563D01*
X110696101Y-77995163D01*
X110875463Y-77847963D01*
X111073845Y-77606235D01*
X111221255Y-77330449D01*
X111232705Y-77292702D01*
X113886903Y-77292702D01*
X113958486Y-77536671D01*
X114213996Y-77657571D01*
X114488184Y-77726300D01*
X114770512Y-77740217D01*
X115050130Y-77698787D01*
X115316292Y-77603603D01*
X115441514Y-77536671D01*
X115513097Y-77292702D01*
X114700000Y-76479605D01*
X113886903Y-77292702D01*
X111232705Y-77292702D01*
X111312030Y-77031204D01*
X111342681Y-76720000D01*
X111312030Y-76408796D01*
X111300417Y-76370512D01*
X113259783Y-76370512D01*
X113301213Y-76650130D01*
X113396397Y-76916292D01*
X113463329Y-77041514D01*
X113707298Y-77113097D01*
X114520395Y-76300000D01*
X114879605Y-76300000D01*
X115692702Y-77113097D01*
X115936671Y-77041514D01*
X116057571Y-76786004D01*
X116126300Y-76511816D01*
X116140217Y-76229488D01*
X116098787Y-75949870D01*
X116003603Y-75683708D01*
X115936671Y-75558486D01*
X115692702Y-75486903D01*
X114879605Y-76300000D01*
X114520395Y-76300000D01*
X113707298Y-75486903D01*
X113463329Y-75558486D01*
X113342429Y-75813996D01*
X113273700Y-76088184D01*
X113259783Y-76370512D01*
X111300417Y-76370512D01*
X111259424Y-76235377D01*
X112934802Y-74560000D01*
X113261928Y-74560000D01*
X113261928Y-74600000D01*
X113274188Y-74724482D01*
X113310498Y-74844180D01*
X113369463Y-74954494D01*
X113448815Y-75051185D01*
X113545506Y-75130537D01*
X113655820Y-75189502D01*
X113775518Y-75225812D01*
X113900000Y-75238072D01*
X113907215Y-75238072D01*
X113886903Y-75307298D01*
X114700000Y-76120395D01*
X115513097Y-75307298D01*
X115492785Y-75238072D01*
X115500000Y-75238072D01*
X115624482Y-75225812D01*
X115744180Y-75189502D01*
X115854494Y-75130537D01*
X115951185Y-75051185D01*
X116030537Y-74954494D01*
X116089502Y-74844180D01*
X116125812Y-74724482D01*
X116138072Y-74600000D01*
X116138072Y-74300000D01*
X119961928Y-74300000D01*
X119961928Y-76500000D01*
X119974188Y-76624482D01*
X120010498Y-76744180D01*
X120069463Y-76854494D01*
X120148815Y-76951185D01*
X120245506Y-77030537D01*
X120355820Y-77089502D01*
X120475518Y-77125812D01*
X120600000Y-77138072D01*
X122800000Y-77138072D01*
X122924482Y-77125812D01*
X123044180Y-77089502D01*
X123154494Y-77030537D01*
X123251185Y-76951185D01*
X123330537Y-76854494D01*
X123389502Y-76744180D01*
X123425812Y-76624482D01*
X123438072Y-76500000D01*
X123438072Y-74300000D01*
X123425812Y-74175518D01*
X123389502Y-74055820D01*
X123330537Y-73945506D01*
X123251185Y-73848815D01*
X123154494Y-73769463D01*
X123044180Y-73710498D01*
X122924482Y-73674188D01*
X122800000Y-73661928D01*
X120600000Y-73661928D01*
X120475518Y-73674188D01*
X120355820Y-73710498D01*
X120245506Y-73769463D01*
X120148815Y-73848815D01*
X120069463Y-73945506D01*
X120010498Y-74055820D01*
X119974188Y-74175518D01*
X119961928Y-74300000D01*
X116138072Y-74300000D01*
X116138072Y-73298061D01*
X125165000Y-73298061D01*
X125165000Y-73501939D01*
X125204774Y-73701898D01*
X125282795Y-73890256D01*
X125396063Y-74059774D01*
X125440000Y-74103711D01*
X125440001Y-76296288D01*
X125396063Y-76340226D01*
X125282795Y-76509744D01*
X125204774Y-76698102D01*
X125165000Y-76898061D01*
X125165000Y-77101939D01*
X125204774Y-77301898D01*
X125282795Y-77490256D01*
X125396063Y-77659774D01*
X125540226Y-77803937D01*
X125709744Y-77917205D01*
X125898102Y-77995226D01*
X126098061Y-78035000D01*
X126301939Y-78035000D01*
X126501898Y-77995226D01*
X126690256Y-77917205D01*
X126859774Y-77803937D01*
X127003937Y-77659774D01*
X127117205Y-77490256D01*
X127195226Y-77301898D01*
X127235000Y-77101939D01*
X127235000Y-76898061D01*
X127195226Y-76698102D01*
X127117205Y-76509744D01*
X127003937Y-76340226D01*
X126960000Y-76296289D01*
X126960000Y-74103711D01*
X127003937Y-74059774D01*
X127117205Y-73890256D01*
X127195226Y-73701898D01*
X127235000Y-73501939D01*
X127235000Y-73298061D01*
X127195226Y-73098102D01*
X127117205Y-72909744D01*
X127003937Y-72740226D01*
X126859774Y-72596063D01*
X126690256Y-72482795D01*
X126501898Y-72404774D01*
X126301939Y-72365000D01*
X126098061Y-72365000D01*
X125898102Y-72404774D01*
X125709744Y-72482795D01*
X125540226Y-72596063D01*
X125396063Y-72740226D01*
X125282795Y-72909744D01*
X125204774Y-73098102D01*
X125165000Y-73298061D01*
X116138072Y-73298061D01*
X116138072Y-73000000D01*
X116125812Y-72875518D01*
X116089502Y-72755820D01*
X116030537Y-72645506D01*
X115951185Y-72548815D01*
X115854494Y-72469463D01*
X115744180Y-72410498D01*
X115624482Y-72374188D01*
X115500000Y-72361928D01*
X113900000Y-72361928D01*
X113775518Y-72374188D01*
X113655820Y-72410498D01*
X113545506Y-72469463D01*
X113448815Y-72548815D01*
X113369463Y-72645506D01*
X113310498Y-72755820D01*
X113274188Y-72875518D01*
X113261928Y-73000000D01*
X113261928Y-73040000D01*
X112657333Y-73040000D01*
X112620000Y-73036323D01*
X112582667Y-73040000D01*
X112471014Y-73050997D01*
X112327753Y-73094454D01*
X112195724Y-73165026D01*
X112079999Y-73259999D01*
X112056201Y-73288997D01*
X110159233Y-75185965D01*
X110058704Y-75155470D01*
X109825486Y-75132500D01*
X109574514Y-75132500D01*
X109341296Y-75155470D01*
X109042051Y-75246245D01*
X108766265Y-75393655D01*
X108524537Y-75592037D01*
X108326155Y-75833765D01*
X108178745Y-76109551D01*
X108087970Y-76408796D01*
X108057319Y-76720000D01*
X82884412Y-76720000D01*
X82836962Y-76648987D01*
X82651013Y-76463038D01*
X82432359Y-76316939D01*
X82222470Y-76230000D01*
X82432359Y-76143061D01*
X82651013Y-75996962D01*
X82836962Y-75811013D01*
X82983061Y-75592359D01*
X83083696Y-75349405D01*
X83135000Y-75091486D01*
X83135000Y-74898059D01*
X87365000Y-74898059D01*
X87365000Y-75101937D01*
X87404774Y-75301896D01*
X87482795Y-75490254D01*
X87596063Y-75659772D01*
X87740226Y-75803935D01*
X87909744Y-75917203D01*
X88098102Y-75995224D01*
X88298061Y-76034998D01*
X88501939Y-76034998D01*
X88701898Y-75995224D01*
X88890256Y-75917203D01*
X89059774Y-75803935D01*
X89103711Y-75759998D01*
X90096287Y-75759998D01*
X90140226Y-75803937D01*
X90309744Y-75917205D01*
X90498102Y-75995226D01*
X90698061Y-76035000D01*
X90901939Y-76035000D01*
X91101898Y-75995226D01*
X91290256Y-75917205D01*
X91459774Y-75803937D01*
X91603937Y-75659774D01*
X91717205Y-75490256D01*
X91795226Y-75301898D01*
X91835000Y-75101939D01*
X91835000Y-74898061D01*
X91795226Y-74698102D01*
X91717205Y-74509744D01*
X91603937Y-74340226D01*
X91459774Y-74196063D01*
X91290256Y-74082795D01*
X91101898Y-74004774D01*
X90901939Y-73965000D01*
X90698061Y-73965000D01*
X90498102Y-74004774D01*
X90309744Y-74082795D01*
X90140226Y-74196063D01*
X90096291Y-74239998D01*
X89103711Y-74239998D01*
X89059774Y-74196061D01*
X88890256Y-74082793D01*
X88701898Y-74004772D01*
X88501939Y-73964998D01*
X88298061Y-73964998D01*
X88098102Y-74004772D01*
X87909744Y-74082793D01*
X87740226Y-74196061D01*
X87596063Y-74340224D01*
X87482795Y-74509742D01*
X87404774Y-74698100D01*
X87365000Y-74898059D01*
X83135000Y-74898059D01*
X83135000Y-74828514D01*
X83083696Y-74570595D01*
X82983061Y-74327641D01*
X82836962Y-74108987D01*
X82651013Y-73923038D01*
X82432359Y-73776939D01*
X82189405Y-73676304D01*
X81931486Y-73625000D01*
X81668514Y-73625000D01*
X81410595Y-73676304D01*
X81167641Y-73776939D01*
X80948987Y-73923038D01*
X80763038Y-74108987D01*
X80616939Y-74327641D01*
X80516304Y-74570595D01*
X80465000Y-74828514D01*
X79220736Y-74828514D01*
X79335000Y-74714250D01*
X79338072Y-74100000D01*
X79325812Y-73975518D01*
X79289502Y-73855820D01*
X79230537Y-73745506D01*
X79151185Y-73648815D01*
X79054494Y-73569463D01*
X78944180Y-73510498D01*
X78824482Y-73474188D01*
X78700000Y-73461928D01*
X78085750Y-73465000D01*
X77927000Y-73623750D01*
X77673000Y-73623750D01*
X77514250Y-73465000D01*
X76900000Y-73461928D01*
X76775518Y-73474188D01*
X76655820Y-73510498D01*
X76545506Y-73569463D01*
X76448815Y-73648815D01*
X76369463Y-73745506D01*
X76310498Y-73855820D01*
X76274188Y-73975518D01*
X76261928Y-74100000D01*
X68160000Y-74100000D01*
X68160000Y-70629117D01*
X89845000Y-70629117D01*
X89845000Y-70970883D01*
X89911675Y-71306081D01*
X90042463Y-71621831D01*
X90232337Y-71905998D01*
X90474002Y-72147663D01*
X90758169Y-72337537D01*
X91073919Y-72468325D01*
X91409117Y-72535000D01*
X91750883Y-72535000D01*
X92086081Y-72468325D01*
X92401831Y-72337537D01*
X92685998Y-72147663D01*
X92927663Y-71905998D01*
X93117537Y-71621831D01*
X93248325Y-71306081D01*
X93315000Y-70970883D01*
X93315000Y-70629117D01*
X93248325Y-70293919D01*
X93117537Y-69978169D01*
X92931671Y-69700000D01*
X97461928Y-69700000D01*
X97461928Y-71900000D01*
X97474188Y-72024482D01*
X97510498Y-72144180D01*
X97569463Y-72254494D01*
X97648815Y-72351185D01*
X97745506Y-72430537D01*
X97855820Y-72489502D01*
X97975518Y-72525812D01*
X98100000Y-72538072D01*
X100300000Y-72538072D01*
X100424482Y-72525812D01*
X100544180Y-72489502D01*
X100654494Y-72430537D01*
X100751185Y-72351185D01*
X100830537Y-72254494D01*
X100889502Y-72144180D01*
X100925812Y-72024482D01*
X100938072Y-71900000D01*
X100938072Y-70429117D01*
X101745000Y-70429117D01*
X101745000Y-70770883D01*
X101811675Y-71106081D01*
X101942463Y-71421831D01*
X102132337Y-71705998D01*
X102374002Y-71947663D01*
X102658169Y-72137537D01*
X102973919Y-72268325D01*
X103309117Y-72335000D01*
X103650883Y-72335000D01*
X103986081Y-72268325D01*
X104301831Y-72137537D01*
X104585998Y-71947663D01*
X104827663Y-71705998D01*
X105017537Y-71421831D01*
X105148325Y-71106081D01*
X105215000Y-70770883D01*
X105215000Y-70429117D01*
X105148325Y-70093919D01*
X105017537Y-69778169D01*
X104831671Y-69500000D01*
X109361928Y-69500000D01*
X109361928Y-71700000D01*
X109374188Y-71824482D01*
X109410498Y-71944180D01*
X109469463Y-72054494D01*
X109548815Y-72151185D01*
X109645506Y-72230537D01*
X109755820Y-72289502D01*
X109875518Y-72325812D01*
X110000000Y-72338072D01*
X112200000Y-72338072D01*
X112324482Y-72325812D01*
X112444180Y-72289502D01*
X112554494Y-72230537D01*
X112651185Y-72151185D01*
X112730537Y-72054494D01*
X112789502Y-71944180D01*
X112825812Y-71824482D01*
X112838072Y-71700000D01*
X112838072Y-70800000D01*
X133361928Y-70800000D01*
X133361928Y-73200000D01*
X133374188Y-73324482D01*
X133410498Y-73444180D01*
X133469463Y-73554494D01*
X133548815Y-73651185D01*
X133645506Y-73730537D01*
X133755820Y-73789502D01*
X133875518Y-73825812D01*
X134000000Y-73838072D01*
X136400000Y-73838072D01*
X136524482Y-73825812D01*
X136644180Y-73789502D01*
X136754494Y-73730537D01*
X136851185Y-73651185D01*
X136930537Y-73554494D01*
X136989502Y-73444180D01*
X137025812Y-73324482D01*
X137038072Y-73200000D01*
X137038072Y-70800000D01*
X152061928Y-70800000D01*
X152061928Y-73200000D01*
X152074188Y-73324482D01*
X152110498Y-73444180D01*
X152169463Y-73554494D01*
X152248815Y-73651185D01*
X152345506Y-73730537D01*
X152455820Y-73789502D01*
X152575518Y-73825812D01*
X152700000Y-73838072D01*
X155100000Y-73838072D01*
X155224482Y-73825812D01*
X155344180Y-73789502D01*
X155454494Y-73730537D01*
X155551185Y-73651185D01*
X155630537Y-73554494D01*
X155689502Y-73444180D01*
X155725812Y-73324482D01*
X155738072Y-73200000D01*
X155738072Y-70800000D01*
X170661928Y-70800000D01*
X170661928Y-73200000D01*
X170674188Y-73324482D01*
X170710498Y-73444180D01*
X170769463Y-73554494D01*
X170848815Y-73651185D01*
X170945506Y-73730537D01*
X171055820Y-73789502D01*
X171175518Y-73825812D01*
X171300000Y-73838072D01*
X173700000Y-73838072D01*
X173824482Y-73825812D01*
X173944180Y-73789502D01*
X174054494Y-73730537D01*
X174151185Y-73651185D01*
X174230537Y-73554494D01*
X174289502Y-73444180D01*
X174325812Y-73324482D01*
X174338072Y-73200000D01*
X174338072Y-70800000D01*
X174325812Y-70675518D01*
X174289502Y-70555820D01*
X174230537Y-70445506D01*
X174151185Y-70348815D01*
X174054494Y-70269463D01*
X173944180Y-70210498D01*
X173824482Y-70174188D01*
X173700000Y-70161928D01*
X171300000Y-70161928D01*
X171175518Y-70174188D01*
X171055820Y-70210498D01*
X170945506Y-70269463D01*
X170848815Y-70348815D01*
X170769463Y-70445506D01*
X170710498Y-70555820D01*
X170674188Y-70675518D01*
X170661928Y-70800000D01*
X155738072Y-70800000D01*
X155725812Y-70675518D01*
X155689502Y-70555820D01*
X155630537Y-70445506D01*
X155551185Y-70348815D01*
X155454494Y-70269463D01*
X155344180Y-70210498D01*
X155224482Y-70174188D01*
X155100000Y-70161928D01*
X152700000Y-70161928D01*
X152575518Y-70174188D01*
X152455820Y-70210498D01*
X152345506Y-70269463D01*
X152248815Y-70348815D01*
X152169463Y-70445506D01*
X152110498Y-70555820D01*
X152074188Y-70675518D01*
X152061928Y-70800000D01*
X137038072Y-70800000D01*
X137025812Y-70675518D01*
X136989502Y-70555820D01*
X136930537Y-70445506D01*
X136851185Y-70348815D01*
X136754494Y-70269463D01*
X136644180Y-70210498D01*
X136524482Y-70174188D01*
X136400000Y-70161928D01*
X134000000Y-70161928D01*
X133875518Y-70174188D01*
X133755820Y-70210498D01*
X133645506Y-70269463D01*
X133548815Y-70348815D01*
X133469463Y-70445506D01*
X133410498Y-70555820D01*
X133374188Y-70675518D01*
X133361928Y-70800000D01*
X112838072Y-70800000D01*
X112838072Y-69500000D01*
X112825812Y-69375518D01*
X112789502Y-69255820D01*
X112730537Y-69145506D01*
X112651185Y-69048815D01*
X112554494Y-68969463D01*
X112444180Y-68910498D01*
X112324482Y-68874188D01*
X112200000Y-68861928D01*
X110000000Y-68861928D01*
X109875518Y-68874188D01*
X109755820Y-68910498D01*
X109645506Y-68969463D01*
X109548815Y-69048815D01*
X109469463Y-69145506D01*
X109410498Y-69255820D01*
X109374188Y-69375518D01*
X109361928Y-69500000D01*
X104831671Y-69500000D01*
X104827663Y-69494002D01*
X104585998Y-69252337D01*
X104301831Y-69062463D01*
X103986081Y-68931675D01*
X103650883Y-68865000D01*
X103309117Y-68865000D01*
X102973919Y-68931675D01*
X102658169Y-69062463D01*
X102374002Y-69252337D01*
X102132337Y-69494002D01*
X101942463Y-69778169D01*
X101811675Y-70093919D01*
X101745000Y-70429117D01*
X100938072Y-70429117D01*
X100938072Y-69700000D01*
X100925812Y-69575518D01*
X100889502Y-69455820D01*
X100830537Y-69345506D01*
X100751185Y-69248815D01*
X100654494Y-69169463D01*
X100544180Y-69110498D01*
X100424482Y-69074188D01*
X100300000Y-69061928D01*
X98100000Y-69061928D01*
X97975518Y-69074188D01*
X97855820Y-69110498D01*
X97745506Y-69169463D01*
X97648815Y-69248815D01*
X97569463Y-69345506D01*
X97510498Y-69455820D01*
X97474188Y-69575518D01*
X97461928Y-69700000D01*
X92931671Y-69700000D01*
X92927663Y-69694002D01*
X92685998Y-69452337D01*
X92401831Y-69262463D01*
X92086081Y-69131675D01*
X91750883Y-69065000D01*
X91409117Y-69065000D01*
X91073919Y-69131675D01*
X90758169Y-69262463D01*
X90474002Y-69452337D01*
X90232337Y-69694002D01*
X90042463Y-69978169D01*
X89911675Y-70293919D01*
X89845000Y-70629117D01*
X68160000Y-70629117D01*
X68160000Y-62013740D01*
X99175000Y-62013740D01*
X99175000Y-62306260D01*
X99232068Y-62593158D01*
X99344010Y-62863411D01*
X99506525Y-63106632D01*
X99713368Y-63313475D01*
X99956589Y-63475990D01*
X100226842Y-63587932D01*
X100513740Y-63645000D01*
X100806260Y-63645000D01*
X101093158Y-63587932D01*
X101363411Y-63475990D01*
X101606632Y-63313475D01*
X101813475Y-63106632D01*
X101930000Y-62932240D01*
X102046525Y-63106632D01*
X102253368Y-63313475D01*
X102496589Y-63475990D01*
X102766842Y-63587932D01*
X103053740Y-63645000D01*
X103346260Y-63645000D01*
X103633158Y-63587932D01*
X103903411Y-63475990D01*
X104146632Y-63313475D01*
X104353475Y-63106632D01*
X104515990Y-62863411D01*
X104627932Y-62593158D01*
X104685000Y-62306260D01*
X104685000Y-62013740D01*
X114175000Y-62013740D01*
X114175000Y-62306260D01*
X114232068Y-62593158D01*
X114344010Y-62863411D01*
X114506525Y-63106632D01*
X114713368Y-63313475D01*
X114956589Y-63475990D01*
X115226842Y-63587932D01*
X115513740Y-63645000D01*
X115806260Y-63645000D01*
X116093158Y-63587932D01*
X116363411Y-63475990D01*
X116606632Y-63313475D01*
X116813475Y-63106632D01*
X116930000Y-62932240D01*
X117046525Y-63106632D01*
X117253368Y-63313475D01*
X117496589Y-63475990D01*
X117766842Y-63587932D01*
X118053740Y-63645000D01*
X118346260Y-63645000D01*
X118633158Y-63587932D01*
X118903411Y-63475990D01*
X119146632Y-63313475D01*
X119353475Y-63106632D01*
X119515990Y-62863411D01*
X119627932Y-62593158D01*
X119685000Y-62306260D01*
X119685000Y-62013740D01*
X129175000Y-62013740D01*
X129175000Y-62306260D01*
X129232068Y-62593158D01*
X129344010Y-62863411D01*
X129506525Y-63106632D01*
X129713368Y-63313475D01*
X129956589Y-63475990D01*
X130226842Y-63587932D01*
X130513740Y-63645000D01*
X130806260Y-63645000D01*
X131093158Y-63587932D01*
X131363411Y-63475990D01*
X131606632Y-63313475D01*
X131813475Y-63106632D01*
X131930000Y-62932240D01*
X132046525Y-63106632D01*
X132253368Y-63313475D01*
X132496589Y-63475990D01*
X132766842Y-63587932D01*
X133053740Y-63645000D01*
X133346260Y-63645000D01*
X133633158Y-63587932D01*
X133903411Y-63475990D01*
X134146632Y-63313475D01*
X134353475Y-63106632D01*
X134515990Y-62863411D01*
X134627932Y-62593158D01*
X134685000Y-62306260D01*
X134685000Y-62013740D01*
X144175000Y-62013740D01*
X144175000Y-62306260D01*
X144232068Y-62593158D01*
X144344010Y-62863411D01*
X144506525Y-63106632D01*
X144713368Y-63313475D01*
X144956589Y-63475990D01*
X145226842Y-63587932D01*
X145513740Y-63645000D01*
X145806260Y-63645000D01*
X146093158Y-63587932D01*
X146363411Y-63475990D01*
X146606632Y-63313475D01*
X146813475Y-63106632D01*
X146930000Y-62932240D01*
X147046525Y-63106632D01*
X147253368Y-63313475D01*
X147496589Y-63475990D01*
X147766842Y-63587932D01*
X148053740Y-63645000D01*
X148346260Y-63645000D01*
X148633158Y-63587932D01*
X148903411Y-63475990D01*
X149146632Y-63313475D01*
X149353475Y-63106632D01*
X149515990Y-62863411D01*
X149627932Y-62593158D01*
X149685000Y-62306260D01*
X149685000Y-62013740D01*
X159175000Y-62013740D01*
X159175000Y-62306260D01*
X159232068Y-62593158D01*
X159344010Y-62863411D01*
X159506525Y-63106632D01*
X159713368Y-63313475D01*
X159956589Y-63475990D01*
X160226842Y-63587932D01*
X160513740Y-63645000D01*
X160806260Y-63645000D01*
X161093158Y-63587932D01*
X161363411Y-63475990D01*
X161606632Y-63313475D01*
X161813475Y-63106632D01*
X161930000Y-62932240D01*
X162046525Y-63106632D01*
X162253368Y-63313475D01*
X162496589Y-63475990D01*
X162766842Y-63587932D01*
X163053740Y-63645000D01*
X163346260Y-63645000D01*
X163633158Y-63587932D01*
X163903411Y-63475990D01*
X164146632Y-63313475D01*
X164353475Y-63106632D01*
X164515990Y-62863411D01*
X164627932Y-62593158D01*
X164685000Y-62306260D01*
X164685000Y-62013740D01*
X174175000Y-62013740D01*
X174175000Y-62306260D01*
X174232068Y-62593158D01*
X174344010Y-62863411D01*
X174506525Y-63106632D01*
X174713368Y-63313475D01*
X174956589Y-63475990D01*
X175226842Y-63587932D01*
X175513740Y-63645000D01*
X175806260Y-63645000D01*
X176093158Y-63587932D01*
X176363411Y-63475990D01*
X176606632Y-63313475D01*
X176813475Y-63106632D01*
X176930000Y-62932240D01*
X177046525Y-63106632D01*
X177253368Y-63313475D01*
X177496589Y-63475990D01*
X177766842Y-63587932D01*
X178053740Y-63645000D01*
X178346260Y-63645000D01*
X178633158Y-63587932D01*
X178903411Y-63475990D01*
X179146632Y-63313475D01*
X179353475Y-63106632D01*
X179515990Y-62863411D01*
X179627932Y-62593158D01*
X179685000Y-62306260D01*
X179685000Y-62013740D01*
X179627932Y-61726842D01*
X179515990Y-61456589D01*
X179353475Y-61213368D01*
X179146632Y-61006525D01*
X178964466Y-60884805D01*
X179081355Y-60815178D01*
X179297588Y-60620269D01*
X179471641Y-60386920D01*
X179596825Y-60124099D01*
X179641476Y-59976890D01*
X179520155Y-59747000D01*
X178327000Y-59747000D01*
X178327000Y-59767000D01*
X178073000Y-59767000D01*
X178073000Y-59747000D01*
X175787000Y-59747000D01*
X175787000Y-59767000D01*
X175533000Y-59767000D01*
X175533000Y-59747000D01*
X174339845Y-59747000D01*
X174218524Y-59976890D01*
X174263175Y-60124099D01*
X174388359Y-60386920D01*
X174562412Y-60620269D01*
X174778645Y-60815178D01*
X174895534Y-60884805D01*
X174713368Y-61006525D01*
X174506525Y-61213368D01*
X174344010Y-61456589D01*
X174232068Y-61726842D01*
X174175000Y-62013740D01*
X164685000Y-62013740D01*
X164627932Y-61726842D01*
X164515990Y-61456589D01*
X164353475Y-61213368D01*
X164146632Y-61006525D01*
X163964466Y-60884805D01*
X164081355Y-60815178D01*
X164297588Y-60620269D01*
X164471641Y-60386920D01*
X164596825Y-60124099D01*
X164641476Y-59976890D01*
X164520155Y-59747000D01*
X163327000Y-59747000D01*
X163327000Y-59767000D01*
X163073000Y-59767000D01*
X163073000Y-59747000D01*
X160787000Y-59747000D01*
X160787000Y-59767000D01*
X160533000Y-59767000D01*
X160533000Y-59747000D01*
X159339845Y-59747000D01*
X159218524Y-59976890D01*
X159263175Y-60124099D01*
X159388359Y-60386920D01*
X159562412Y-60620269D01*
X159778645Y-60815178D01*
X159895534Y-60884805D01*
X159713368Y-61006525D01*
X159506525Y-61213368D01*
X159344010Y-61456589D01*
X159232068Y-61726842D01*
X159175000Y-62013740D01*
X149685000Y-62013740D01*
X149627932Y-61726842D01*
X149515990Y-61456589D01*
X149353475Y-61213368D01*
X149146632Y-61006525D01*
X148964466Y-60884805D01*
X149081355Y-60815178D01*
X149297588Y-60620269D01*
X149471641Y-60386920D01*
X149596825Y-60124099D01*
X149641476Y-59976890D01*
X149520155Y-59747000D01*
X148327000Y-59747000D01*
X148327000Y-59767000D01*
X148073000Y-59767000D01*
X148073000Y-59747000D01*
X145787000Y-59747000D01*
X145787000Y-59767000D01*
X145533000Y-59767000D01*
X145533000Y-59747000D01*
X144339845Y-59747000D01*
X144218524Y-59976890D01*
X144263175Y-60124099D01*
X144388359Y-60386920D01*
X144562412Y-60620269D01*
X144778645Y-60815178D01*
X144895534Y-60884805D01*
X144713368Y-61006525D01*
X144506525Y-61213368D01*
X144344010Y-61456589D01*
X144232068Y-61726842D01*
X144175000Y-62013740D01*
X134685000Y-62013740D01*
X134627932Y-61726842D01*
X134515990Y-61456589D01*
X134353475Y-61213368D01*
X134146632Y-61006525D01*
X133964466Y-60884805D01*
X134081355Y-60815178D01*
X134297588Y-60620269D01*
X134471641Y-60386920D01*
X134596825Y-60124099D01*
X134641476Y-59976890D01*
X134520155Y-59747000D01*
X133327000Y-59747000D01*
X133327000Y-59767000D01*
X133073000Y-59767000D01*
X133073000Y-59747000D01*
X130787000Y-59747000D01*
X130787000Y-59767000D01*
X130533000Y-59767000D01*
X130533000Y-59747000D01*
X129339845Y-59747000D01*
X129218524Y-59976890D01*
X129263175Y-60124099D01*
X129388359Y-60386920D01*
X129562412Y-60620269D01*
X129778645Y-60815178D01*
X129895534Y-60884805D01*
X129713368Y-61006525D01*
X129506525Y-61213368D01*
X129344010Y-61456589D01*
X129232068Y-61726842D01*
X129175000Y-62013740D01*
X119685000Y-62013740D01*
X119627932Y-61726842D01*
X119515990Y-61456589D01*
X119353475Y-61213368D01*
X119146632Y-61006525D01*
X118964466Y-60884805D01*
X119081355Y-60815178D01*
X119297588Y-60620269D01*
X119471641Y-60386920D01*
X119596825Y-60124099D01*
X119641476Y-59976890D01*
X119520155Y-59747000D01*
X118327000Y-59747000D01*
X118327000Y-59767000D01*
X118073000Y-59767000D01*
X118073000Y-59747000D01*
X115787000Y-59747000D01*
X115787000Y-59767000D01*
X115533000Y-59767000D01*
X115533000Y-59747000D01*
X114339845Y-59747000D01*
X114218524Y-59976890D01*
X114263175Y-60124099D01*
X114388359Y-60386920D01*
X114562412Y-60620269D01*
X114778645Y-60815178D01*
X114895534Y-60884805D01*
X114713368Y-61006525D01*
X114506525Y-61213368D01*
X114344010Y-61456589D01*
X114232068Y-61726842D01*
X114175000Y-62013740D01*
X104685000Y-62013740D01*
X104627932Y-61726842D01*
X104515990Y-61456589D01*
X104353475Y-61213368D01*
X104146632Y-61006525D01*
X103964466Y-60884805D01*
X104081355Y-60815178D01*
X104297588Y-60620269D01*
X104471641Y-60386920D01*
X104596825Y-60124099D01*
X104641476Y-59976890D01*
X104520155Y-59747000D01*
X103327000Y-59747000D01*
X103327000Y-59767000D01*
X103073000Y-59767000D01*
X103073000Y-59747000D01*
X100787000Y-59747000D01*
X100787000Y-59767000D01*
X100533000Y-59767000D01*
X100533000Y-59747000D01*
X99339845Y-59747000D01*
X99218524Y-59976890D01*
X99263175Y-60124099D01*
X99388359Y-60386920D01*
X99562412Y-60620269D01*
X99778645Y-60815178D01*
X99895534Y-60884805D01*
X99713368Y-61006525D01*
X99506525Y-61213368D01*
X99344010Y-61456589D01*
X99232068Y-61726842D01*
X99175000Y-62013740D01*
X68160000Y-62013740D01*
X68160000Y-57789721D01*
X81865000Y-57789721D01*
X81865000Y-58210279D01*
X81947047Y-58622756D01*
X82107988Y-59011302D01*
X82341637Y-59360983D01*
X82639017Y-59658363D01*
X82988698Y-59892012D01*
X83377244Y-60052953D01*
X83789721Y-60135000D01*
X84210279Y-60135000D01*
X84622756Y-60052953D01*
X85011302Y-59892012D01*
X85360983Y-59658363D01*
X85658363Y-59360983D01*
X85892012Y-59011302D01*
X86052953Y-58622756D01*
X86135000Y-58210279D01*
X86135000Y-57789721D01*
X86052953Y-57377244D01*
X85892012Y-56988698D01*
X85807566Y-56862314D01*
X89532905Y-56862314D01*
X89532905Y-57387686D01*
X89635400Y-57902963D01*
X89836451Y-58388343D01*
X90128332Y-58825174D01*
X90499826Y-59196668D01*
X90936657Y-59488549D01*
X91422037Y-59689600D01*
X91937314Y-59792095D01*
X92462686Y-59792095D01*
X92977963Y-59689600D01*
X93463343Y-59488549D01*
X93900174Y-59196668D01*
X94271668Y-58825174D01*
X94563549Y-58388343D01*
X94764600Y-57902963D01*
X94857307Y-57436890D01*
X99218524Y-57436890D01*
X99263175Y-57584099D01*
X99388359Y-57846920D01*
X99562412Y-58080269D01*
X99778645Y-58275178D01*
X99904255Y-58350000D01*
X99778645Y-58424822D01*
X99562412Y-58619731D01*
X99388359Y-58853080D01*
X99263175Y-59115901D01*
X99218524Y-59263110D01*
X99339845Y-59493000D01*
X100533000Y-59493000D01*
X100533000Y-57207000D01*
X100787000Y-57207000D01*
X100787000Y-59493000D01*
X103073000Y-59493000D01*
X103073000Y-57207000D01*
X103327000Y-57207000D01*
X103327000Y-59493000D01*
X104520155Y-59493000D01*
X104641476Y-59263110D01*
X104596825Y-59115901D01*
X104471641Y-58853080D01*
X104297588Y-58619731D01*
X104081355Y-58424822D01*
X103955745Y-58350000D01*
X104081355Y-58275178D01*
X104297588Y-58080269D01*
X104471641Y-57846920D01*
X104596825Y-57584099D01*
X104641476Y-57436890D01*
X104520155Y-57207000D01*
X103327000Y-57207000D01*
X103073000Y-57207000D01*
X100787000Y-57207000D01*
X100533000Y-57207000D01*
X99339845Y-57207000D01*
X99218524Y-57436890D01*
X94857307Y-57436890D01*
X94867095Y-57387686D01*
X94867095Y-56862314D01*
X94764600Y-56347037D01*
X94563549Y-55861657D01*
X94271668Y-55424826D01*
X93900174Y-55053332D01*
X93666042Y-54896890D01*
X99218524Y-54896890D01*
X99263175Y-55044099D01*
X99388359Y-55306920D01*
X99562412Y-55540269D01*
X99778645Y-55735178D01*
X99904255Y-55810000D01*
X99778645Y-55884822D01*
X99562412Y-56079731D01*
X99388359Y-56313080D01*
X99263175Y-56575901D01*
X99218524Y-56723110D01*
X99339845Y-56953000D01*
X100533000Y-56953000D01*
X100533000Y-54667000D01*
X100787000Y-54667000D01*
X100787000Y-56953000D01*
X103073000Y-56953000D01*
X103073000Y-54667000D01*
X103327000Y-54667000D01*
X103327000Y-56953000D01*
X104520155Y-56953000D01*
X104568013Y-56862314D01*
X106732905Y-56862314D01*
X106732905Y-57387686D01*
X106835400Y-57902963D01*
X107036451Y-58388343D01*
X107328332Y-58825174D01*
X107699826Y-59196668D01*
X108136657Y-59488549D01*
X108622037Y-59689600D01*
X109137314Y-59792095D01*
X109662686Y-59792095D01*
X110177963Y-59689600D01*
X110663343Y-59488549D01*
X111100174Y-59196668D01*
X111471668Y-58825174D01*
X111763549Y-58388343D01*
X111964600Y-57902963D01*
X112057307Y-57436890D01*
X114218524Y-57436890D01*
X114263175Y-57584099D01*
X114388359Y-57846920D01*
X114562412Y-58080269D01*
X114778645Y-58275178D01*
X114904255Y-58350000D01*
X114778645Y-58424822D01*
X114562412Y-58619731D01*
X114388359Y-58853080D01*
X114263175Y-59115901D01*
X114218524Y-59263110D01*
X114339845Y-59493000D01*
X115533000Y-59493000D01*
X115533000Y-57207000D01*
X115787000Y-57207000D01*
X115787000Y-59493000D01*
X118073000Y-59493000D01*
X118073000Y-57207000D01*
X118327000Y-57207000D01*
X118327000Y-59493000D01*
X119520155Y-59493000D01*
X119641476Y-59263110D01*
X119596825Y-59115901D01*
X119471641Y-58853080D01*
X119297588Y-58619731D01*
X119081355Y-58424822D01*
X118955745Y-58350000D01*
X119081355Y-58275178D01*
X119297588Y-58080269D01*
X119471641Y-57846920D01*
X119596825Y-57584099D01*
X119641476Y-57436890D01*
X119520155Y-57207000D01*
X118327000Y-57207000D01*
X118073000Y-57207000D01*
X115787000Y-57207000D01*
X115533000Y-57207000D01*
X114339845Y-57207000D01*
X114218524Y-57436890D01*
X112057307Y-57436890D01*
X112067095Y-57387686D01*
X112067095Y-56862314D01*
X111964600Y-56347037D01*
X111763549Y-55861657D01*
X111471668Y-55424826D01*
X111100174Y-55053332D01*
X110866042Y-54896890D01*
X114218524Y-54896890D01*
X114263175Y-55044099D01*
X114388359Y-55306920D01*
X114562412Y-55540269D01*
X114778645Y-55735178D01*
X114904255Y-55810000D01*
X114778645Y-55884822D01*
X114562412Y-56079731D01*
X114388359Y-56313080D01*
X114263175Y-56575901D01*
X114218524Y-56723110D01*
X114339845Y-56953000D01*
X115533000Y-56953000D01*
X115533000Y-54667000D01*
X115787000Y-54667000D01*
X115787000Y-56953000D01*
X118073000Y-56953000D01*
X118073000Y-54667000D01*
X118327000Y-54667000D01*
X118327000Y-56953000D01*
X119520155Y-56953000D01*
X119594399Y-56812314D01*
X121722905Y-56812314D01*
X121722905Y-57337686D01*
X121825400Y-57852963D01*
X122026451Y-58338343D01*
X122318332Y-58775174D01*
X122689826Y-59146668D01*
X123126657Y-59438549D01*
X123612037Y-59639600D01*
X124127314Y-59742095D01*
X124652686Y-59742095D01*
X125167963Y-59639600D01*
X125653343Y-59438549D01*
X126090174Y-59146668D01*
X126461668Y-58775174D01*
X126753549Y-58338343D01*
X126954600Y-57852963D01*
X127037362Y-57436890D01*
X129218524Y-57436890D01*
X129263175Y-57584099D01*
X129388359Y-57846920D01*
X129562412Y-58080269D01*
X129778645Y-58275178D01*
X129904255Y-58350000D01*
X129778645Y-58424822D01*
X129562412Y-58619731D01*
X129388359Y-58853080D01*
X129263175Y-59115901D01*
X129218524Y-59263110D01*
X129339845Y-59493000D01*
X130533000Y-59493000D01*
X130533000Y-57207000D01*
X130787000Y-57207000D01*
X130787000Y-59493000D01*
X133073000Y-59493000D01*
X133073000Y-57207000D01*
X133327000Y-57207000D01*
X133327000Y-59493000D01*
X134520155Y-59493000D01*
X134641476Y-59263110D01*
X134596825Y-59115901D01*
X134471641Y-58853080D01*
X134297588Y-58619731D01*
X134081355Y-58424822D01*
X133955745Y-58350000D01*
X134081355Y-58275178D01*
X134297588Y-58080269D01*
X134471641Y-57846920D01*
X134596825Y-57584099D01*
X134641476Y-57436890D01*
X134520155Y-57207000D01*
X133327000Y-57207000D01*
X133073000Y-57207000D01*
X130787000Y-57207000D01*
X130533000Y-57207000D01*
X129339845Y-57207000D01*
X129218524Y-57436890D01*
X127037362Y-57436890D01*
X127057095Y-57337686D01*
X127057095Y-56812314D01*
X126954600Y-56297037D01*
X126753549Y-55811657D01*
X126461668Y-55374826D01*
X126090174Y-55003332D01*
X125930873Y-54896890D01*
X129218524Y-54896890D01*
X129263175Y-55044099D01*
X129388359Y-55306920D01*
X129562412Y-55540269D01*
X129778645Y-55735178D01*
X129904255Y-55810000D01*
X129778645Y-55884822D01*
X129562412Y-56079731D01*
X129388359Y-56313080D01*
X129263175Y-56575901D01*
X129218524Y-56723110D01*
X129339845Y-56953000D01*
X130533000Y-56953000D01*
X130533000Y-54667000D01*
X130787000Y-54667000D01*
X130787000Y-56953000D01*
X133073000Y-56953000D01*
X133073000Y-54667000D01*
X133327000Y-54667000D01*
X133327000Y-56953000D01*
X134520155Y-56953000D01*
X134594399Y-56812314D01*
X136722905Y-56812314D01*
X136722905Y-57337686D01*
X136825400Y-57852963D01*
X137026451Y-58338343D01*
X137318332Y-58775174D01*
X137689826Y-59146668D01*
X138126657Y-59438549D01*
X138612037Y-59639600D01*
X139127314Y-59742095D01*
X139652686Y-59742095D01*
X140167963Y-59639600D01*
X140653343Y-59438549D01*
X141090174Y-59146668D01*
X141461668Y-58775174D01*
X141753549Y-58338343D01*
X141954600Y-57852963D01*
X142037362Y-57436890D01*
X144218524Y-57436890D01*
X144263175Y-57584099D01*
X144388359Y-57846920D01*
X144562412Y-58080269D01*
X144778645Y-58275178D01*
X144904255Y-58350000D01*
X144778645Y-58424822D01*
X144562412Y-58619731D01*
X144388359Y-58853080D01*
X144263175Y-59115901D01*
X144218524Y-59263110D01*
X144339845Y-59493000D01*
X145533000Y-59493000D01*
X145533000Y-57207000D01*
X145787000Y-57207000D01*
X145787000Y-59493000D01*
X148073000Y-59493000D01*
X148073000Y-57207000D01*
X148327000Y-57207000D01*
X148327000Y-59493000D01*
X149520155Y-59493000D01*
X149641476Y-59263110D01*
X149596825Y-59115901D01*
X149471641Y-58853080D01*
X149297588Y-58619731D01*
X149081355Y-58424822D01*
X148955745Y-58350000D01*
X149081355Y-58275178D01*
X149297588Y-58080269D01*
X149471641Y-57846920D01*
X149596825Y-57584099D01*
X149641476Y-57436890D01*
X149520155Y-57207000D01*
X148327000Y-57207000D01*
X148073000Y-57207000D01*
X145787000Y-57207000D01*
X145533000Y-57207000D01*
X144339845Y-57207000D01*
X144218524Y-57436890D01*
X142037362Y-57436890D01*
X142057095Y-57337686D01*
X142057095Y-56812314D01*
X141954600Y-56297037D01*
X141753549Y-55811657D01*
X141461668Y-55374826D01*
X141090174Y-55003332D01*
X140930873Y-54896890D01*
X144218524Y-54896890D01*
X144263175Y-55044099D01*
X144388359Y-55306920D01*
X144562412Y-55540269D01*
X144778645Y-55735178D01*
X144904255Y-55810000D01*
X144778645Y-55884822D01*
X144562412Y-56079731D01*
X144388359Y-56313080D01*
X144263175Y-56575901D01*
X144218524Y-56723110D01*
X144339845Y-56953000D01*
X145533000Y-56953000D01*
X145533000Y-54667000D01*
X145787000Y-54667000D01*
X145787000Y-56953000D01*
X148073000Y-56953000D01*
X148073000Y-54667000D01*
X148327000Y-54667000D01*
X148327000Y-56953000D01*
X149520155Y-56953000D01*
X149594399Y-56812314D01*
X151722905Y-56812314D01*
X151722905Y-57337686D01*
X151825400Y-57852963D01*
X152026451Y-58338343D01*
X152318332Y-58775174D01*
X152689826Y-59146668D01*
X153126657Y-59438549D01*
X153612037Y-59639600D01*
X154127314Y-59742095D01*
X154652686Y-59742095D01*
X155167963Y-59639600D01*
X155653343Y-59438549D01*
X156090174Y-59146668D01*
X156461668Y-58775174D01*
X156753549Y-58338343D01*
X156954600Y-57852963D01*
X157037362Y-57436890D01*
X159218524Y-57436890D01*
X159263175Y-57584099D01*
X159388359Y-57846920D01*
X159562412Y-58080269D01*
X159778645Y-58275178D01*
X159904255Y-58350000D01*
X159778645Y-58424822D01*
X159562412Y-58619731D01*
X159388359Y-58853080D01*
X159263175Y-59115901D01*
X159218524Y-59263110D01*
X159339845Y-59493000D01*
X160533000Y-59493000D01*
X160533000Y-57207000D01*
X160787000Y-57207000D01*
X160787000Y-59493000D01*
X163073000Y-59493000D01*
X163073000Y-57207000D01*
X163327000Y-57207000D01*
X163327000Y-59493000D01*
X164520155Y-59493000D01*
X164641476Y-59263110D01*
X164596825Y-59115901D01*
X164471641Y-58853080D01*
X164297588Y-58619731D01*
X164081355Y-58424822D01*
X163955745Y-58350000D01*
X164081355Y-58275178D01*
X164297588Y-58080269D01*
X164471641Y-57846920D01*
X164596825Y-57584099D01*
X164641476Y-57436890D01*
X164520155Y-57207000D01*
X163327000Y-57207000D01*
X163073000Y-57207000D01*
X160787000Y-57207000D01*
X160533000Y-57207000D01*
X159339845Y-57207000D01*
X159218524Y-57436890D01*
X157037362Y-57436890D01*
X157057095Y-57337686D01*
X157057095Y-56812314D01*
X156954600Y-56297037D01*
X156753549Y-55811657D01*
X156461668Y-55374826D01*
X156090174Y-55003332D01*
X155930873Y-54896890D01*
X159218524Y-54896890D01*
X159263175Y-55044099D01*
X159388359Y-55306920D01*
X159562412Y-55540269D01*
X159778645Y-55735178D01*
X159904255Y-55810000D01*
X159778645Y-55884822D01*
X159562412Y-56079731D01*
X159388359Y-56313080D01*
X159263175Y-56575901D01*
X159218524Y-56723110D01*
X159339845Y-56953000D01*
X160533000Y-56953000D01*
X160533000Y-54667000D01*
X160787000Y-54667000D01*
X160787000Y-56953000D01*
X163073000Y-56953000D01*
X163073000Y-54667000D01*
X163327000Y-54667000D01*
X163327000Y-56953000D01*
X164520155Y-56953000D01*
X164594399Y-56812314D01*
X166722905Y-56812314D01*
X166722905Y-57337686D01*
X166825400Y-57852963D01*
X167026451Y-58338343D01*
X167318332Y-58775174D01*
X167689826Y-59146668D01*
X168126657Y-59438549D01*
X168612037Y-59639600D01*
X169127314Y-59742095D01*
X169652686Y-59742095D01*
X170167963Y-59639600D01*
X170653343Y-59438549D01*
X171090174Y-59146668D01*
X171461668Y-58775174D01*
X171753549Y-58338343D01*
X171954600Y-57852963D01*
X172037362Y-57436890D01*
X174218524Y-57436890D01*
X174263175Y-57584099D01*
X174388359Y-57846920D01*
X174562412Y-58080269D01*
X174778645Y-58275178D01*
X174904255Y-58350000D01*
X174778645Y-58424822D01*
X174562412Y-58619731D01*
X174388359Y-58853080D01*
X174263175Y-59115901D01*
X174218524Y-59263110D01*
X174339845Y-59493000D01*
X175533000Y-59493000D01*
X175533000Y-57207000D01*
X175787000Y-57207000D01*
X175787000Y-59493000D01*
X178073000Y-59493000D01*
X178073000Y-57207000D01*
X178327000Y-57207000D01*
X178327000Y-59493000D01*
X179520155Y-59493000D01*
X179641476Y-59263110D01*
X179596825Y-59115901D01*
X179471641Y-58853080D01*
X179297588Y-58619731D01*
X179081355Y-58424822D01*
X178955745Y-58350000D01*
X179081355Y-58275178D01*
X179297588Y-58080269D01*
X179471641Y-57846920D01*
X179596825Y-57584099D01*
X179641476Y-57436890D01*
X179520155Y-57207000D01*
X178327000Y-57207000D01*
X178073000Y-57207000D01*
X175787000Y-57207000D01*
X175533000Y-57207000D01*
X174339845Y-57207000D01*
X174218524Y-57436890D01*
X172037362Y-57436890D01*
X172057095Y-57337686D01*
X172057095Y-56812314D01*
X171954600Y-56297037D01*
X171753549Y-55811657D01*
X171461668Y-55374826D01*
X171090174Y-55003332D01*
X170930873Y-54896890D01*
X174218524Y-54896890D01*
X174263175Y-55044099D01*
X174388359Y-55306920D01*
X174562412Y-55540269D01*
X174778645Y-55735178D01*
X174904255Y-55810000D01*
X174778645Y-55884822D01*
X174562412Y-56079731D01*
X174388359Y-56313080D01*
X174263175Y-56575901D01*
X174218524Y-56723110D01*
X174339845Y-56953000D01*
X175533000Y-56953000D01*
X175533000Y-54667000D01*
X175787000Y-54667000D01*
X175787000Y-56953000D01*
X178073000Y-56953000D01*
X178073000Y-54667000D01*
X178327000Y-54667000D01*
X178327000Y-56953000D01*
X179520155Y-56953000D01*
X179641476Y-56723110D01*
X179596825Y-56575901D01*
X179471641Y-56313080D01*
X179297588Y-56079731D01*
X179081355Y-55884822D01*
X178955745Y-55810000D01*
X179081355Y-55735178D01*
X179297588Y-55540269D01*
X179471641Y-55306920D01*
X179596825Y-55044099D01*
X179641476Y-54896890D01*
X179520155Y-54667000D01*
X178327000Y-54667000D01*
X178073000Y-54667000D01*
X175787000Y-54667000D01*
X175533000Y-54667000D01*
X174339845Y-54667000D01*
X174218524Y-54896890D01*
X170930873Y-54896890D01*
X170653343Y-54711451D01*
X170167963Y-54510400D01*
X169652686Y-54407905D01*
X169127314Y-54407905D01*
X168612037Y-54510400D01*
X168126657Y-54711451D01*
X167689826Y-55003332D01*
X167318332Y-55374826D01*
X167026451Y-55811657D01*
X166825400Y-56297037D01*
X166722905Y-56812314D01*
X164594399Y-56812314D01*
X164641476Y-56723110D01*
X164596825Y-56575901D01*
X164471641Y-56313080D01*
X164297588Y-56079731D01*
X164081355Y-55884822D01*
X163955745Y-55810000D01*
X164081355Y-55735178D01*
X164297588Y-55540269D01*
X164471641Y-55306920D01*
X164596825Y-55044099D01*
X164641476Y-54896890D01*
X164520155Y-54667000D01*
X163327000Y-54667000D01*
X163073000Y-54667000D01*
X160787000Y-54667000D01*
X160533000Y-54667000D01*
X159339845Y-54667000D01*
X159218524Y-54896890D01*
X155930873Y-54896890D01*
X155653343Y-54711451D01*
X155167963Y-54510400D01*
X154652686Y-54407905D01*
X154127314Y-54407905D01*
X153612037Y-54510400D01*
X153126657Y-54711451D01*
X152689826Y-55003332D01*
X152318332Y-55374826D01*
X152026451Y-55811657D01*
X151825400Y-56297037D01*
X151722905Y-56812314D01*
X149594399Y-56812314D01*
X149641476Y-56723110D01*
X149596825Y-56575901D01*
X149471641Y-56313080D01*
X149297588Y-56079731D01*
X149081355Y-55884822D01*
X148955745Y-55810000D01*
X149081355Y-55735178D01*
X149297588Y-55540269D01*
X149471641Y-55306920D01*
X149596825Y-55044099D01*
X149641476Y-54896890D01*
X149520155Y-54667000D01*
X148327000Y-54667000D01*
X148073000Y-54667000D01*
X145787000Y-54667000D01*
X145533000Y-54667000D01*
X144339845Y-54667000D01*
X144218524Y-54896890D01*
X140930873Y-54896890D01*
X140653343Y-54711451D01*
X140167963Y-54510400D01*
X139652686Y-54407905D01*
X139127314Y-54407905D01*
X138612037Y-54510400D01*
X138126657Y-54711451D01*
X137689826Y-55003332D01*
X137318332Y-55374826D01*
X137026451Y-55811657D01*
X136825400Y-56297037D01*
X136722905Y-56812314D01*
X134594399Y-56812314D01*
X134641476Y-56723110D01*
X134596825Y-56575901D01*
X134471641Y-56313080D01*
X134297588Y-56079731D01*
X134081355Y-55884822D01*
X133955745Y-55810000D01*
X134081355Y-55735178D01*
X134297588Y-55540269D01*
X134471641Y-55306920D01*
X134596825Y-55044099D01*
X134641476Y-54896890D01*
X134520155Y-54667000D01*
X133327000Y-54667000D01*
X133073000Y-54667000D01*
X130787000Y-54667000D01*
X130533000Y-54667000D01*
X129339845Y-54667000D01*
X129218524Y-54896890D01*
X125930873Y-54896890D01*
X125653343Y-54711451D01*
X125167963Y-54510400D01*
X124652686Y-54407905D01*
X124127314Y-54407905D01*
X123612037Y-54510400D01*
X123126657Y-54711451D01*
X122689826Y-55003332D01*
X122318332Y-55374826D01*
X122026451Y-55811657D01*
X121825400Y-56297037D01*
X121722905Y-56812314D01*
X119594399Y-56812314D01*
X119641476Y-56723110D01*
X119596825Y-56575901D01*
X119471641Y-56313080D01*
X119297588Y-56079731D01*
X119081355Y-55884822D01*
X118955745Y-55810000D01*
X119081355Y-55735178D01*
X119297588Y-55540269D01*
X119471641Y-55306920D01*
X119596825Y-55044099D01*
X119641476Y-54896890D01*
X119520155Y-54667000D01*
X118327000Y-54667000D01*
X118073000Y-54667000D01*
X115787000Y-54667000D01*
X115533000Y-54667000D01*
X114339845Y-54667000D01*
X114218524Y-54896890D01*
X110866042Y-54896890D01*
X110663343Y-54761451D01*
X110177963Y-54560400D01*
X109662686Y-54457905D01*
X109137314Y-54457905D01*
X108622037Y-54560400D01*
X108136657Y-54761451D01*
X107699826Y-55053332D01*
X107328332Y-55424826D01*
X107036451Y-55861657D01*
X106835400Y-56347037D01*
X106732905Y-56862314D01*
X104568013Y-56862314D01*
X104641476Y-56723110D01*
X104596825Y-56575901D01*
X104471641Y-56313080D01*
X104297588Y-56079731D01*
X104081355Y-55884822D01*
X103955745Y-55810000D01*
X104081355Y-55735178D01*
X104297588Y-55540269D01*
X104471641Y-55306920D01*
X104596825Y-55044099D01*
X104641476Y-54896890D01*
X104520155Y-54667000D01*
X103327000Y-54667000D01*
X103073000Y-54667000D01*
X100787000Y-54667000D01*
X100533000Y-54667000D01*
X99339845Y-54667000D01*
X99218524Y-54896890D01*
X93666042Y-54896890D01*
X93463343Y-54761451D01*
X92977963Y-54560400D01*
X92462686Y-54457905D01*
X91937314Y-54457905D01*
X91422037Y-54560400D01*
X90936657Y-54761451D01*
X90499826Y-55053332D01*
X90128332Y-55424826D01*
X89836451Y-55861657D01*
X89635400Y-56347037D01*
X89532905Y-56862314D01*
X85807566Y-56862314D01*
X85658363Y-56639017D01*
X85360983Y-56341637D01*
X85011302Y-56107988D01*
X84622756Y-55947047D01*
X84210279Y-55865000D01*
X83789721Y-55865000D01*
X83377244Y-55947047D01*
X82988698Y-56107988D01*
X82639017Y-56341637D01*
X82341637Y-56639017D01*
X82107988Y-56988698D01*
X81947047Y-57377244D01*
X81865000Y-57789721D01*
X68160000Y-57789721D01*
X68160000Y-50789721D01*
X81865000Y-50789721D01*
X81865000Y-51210279D01*
X81947047Y-51622756D01*
X82107988Y-52011302D01*
X82341637Y-52360983D01*
X82639017Y-52658363D01*
X82988698Y-52892012D01*
X83377244Y-53052953D01*
X83789721Y-53135000D01*
X84210279Y-53135000D01*
X84622756Y-53052953D01*
X85011302Y-52892012D01*
X85360983Y-52658363D01*
X85658363Y-52360983D01*
X85892012Y-52011302D01*
X86052953Y-51622756D01*
X86135000Y-51210279D01*
X86135000Y-51150000D01*
X99171928Y-51150000D01*
X99171928Y-52850000D01*
X99184188Y-52974482D01*
X99220498Y-53094180D01*
X99279463Y-53204494D01*
X99358815Y-53301185D01*
X99455506Y-53380537D01*
X99565820Y-53439502D01*
X99646466Y-53463966D01*
X99562412Y-53539731D01*
X99388359Y-53773080D01*
X99263175Y-54035901D01*
X99218524Y-54183110D01*
X99339845Y-54413000D01*
X100533000Y-54413000D01*
X100533000Y-54393000D01*
X100787000Y-54393000D01*
X100787000Y-54413000D01*
X103073000Y-54413000D01*
X103073000Y-54393000D01*
X103327000Y-54393000D01*
X103327000Y-54413000D01*
X104520155Y-54413000D01*
X104641476Y-54183110D01*
X104596825Y-54035901D01*
X104471641Y-53773080D01*
X104297588Y-53539731D01*
X104081355Y-53344822D01*
X103964466Y-53275195D01*
X104146632Y-53153475D01*
X104353475Y-52946632D01*
X104515990Y-52703411D01*
X104627932Y-52433158D01*
X104685000Y-52146260D01*
X104685000Y-51853740D01*
X104627932Y-51566842D01*
X104515990Y-51296589D01*
X104418043Y-51150000D01*
X114171928Y-51150000D01*
X114171928Y-52850000D01*
X114184188Y-52974482D01*
X114220498Y-53094180D01*
X114279463Y-53204494D01*
X114358815Y-53301185D01*
X114455506Y-53380537D01*
X114565820Y-53439502D01*
X114646466Y-53463966D01*
X114562412Y-53539731D01*
X114388359Y-53773080D01*
X114263175Y-54035901D01*
X114218524Y-54183110D01*
X114339845Y-54413000D01*
X115533000Y-54413000D01*
X115533000Y-54393000D01*
X115787000Y-54393000D01*
X115787000Y-54413000D01*
X118073000Y-54413000D01*
X118073000Y-54393000D01*
X118327000Y-54393000D01*
X118327000Y-54413000D01*
X119520155Y-54413000D01*
X119641476Y-54183110D01*
X119596825Y-54035901D01*
X119471641Y-53773080D01*
X119297588Y-53539731D01*
X119081355Y-53344822D01*
X118964466Y-53275195D01*
X119146632Y-53153475D01*
X119353475Y-52946632D01*
X119515990Y-52703411D01*
X119627932Y-52433158D01*
X119685000Y-52146260D01*
X119685000Y-51853740D01*
X119627932Y-51566842D01*
X119515990Y-51296589D01*
X119418043Y-51150000D01*
X129171928Y-51150000D01*
X129171928Y-52850000D01*
X129184188Y-52974482D01*
X129220498Y-53094180D01*
X129279463Y-53204494D01*
X129358815Y-53301185D01*
X129455506Y-53380537D01*
X129565820Y-53439502D01*
X129646466Y-53463966D01*
X129562412Y-53539731D01*
X129388359Y-53773080D01*
X129263175Y-54035901D01*
X129218524Y-54183110D01*
X129339845Y-54413000D01*
X130533000Y-54413000D01*
X130533000Y-54393000D01*
X130787000Y-54393000D01*
X130787000Y-54413000D01*
X133073000Y-54413000D01*
X133073000Y-54393000D01*
X133327000Y-54393000D01*
X133327000Y-54413000D01*
X134520155Y-54413000D01*
X134641476Y-54183110D01*
X134596825Y-54035901D01*
X134471641Y-53773080D01*
X134297588Y-53539731D01*
X134081355Y-53344822D01*
X133964466Y-53275195D01*
X134146632Y-53153475D01*
X134353475Y-52946632D01*
X134515990Y-52703411D01*
X134627932Y-52433158D01*
X134685000Y-52146260D01*
X134685000Y-51853740D01*
X134627932Y-51566842D01*
X134515990Y-51296589D01*
X134418043Y-51150000D01*
X144171928Y-51150000D01*
X144171928Y-52850000D01*
X144184188Y-52974482D01*
X144220498Y-53094180D01*
X144279463Y-53204494D01*
X144358815Y-53301185D01*
X144455506Y-53380537D01*
X144565820Y-53439502D01*
X144646466Y-53463966D01*
X144562412Y-53539731D01*
X144388359Y-53773080D01*
X144263175Y-54035901D01*
X144218524Y-54183110D01*
X144339845Y-54413000D01*
X145533000Y-54413000D01*
X145533000Y-54393000D01*
X145787000Y-54393000D01*
X145787000Y-54413000D01*
X148073000Y-54413000D01*
X148073000Y-54393000D01*
X148327000Y-54393000D01*
X148327000Y-54413000D01*
X149520155Y-54413000D01*
X149641476Y-54183110D01*
X149596825Y-54035901D01*
X149471641Y-53773080D01*
X149297588Y-53539731D01*
X149081355Y-53344822D01*
X148964466Y-53275195D01*
X149146632Y-53153475D01*
X149353475Y-52946632D01*
X149515990Y-52703411D01*
X149627932Y-52433158D01*
X149685000Y-52146260D01*
X149685000Y-51853740D01*
X149627932Y-51566842D01*
X149515990Y-51296589D01*
X149418043Y-51150000D01*
X159171928Y-51150000D01*
X159171928Y-52850000D01*
X159184188Y-52974482D01*
X159220498Y-53094180D01*
X159279463Y-53204494D01*
X159358815Y-53301185D01*
X159455506Y-53380537D01*
X159565820Y-53439502D01*
X159646466Y-53463966D01*
X159562412Y-53539731D01*
X159388359Y-53773080D01*
X159263175Y-54035901D01*
X159218524Y-54183110D01*
X159339845Y-54413000D01*
X160533000Y-54413000D01*
X160533000Y-54393000D01*
X160787000Y-54393000D01*
X160787000Y-54413000D01*
X163073000Y-54413000D01*
X163073000Y-54393000D01*
X163327000Y-54393000D01*
X163327000Y-54413000D01*
X164520155Y-54413000D01*
X164641476Y-54183110D01*
X164596825Y-54035901D01*
X164471641Y-53773080D01*
X164297588Y-53539731D01*
X164081355Y-53344822D01*
X163964466Y-53275195D01*
X164146632Y-53153475D01*
X164353475Y-52946632D01*
X164515990Y-52703411D01*
X164627932Y-52433158D01*
X164685000Y-52146260D01*
X164685000Y-51853740D01*
X164627932Y-51566842D01*
X164515990Y-51296589D01*
X164418043Y-51150000D01*
X174171928Y-51150000D01*
X174171928Y-52850000D01*
X174184188Y-52974482D01*
X174220498Y-53094180D01*
X174279463Y-53204494D01*
X174358815Y-53301185D01*
X174455506Y-53380537D01*
X174565820Y-53439502D01*
X174646466Y-53463966D01*
X174562412Y-53539731D01*
X174388359Y-53773080D01*
X174263175Y-54035901D01*
X174218524Y-54183110D01*
X174339845Y-54413000D01*
X175533000Y-54413000D01*
X175533000Y-54393000D01*
X175787000Y-54393000D01*
X175787000Y-54413000D01*
X178073000Y-54413000D01*
X178073000Y-54393000D01*
X178327000Y-54393000D01*
X178327000Y-54413000D01*
X179520155Y-54413000D01*
X179641476Y-54183110D01*
X179596825Y-54035901D01*
X179471641Y-53773080D01*
X179297588Y-53539731D01*
X179081355Y-53344822D01*
X178964466Y-53275195D01*
X179146632Y-53153475D01*
X179353475Y-52946632D01*
X179515990Y-52703411D01*
X179627932Y-52433158D01*
X179685000Y-52146260D01*
X179685000Y-51853740D01*
X179627932Y-51566842D01*
X179515990Y-51296589D01*
X179353475Y-51053368D01*
X179146632Y-50846525D01*
X178903411Y-50684010D01*
X178633158Y-50572068D01*
X178346260Y-50515000D01*
X178053740Y-50515000D01*
X177766842Y-50572068D01*
X177496589Y-50684010D01*
X177253368Y-50846525D01*
X177121513Y-50978380D01*
X177099502Y-50905820D01*
X177040537Y-50795506D01*
X176961185Y-50698815D01*
X176864494Y-50619463D01*
X176754180Y-50560498D01*
X176634482Y-50524188D01*
X176510000Y-50511928D01*
X174810000Y-50511928D01*
X174685518Y-50524188D01*
X174565820Y-50560498D01*
X174455506Y-50619463D01*
X174358815Y-50698815D01*
X174279463Y-50795506D01*
X174220498Y-50905820D01*
X174184188Y-51025518D01*
X174171928Y-51150000D01*
X164418043Y-51150000D01*
X164353475Y-51053368D01*
X164146632Y-50846525D01*
X163903411Y-50684010D01*
X163633158Y-50572068D01*
X163346260Y-50515000D01*
X163053740Y-50515000D01*
X162766842Y-50572068D01*
X162496589Y-50684010D01*
X162253368Y-50846525D01*
X162121513Y-50978380D01*
X162099502Y-50905820D01*
X162040537Y-50795506D01*
X161961185Y-50698815D01*
X161864494Y-50619463D01*
X161754180Y-50560498D01*
X161634482Y-50524188D01*
X161510000Y-50511928D01*
X159810000Y-50511928D01*
X159685518Y-50524188D01*
X159565820Y-50560498D01*
X159455506Y-50619463D01*
X159358815Y-50698815D01*
X159279463Y-50795506D01*
X159220498Y-50905820D01*
X159184188Y-51025518D01*
X159171928Y-51150000D01*
X149418043Y-51150000D01*
X149353475Y-51053368D01*
X149146632Y-50846525D01*
X148903411Y-50684010D01*
X148633158Y-50572068D01*
X148346260Y-50515000D01*
X148053740Y-50515000D01*
X147766842Y-50572068D01*
X147496589Y-50684010D01*
X147253368Y-50846525D01*
X147121513Y-50978380D01*
X147099502Y-50905820D01*
X147040537Y-50795506D01*
X146961185Y-50698815D01*
X146864494Y-50619463D01*
X146754180Y-50560498D01*
X146634482Y-50524188D01*
X146510000Y-50511928D01*
X144810000Y-50511928D01*
X144685518Y-50524188D01*
X144565820Y-50560498D01*
X144455506Y-50619463D01*
X144358815Y-50698815D01*
X144279463Y-50795506D01*
X144220498Y-50905820D01*
X144184188Y-51025518D01*
X144171928Y-51150000D01*
X134418043Y-51150000D01*
X134353475Y-51053368D01*
X134146632Y-50846525D01*
X133903411Y-50684010D01*
X133633158Y-50572068D01*
X133346260Y-50515000D01*
X133053740Y-50515000D01*
X132766842Y-50572068D01*
X132496589Y-50684010D01*
X132253368Y-50846525D01*
X132121513Y-50978380D01*
X132099502Y-50905820D01*
X132040537Y-50795506D01*
X131961185Y-50698815D01*
X131864494Y-50619463D01*
X131754180Y-50560498D01*
X131634482Y-50524188D01*
X131510000Y-50511928D01*
X129810000Y-50511928D01*
X129685518Y-50524188D01*
X129565820Y-50560498D01*
X129455506Y-50619463D01*
X129358815Y-50698815D01*
X129279463Y-50795506D01*
X129220498Y-50905820D01*
X129184188Y-51025518D01*
X129171928Y-51150000D01*
X119418043Y-51150000D01*
X119353475Y-51053368D01*
X119146632Y-50846525D01*
X118903411Y-50684010D01*
X118633158Y-50572068D01*
X118346260Y-50515000D01*
X118053740Y-50515000D01*
X117766842Y-50572068D01*
X117496589Y-50684010D01*
X117253368Y-50846525D01*
X117121513Y-50978380D01*
X117099502Y-50905820D01*
X117040537Y-50795506D01*
X116961185Y-50698815D01*
X116864494Y-50619463D01*
X116754180Y-50560498D01*
X116634482Y-50524188D01*
X116510000Y-50511928D01*
X114810000Y-50511928D01*
X114685518Y-50524188D01*
X114565820Y-50560498D01*
X114455506Y-50619463D01*
X114358815Y-50698815D01*
X114279463Y-50795506D01*
X114220498Y-50905820D01*
X114184188Y-51025518D01*
X114171928Y-51150000D01*
X104418043Y-51150000D01*
X104353475Y-51053368D01*
X104146632Y-50846525D01*
X103903411Y-50684010D01*
X103633158Y-50572068D01*
X103346260Y-50515000D01*
X103053740Y-50515000D01*
X102766842Y-50572068D01*
X102496589Y-50684010D01*
X102253368Y-50846525D01*
X102121513Y-50978380D01*
X102099502Y-50905820D01*
X102040537Y-50795506D01*
X101961185Y-50698815D01*
X101864494Y-50619463D01*
X101754180Y-50560498D01*
X101634482Y-50524188D01*
X101510000Y-50511928D01*
X99810000Y-50511928D01*
X99685518Y-50524188D01*
X99565820Y-50560498D01*
X99455506Y-50619463D01*
X99358815Y-50698815D01*
X99279463Y-50795506D01*
X99220498Y-50905820D01*
X99184188Y-51025518D01*
X99171928Y-51150000D01*
X86135000Y-51150000D01*
X86135000Y-50789721D01*
X86052953Y-50377244D01*
X85892012Y-49988698D01*
X85658363Y-49639017D01*
X85360983Y-49341637D01*
X85011302Y-49107988D01*
X84622756Y-48947047D01*
X84210279Y-48865000D01*
X83789721Y-48865000D01*
X83377244Y-48947047D01*
X82988698Y-49107988D01*
X82639017Y-49341637D01*
X82341637Y-49639017D01*
X82107988Y-49988698D01*
X81947047Y-50377244D01*
X81865000Y-50789721D01*
X68160000Y-50789721D01*
X68160000Y-48160000D01*
X181840001Y-48160000D01*
X181840000Y-104340000D01*
%TA.AperFunction,Conductor*%
D31*
G36*
X181840000Y-104340000D02*
G01*
X125398902Y-104340000D01*
X125777963Y-104264600D01*
X126263343Y-104063549D01*
X126700174Y-103771668D01*
X127071668Y-103400174D01*
X127363549Y-102963343D01*
X127564600Y-102477963D01*
X127667095Y-101962686D01*
X127667095Y-101437314D01*
X127564600Y-100922037D01*
X127363549Y-100436657D01*
X127071668Y-99999826D01*
X126700174Y-99628332D01*
X126263343Y-99336451D01*
X125777963Y-99135400D01*
X125262686Y-99032905D01*
X124737314Y-99032905D01*
X124222037Y-99135400D01*
X123736657Y-99336451D01*
X123299826Y-99628332D01*
X122928332Y-99999826D01*
X122636451Y-100436657D01*
X122435400Y-100922037D01*
X122332905Y-101437314D01*
X122332905Y-101962686D01*
X122435400Y-102477963D01*
X122636451Y-102963343D01*
X122928332Y-103400174D01*
X123299826Y-103771668D01*
X123736657Y-104063549D01*
X124222037Y-104264600D01*
X124601098Y-104340000D01*
X68160000Y-104340000D01*
X68160000Y-101764740D01*
X75858964Y-101764740D01*
X75883245Y-101870087D01*
X76003138Y-102147204D01*
X76174790Y-102395606D01*
X76391604Y-102605748D01*
X76645249Y-102769554D01*
X76925977Y-102880729D01*
X77223000Y-102935000D01*
X78323000Y-102935000D01*
X78323000Y-101527000D01*
X78577000Y-101527000D01*
X78577000Y-102935000D01*
X79677000Y-102935000D01*
X79974023Y-102880729D01*
X80254751Y-102769554D01*
X80508396Y-102605748D01*
X80725210Y-102395606D01*
X80896862Y-102147204D01*
X81016755Y-101870087D01*
X81041036Y-101764740D01*
X80920378Y-101527000D01*
X78577000Y-101527000D01*
X78323000Y-101527000D01*
X75979622Y-101527000D01*
X75858964Y-101764740D01*
X68160000Y-101764740D01*
X68160000Y-101035260D01*
X75858964Y-101035260D01*
X75979622Y-101273000D01*
X78323000Y-101273000D01*
X78323000Y-99865000D01*
X78577000Y-99865000D01*
X78577000Y-101273000D01*
X80920378Y-101273000D01*
X81041036Y-101035260D01*
X81016755Y-100929913D01*
X80896862Y-100652796D01*
X80725210Y-100404394D01*
X80508396Y-100194252D01*
X80254751Y-100030446D01*
X79974023Y-99919271D01*
X79677000Y-99865000D01*
X78577000Y-99865000D01*
X78323000Y-99865000D01*
X77223000Y-99865000D01*
X76925977Y-99919271D01*
X76645249Y-100030446D01*
X76391604Y-100194252D01*
X76174790Y-100404394D01*
X76003138Y-100652796D01*
X75883245Y-100929913D01*
X75858964Y-101035260D01*
X68160000Y-101035260D01*
X68160000Y-96727000D01*
X73665000Y-96727000D01*
X73665000Y-97827000D01*
X73719271Y-98124023D01*
X73830446Y-98404751D01*
X73994252Y-98658396D01*
X74204394Y-98875210D01*
X74452796Y-99046862D01*
X74729913Y-99166755D01*
X74835260Y-99191036D01*
X75073000Y-99070378D01*
X75073000Y-96727000D01*
X75327000Y-96727000D01*
X75327000Y-99070378D01*
X75564740Y-99191036D01*
X75670087Y-99166755D01*
X75947204Y-99046862D01*
X76195606Y-98875210D01*
X76405748Y-98658396D01*
X76569554Y-98404751D01*
X76680729Y-98124023D01*
X76735000Y-97827000D01*
X76735000Y-96727000D01*
X75327000Y-96727000D01*
X75073000Y-96727000D01*
X73665000Y-96727000D01*
X68160000Y-96727000D01*
X68160000Y-95373000D01*
X73665000Y-95373000D01*
X73665000Y-96473000D01*
X75073000Y-96473000D01*
X75073000Y-94129622D01*
X75327000Y-94129622D01*
X75327000Y-96473000D01*
X76735000Y-96473000D01*
X76735000Y-95373000D01*
X76680729Y-95075977D01*
X76569554Y-94795249D01*
X76405748Y-94541604D01*
X76220041Y-94350000D01*
X79811928Y-94350000D01*
X79811928Y-98850000D01*
X79824188Y-98974482D01*
X79860498Y-99094180D01*
X79919463Y-99204494D01*
X79998815Y-99301185D01*
X80095506Y-99380537D01*
X80205820Y-99439502D01*
X80325518Y-99475812D01*
X80450000Y-99488072D01*
X82450000Y-99488072D01*
X82574482Y-99475812D01*
X82694180Y-99439502D01*
X82804494Y-99380537D01*
X82901185Y-99301185D01*
X82980537Y-99204494D01*
X83039502Y-99094180D01*
X83075812Y-98974482D01*
X83088072Y-98850000D01*
X83088072Y-97898061D01*
X87165000Y-97898061D01*
X87165000Y-98101939D01*
X87204774Y-98301898D01*
X87282795Y-98490256D01*
X87396063Y-98659774D01*
X87540226Y-98803937D01*
X87709744Y-98917205D01*
X87898102Y-98995226D01*
X88098061Y-99035000D01*
X88301939Y-99035000D01*
X88501898Y-98995226D01*
X88690256Y-98917205D01*
X88859774Y-98803937D01*
X88903711Y-98760000D01*
X90496289Y-98760000D01*
X90540226Y-98803937D01*
X90709744Y-98917205D01*
X90817714Y-98961928D01*
X89600000Y-98961928D01*
X89475518Y-98974188D01*
X89355820Y-99010498D01*
X89245506Y-99069463D01*
X89148815Y-99148815D01*
X89069463Y-99245506D01*
X89010498Y-99355820D01*
X88974188Y-99475518D01*
X88961928Y-99600000D01*
X88961928Y-101800000D01*
X88974188Y-101924482D01*
X89010498Y-102044180D01*
X89069463Y-102154494D01*
X89148815Y-102251185D01*
X89245506Y-102330537D01*
X89355820Y-102389502D01*
X89475518Y-102425812D01*
X89600000Y-102438072D01*
X91800000Y-102438072D01*
X91924482Y-102425812D01*
X92044180Y-102389502D01*
X92154494Y-102330537D01*
X92251185Y-102251185D01*
X92330537Y-102154494D01*
X92389502Y-102044180D01*
X92425812Y-101924482D01*
X92438072Y-101800000D01*
X92438072Y-100529117D01*
X96585000Y-100529117D01*
X96585000Y-100870883D01*
X96651675Y-101206081D01*
X96782463Y-101521831D01*
X96972337Y-101805998D01*
X97214002Y-102047663D01*
X97498169Y-102237537D01*
X97813919Y-102368325D01*
X98149117Y-102435000D01*
X98490883Y-102435000D01*
X98826081Y-102368325D01*
X99141831Y-102237537D01*
X99425998Y-102047663D01*
X99667663Y-101805998D01*
X99857537Y-101521831D01*
X99988325Y-101206081D01*
X100055000Y-100870883D01*
X100055000Y-100529117D01*
X99988325Y-100193919D01*
X99857537Y-99878169D01*
X99667663Y-99594002D01*
X99573661Y-99500000D01*
X100961928Y-99500000D01*
X100961928Y-101700000D01*
X100974188Y-101824482D01*
X101010498Y-101944180D01*
X101069463Y-102054494D01*
X101148815Y-102151185D01*
X101245506Y-102230537D01*
X101355820Y-102289502D01*
X101475518Y-102325812D01*
X101600000Y-102338072D01*
X103800000Y-102338072D01*
X103924482Y-102325812D01*
X104044180Y-102289502D01*
X104154494Y-102230537D01*
X104251185Y-102151185D01*
X104330537Y-102054494D01*
X104389502Y-101944180D01*
X104425812Y-101824482D01*
X104438072Y-101700000D01*
X104438072Y-100429117D01*
X108585000Y-100429117D01*
X108585000Y-100770883D01*
X108651675Y-101106081D01*
X108782463Y-101421831D01*
X108972337Y-101705998D01*
X109214002Y-101947663D01*
X109498169Y-102137537D01*
X109813919Y-102268325D01*
X110149117Y-102335000D01*
X110490883Y-102335000D01*
X110826081Y-102268325D01*
X111141831Y-102137537D01*
X111425998Y-101947663D01*
X111667663Y-101705998D01*
X111857537Y-101421831D01*
X111988325Y-101106081D01*
X112055000Y-100770883D01*
X112055000Y-100429117D01*
X111988325Y-100093919D01*
X111857537Y-99778169D01*
X111667663Y-99494002D01*
X111425998Y-99252337D01*
X111141831Y-99062463D01*
X110826081Y-98931675D01*
X110490883Y-98865000D01*
X110149117Y-98865000D01*
X109813919Y-98931675D01*
X109498169Y-99062463D01*
X109214002Y-99252337D01*
X108972337Y-99494002D01*
X108782463Y-99778169D01*
X108651675Y-100093919D01*
X108585000Y-100429117D01*
X104438072Y-100429117D01*
X104438072Y-99500000D01*
X104425812Y-99375518D01*
X104389502Y-99255820D01*
X104330537Y-99145506D01*
X104251185Y-99048815D01*
X104154494Y-98969463D01*
X104044180Y-98910498D01*
X103924482Y-98874188D01*
X103800000Y-98861928D01*
X101600000Y-98861928D01*
X101475518Y-98874188D01*
X101355820Y-98910498D01*
X101245506Y-98969463D01*
X101148815Y-99048815D01*
X101069463Y-99145506D01*
X101010498Y-99255820D01*
X100974188Y-99375518D01*
X100961928Y-99500000D01*
X99573661Y-99500000D01*
X99425998Y-99352337D01*
X99141831Y-99162463D01*
X98826081Y-99031675D01*
X98490883Y-98965000D01*
X98149117Y-98965000D01*
X97813919Y-99031675D01*
X97498169Y-99162463D01*
X97214002Y-99352337D01*
X96972337Y-99594002D01*
X96782463Y-99878169D01*
X96651675Y-100193919D01*
X96585000Y-100529117D01*
X92438072Y-100529117D01*
X92438072Y-99600000D01*
X92425812Y-99475518D01*
X92389502Y-99355820D01*
X92330537Y-99245506D01*
X92251185Y-99148815D01*
X92154494Y-99069463D01*
X92044180Y-99010498D01*
X91924482Y-98974188D01*
X91800000Y-98961928D01*
X91582286Y-98961928D01*
X91690256Y-98917205D01*
X91859774Y-98803937D01*
X92003937Y-98659774D01*
X92117205Y-98490256D01*
X92195226Y-98301898D01*
X92235000Y-98101939D01*
X92235000Y-97898061D01*
X92195226Y-97698102D01*
X92117205Y-97509744D01*
X92003937Y-97340226D01*
X91859774Y-97196063D01*
X91690256Y-97082795D01*
X91501898Y-97004774D01*
X91301939Y-96965000D01*
X91098061Y-96965000D01*
X90898102Y-97004774D01*
X90709744Y-97082795D01*
X90540226Y-97196063D01*
X90496289Y-97240000D01*
X88903711Y-97240000D01*
X88859774Y-97196063D01*
X88690256Y-97082795D01*
X88501898Y-97004774D01*
X88301939Y-96965000D01*
X88098061Y-96965000D01*
X87898102Y-97004774D01*
X87709744Y-97082795D01*
X87540226Y-97196063D01*
X87396063Y-97340226D01*
X87282795Y-97509744D01*
X87204774Y-97698102D01*
X87165000Y-97898061D01*
X83088072Y-97898061D01*
X83088072Y-95292500D01*
X107721928Y-95292500D01*
X107734188Y-95416982D01*
X107770498Y-95536680D01*
X107829463Y-95646994D01*
X107908815Y-95743685D01*
X108005506Y-95823037D01*
X108115820Y-95882002D01*
X108235518Y-95918312D01*
X108360000Y-95930572D01*
X109074250Y-95927500D01*
X109233000Y-95768750D01*
X109233000Y-94467000D01*
X109487000Y-94467000D01*
X109487000Y-95768750D01*
X109645750Y-95927500D01*
X110360000Y-95930572D01*
X110484482Y-95918312D01*
X110604180Y-95882002D01*
X110714494Y-95823037D01*
X110811185Y-95743685D01*
X110890537Y-95646994D01*
X110949502Y-95536680D01*
X110985812Y-95416982D01*
X110987484Y-95400000D01*
X113561928Y-95400000D01*
X113574188Y-95524482D01*
X113610498Y-95644180D01*
X113669463Y-95754494D01*
X113748815Y-95851185D01*
X113845506Y-95930537D01*
X113955820Y-95989502D01*
X114051943Y-96018661D01*
X113885363Y-96185241D01*
X113728320Y-96420273D01*
X113620147Y-96681426D01*
X113565000Y-96958665D01*
X113565000Y-97241335D01*
X113620147Y-97518574D01*
X113728320Y-97779727D01*
X113885363Y-98014759D01*
X114085241Y-98214637D01*
X114320273Y-98371680D01*
X114581426Y-98479853D01*
X114858665Y-98535000D01*
X115141335Y-98535000D01*
X115418574Y-98479853D01*
X115679727Y-98371680D01*
X115914759Y-98214637D01*
X116114637Y-98014759D01*
X116271680Y-97779727D01*
X116379853Y-97518574D01*
X116435000Y-97241335D01*
X116435000Y-96958665D01*
X116379853Y-96681426D01*
X116283628Y-96449117D01*
X120065000Y-96449117D01*
X120065000Y-96790883D01*
X120131675Y-97126081D01*
X120262463Y-97441831D01*
X120452337Y-97725998D01*
X120694002Y-97967663D01*
X120978169Y-98157537D01*
X121293919Y-98288325D01*
X121629117Y-98355000D01*
X121970883Y-98355000D01*
X122306081Y-98288325D01*
X122621831Y-98157537D01*
X122905998Y-97967663D01*
X123054393Y-97819268D01*
X133365000Y-97819268D01*
X133365000Y-98180732D01*
X133435518Y-98535250D01*
X133573844Y-98869199D01*
X133774662Y-99169744D01*
X134030256Y-99425338D01*
X134330801Y-99626156D01*
X134664750Y-99764482D01*
X135019268Y-99835000D01*
X135380732Y-99835000D01*
X135735250Y-99764482D01*
X136069199Y-99626156D01*
X136369744Y-99425338D01*
X136625338Y-99169744D01*
X136826156Y-98869199D01*
X136964482Y-98535250D01*
X137035000Y-98180732D01*
X137035000Y-98019268D01*
X152065000Y-98019268D01*
X152065000Y-98380732D01*
X152135518Y-98735250D01*
X152273844Y-99069199D01*
X152474662Y-99369744D01*
X152730256Y-99625338D01*
X153030801Y-99826156D01*
X153364750Y-99964482D01*
X153719268Y-100035000D01*
X154080732Y-100035000D01*
X154435250Y-99964482D01*
X154769199Y-99826156D01*
X155069744Y-99625338D01*
X155325338Y-99369744D01*
X155526156Y-99069199D01*
X155664482Y-98735250D01*
X155735000Y-98380732D01*
X155735000Y-98019268D01*
X170665000Y-98019268D01*
X170665000Y-98380732D01*
X170735518Y-98735250D01*
X170873844Y-99069199D01*
X171074662Y-99369744D01*
X171330256Y-99625338D01*
X171630801Y-99826156D01*
X171964750Y-99964482D01*
X172319268Y-100035000D01*
X172680732Y-100035000D01*
X173035250Y-99964482D01*
X173369199Y-99826156D01*
X173669744Y-99625338D01*
X173925338Y-99369744D01*
X174126156Y-99069199D01*
X174264482Y-98735250D01*
X174335000Y-98380732D01*
X174335000Y-98019268D01*
X174264482Y-97664750D01*
X174126156Y-97330801D01*
X173925338Y-97030256D01*
X173669744Y-96774662D01*
X173369199Y-96573844D01*
X173035250Y-96435518D01*
X172680732Y-96365000D01*
X172319268Y-96365000D01*
X171964750Y-96435518D01*
X171630801Y-96573844D01*
X171330256Y-96774662D01*
X171074662Y-97030256D01*
X170873844Y-97330801D01*
X170735518Y-97664750D01*
X170665000Y-98019268D01*
X155735000Y-98019268D01*
X155664482Y-97664750D01*
X155526156Y-97330801D01*
X155325338Y-97030256D01*
X155069744Y-96774662D01*
X154769199Y-96573844D01*
X154435250Y-96435518D01*
X154080732Y-96365000D01*
X153719268Y-96365000D01*
X153364750Y-96435518D01*
X153030801Y-96573844D01*
X152730256Y-96774662D01*
X152474662Y-97030256D01*
X152273844Y-97330801D01*
X152135518Y-97664750D01*
X152065000Y-98019268D01*
X137035000Y-98019268D01*
X137035000Y-97819268D01*
X136964482Y-97464750D01*
X136826156Y-97130801D01*
X136625338Y-96830256D01*
X136369744Y-96574662D01*
X136069199Y-96373844D01*
X135735250Y-96235518D01*
X135380732Y-96165000D01*
X135019268Y-96165000D01*
X134664750Y-96235518D01*
X134330801Y-96373844D01*
X134030256Y-96574662D01*
X133774662Y-96830256D01*
X133573844Y-97130801D01*
X133435518Y-97464750D01*
X133365000Y-97819268D01*
X123054393Y-97819268D01*
X123147663Y-97725998D01*
X123337537Y-97441831D01*
X123468325Y-97126081D01*
X123535000Y-96790883D01*
X123535000Y-96449117D01*
X123468325Y-96113919D01*
X123337537Y-95798169D01*
X123147663Y-95514002D01*
X122905998Y-95272337D01*
X122621831Y-95082463D01*
X122306081Y-94951675D01*
X121970883Y-94885000D01*
X121629117Y-94885000D01*
X121293919Y-94951675D01*
X120978169Y-95082463D01*
X120694002Y-95272337D01*
X120452337Y-95514002D01*
X120262463Y-95798169D01*
X120131675Y-96113919D01*
X120065000Y-96449117D01*
X116283628Y-96449117D01*
X116271680Y-96420273D01*
X116114637Y-96185241D01*
X115948057Y-96018661D01*
X116044180Y-95989502D01*
X116154494Y-95930537D01*
X116251185Y-95851185D01*
X116330537Y-95754494D01*
X116389502Y-95644180D01*
X116425812Y-95524482D01*
X116438072Y-95400000D01*
X116435000Y-94885750D01*
X116276250Y-94727000D01*
X115127000Y-94727000D01*
X115127000Y-94747000D01*
X114873000Y-94747000D01*
X114873000Y-94727000D01*
X113723750Y-94727000D01*
X113565000Y-94885750D01*
X113561928Y-95400000D01*
X110987484Y-95400000D01*
X110998072Y-95292500D01*
X110995000Y-94625750D01*
X110836250Y-94467000D01*
X109487000Y-94467000D01*
X109233000Y-94467000D01*
X107883750Y-94467000D01*
X107725000Y-94625750D01*
X107721928Y-95292500D01*
X83088072Y-95292500D01*
X83088072Y-94350000D01*
X83075812Y-94225518D01*
X83039502Y-94105820D01*
X82980537Y-93995506D01*
X82901185Y-93898815D01*
X82804494Y-93819463D01*
X82694180Y-93760498D01*
X82574482Y-93724188D01*
X82450000Y-93711928D01*
X80450000Y-93711928D01*
X80325518Y-93724188D01*
X80205820Y-93760498D01*
X80095506Y-93819463D01*
X79998815Y-93898815D01*
X79919463Y-93995506D01*
X79860498Y-94105820D01*
X79824188Y-94225518D01*
X79811928Y-94350000D01*
X76220041Y-94350000D01*
X76195606Y-94324790D01*
X75947204Y-94153138D01*
X75670087Y-94033245D01*
X75564740Y-94008964D01*
X75327000Y-94129622D01*
X75073000Y-94129622D01*
X74835260Y-94008964D01*
X74729913Y-94033245D01*
X74452796Y-94153138D01*
X74204394Y-94324790D01*
X73994252Y-94541604D01*
X73830446Y-94795249D01*
X73719271Y-95075977D01*
X73665000Y-95373000D01*
X68160000Y-95373000D01*
X68160000Y-91565098D01*
X90315000Y-91565098D01*
X90315000Y-92034902D01*
X90406654Y-92495679D01*
X90586440Y-92929721D01*
X90847450Y-93320349D01*
X91179651Y-93652550D01*
X91570279Y-93913560D01*
X92004321Y-94093346D01*
X92465098Y-94185000D01*
X92934902Y-94185000D01*
X93395679Y-94093346D01*
X93829721Y-93913560D01*
X94220349Y-93652550D01*
X94552550Y-93320349D01*
X94813560Y-92929721D01*
X94993346Y-92495679D01*
X95085000Y-92034902D01*
X95085000Y-91565098D01*
X94993346Y-91104321D01*
X94813560Y-90670279D01*
X94552550Y-90279651D01*
X94220349Y-89947450D01*
X93829721Y-89686440D01*
X93395679Y-89506654D01*
X92934902Y-89415000D01*
X92465098Y-89415000D01*
X92004321Y-89506654D01*
X91570279Y-89686440D01*
X91179651Y-89947450D01*
X90847450Y-90279651D01*
X90586440Y-90670279D01*
X90406654Y-91104321D01*
X90315000Y-91565098D01*
X68160000Y-91565098D01*
X68160000Y-89260000D01*
X107717319Y-89260000D01*
X107747970Y-89571204D01*
X107838745Y-89870449D01*
X107986155Y-90146235D01*
X108184537Y-90387963D01*
X108357609Y-90530000D01*
X108184537Y-90672037D01*
X107986155Y-90913765D01*
X107838745Y-91189551D01*
X107747970Y-91488796D01*
X107717319Y-91800000D01*
X107747970Y-92111204D01*
X107838745Y-92410449D01*
X107986155Y-92686235D01*
X108089446Y-92812095D01*
X108005506Y-92856963D01*
X107908815Y-92936315D01*
X107829463Y-93033006D01*
X107770498Y-93143320D01*
X107734188Y-93263018D01*
X107721928Y-93387500D01*
X107725000Y-94054250D01*
X107883750Y-94213000D01*
X109233000Y-94213000D01*
X109233000Y-94193000D01*
X109487000Y-94193000D01*
X109487000Y-94213000D01*
X110836250Y-94213000D01*
X110995000Y-94054250D01*
X110996171Y-93800000D01*
X113561928Y-93800000D01*
X113565000Y-94314250D01*
X113723750Y-94473000D01*
X114873000Y-94473000D01*
X114873000Y-93323750D01*
X115127000Y-93323750D01*
X115127000Y-94473000D01*
X116276250Y-94473000D01*
X116435000Y-94314250D01*
X116438072Y-93800000D01*
X116425812Y-93675518D01*
X116389502Y-93555820D01*
X116330537Y-93445506D01*
X116251185Y-93348815D01*
X116154494Y-93269463D01*
X116044180Y-93210498D01*
X115924482Y-93174188D01*
X115800000Y-93161928D01*
X115285750Y-93165000D01*
X115127000Y-93323750D01*
X114873000Y-93323750D01*
X114714250Y-93165000D01*
X114200000Y-93161928D01*
X114075518Y-93174188D01*
X113955820Y-93210498D01*
X113845506Y-93269463D01*
X113748815Y-93348815D01*
X113669463Y-93445506D01*
X113610498Y-93555820D01*
X113574188Y-93675518D01*
X113561928Y-93800000D01*
X110996171Y-93800000D01*
X110998072Y-93387500D01*
X110985812Y-93263018D01*
X110949502Y-93143320D01*
X110890537Y-93033006D01*
X110811185Y-92936315D01*
X110714494Y-92856963D01*
X110630554Y-92812095D01*
X110733845Y-92686235D01*
X110881255Y-92410449D01*
X110972030Y-92111204D01*
X111002681Y-91800000D01*
X110972030Y-91488796D01*
X110881255Y-91189551D01*
X110733845Y-90913765D01*
X110535463Y-90672037D01*
X110362391Y-90530000D01*
X110535463Y-90387963D01*
X110733845Y-90146235D01*
X110881255Y-89870449D01*
X110972030Y-89571204D01*
X111002681Y-89260000D01*
X110977074Y-89000000D01*
X113161928Y-89000000D01*
X113174188Y-89124482D01*
X113210498Y-89244180D01*
X113269463Y-89354494D01*
X113348815Y-89451185D01*
X113445506Y-89530537D01*
X113555820Y-89589502D01*
X113651943Y-89618661D01*
X113485363Y-89785241D01*
X113328320Y-90020273D01*
X113220147Y-90281426D01*
X113165000Y-90558665D01*
X113165000Y-90841335D01*
X113220147Y-91118574D01*
X113328320Y-91379727D01*
X113485363Y-91614759D01*
X113685241Y-91814637D01*
X113920273Y-91971680D01*
X114181426Y-92079853D01*
X114458665Y-92135000D01*
X114741335Y-92135000D01*
X115018574Y-92079853D01*
X115279727Y-91971680D01*
X115514759Y-91814637D01*
X115629396Y-91700000D01*
X133361928Y-91700000D01*
X133374188Y-91824482D01*
X133410498Y-91944180D01*
X133469463Y-92054494D01*
X133548815Y-92151185D01*
X133645506Y-92230537D01*
X133755820Y-92289502D01*
X133875518Y-92325812D01*
X134000000Y-92338072D01*
X134914250Y-92335000D01*
X135073000Y-92176250D01*
X135073000Y-90627000D01*
X135327000Y-90627000D01*
X135327000Y-92176250D01*
X135485750Y-92335000D01*
X136400000Y-92338072D01*
X136524482Y-92325812D01*
X136644180Y-92289502D01*
X136754494Y-92230537D01*
X136851185Y-92151185D01*
X136930537Y-92054494D01*
X136989502Y-91944180D01*
X137002903Y-91900000D01*
X152061928Y-91900000D01*
X152074188Y-92024482D01*
X152110498Y-92144180D01*
X152169463Y-92254494D01*
X152248815Y-92351185D01*
X152345506Y-92430537D01*
X152455820Y-92489502D01*
X152575518Y-92525812D01*
X152700000Y-92538072D01*
X153614250Y-92535000D01*
X153773000Y-92376250D01*
X153773000Y-90827000D01*
X154027000Y-90827000D01*
X154027000Y-92376250D01*
X154185750Y-92535000D01*
X155100000Y-92538072D01*
X155224482Y-92525812D01*
X155344180Y-92489502D01*
X155454494Y-92430537D01*
X155551185Y-92351185D01*
X155630537Y-92254494D01*
X155689502Y-92144180D01*
X155725812Y-92024482D01*
X155738072Y-91900000D01*
X170661928Y-91900000D01*
X170674188Y-92024482D01*
X170710498Y-92144180D01*
X170769463Y-92254494D01*
X170848815Y-92351185D01*
X170945506Y-92430537D01*
X171055820Y-92489502D01*
X171175518Y-92525812D01*
X171300000Y-92538072D01*
X172214250Y-92535000D01*
X172373000Y-92376250D01*
X172373000Y-90827000D01*
X172627000Y-90827000D01*
X172627000Y-92376250D01*
X172785750Y-92535000D01*
X173700000Y-92538072D01*
X173824482Y-92525812D01*
X173944180Y-92489502D01*
X174054494Y-92430537D01*
X174151185Y-92351185D01*
X174230537Y-92254494D01*
X174289502Y-92144180D01*
X174325812Y-92024482D01*
X174338072Y-91900000D01*
X174335000Y-90985750D01*
X174176250Y-90827000D01*
X172627000Y-90827000D01*
X172373000Y-90827000D01*
X170823750Y-90827000D01*
X170665000Y-90985750D01*
X170661928Y-91900000D01*
X155738072Y-91900000D01*
X155735000Y-90985750D01*
X155576250Y-90827000D01*
X154027000Y-90827000D01*
X153773000Y-90827000D01*
X152223750Y-90827000D01*
X152065000Y-90985750D01*
X152061928Y-91900000D01*
X137002903Y-91900000D01*
X137025812Y-91824482D01*
X137038072Y-91700000D01*
X137035000Y-90785750D01*
X136876250Y-90627000D01*
X135327000Y-90627000D01*
X135073000Y-90627000D01*
X133523750Y-90627000D01*
X133365000Y-90785750D01*
X133361928Y-91700000D01*
X115629396Y-91700000D01*
X115714637Y-91614759D01*
X115871680Y-91379727D01*
X115979853Y-91118574D01*
X116035000Y-90841335D01*
X116035000Y-90558665D01*
X115979853Y-90281426D01*
X115904704Y-90100000D01*
X120061928Y-90100000D01*
X120074188Y-90224482D01*
X120110498Y-90344180D01*
X120169463Y-90454494D01*
X120248815Y-90551185D01*
X120345506Y-90630537D01*
X120455820Y-90689502D01*
X120575518Y-90725812D01*
X120700000Y-90738072D01*
X121514250Y-90735000D01*
X121673000Y-90576250D01*
X121673000Y-89127000D01*
X121927000Y-89127000D01*
X121927000Y-90576250D01*
X122085750Y-90735000D01*
X122900000Y-90738072D01*
X123024482Y-90725812D01*
X123144180Y-90689502D01*
X123254494Y-90630537D01*
X123351185Y-90551185D01*
X123430537Y-90454494D01*
X123489502Y-90344180D01*
X123525812Y-90224482D01*
X123538072Y-90100000D01*
X123535054Y-89300000D01*
X133361928Y-89300000D01*
X133365000Y-90214250D01*
X133523750Y-90373000D01*
X135073000Y-90373000D01*
X135073000Y-88823750D01*
X135327000Y-88823750D01*
X135327000Y-90373000D01*
X136876250Y-90373000D01*
X137035000Y-90214250D01*
X137037399Y-89500000D01*
X152061928Y-89500000D01*
X152065000Y-90414250D01*
X152223750Y-90573000D01*
X153773000Y-90573000D01*
X153773000Y-89023750D01*
X154027000Y-89023750D01*
X154027000Y-90573000D01*
X155576250Y-90573000D01*
X155735000Y-90414250D01*
X155738072Y-89500000D01*
X170661928Y-89500000D01*
X170665000Y-90414250D01*
X170823750Y-90573000D01*
X172373000Y-90573000D01*
X172373000Y-89023750D01*
X172627000Y-89023750D01*
X172627000Y-90573000D01*
X174176250Y-90573000D01*
X174335000Y-90414250D01*
X174338072Y-89500000D01*
X174325812Y-89375518D01*
X174289502Y-89255820D01*
X174230537Y-89145506D01*
X174151185Y-89048815D01*
X174054494Y-88969463D01*
X173944180Y-88910498D01*
X173824482Y-88874188D01*
X173700000Y-88861928D01*
X172785750Y-88865000D01*
X172627000Y-89023750D01*
X172373000Y-89023750D01*
X172214250Y-88865000D01*
X171300000Y-88861928D01*
X171175518Y-88874188D01*
X171055820Y-88910498D01*
X170945506Y-88969463D01*
X170848815Y-89048815D01*
X170769463Y-89145506D01*
X170710498Y-89255820D01*
X170674188Y-89375518D01*
X170661928Y-89500000D01*
X155738072Y-89500000D01*
X155725812Y-89375518D01*
X155689502Y-89255820D01*
X155630537Y-89145506D01*
X155551185Y-89048815D01*
X155454494Y-88969463D01*
X155344180Y-88910498D01*
X155224482Y-88874188D01*
X155100000Y-88861928D01*
X154185750Y-88865000D01*
X154027000Y-89023750D01*
X153773000Y-89023750D01*
X153614250Y-88865000D01*
X152700000Y-88861928D01*
X152575518Y-88874188D01*
X152455820Y-88910498D01*
X152345506Y-88969463D01*
X152248815Y-89048815D01*
X152169463Y-89145506D01*
X152110498Y-89255820D01*
X152074188Y-89375518D01*
X152061928Y-89500000D01*
X137037399Y-89500000D01*
X137038072Y-89300000D01*
X137025812Y-89175518D01*
X136989502Y-89055820D01*
X136930537Y-88945506D01*
X136851185Y-88848815D01*
X136754494Y-88769463D01*
X136644180Y-88710498D01*
X136524482Y-88674188D01*
X136400000Y-88661928D01*
X135485750Y-88665000D01*
X135327000Y-88823750D01*
X135073000Y-88823750D01*
X134914250Y-88665000D01*
X134000000Y-88661928D01*
X133875518Y-88674188D01*
X133755820Y-88710498D01*
X133645506Y-88769463D01*
X133548815Y-88848815D01*
X133469463Y-88945506D01*
X133410498Y-89055820D01*
X133374188Y-89175518D01*
X133361928Y-89300000D01*
X123535054Y-89300000D01*
X123535000Y-89285750D01*
X123376250Y-89127000D01*
X121927000Y-89127000D01*
X121673000Y-89127000D01*
X120223750Y-89127000D01*
X120065000Y-89285750D01*
X120061928Y-90100000D01*
X115904704Y-90100000D01*
X115871680Y-90020273D01*
X115714637Y-89785241D01*
X115548057Y-89618661D01*
X115644180Y-89589502D01*
X115754494Y-89530537D01*
X115851185Y-89451185D01*
X115930537Y-89354494D01*
X115989502Y-89244180D01*
X116025812Y-89124482D01*
X116038072Y-89000000D01*
X116035000Y-88485750D01*
X115876250Y-88327000D01*
X114727000Y-88327000D01*
X114727000Y-88347000D01*
X114473000Y-88347000D01*
X114473000Y-88327000D01*
X113323750Y-88327000D01*
X113165000Y-88485750D01*
X113161928Y-89000000D01*
X110977074Y-89000000D01*
X110972030Y-88948796D01*
X110881255Y-88649551D01*
X110733845Y-88373765D01*
X110535463Y-88132037D01*
X110293735Y-87933655D01*
X110017949Y-87786245D01*
X109718704Y-87695470D01*
X109485486Y-87672500D01*
X109234514Y-87672500D01*
X109001296Y-87695470D01*
X108702051Y-87786245D01*
X108426265Y-87933655D01*
X108184537Y-88132037D01*
X107986155Y-88373765D01*
X107838745Y-88649551D01*
X107747970Y-88948796D01*
X107717319Y-89260000D01*
X68160000Y-89260000D01*
X68160000Y-87804080D01*
X76915525Y-87804080D01*
X76999208Y-88058261D01*
X77271775Y-88189158D01*
X77564642Y-88264365D01*
X77866553Y-88280991D01*
X78165907Y-88238397D01*
X78451199Y-88138222D01*
X78600792Y-88058261D01*
X78684475Y-87804080D01*
X77800000Y-86919605D01*
X76915525Y-87804080D01*
X68160000Y-87804080D01*
X68160000Y-86806553D01*
X76259009Y-86806553D01*
X76301603Y-87105907D01*
X76401778Y-87391199D01*
X76481739Y-87540792D01*
X76735920Y-87624475D01*
X77620395Y-86740000D01*
X77606253Y-86725858D01*
X77785858Y-86546253D01*
X77800000Y-86560395D01*
X77814143Y-86546253D01*
X77993748Y-86725858D01*
X77979605Y-86740000D01*
X78864080Y-87624475D01*
X79118261Y-87540792D01*
X79249158Y-87268225D01*
X79324365Y-86975358D01*
X79340991Y-86673447D01*
X79298397Y-86374093D01*
X79198222Y-86088801D01*
X79118261Y-85939208D01*
X78864082Y-85855526D01*
X78980030Y-85739578D01*
X78933265Y-85692813D01*
X78944180Y-85689502D01*
X79054494Y-85630537D01*
X79151185Y-85551185D01*
X79230537Y-85454494D01*
X79289502Y-85344180D01*
X79325812Y-85224482D01*
X79338072Y-85100000D01*
X79338072Y-84068514D01*
X80465000Y-84068514D01*
X80465000Y-84331486D01*
X80516304Y-84589405D01*
X80616939Y-84832359D01*
X80763038Y-85051013D01*
X80948987Y-85236962D01*
X81167641Y-85383061D01*
X81377530Y-85470000D01*
X81167641Y-85556939D01*
X80948987Y-85703038D01*
X80763038Y-85888987D01*
X80616939Y-86107641D01*
X80516304Y-86350595D01*
X80465000Y-86608514D01*
X80465000Y-86871486D01*
X80516304Y-87129405D01*
X80616939Y-87372359D01*
X80763038Y-87591013D01*
X80948987Y-87776962D01*
X81167641Y-87923061D01*
X81410595Y-88023696D01*
X81668514Y-88075000D01*
X81931486Y-88075000D01*
X82189405Y-88023696D01*
X82432359Y-87923061D01*
X82651013Y-87776962D01*
X82836962Y-87591013D01*
X82964591Y-87400000D01*
X113161928Y-87400000D01*
X113165000Y-87914250D01*
X113323750Y-88073000D01*
X114473000Y-88073000D01*
X114473000Y-86923750D01*
X114727000Y-86923750D01*
X114727000Y-88073000D01*
X115876250Y-88073000D01*
X116035000Y-87914250D01*
X116035085Y-87900000D01*
X120061928Y-87900000D01*
X120065000Y-88714250D01*
X120223750Y-88873000D01*
X121673000Y-88873000D01*
X121673000Y-87423750D01*
X121927000Y-87423750D01*
X121927000Y-88873000D01*
X123376250Y-88873000D01*
X123535000Y-88714250D01*
X123538072Y-87900000D01*
X123525812Y-87775518D01*
X123489502Y-87655820D01*
X123430537Y-87545506D01*
X123351185Y-87448815D01*
X123254494Y-87369463D01*
X123144180Y-87310498D01*
X123024482Y-87274188D01*
X122900000Y-87261928D01*
X122085750Y-87265000D01*
X121927000Y-87423750D01*
X121673000Y-87423750D01*
X121514250Y-87265000D01*
X120700000Y-87261928D01*
X120575518Y-87274188D01*
X120455820Y-87310498D01*
X120345506Y-87369463D01*
X120248815Y-87448815D01*
X120169463Y-87545506D01*
X120110498Y-87655820D01*
X120074188Y-87775518D01*
X120061928Y-87900000D01*
X116035085Y-87900000D01*
X116038072Y-87400000D01*
X116025812Y-87275518D01*
X115989502Y-87155820D01*
X115930537Y-87045506D01*
X115851185Y-86948815D01*
X115754494Y-86869463D01*
X115644180Y-86810498D01*
X115524482Y-86774188D01*
X115400000Y-86761928D01*
X114885750Y-86765000D01*
X114727000Y-86923750D01*
X114473000Y-86923750D01*
X114314250Y-86765000D01*
X113800000Y-86761928D01*
X113675518Y-86774188D01*
X113555820Y-86810498D01*
X113445506Y-86869463D01*
X113348815Y-86948815D01*
X113269463Y-87045506D01*
X113210498Y-87155820D01*
X113174188Y-87275518D01*
X113161928Y-87400000D01*
X82964591Y-87400000D01*
X82983061Y-87372359D01*
X83083696Y-87129405D01*
X83135000Y-86871486D01*
X83135000Y-86608514D01*
X83083696Y-86350595D01*
X82983061Y-86107641D01*
X82836962Y-85888987D01*
X82651013Y-85703038D01*
X82432359Y-85556939D01*
X82222470Y-85470000D01*
X82432359Y-85383061D01*
X82651013Y-85236962D01*
X82836962Y-85051013D01*
X82983061Y-84832359D01*
X83083696Y-84589405D01*
X83135000Y-84331486D01*
X83135000Y-84068514D01*
X83083696Y-83810595D01*
X82983061Y-83567641D01*
X82932989Y-83492702D01*
X113686903Y-83492702D01*
X113758486Y-83736671D01*
X114013996Y-83857571D01*
X114288184Y-83926300D01*
X114570512Y-83940217D01*
X114850130Y-83898787D01*
X115116292Y-83803603D01*
X115241514Y-83736671D01*
X115313097Y-83492702D01*
X115236518Y-83416123D01*
X120010821Y-83416123D01*
X120120558Y-83738054D01*
X120290992Y-84032391D01*
X120515573Y-84287822D01*
X120785671Y-84494531D01*
X121090906Y-84644575D01*
X121303878Y-84709175D01*
X121573000Y-84591125D01*
X121573000Y-83147000D01*
X121827000Y-83147000D01*
X121827000Y-84591125D01*
X122096122Y-84709175D01*
X122309094Y-84644575D01*
X122614329Y-84494531D01*
X122884427Y-84287822D01*
X123109008Y-84032391D01*
X123279442Y-83738054D01*
X123389179Y-83416123D01*
X123271600Y-83147000D01*
X121827000Y-83147000D01*
X121573000Y-83147000D01*
X120128400Y-83147000D01*
X120010821Y-83416123D01*
X115236518Y-83416123D01*
X114500000Y-82679605D01*
X113686903Y-83492702D01*
X82932989Y-83492702D01*
X82836962Y-83348987D01*
X82651013Y-83163038D01*
X82432359Y-83016939D01*
X82189405Y-82916304D01*
X81931486Y-82865000D01*
X81668514Y-82865000D01*
X81410595Y-82916304D01*
X81167641Y-83016939D01*
X80948987Y-83163038D01*
X80763038Y-83348987D01*
X80616939Y-83567641D01*
X80516304Y-83810595D01*
X80465000Y-84068514D01*
X79338072Y-84068514D01*
X79338072Y-83300000D01*
X79325812Y-83175518D01*
X79289502Y-83055820D01*
X79230537Y-82945506D01*
X79151185Y-82848815D01*
X79054494Y-82769463D01*
X78944180Y-82710498D01*
X78824482Y-82674188D01*
X78700000Y-82661928D01*
X76900000Y-82661928D01*
X76775518Y-82674188D01*
X76655820Y-82710498D01*
X76545506Y-82769463D01*
X76448815Y-82848815D01*
X76369463Y-82945506D01*
X76310498Y-83055820D01*
X76274188Y-83175518D01*
X76261928Y-83300000D01*
X76261928Y-85100000D01*
X76274188Y-85224482D01*
X76310498Y-85344180D01*
X76369463Y-85454494D01*
X76448815Y-85551185D01*
X76545506Y-85630537D01*
X76655820Y-85689502D01*
X76666735Y-85692813D01*
X76619970Y-85739578D01*
X76735918Y-85855526D01*
X76481739Y-85939208D01*
X76350842Y-86211775D01*
X76275635Y-86504642D01*
X76259009Y-86806553D01*
X68160000Y-86806553D01*
X68160000Y-75900000D01*
X76261928Y-75900000D01*
X76274188Y-76024482D01*
X76310498Y-76144180D01*
X76369463Y-76254494D01*
X76448815Y-76351185D01*
X76545506Y-76430537D01*
X76655820Y-76489502D01*
X76674127Y-76495056D01*
X76607688Y-76561495D01*
X76439701Y-76812905D01*
X76323989Y-77092257D01*
X76265000Y-77388816D01*
X76265000Y-77691184D01*
X76323989Y-77987743D01*
X76439701Y-78267095D01*
X76607688Y-78518505D01*
X76821495Y-78732312D01*
X77072905Y-78900299D01*
X77352257Y-79016011D01*
X77648816Y-79075000D01*
X77951184Y-79075000D01*
X78202059Y-79025098D01*
X90655000Y-79025098D01*
X90655000Y-79494902D01*
X90746654Y-79955679D01*
X90926440Y-80389721D01*
X91187450Y-80780349D01*
X91519651Y-81112550D01*
X91910279Y-81373560D01*
X92344321Y-81553346D01*
X92805098Y-81645000D01*
X93274902Y-81645000D01*
X93735679Y-81553346D01*
X94169721Y-81373560D01*
X94560349Y-81112550D01*
X94825399Y-80847500D01*
X108061928Y-80847500D01*
X108061928Y-82752500D01*
X108074188Y-82876982D01*
X108110498Y-82996680D01*
X108169463Y-83106994D01*
X108248815Y-83203685D01*
X108345506Y-83283037D01*
X108455820Y-83342002D01*
X108575518Y-83378312D01*
X108700000Y-83390572D01*
X110700000Y-83390572D01*
X110824482Y-83378312D01*
X110944180Y-83342002D01*
X111054494Y-83283037D01*
X111151185Y-83203685D01*
X111230537Y-83106994D01*
X111289502Y-82996680D01*
X111325812Y-82876982D01*
X111338072Y-82752500D01*
X111338072Y-82570512D01*
X113059783Y-82570512D01*
X113101213Y-82850130D01*
X113196397Y-83116292D01*
X113263329Y-83241514D01*
X113507298Y-83313097D01*
X114320395Y-82500000D01*
X114679605Y-82500000D01*
X115492702Y-83313097D01*
X115736671Y-83241514D01*
X115857571Y-82986004D01*
X115926300Y-82711816D01*
X115930634Y-82623877D01*
X120010821Y-82623877D01*
X120128400Y-82893000D01*
X121573000Y-82893000D01*
X121573000Y-81448875D01*
X121827000Y-81448875D01*
X121827000Y-82893000D01*
X123271600Y-82893000D01*
X123389179Y-82623877D01*
X123279442Y-82301946D01*
X123109008Y-82007609D01*
X122884427Y-81752178D01*
X122614329Y-81545469D01*
X122309094Y-81395425D01*
X122096122Y-81330825D01*
X121827000Y-81448875D01*
X121573000Y-81448875D01*
X121303878Y-81330825D01*
X121090906Y-81395425D01*
X120785671Y-81545469D01*
X120515573Y-81752178D01*
X120290992Y-82007609D01*
X120120558Y-82301946D01*
X120010821Y-82623877D01*
X115930634Y-82623877D01*
X115940217Y-82429488D01*
X115898787Y-82149870D01*
X115803603Y-81883708D01*
X115736671Y-81758486D01*
X115492702Y-81686903D01*
X114679605Y-82500000D01*
X114320395Y-82500000D01*
X113507298Y-81686903D01*
X113263329Y-81758486D01*
X113142429Y-82013996D01*
X113073700Y-82288184D01*
X113059783Y-82570512D01*
X111338072Y-82570512D01*
X111338072Y-80847500D01*
X111325812Y-80723018D01*
X111289502Y-80603320D01*
X111230537Y-80493006D01*
X111151185Y-80396315D01*
X111054494Y-80316963D01*
X110962781Y-80267941D01*
X111075969Y-80126923D01*
X111219571Y-79851094D01*
X111290563Y-79632980D01*
X111170594Y-79387000D01*
X109827000Y-79387000D01*
X109827000Y-79407000D01*
X109573000Y-79407000D01*
X109573000Y-79387000D01*
X108229406Y-79387000D01*
X108109437Y-79632980D01*
X108180429Y-79851094D01*
X108324031Y-80126923D01*
X108437219Y-80267941D01*
X108345506Y-80316963D01*
X108248815Y-80396315D01*
X108169463Y-80493006D01*
X108110498Y-80603320D01*
X108074188Y-80723018D01*
X108061928Y-80847500D01*
X94825399Y-80847500D01*
X94892550Y-80780349D01*
X95153560Y-80389721D01*
X95333346Y-79955679D01*
X95425000Y-79494902D01*
X95425000Y-79200000D01*
X113061928Y-79200000D01*
X113061928Y-80800000D01*
X113074188Y-80924482D01*
X113110498Y-81044180D01*
X113169463Y-81154494D01*
X113248815Y-81251185D01*
X113345506Y-81330537D01*
X113455820Y-81389502D01*
X113575518Y-81425812D01*
X113700000Y-81438072D01*
X113707215Y-81438072D01*
X113686903Y-81507298D01*
X114500000Y-82320395D01*
X115313097Y-81507298D01*
X115292785Y-81438072D01*
X115300000Y-81438072D01*
X115424482Y-81425812D01*
X115544180Y-81389502D01*
X115654494Y-81330537D01*
X115751185Y-81251185D01*
X115830537Y-81154494D01*
X115889502Y-81044180D01*
X115925812Y-80924482D01*
X115938072Y-80800000D01*
X115938072Y-80777980D01*
X134101626Y-80777980D01*
X134221514Y-81062836D01*
X134545210Y-81223699D01*
X134894069Y-81318322D01*
X135254684Y-81343067D01*
X135613198Y-81296985D01*
X135955833Y-81181846D01*
X136178486Y-81062836D01*
X136298374Y-80777980D01*
X152801626Y-80777980D01*
X152921514Y-81062836D01*
X153245210Y-81223699D01*
X153594069Y-81318322D01*
X153954684Y-81343067D01*
X154313198Y-81296985D01*
X154655833Y-81181846D01*
X154878486Y-81062836D01*
X154998374Y-80777980D01*
X171401626Y-80777980D01*
X171521514Y-81062836D01*
X171845210Y-81223699D01*
X172194069Y-81318322D01*
X172554684Y-81343067D01*
X172913198Y-81296985D01*
X173255833Y-81181846D01*
X173478486Y-81062836D01*
X173598374Y-80777980D01*
X172500000Y-79679605D01*
X171401626Y-80777980D01*
X154998374Y-80777980D01*
X153900000Y-79679605D01*
X152801626Y-80777980D01*
X136298374Y-80777980D01*
X135200000Y-79679605D01*
X134101626Y-80777980D01*
X115938072Y-80777980D01*
X115938072Y-79554684D01*
X133356933Y-79554684D01*
X133403015Y-79913198D01*
X133518154Y-80255833D01*
X133637164Y-80478486D01*
X133922020Y-80598374D01*
X135020395Y-79500000D01*
X135379605Y-79500000D01*
X136477980Y-80598374D01*
X136762836Y-80478486D01*
X136923699Y-80154790D01*
X137018322Y-79805931D01*
X137035562Y-79554684D01*
X152056933Y-79554684D01*
X152103015Y-79913198D01*
X152218154Y-80255833D01*
X152337164Y-80478486D01*
X152622020Y-80598374D01*
X153720395Y-79500000D01*
X154079605Y-79500000D01*
X155177980Y-80598374D01*
X155462836Y-80478486D01*
X155623699Y-80154790D01*
X155718322Y-79805931D01*
X155735562Y-79554684D01*
X170656933Y-79554684D01*
X170703015Y-79913198D01*
X170818154Y-80255833D01*
X170937164Y-80478486D01*
X171222020Y-80598374D01*
X172320395Y-79500000D01*
X172679605Y-79500000D01*
X173777980Y-80598374D01*
X174062836Y-80478486D01*
X174223699Y-80154790D01*
X174318322Y-79805931D01*
X174343067Y-79445316D01*
X174296985Y-79086802D01*
X174181846Y-78744167D01*
X174062836Y-78521514D01*
X173777980Y-78401626D01*
X172679605Y-79500000D01*
X172320395Y-79500000D01*
X171222020Y-78401626D01*
X170937164Y-78521514D01*
X170776301Y-78845210D01*
X170681678Y-79194069D01*
X170656933Y-79554684D01*
X155735562Y-79554684D01*
X155743067Y-79445316D01*
X155696985Y-79086802D01*
X155581846Y-78744167D01*
X155462836Y-78521514D01*
X155177980Y-78401626D01*
X154079605Y-79500000D01*
X153720395Y-79500000D01*
X152622020Y-78401626D01*
X152337164Y-78521514D01*
X152176301Y-78845210D01*
X152081678Y-79194069D01*
X152056933Y-79554684D01*
X137035562Y-79554684D01*
X137043067Y-79445316D01*
X136996985Y-79086802D01*
X136881846Y-78744167D01*
X136762836Y-78521514D01*
X136477980Y-78401626D01*
X135379605Y-79500000D01*
X135020395Y-79500000D01*
X133922020Y-78401626D01*
X133637164Y-78521514D01*
X133476301Y-78845210D01*
X133381678Y-79194069D01*
X133356933Y-79554684D01*
X115938072Y-79554684D01*
X115938072Y-79200000D01*
X115925812Y-79075518D01*
X115889502Y-78955820D01*
X115830537Y-78845506D01*
X115751185Y-78748815D01*
X115654494Y-78669463D01*
X115544180Y-78610498D01*
X115424482Y-78574188D01*
X115300000Y-78561928D01*
X113700000Y-78561928D01*
X113575518Y-78574188D01*
X113455820Y-78610498D01*
X113345506Y-78669463D01*
X113248815Y-78748815D01*
X113169463Y-78845506D01*
X113110498Y-78955820D01*
X113074188Y-79075518D01*
X113061928Y-79200000D01*
X95425000Y-79200000D01*
X95425000Y-79025098D01*
X95333346Y-78564321D01*
X95153560Y-78130279D01*
X94892550Y-77739651D01*
X94560349Y-77407450D01*
X94169721Y-77146440D01*
X93735679Y-76966654D01*
X93274902Y-76875000D01*
X92805098Y-76875000D01*
X92344321Y-76966654D01*
X91910279Y-77146440D01*
X91519651Y-77407450D01*
X91187450Y-77739651D01*
X90926440Y-78130279D01*
X90746654Y-78564321D01*
X90655000Y-79025098D01*
X78202059Y-79025098D01*
X78247743Y-79016011D01*
X78527095Y-78900299D01*
X78778505Y-78732312D01*
X78992312Y-78518505D01*
X79160299Y-78267095D01*
X79276011Y-77987743D01*
X79335000Y-77691184D01*
X79335000Y-77388816D01*
X79276011Y-77092257D01*
X79160299Y-76812905D01*
X78992312Y-76561495D01*
X78925873Y-76495056D01*
X78944180Y-76489502D01*
X79054494Y-76430537D01*
X79151185Y-76351185D01*
X79230537Y-76254494D01*
X79289502Y-76144180D01*
X79325812Y-76024482D01*
X79338072Y-75900000D01*
X79335000Y-75285750D01*
X79176250Y-75127000D01*
X77927000Y-75127000D01*
X77927000Y-75147000D01*
X77673000Y-75147000D01*
X77673000Y-75127000D01*
X76423750Y-75127000D01*
X76265000Y-75285750D01*
X76261928Y-75900000D01*
X68160000Y-75900000D01*
X68160000Y-74100000D01*
X76261928Y-74100000D01*
X76265000Y-74714250D01*
X76423750Y-74873000D01*
X77673000Y-74873000D01*
X77673000Y-73623750D01*
X77927000Y-73623750D01*
X77927000Y-74873000D01*
X79176250Y-74873000D01*
X79220736Y-74828514D01*
X80465000Y-74828514D01*
X80465000Y-75091486D01*
X80516304Y-75349405D01*
X80616939Y-75592359D01*
X80763038Y-75811013D01*
X80948987Y-75996962D01*
X81167641Y-76143061D01*
X81377530Y-76230000D01*
X81167641Y-76316939D01*
X80948987Y-76463038D01*
X80763038Y-76648987D01*
X80616939Y-76867641D01*
X80516304Y-77110595D01*
X80465000Y-77368514D01*
X80465000Y-77631486D01*
X80516304Y-77889405D01*
X80616939Y-78132359D01*
X80763038Y-78351013D01*
X80948987Y-78536962D01*
X81167641Y-78683061D01*
X81410595Y-78783696D01*
X81668514Y-78835000D01*
X81931486Y-78835000D01*
X82189405Y-78783696D01*
X82432359Y-78683061D01*
X82651013Y-78536962D01*
X82836962Y-78351013D01*
X82983061Y-78132359D01*
X83083696Y-77889405D01*
X83135000Y-77631486D01*
X83135000Y-77368514D01*
X83083696Y-77110595D01*
X82983061Y-76867641D01*
X82884412Y-76720000D01*
X108057319Y-76720000D01*
X108087970Y-77031204D01*
X108178745Y-77330449D01*
X108326155Y-77606235D01*
X108524537Y-77847963D01*
X108703899Y-77995163D01*
X108518685Y-78150563D01*
X108324031Y-78393077D01*
X108180429Y-78668906D01*
X108109437Y-78887020D01*
X108229406Y-79133000D01*
X109573000Y-79133000D01*
X109573000Y-79113000D01*
X109827000Y-79113000D01*
X109827000Y-79133000D01*
X111170594Y-79133000D01*
X111290563Y-78887020D01*
X111219571Y-78668906D01*
X111075969Y-78393077D01*
X110938671Y-78222020D01*
X134101626Y-78222020D01*
X135200000Y-79320395D01*
X136298374Y-78222020D01*
X152801626Y-78222020D01*
X153900000Y-79320395D01*
X154998374Y-78222020D01*
X171401626Y-78222020D01*
X172500000Y-79320395D01*
X173598374Y-78222020D01*
X173478486Y-77937164D01*
X173154790Y-77776301D01*
X172805931Y-77681678D01*
X172445316Y-77656933D01*
X172086802Y-77703015D01*
X171744167Y-77818154D01*
X171521514Y-77937164D01*
X171401626Y-78222020D01*
X154998374Y-78222020D01*
X154878486Y-77937164D01*
X154554790Y-77776301D01*
X154205931Y-77681678D01*
X153845316Y-77656933D01*
X153486802Y-77703015D01*
X153144167Y-77818154D01*
X152921514Y-77937164D01*
X152801626Y-78222020D01*
X136298374Y-78222020D01*
X136178486Y-77937164D01*
X135854790Y-77776301D01*
X135505931Y-77681678D01*
X135145316Y-77656933D01*
X134786802Y-77703015D01*
X134444167Y-77818154D01*
X134221514Y-77937164D01*
X134101626Y-78222020D01*
X110938671Y-78222020D01*
X110881315Y-78150563D01*
X110696101Y-77995163D01*
X110875463Y-77847963D01*
X111073845Y-77606235D01*
X111221255Y-77330449D01*
X111232705Y-77292702D01*
X113886903Y-77292702D01*
X113958486Y-77536671D01*
X114213996Y-77657571D01*
X114488184Y-77726300D01*
X114770512Y-77740217D01*
X115050130Y-77698787D01*
X115316292Y-77603603D01*
X115441514Y-77536671D01*
X115513097Y-77292702D01*
X114700000Y-76479605D01*
X113886903Y-77292702D01*
X111232705Y-77292702D01*
X111312030Y-77031204D01*
X111342681Y-76720000D01*
X111312030Y-76408796D01*
X111300417Y-76370512D01*
X113259783Y-76370512D01*
X113301213Y-76650130D01*
X113396397Y-76916292D01*
X113463329Y-77041514D01*
X113707298Y-77113097D01*
X114520395Y-76300000D01*
X114879605Y-76300000D01*
X115692702Y-77113097D01*
X115936671Y-77041514D01*
X116057571Y-76786004D01*
X116126300Y-76511816D01*
X116140217Y-76229488D01*
X116098787Y-75949870D01*
X116003603Y-75683708D01*
X115936671Y-75558486D01*
X115692702Y-75486903D01*
X114879605Y-76300000D01*
X114520395Y-76300000D01*
X113707298Y-75486903D01*
X113463329Y-75558486D01*
X113342429Y-75813996D01*
X113273700Y-76088184D01*
X113259783Y-76370512D01*
X111300417Y-76370512D01*
X111259424Y-76235377D01*
X112934802Y-74560000D01*
X113261928Y-74560000D01*
X113261928Y-74600000D01*
X113274188Y-74724482D01*
X113310498Y-74844180D01*
X113369463Y-74954494D01*
X113448815Y-75051185D01*
X113545506Y-75130537D01*
X113655820Y-75189502D01*
X113775518Y-75225812D01*
X113900000Y-75238072D01*
X113907215Y-75238072D01*
X113886903Y-75307298D01*
X114700000Y-76120395D01*
X115513097Y-75307298D01*
X115492785Y-75238072D01*
X115500000Y-75238072D01*
X115624482Y-75225812D01*
X115744180Y-75189502D01*
X115854494Y-75130537D01*
X115951185Y-75051185D01*
X116030537Y-74954494D01*
X116089502Y-74844180D01*
X116125812Y-74724482D01*
X116138072Y-74600000D01*
X116138072Y-74300000D01*
X119961928Y-74300000D01*
X119961928Y-76500000D01*
X119974188Y-76624482D01*
X120010498Y-76744180D01*
X120069463Y-76854494D01*
X120148815Y-76951185D01*
X120245506Y-77030537D01*
X120355820Y-77089502D01*
X120475518Y-77125812D01*
X120600000Y-77138072D01*
X122800000Y-77138072D01*
X122924482Y-77125812D01*
X123044180Y-77089502D01*
X123154494Y-77030537D01*
X123251185Y-76951185D01*
X123330537Y-76854494D01*
X123389502Y-76744180D01*
X123425812Y-76624482D01*
X123438072Y-76500000D01*
X123438072Y-74300000D01*
X123425812Y-74175518D01*
X123389502Y-74055820D01*
X123330537Y-73945506D01*
X123251185Y-73848815D01*
X123154494Y-73769463D01*
X123044180Y-73710498D01*
X122924482Y-73674188D01*
X122800000Y-73661928D01*
X120600000Y-73661928D01*
X120475518Y-73674188D01*
X120355820Y-73710498D01*
X120245506Y-73769463D01*
X120148815Y-73848815D01*
X120069463Y-73945506D01*
X120010498Y-74055820D01*
X119974188Y-74175518D01*
X119961928Y-74300000D01*
X116138072Y-74300000D01*
X116138072Y-73298061D01*
X125165000Y-73298061D01*
X125165000Y-73501939D01*
X125204774Y-73701898D01*
X125282795Y-73890256D01*
X125396063Y-74059774D01*
X125440000Y-74103711D01*
X125440001Y-76296288D01*
X125396063Y-76340226D01*
X125282795Y-76509744D01*
X125204774Y-76698102D01*
X125165000Y-76898061D01*
X125165000Y-77101939D01*
X125204774Y-77301898D01*
X125282795Y-77490256D01*
X125396063Y-77659774D01*
X125540226Y-77803937D01*
X125709744Y-77917205D01*
X125898102Y-77995226D01*
X126098061Y-78035000D01*
X126301939Y-78035000D01*
X126501898Y-77995226D01*
X126690256Y-77917205D01*
X126859774Y-77803937D01*
X127003937Y-77659774D01*
X127117205Y-77490256D01*
X127195226Y-77301898D01*
X127235000Y-77101939D01*
X127235000Y-76898061D01*
X127195226Y-76698102D01*
X127117205Y-76509744D01*
X127003937Y-76340226D01*
X126960000Y-76296289D01*
X126960000Y-74103711D01*
X127003937Y-74059774D01*
X127117205Y-73890256D01*
X127195226Y-73701898D01*
X127235000Y-73501939D01*
X127235000Y-73298061D01*
X127195226Y-73098102D01*
X127117205Y-72909744D01*
X127003937Y-72740226D01*
X126859774Y-72596063D01*
X126690256Y-72482795D01*
X126501898Y-72404774D01*
X126301939Y-72365000D01*
X126098061Y-72365000D01*
X125898102Y-72404774D01*
X125709744Y-72482795D01*
X125540226Y-72596063D01*
X125396063Y-72740226D01*
X125282795Y-72909744D01*
X125204774Y-73098102D01*
X125165000Y-73298061D01*
X116138072Y-73298061D01*
X116138072Y-73000000D01*
X116125812Y-72875518D01*
X116089502Y-72755820D01*
X116030537Y-72645506D01*
X115951185Y-72548815D01*
X115854494Y-72469463D01*
X115744180Y-72410498D01*
X115624482Y-72374188D01*
X115500000Y-72361928D01*
X113900000Y-72361928D01*
X113775518Y-72374188D01*
X113655820Y-72410498D01*
X113545506Y-72469463D01*
X113448815Y-72548815D01*
X113369463Y-72645506D01*
X113310498Y-72755820D01*
X113274188Y-72875518D01*
X113261928Y-73000000D01*
X113261928Y-73040000D01*
X112657333Y-73040000D01*
X112620000Y-73036323D01*
X112582667Y-73040000D01*
X112471014Y-73050997D01*
X112327753Y-73094454D01*
X112195724Y-73165026D01*
X112079999Y-73259999D01*
X112056201Y-73288997D01*
X110159233Y-75185965D01*
X110058704Y-75155470D01*
X109825486Y-75132500D01*
X109574514Y-75132500D01*
X109341296Y-75155470D01*
X109042051Y-75246245D01*
X108766265Y-75393655D01*
X108524537Y-75592037D01*
X108326155Y-75833765D01*
X108178745Y-76109551D01*
X108087970Y-76408796D01*
X108057319Y-76720000D01*
X82884412Y-76720000D01*
X82836962Y-76648987D01*
X82651013Y-76463038D01*
X82432359Y-76316939D01*
X82222470Y-76230000D01*
X82432359Y-76143061D01*
X82651013Y-75996962D01*
X82836962Y-75811013D01*
X82983061Y-75592359D01*
X83083696Y-75349405D01*
X83135000Y-75091486D01*
X83135000Y-74898059D01*
X87365000Y-74898059D01*
X87365000Y-75101937D01*
X87404774Y-75301896D01*
X87482795Y-75490254D01*
X87596063Y-75659772D01*
X87740226Y-75803935D01*
X87909744Y-75917203D01*
X88098102Y-75995224D01*
X88298061Y-76034998D01*
X88501939Y-76034998D01*
X88701898Y-75995224D01*
X88890256Y-75917203D01*
X89059774Y-75803935D01*
X89103711Y-75759998D01*
X90096287Y-75759998D01*
X90140226Y-75803937D01*
X90309744Y-75917205D01*
X90498102Y-75995226D01*
X90698061Y-76035000D01*
X90901939Y-76035000D01*
X91101898Y-75995226D01*
X91290256Y-75917205D01*
X91459774Y-75803937D01*
X91603937Y-75659774D01*
X91717205Y-75490256D01*
X91795226Y-75301898D01*
X91835000Y-75101939D01*
X91835000Y-74898061D01*
X91795226Y-74698102D01*
X91717205Y-74509744D01*
X91603937Y-74340226D01*
X91459774Y-74196063D01*
X91290256Y-74082795D01*
X91101898Y-74004774D01*
X90901939Y-73965000D01*
X90698061Y-73965000D01*
X90498102Y-74004774D01*
X90309744Y-74082795D01*
X90140226Y-74196063D01*
X90096291Y-74239998D01*
X89103711Y-74239998D01*
X89059774Y-74196061D01*
X88890256Y-74082793D01*
X88701898Y-74004772D01*
X88501939Y-73964998D01*
X88298061Y-73964998D01*
X88098102Y-74004772D01*
X87909744Y-74082793D01*
X87740226Y-74196061D01*
X87596063Y-74340224D01*
X87482795Y-74509742D01*
X87404774Y-74698100D01*
X87365000Y-74898059D01*
X83135000Y-74898059D01*
X83135000Y-74828514D01*
X83083696Y-74570595D01*
X82983061Y-74327641D01*
X82836962Y-74108987D01*
X82651013Y-73923038D01*
X82432359Y-73776939D01*
X82189405Y-73676304D01*
X81931486Y-73625000D01*
X81668514Y-73625000D01*
X81410595Y-73676304D01*
X81167641Y-73776939D01*
X80948987Y-73923038D01*
X80763038Y-74108987D01*
X80616939Y-74327641D01*
X80516304Y-74570595D01*
X80465000Y-74828514D01*
X79220736Y-74828514D01*
X79335000Y-74714250D01*
X79338072Y-74100000D01*
X79325812Y-73975518D01*
X79289502Y-73855820D01*
X79230537Y-73745506D01*
X79151185Y-73648815D01*
X79054494Y-73569463D01*
X78944180Y-73510498D01*
X78824482Y-73474188D01*
X78700000Y-73461928D01*
X78085750Y-73465000D01*
X77927000Y-73623750D01*
X77673000Y-73623750D01*
X77514250Y-73465000D01*
X76900000Y-73461928D01*
X76775518Y-73474188D01*
X76655820Y-73510498D01*
X76545506Y-73569463D01*
X76448815Y-73648815D01*
X76369463Y-73745506D01*
X76310498Y-73855820D01*
X76274188Y-73975518D01*
X76261928Y-74100000D01*
X68160000Y-74100000D01*
X68160000Y-70629117D01*
X89845000Y-70629117D01*
X89845000Y-70970883D01*
X89911675Y-71306081D01*
X90042463Y-71621831D01*
X90232337Y-71905998D01*
X90474002Y-72147663D01*
X90758169Y-72337537D01*
X91073919Y-72468325D01*
X91409117Y-72535000D01*
X91750883Y-72535000D01*
X92086081Y-72468325D01*
X92401831Y-72337537D01*
X92685998Y-72147663D01*
X92927663Y-71905998D01*
X93117537Y-71621831D01*
X93248325Y-71306081D01*
X93315000Y-70970883D01*
X93315000Y-70629117D01*
X93248325Y-70293919D01*
X93117537Y-69978169D01*
X92931671Y-69700000D01*
X97461928Y-69700000D01*
X97461928Y-71900000D01*
X97474188Y-72024482D01*
X97510498Y-72144180D01*
X97569463Y-72254494D01*
X97648815Y-72351185D01*
X97745506Y-72430537D01*
X97855820Y-72489502D01*
X97975518Y-72525812D01*
X98100000Y-72538072D01*
X100300000Y-72538072D01*
X100424482Y-72525812D01*
X100544180Y-72489502D01*
X100654494Y-72430537D01*
X100751185Y-72351185D01*
X100830537Y-72254494D01*
X100889502Y-72144180D01*
X100925812Y-72024482D01*
X100938072Y-71900000D01*
X100938072Y-70429117D01*
X101745000Y-70429117D01*
X101745000Y-70770883D01*
X101811675Y-71106081D01*
X101942463Y-71421831D01*
X102132337Y-71705998D01*
X102374002Y-71947663D01*
X102658169Y-72137537D01*
X102973919Y-72268325D01*
X103309117Y-72335000D01*
X103650883Y-72335000D01*
X103986081Y-72268325D01*
X104301831Y-72137537D01*
X104585998Y-71947663D01*
X104827663Y-71705998D01*
X105017537Y-71421831D01*
X105148325Y-71106081D01*
X105215000Y-70770883D01*
X105215000Y-70429117D01*
X105148325Y-70093919D01*
X105017537Y-69778169D01*
X104831671Y-69500000D01*
X109361928Y-69500000D01*
X109361928Y-71700000D01*
X109374188Y-71824482D01*
X109410498Y-71944180D01*
X109469463Y-72054494D01*
X109548815Y-72151185D01*
X109645506Y-72230537D01*
X109755820Y-72289502D01*
X109875518Y-72325812D01*
X110000000Y-72338072D01*
X112200000Y-72338072D01*
X112324482Y-72325812D01*
X112444180Y-72289502D01*
X112554494Y-72230537D01*
X112651185Y-72151185D01*
X112730537Y-72054494D01*
X112789502Y-71944180D01*
X112825812Y-71824482D01*
X112838072Y-71700000D01*
X112838072Y-70800000D01*
X133361928Y-70800000D01*
X133361928Y-73200000D01*
X133374188Y-73324482D01*
X133410498Y-73444180D01*
X133469463Y-73554494D01*
X133548815Y-73651185D01*
X133645506Y-73730537D01*
X133755820Y-73789502D01*
X133875518Y-73825812D01*
X134000000Y-73838072D01*
X136400000Y-73838072D01*
X136524482Y-73825812D01*
X136644180Y-73789502D01*
X136754494Y-73730537D01*
X136851185Y-73651185D01*
X136930537Y-73554494D01*
X136989502Y-73444180D01*
X137025812Y-73324482D01*
X137038072Y-73200000D01*
X137038072Y-70800000D01*
X152061928Y-70800000D01*
X152061928Y-73200000D01*
X152074188Y-73324482D01*
X152110498Y-73444180D01*
X152169463Y-73554494D01*
X152248815Y-73651185D01*
X152345506Y-73730537D01*
X152455820Y-73789502D01*
X152575518Y-73825812D01*
X152700000Y-73838072D01*
X155100000Y-73838072D01*
X155224482Y-73825812D01*
X155344180Y-73789502D01*
X155454494Y-73730537D01*
X155551185Y-73651185D01*
X155630537Y-73554494D01*
X155689502Y-73444180D01*
X155725812Y-73324482D01*
X155738072Y-73200000D01*
X155738072Y-70800000D01*
X170661928Y-70800000D01*
X170661928Y-73200000D01*
X170674188Y-73324482D01*
X170710498Y-73444180D01*
X170769463Y-73554494D01*
X170848815Y-73651185D01*
X170945506Y-73730537D01*
X171055820Y-73789502D01*
X171175518Y-73825812D01*
X171300000Y-73838072D01*
X173700000Y-73838072D01*
X173824482Y-73825812D01*
X173944180Y-73789502D01*
X174054494Y-73730537D01*
X174151185Y-73651185D01*
X174230537Y-73554494D01*
X174289502Y-73444180D01*
X174325812Y-73324482D01*
X174338072Y-73200000D01*
X174338072Y-70800000D01*
X174325812Y-70675518D01*
X174289502Y-70555820D01*
X174230537Y-70445506D01*
X174151185Y-70348815D01*
X174054494Y-70269463D01*
X173944180Y-70210498D01*
X173824482Y-70174188D01*
X173700000Y-70161928D01*
X171300000Y-70161928D01*
X171175518Y-70174188D01*
X171055820Y-70210498D01*
X170945506Y-70269463D01*
X170848815Y-70348815D01*
X170769463Y-70445506D01*
X170710498Y-70555820D01*
X170674188Y-70675518D01*
X170661928Y-70800000D01*
X155738072Y-70800000D01*
X155725812Y-70675518D01*
X155689502Y-70555820D01*
X155630537Y-70445506D01*
X155551185Y-70348815D01*
X155454494Y-70269463D01*
X155344180Y-70210498D01*
X155224482Y-70174188D01*
X155100000Y-70161928D01*
X152700000Y-70161928D01*
X152575518Y-70174188D01*
X152455820Y-70210498D01*
X152345506Y-70269463D01*
X152248815Y-70348815D01*
X152169463Y-70445506D01*
X152110498Y-70555820D01*
X152074188Y-70675518D01*
X152061928Y-70800000D01*
X137038072Y-70800000D01*
X137025812Y-70675518D01*
X136989502Y-70555820D01*
X136930537Y-70445506D01*
X136851185Y-70348815D01*
X136754494Y-70269463D01*
X136644180Y-70210498D01*
X136524482Y-70174188D01*
X136400000Y-70161928D01*
X134000000Y-70161928D01*
X133875518Y-70174188D01*
X133755820Y-70210498D01*
X133645506Y-70269463D01*
X133548815Y-70348815D01*
X133469463Y-70445506D01*
X133410498Y-70555820D01*
X133374188Y-70675518D01*
X133361928Y-70800000D01*
X112838072Y-70800000D01*
X112838072Y-69500000D01*
X112825812Y-69375518D01*
X112789502Y-69255820D01*
X112730537Y-69145506D01*
X112651185Y-69048815D01*
X112554494Y-68969463D01*
X112444180Y-68910498D01*
X112324482Y-68874188D01*
X112200000Y-68861928D01*
X110000000Y-68861928D01*
X109875518Y-68874188D01*
X109755820Y-68910498D01*
X109645506Y-68969463D01*
X109548815Y-69048815D01*
X109469463Y-69145506D01*
X109410498Y-69255820D01*
X109374188Y-69375518D01*
X109361928Y-69500000D01*
X104831671Y-69500000D01*
X104827663Y-69494002D01*
X104585998Y-69252337D01*
X104301831Y-69062463D01*
X103986081Y-68931675D01*
X103650883Y-68865000D01*
X103309117Y-68865000D01*
X102973919Y-68931675D01*
X102658169Y-69062463D01*
X102374002Y-69252337D01*
X102132337Y-69494002D01*
X101942463Y-69778169D01*
X101811675Y-70093919D01*
X101745000Y-70429117D01*
X100938072Y-70429117D01*
X100938072Y-69700000D01*
X100925812Y-69575518D01*
X100889502Y-69455820D01*
X100830537Y-69345506D01*
X100751185Y-69248815D01*
X100654494Y-69169463D01*
X100544180Y-69110498D01*
X100424482Y-69074188D01*
X100300000Y-69061928D01*
X98100000Y-69061928D01*
X97975518Y-69074188D01*
X97855820Y-69110498D01*
X97745506Y-69169463D01*
X97648815Y-69248815D01*
X97569463Y-69345506D01*
X97510498Y-69455820D01*
X97474188Y-69575518D01*
X97461928Y-69700000D01*
X92931671Y-69700000D01*
X92927663Y-69694002D01*
X92685998Y-69452337D01*
X92401831Y-69262463D01*
X92086081Y-69131675D01*
X91750883Y-69065000D01*
X91409117Y-69065000D01*
X91073919Y-69131675D01*
X90758169Y-69262463D01*
X90474002Y-69452337D01*
X90232337Y-69694002D01*
X90042463Y-69978169D01*
X89911675Y-70293919D01*
X89845000Y-70629117D01*
X68160000Y-70629117D01*
X68160000Y-62013740D01*
X99175000Y-62013740D01*
X99175000Y-62306260D01*
X99232068Y-62593158D01*
X99344010Y-62863411D01*
X99506525Y-63106632D01*
X99713368Y-63313475D01*
X99956589Y-63475990D01*
X100226842Y-63587932D01*
X100513740Y-63645000D01*
X100806260Y-63645000D01*
X101093158Y-63587932D01*
X101363411Y-63475990D01*
X101606632Y-63313475D01*
X101813475Y-63106632D01*
X101930000Y-62932240D01*
X102046525Y-63106632D01*
X102253368Y-63313475D01*
X102496589Y-63475990D01*
X102766842Y-63587932D01*
X103053740Y-63645000D01*
X103346260Y-63645000D01*
X103633158Y-63587932D01*
X103903411Y-63475990D01*
X104146632Y-63313475D01*
X104353475Y-63106632D01*
X104515990Y-62863411D01*
X104627932Y-62593158D01*
X104685000Y-62306260D01*
X104685000Y-62013740D01*
X114175000Y-62013740D01*
X114175000Y-62306260D01*
X114232068Y-62593158D01*
X114344010Y-62863411D01*
X114506525Y-63106632D01*
X114713368Y-63313475D01*
X114956589Y-63475990D01*
X115226842Y-63587932D01*
X115513740Y-63645000D01*
X115806260Y-63645000D01*
X116093158Y-63587932D01*
X116363411Y-63475990D01*
X116606632Y-63313475D01*
X116813475Y-63106632D01*
X116930000Y-62932240D01*
X117046525Y-63106632D01*
X117253368Y-63313475D01*
X117496589Y-63475990D01*
X117766842Y-63587932D01*
X118053740Y-63645000D01*
X118346260Y-63645000D01*
X118633158Y-63587932D01*
X118903411Y-63475990D01*
X119146632Y-63313475D01*
X119353475Y-63106632D01*
X119515990Y-62863411D01*
X119627932Y-62593158D01*
X119685000Y-62306260D01*
X119685000Y-62013740D01*
X129175000Y-62013740D01*
X129175000Y-62306260D01*
X129232068Y-62593158D01*
X129344010Y-62863411D01*
X129506525Y-63106632D01*
X129713368Y-63313475D01*
X129956589Y-63475990D01*
X130226842Y-63587932D01*
X130513740Y-63645000D01*
X130806260Y-63645000D01*
X131093158Y-63587932D01*
X131363411Y-63475990D01*
X131606632Y-63313475D01*
X131813475Y-63106632D01*
X131930000Y-62932240D01*
X132046525Y-63106632D01*
X132253368Y-63313475D01*
X132496589Y-63475990D01*
X132766842Y-63587932D01*
X133053740Y-63645000D01*
X133346260Y-63645000D01*
X133633158Y-63587932D01*
X133903411Y-63475990D01*
X134146632Y-63313475D01*
X134353475Y-63106632D01*
X134515990Y-62863411D01*
X134627932Y-62593158D01*
X134685000Y-62306260D01*
X134685000Y-62013740D01*
X144175000Y-62013740D01*
X144175000Y-62306260D01*
X144232068Y-62593158D01*
X144344010Y-62863411D01*
X144506525Y-63106632D01*
X144713368Y-63313475D01*
X144956589Y-63475990D01*
X145226842Y-63587932D01*
X145513740Y-63645000D01*
X145806260Y-63645000D01*
X146093158Y-63587932D01*
X146363411Y-63475990D01*
X146606632Y-63313475D01*
X146813475Y-63106632D01*
X146930000Y-62932240D01*
X147046525Y-63106632D01*
X147253368Y-63313475D01*
X147496589Y-63475990D01*
X147766842Y-63587932D01*
X148053740Y-63645000D01*
X148346260Y-63645000D01*
X148633158Y-63587932D01*
X148903411Y-63475990D01*
X149146632Y-63313475D01*
X149353475Y-63106632D01*
X149515990Y-62863411D01*
X149627932Y-62593158D01*
X149685000Y-62306260D01*
X149685000Y-62013740D01*
X159175000Y-62013740D01*
X159175000Y-62306260D01*
X159232068Y-62593158D01*
X159344010Y-62863411D01*
X159506525Y-63106632D01*
X159713368Y-63313475D01*
X159956589Y-63475990D01*
X160226842Y-63587932D01*
X160513740Y-63645000D01*
X160806260Y-63645000D01*
X161093158Y-63587932D01*
X161363411Y-63475990D01*
X161606632Y-63313475D01*
X161813475Y-63106632D01*
X161930000Y-62932240D01*
X162046525Y-63106632D01*
X162253368Y-63313475D01*
X162496589Y-63475990D01*
X162766842Y-63587932D01*
X163053740Y-63645000D01*
X163346260Y-63645000D01*
X163633158Y-63587932D01*
X163903411Y-63475990D01*
X164146632Y-63313475D01*
X164353475Y-63106632D01*
X164515990Y-62863411D01*
X164627932Y-62593158D01*
X164685000Y-62306260D01*
X164685000Y-62013740D01*
X174175000Y-62013740D01*
X174175000Y-62306260D01*
X174232068Y-62593158D01*
X174344010Y-62863411D01*
X174506525Y-63106632D01*
X174713368Y-63313475D01*
X174956589Y-63475990D01*
X175226842Y-63587932D01*
X175513740Y-63645000D01*
X175806260Y-63645000D01*
X176093158Y-63587932D01*
X176363411Y-63475990D01*
X176606632Y-63313475D01*
X176813475Y-63106632D01*
X176930000Y-62932240D01*
X177046525Y-63106632D01*
X177253368Y-63313475D01*
X177496589Y-63475990D01*
X177766842Y-63587932D01*
X178053740Y-63645000D01*
X178346260Y-63645000D01*
X178633158Y-63587932D01*
X178903411Y-63475990D01*
X179146632Y-63313475D01*
X179353475Y-63106632D01*
X179515990Y-62863411D01*
X179627932Y-62593158D01*
X179685000Y-62306260D01*
X179685000Y-62013740D01*
X179627932Y-61726842D01*
X179515990Y-61456589D01*
X179353475Y-61213368D01*
X179146632Y-61006525D01*
X178964466Y-60884805D01*
X179081355Y-60815178D01*
X179297588Y-60620269D01*
X179471641Y-60386920D01*
X179596825Y-60124099D01*
X179641476Y-59976890D01*
X179520155Y-59747000D01*
X178327000Y-59747000D01*
X178327000Y-59767000D01*
X178073000Y-59767000D01*
X178073000Y-59747000D01*
X175787000Y-59747000D01*
X175787000Y-59767000D01*
X175533000Y-59767000D01*
X175533000Y-59747000D01*
X174339845Y-59747000D01*
X174218524Y-59976890D01*
X174263175Y-60124099D01*
X174388359Y-60386920D01*
X174562412Y-60620269D01*
X174778645Y-60815178D01*
X174895534Y-60884805D01*
X174713368Y-61006525D01*
X174506525Y-61213368D01*
X174344010Y-61456589D01*
X174232068Y-61726842D01*
X174175000Y-62013740D01*
X164685000Y-62013740D01*
X164627932Y-61726842D01*
X164515990Y-61456589D01*
X164353475Y-61213368D01*
X164146632Y-61006525D01*
X163964466Y-60884805D01*
X164081355Y-60815178D01*
X164297588Y-60620269D01*
X164471641Y-60386920D01*
X164596825Y-60124099D01*
X164641476Y-59976890D01*
X164520155Y-59747000D01*
X163327000Y-59747000D01*
X163327000Y-59767000D01*
X163073000Y-59767000D01*
X163073000Y-59747000D01*
X160787000Y-59747000D01*
X160787000Y-59767000D01*
X160533000Y-59767000D01*
X160533000Y-59747000D01*
X159339845Y-59747000D01*
X159218524Y-59976890D01*
X159263175Y-60124099D01*
X159388359Y-60386920D01*
X159562412Y-60620269D01*
X159778645Y-60815178D01*
X159895534Y-60884805D01*
X159713368Y-61006525D01*
X159506525Y-61213368D01*
X159344010Y-61456589D01*
X159232068Y-61726842D01*
X159175000Y-62013740D01*
X149685000Y-62013740D01*
X149627932Y-61726842D01*
X149515990Y-61456589D01*
X149353475Y-61213368D01*
X149146632Y-61006525D01*
X148964466Y-60884805D01*
X149081355Y-60815178D01*
X149297588Y-60620269D01*
X149471641Y-60386920D01*
X149596825Y-60124099D01*
X149641476Y-59976890D01*
X149520155Y-59747000D01*
X148327000Y-59747000D01*
X148327000Y-59767000D01*
X148073000Y-59767000D01*
X148073000Y-59747000D01*
X145787000Y-59747000D01*
X145787000Y-59767000D01*
X145533000Y-59767000D01*
X145533000Y-59747000D01*
X144339845Y-59747000D01*
X144218524Y-59976890D01*
X144263175Y-60124099D01*
X144388359Y-60386920D01*
X144562412Y-60620269D01*
X144778645Y-60815178D01*
X144895534Y-60884805D01*
X144713368Y-61006525D01*
X144506525Y-61213368D01*
X144344010Y-61456589D01*
X144232068Y-61726842D01*
X144175000Y-62013740D01*
X134685000Y-62013740D01*
X134627932Y-61726842D01*
X134515990Y-61456589D01*
X134353475Y-61213368D01*
X134146632Y-61006525D01*
X133964466Y-60884805D01*
X134081355Y-60815178D01*
X134297588Y-60620269D01*
X134471641Y-60386920D01*
X134596825Y-60124099D01*
X134641476Y-59976890D01*
X134520155Y-59747000D01*
X133327000Y-59747000D01*
X133327000Y-59767000D01*
X133073000Y-59767000D01*
X133073000Y-59747000D01*
X130787000Y-59747000D01*
X130787000Y-59767000D01*
X130533000Y-59767000D01*
X130533000Y-59747000D01*
X129339845Y-59747000D01*
X129218524Y-59976890D01*
X129263175Y-60124099D01*
X129388359Y-60386920D01*
X129562412Y-60620269D01*
X129778645Y-60815178D01*
X129895534Y-60884805D01*
X129713368Y-61006525D01*
X129506525Y-61213368D01*
X129344010Y-61456589D01*
X129232068Y-61726842D01*
X129175000Y-62013740D01*
X119685000Y-62013740D01*
X119627932Y-61726842D01*
X119515990Y-61456589D01*
X119353475Y-61213368D01*
X119146632Y-61006525D01*
X118964466Y-60884805D01*
X119081355Y-60815178D01*
X119297588Y-60620269D01*
X119471641Y-60386920D01*
X119596825Y-60124099D01*
X119641476Y-59976890D01*
X119520155Y-59747000D01*
X118327000Y-59747000D01*
X118327000Y-59767000D01*
X118073000Y-59767000D01*
X118073000Y-59747000D01*
X115787000Y-59747000D01*
X115787000Y-59767000D01*
X115533000Y-59767000D01*
X115533000Y-59747000D01*
X114339845Y-59747000D01*
X114218524Y-59976890D01*
X114263175Y-60124099D01*
X114388359Y-60386920D01*
X114562412Y-60620269D01*
X114778645Y-60815178D01*
X114895534Y-60884805D01*
X114713368Y-61006525D01*
X114506525Y-61213368D01*
X114344010Y-61456589D01*
X114232068Y-61726842D01*
X114175000Y-62013740D01*
X104685000Y-62013740D01*
X104627932Y-61726842D01*
X104515990Y-61456589D01*
X104353475Y-61213368D01*
X104146632Y-61006525D01*
X103964466Y-60884805D01*
X104081355Y-60815178D01*
X104297588Y-60620269D01*
X104471641Y-60386920D01*
X104596825Y-60124099D01*
X104641476Y-59976890D01*
X104520155Y-59747000D01*
X103327000Y-59747000D01*
X103327000Y-59767000D01*
X103073000Y-59767000D01*
X103073000Y-59747000D01*
X100787000Y-59747000D01*
X100787000Y-59767000D01*
X100533000Y-59767000D01*
X100533000Y-59747000D01*
X99339845Y-59747000D01*
X99218524Y-59976890D01*
X99263175Y-60124099D01*
X99388359Y-60386920D01*
X99562412Y-60620269D01*
X99778645Y-60815178D01*
X99895534Y-60884805D01*
X99713368Y-61006525D01*
X99506525Y-61213368D01*
X99344010Y-61456589D01*
X99232068Y-61726842D01*
X99175000Y-62013740D01*
X68160000Y-62013740D01*
X68160000Y-57789721D01*
X81865000Y-57789721D01*
X81865000Y-58210279D01*
X81947047Y-58622756D01*
X82107988Y-59011302D01*
X82341637Y-59360983D01*
X82639017Y-59658363D01*
X82988698Y-59892012D01*
X83377244Y-60052953D01*
X83789721Y-60135000D01*
X84210279Y-60135000D01*
X84622756Y-60052953D01*
X85011302Y-59892012D01*
X85360983Y-59658363D01*
X85658363Y-59360983D01*
X85892012Y-59011302D01*
X86052953Y-58622756D01*
X86135000Y-58210279D01*
X86135000Y-57789721D01*
X86052953Y-57377244D01*
X85892012Y-56988698D01*
X85807566Y-56862314D01*
X89532905Y-56862314D01*
X89532905Y-57387686D01*
X89635400Y-57902963D01*
X89836451Y-58388343D01*
X90128332Y-58825174D01*
X90499826Y-59196668D01*
X90936657Y-59488549D01*
X91422037Y-59689600D01*
X91937314Y-59792095D01*
X92462686Y-59792095D01*
X92977963Y-59689600D01*
X93463343Y-59488549D01*
X93900174Y-59196668D01*
X94271668Y-58825174D01*
X94563549Y-58388343D01*
X94764600Y-57902963D01*
X94857307Y-57436890D01*
X99218524Y-57436890D01*
X99263175Y-57584099D01*
X99388359Y-57846920D01*
X99562412Y-58080269D01*
X99778645Y-58275178D01*
X99904255Y-58350000D01*
X99778645Y-58424822D01*
X99562412Y-58619731D01*
X99388359Y-58853080D01*
X99263175Y-59115901D01*
X99218524Y-59263110D01*
X99339845Y-59493000D01*
X100533000Y-59493000D01*
X100533000Y-57207000D01*
X100787000Y-57207000D01*
X100787000Y-59493000D01*
X103073000Y-59493000D01*
X103073000Y-57207000D01*
X103327000Y-57207000D01*
X103327000Y-59493000D01*
X104520155Y-59493000D01*
X104641476Y-59263110D01*
X104596825Y-59115901D01*
X104471641Y-58853080D01*
X104297588Y-58619731D01*
X104081355Y-58424822D01*
X103955745Y-58350000D01*
X104081355Y-58275178D01*
X104297588Y-58080269D01*
X104471641Y-57846920D01*
X104596825Y-57584099D01*
X104641476Y-57436890D01*
X104520155Y-57207000D01*
X103327000Y-57207000D01*
X103073000Y-57207000D01*
X100787000Y-57207000D01*
X100533000Y-57207000D01*
X99339845Y-57207000D01*
X99218524Y-57436890D01*
X94857307Y-57436890D01*
X94867095Y-57387686D01*
X94867095Y-56862314D01*
X94764600Y-56347037D01*
X94563549Y-55861657D01*
X94271668Y-55424826D01*
X93900174Y-55053332D01*
X93666042Y-54896890D01*
X99218524Y-54896890D01*
X99263175Y-55044099D01*
X99388359Y-55306920D01*
X99562412Y-55540269D01*
X99778645Y-55735178D01*
X99904255Y-55810000D01*
X99778645Y-55884822D01*
X99562412Y-56079731D01*
X99388359Y-56313080D01*
X99263175Y-56575901D01*
X99218524Y-56723110D01*
X99339845Y-56953000D01*
X100533000Y-56953000D01*
X100533000Y-54667000D01*
X100787000Y-54667000D01*
X100787000Y-56953000D01*
X103073000Y-56953000D01*
X103073000Y-54667000D01*
X103327000Y-54667000D01*
X103327000Y-56953000D01*
X104520155Y-56953000D01*
X104568013Y-56862314D01*
X106732905Y-56862314D01*
X106732905Y-57387686D01*
X106835400Y-57902963D01*
X107036451Y-58388343D01*
X107328332Y-58825174D01*
X107699826Y-59196668D01*
X108136657Y-59488549D01*
X108622037Y-59689600D01*
X109137314Y-59792095D01*
X109662686Y-59792095D01*
X110177963Y-59689600D01*
X110663343Y-59488549D01*
X111100174Y-59196668D01*
X111471668Y-58825174D01*
X111763549Y-58388343D01*
X111964600Y-57902963D01*
X112057307Y-57436890D01*
X114218524Y-57436890D01*
X114263175Y-57584099D01*
X114388359Y-57846920D01*
X114562412Y-58080269D01*
X114778645Y-58275178D01*
X114904255Y-58350000D01*
X114778645Y-58424822D01*
X114562412Y-58619731D01*
X114388359Y-58853080D01*
X114263175Y-59115901D01*
X114218524Y-59263110D01*
X114339845Y-59493000D01*
X115533000Y-59493000D01*
X115533000Y-57207000D01*
X115787000Y-57207000D01*
X115787000Y-59493000D01*
X118073000Y-59493000D01*
X118073000Y-57207000D01*
X118327000Y-57207000D01*
X118327000Y-59493000D01*
X119520155Y-59493000D01*
X119641476Y-59263110D01*
X119596825Y-59115901D01*
X119471641Y-58853080D01*
X119297588Y-58619731D01*
X119081355Y-58424822D01*
X118955745Y-58350000D01*
X119081355Y-58275178D01*
X119297588Y-58080269D01*
X119471641Y-57846920D01*
X119596825Y-57584099D01*
X119641476Y-57436890D01*
X119520155Y-57207000D01*
X118327000Y-57207000D01*
X118073000Y-57207000D01*
X115787000Y-57207000D01*
X115533000Y-57207000D01*
X114339845Y-57207000D01*
X114218524Y-57436890D01*
X112057307Y-57436890D01*
X112067095Y-57387686D01*
X112067095Y-56862314D01*
X111964600Y-56347037D01*
X111763549Y-55861657D01*
X111471668Y-55424826D01*
X111100174Y-55053332D01*
X110866042Y-54896890D01*
X114218524Y-54896890D01*
X114263175Y-55044099D01*
X114388359Y-55306920D01*
X114562412Y-55540269D01*
X114778645Y-55735178D01*
X114904255Y-55810000D01*
X114778645Y-55884822D01*
X114562412Y-56079731D01*
X114388359Y-56313080D01*
X114263175Y-56575901D01*
X114218524Y-56723110D01*
X114339845Y-56953000D01*
X115533000Y-56953000D01*
X115533000Y-54667000D01*
X115787000Y-54667000D01*
X115787000Y-56953000D01*
X118073000Y-56953000D01*
X118073000Y-54667000D01*
X118327000Y-54667000D01*
X118327000Y-56953000D01*
X119520155Y-56953000D01*
X119594399Y-56812314D01*
X121722905Y-56812314D01*
X121722905Y-57337686D01*
X121825400Y-57852963D01*
X122026451Y-58338343D01*
X122318332Y-58775174D01*
X122689826Y-59146668D01*
X123126657Y-59438549D01*
X123612037Y-59639600D01*
X124127314Y-59742095D01*
X124652686Y-59742095D01*
X125167963Y-59639600D01*
X125653343Y-59438549D01*
X126090174Y-59146668D01*
X126461668Y-58775174D01*
X126753549Y-58338343D01*
X126954600Y-57852963D01*
X127037362Y-57436890D01*
X129218524Y-57436890D01*
X129263175Y-57584099D01*
X129388359Y-57846920D01*
X129562412Y-58080269D01*
X129778645Y-58275178D01*
X129904255Y-58350000D01*
X129778645Y-58424822D01*
X129562412Y-58619731D01*
X129388359Y-58853080D01*
X129263175Y-59115901D01*
X129218524Y-59263110D01*
X129339845Y-59493000D01*
X130533000Y-59493000D01*
X130533000Y-57207000D01*
X130787000Y-57207000D01*
X130787000Y-59493000D01*
X133073000Y-59493000D01*
X133073000Y-57207000D01*
X133327000Y-57207000D01*
X133327000Y-59493000D01*
X134520155Y-59493000D01*
X134641476Y-59263110D01*
X134596825Y-59115901D01*
X134471641Y-58853080D01*
X134297588Y-58619731D01*
X134081355Y-58424822D01*
X133955745Y-58350000D01*
X134081355Y-58275178D01*
X134297588Y-58080269D01*
X134471641Y-57846920D01*
X134596825Y-57584099D01*
X134641476Y-57436890D01*
X134520155Y-57207000D01*
X133327000Y-57207000D01*
X133073000Y-57207000D01*
X130787000Y-57207000D01*
X130533000Y-57207000D01*
X129339845Y-57207000D01*
X129218524Y-57436890D01*
X127037362Y-57436890D01*
X127057095Y-57337686D01*
X127057095Y-56812314D01*
X126954600Y-56297037D01*
X126753549Y-55811657D01*
X126461668Y-55374826D01*
X126090174Y-55003332D01*
X125930873Y-54896890D01*
X129218524Y-54896890D01*
X129263175Y-55044099D01*
X129388359Y-55306920D01*
X129562412Y-55540269D01*
X129778645Y-55735178D01*
X129904255Y-55810000D01*
X129778645Y-55884822D01*
X129562412Y-56079731D01*
X129388359Y-56313080D01*
X129263175Y-56575901D01*
X129218524Y-56723110D01*
X129339845Y-56953000D01*
X130533000Y-56953000D01*
X130533000Y-54667000D01*
X130787000Y-54667000D01*
X130787000Y-56953000D01*
X133073000Y-56953000D01*
X133073000Y-54667000D01*
X133327000Y-54667000D01*
X133327000Y-56953000D01*
X134520155Y-56953000D01*
X134594399Y-56812314D01*
X136722905Y-56812314D01*
X136722905Y-57337686D01*
X136825400Y-57852963D01*
X137026451Y-58338343D01*
X137318332Y-58775174D01*
X137689826Y-59146668D01*
X138126657Y-59438549D01*
X138612037Y-59639600D01*
X139127314Y-59742095D01*
X139652686Y-59742095D01*
X140167963Y-59639600D01*
X140653343Y-59438549D01*
X141090174Y-59146668D01*
X141461668Y-58775174D01*
X141753549Y-58338343D01*
X141954600Y-57852963D01*
X142037362Y-57436890D01*
X144218524Y-57436890D01*
X144263175Y-57584099D01*
X144388359Y-57846920D01*
X144562412Y-58080269D01*
X144778645Y-58275178D01*
X144904255Y-58350000D01*
X144778645Y-58424822D01*
X144562412Y-58619731D01*
X144388359Y-58853080D01*
X144263175Y-59115901D01*
X144218524Y-59263110D01*
X144339845Y-59493000D01*
X145533000Y-59493000D01*
X145533000Y-57207000D01*
X145787000Y-57207000D01*
X145787000Y-59493000D01*
X148073000Y-59493000D01*
X148073000Y-57207000D01*
X148327000Y-57207000D01*
X148327000Y-59493000D01*
X149520155Y-59493000D01*
X149641476Y-59263110D01*
X149596825Y-59115901D01*
X149471641Y-58853080D01*
X149297588Y-58619731D01*
X149081355Y-58424822D01*
X148955745Y-58350000D01*
X149081355Y-58275178D01*
X149297588Y-58080269D01*
X149471641Y-57846920D01*
X149596825Y-57584099D01*
X149641476Y-57436890D01*
X149520155Y-57207000D01*
X148327000Y-57207000D01*
X148073000Y-57207000D01*
X145787000Y-57207000D01*
X145533000Y-57207000D01*
X144339845Y-57207000D01*
X144218524Y-57436890D01*
X142037362Y-57436890D01*
X142057095Y-57337686D01*
X142057095Y-56812314D01*
X141954600Y-56297037D01*
X141753549Y-55811657D01*
X141461668Y-55374826D01*
X141090174Y-55003332D01*
X140930873Y-54896890D01*
X144218524Y-54896890D01*
X144263175Y-55044099D01*
X144388359Y-55306920D01*
X144562412Y-55540269D01*
X144778645Y-55735178D01*
X144904255Y-55810000D01*
X144778645Y-55884822D01*
X144562412Y-56079731D01*
X144388359Y-56313080D01*
X144263175Y-56575901D01*
X144218524Y-56723110D01*
X144339845Y-56953000D01*
X145533000Y-56953000D01*
X145533000Y-54667000D01*
X145787000Y-54667000D01*
X145787000Y-56953000D01*
X148073000Y-56953000D01*
X148073000Y-54667000D01*
X148327000Y-54667000D01*
X148327000Y-56953000D01*
X149520155Y-56953000D01*
X149594399Y-56812314D01*
X151722905Y-56812314D01*
X151722905Y-57337686D01*
X151825400Y-57852963D01*
X152026451Y-58338343D01*
X152318332Y-58775174D01*
X152689826Y-59146668D01*
X153126657Y-59438549D01*
X153612037Y-59639600D01*
X154127314Y-59742095D01*
X154652686Y-59742095D01*
X155167963Y-59639600D01*
X155653343Y-59438549D01*
X156090174Y-59146668D01*
X156461668Y-58775174D01*
X156753549Y-58338343D01*
X156954600Y-57852963D01*
X157037362Y-57436890D01*
X159218524Y-57436890D01*
X159263175Y-57584099D01*
X159388359Y-57846920D01*
X159562412Y-58080269D01*
X159778645Y-58275178D01*
X159904255Y-58350000D01*
X159778645Y-58424822D01*
X159562412Y-58619731D01*
X159388359Y-58853080D01*
X159263175Y-59115901D01*
X159218524Y-59263110D01*
X159339845Y-59493000D01*
X160533000Y-59493000D01*
X160533000Y-57207000D01*
X160787000Y-57207000D01*
X160787000Y-59493000D01*
X163073000Y-59493000D01*
X163073000Y-57207000D01*
X163327000Y-57207000D01*
X163327000Y-59493000D01*
X164520155Y-59493000D01*
X164641476Y-59263110D01*
X164596825Y-59115901D01*
X164471641Y-58853080D01*
X164297588Y-58619731D01*
X164081355Y-58424822D01*
X163955745Y-58350000D01*
X164081355Y-58275178D01*
X164297588Y-58080269D01*
X164471641Y-57846920D01*
X164596825Y-57584099D01*
X164641476Y-57436890D01*
X164520155Y-57207000D01*
X163327000Y-57207000D01*
X163073000Y-57207000D01*
X160787000Y-57207000D01*
X160533000Y-57207000D01*
X159339845Y-57207000D01*
X159218524Y-57436890D01*
X157037362Y-57436890D01*
X157057095Y-57337686D01*
X157057095Y-56812314D01*
X156954600Y-56297037D01*
X156753549Y-55811657D01*
X156461668Y-55374826D01*
X156090174Y-55003332D01*
X155930873Y-54896890D01*
X159218524Y-54896890D01*
X159263175Y-55044099D01*
X159388359Y-55306920D01*
X159562412Y-55540269D01*
X159778645Y-55735178D01*
X159904255Y-55810000D01*
X159778645Y-55884822D01*
X159562412Y-56079731D01*
X159388359Y-56313080D01*
X159263175Y-56575901D01*
X159218524Y-56723110D01*
X159339845Y-56953000D01*
X160533000Y-56953000D01*
X160533000Y-54667000D01*
X160787000Y-54667000D01*
X160787000Y-56953000D01*
X163073000Y-56953000D01*
X163073000Y-54667000D01*
X163327000Y-54667000D01*
X163327000Y-56953000D01*
X164520155Y-56953000D01*
X164594399Y-56812314D01*
X166722905Y-56812314D01*
X166722905Y-57337686D01*
X166825400Y-57852963D01*
X167026451Y-58338343D01*
X167318332Y-58775174D01*
X167689826Y-59146668D01*
X168126657Y-59438549D01*
X168612037Y-59639600D01*
X169127314Y-59742095D01*
X169652686Y-59742095D01*
X170167963Y-59639600D01*
X170653343Y-59438549D01*
X171090174Y-59146668D01*
X171461668Y-58775174D01*
X171753549Y-58338343D01*
X171954600Y-57852963D01*
X172037362Y-57436890D01*
X174218524Y-57436890D01*
X174263175Y-57584099D01*
X174388359Y-57846920D01*
X174562412Y-58080269D01*
X174778645Y-58275178D01*
X174904255Y-58350000D01*
X174778645Y-58424822D01*
X174562412Y-58619731D01*
X174388359Y-58853080D01*
X174263175Y-59115901D01*
X174218524Y-59263110D01*
X174339845Y-59493000D01*
X175533000Y-59493000D01*
X175533000Y-57207000D01*
X175787000Y-57207000D01*
X175787000Y-59493000D01*
X178073000Y-59493000D01*
X178073000Y-57207000D01*
X178327000Y-57207000D01*
X178327000Y-59493000D01*
X179520155Y-59493000D01*
X179641476Y-59263110D01*
X179596825Y-59115901D01*
X179471641Y-58853080D01*
X179297588Y-58619731D01*
X179081355Y-58424822D01*
X178955745Y-58350000D01*
X179081355Y-58275178D01*
X179297588Y-58080269D01*
X179471641Y-57846920D01*
X179596825Y-57584099D01*
X179641476Y-57436890D01*
X179520155Y-57207000D01*
X178327000Y-57207000D01*
X178073000Y-57207000D01*
X175787000Y-57207000D01*
X175533000Y-57207000D01*
X174339845Y-57207000D01*
X174218524Y-57436890D01*
X172037362Y-57436890D01*
X172057095Y-57337686D01*
X172057095Y-56812314D01*
X171954600Y-56297037D01*
X171753549Y-55811657D01*
X171461668Y-55374826D01*
X171090174Y-55003332D01*
X170930873Y-54896890D01*
X174218524Y-54896890D01*
X174263175Y-55044099D01*
X174388359Y-55306920D01*
X174562412Y-55540269D01*
X174778645Y-55735178D01*
X174904255Y-55810000D01*
X174778645Y-55884822D01*
X174562412Y-56079731D01*
X174388359Y-56313080D01*
X174263175Y-56575901D01*
X174218524Y-56723110D01*
X174339845Y-56953000D01*
X175533000Y-56953000D01*
X175533000Y-54667000D01*
X175787000Y-54667000D01*
X175787000Y-56953000D01*
X178073000Y-56953000D01*
X178073000Y-54667000D01*
X178327000Y-54667000D01*
X178327000Y-56953000D01*
X179520155Y-56953000D01*
X179641476Y-56723110D01*
X179596825Y-56575901D01*
X179471641Y-56313080D01*
X179297588Y-56079731D01*
X179081355Y-55884822D01*
X178955745Y-55810000D01*
X179081355Y-55735178D01*
X179297588Y-55540269D01*
X179471641Y-55306920D01*
X179596825Y-55044099D01*
X179641476Y-54896890D01*
X179520155Y-54667000D01*
X178327000Y-54667000D01*
X178073000Y-54667000D01*
X175787000Y-54667000D01*
X175533000Y-54667000D01*
X174339845Y-54667000D01*
X174218524Y-54896890D01*
X170930873Y-54896890D01*
X170653343Y-54711451D01*
X170167963Y-54510400D01*
X169652686Y-54407905D01*
X169127314Y-54407905D01*
X168612037Y-54510400D01*
X168126657Y-54711451D01*
X167689826Y-55003332D01*
X167318332Y-55374826D01*
X167026451Y-55811657D01*
X166825400Y-56297037D01*
X166722905Y-56812314D01*
X164594399Y-56812314D01*
X164641476Y-56723110D01*
X164596825Y-56575901D01*
X164471641Y-56313080D01*
X164297588Y-56079731D01*
X164081355Y-55884822D01*
X163955745Y-55810000D01*
X164081355Y-55735178D01*
X164297588Y-55540269D01*
X164471641Y-55306920D01*
X164596825Y-55044099D01*
X164641476Y-54896890D01*
X164520155Y-54667000D01*
X163327000Y-54667000D01*
X163073000Y-54667000D01*
X160787000Y-54667000D01*
X160533000Y-54667000D01*
X159339845Y-54667000D01*
X159218524Y-54896890D01*
X155930873Y-54896890D01*
X155653343Y-54711451D01*
X155167963Y-54510400D01*
X154652686Y-54407905D01*
X154127314Y-54407905D01*
X153612037Y-54510400D01*
X153126657Y-54711451D01*
X152689826Y-55003332D01*
X152318332Y-55374826D01*
X152026451Y-55811657D01*
X151825400Y-56297037D01*
X151722905Y-56812314D01*
X149594399Y-56812314D01*
X149641476Y-56723110D01*
X149596825Y-56575901D01*
X149471641Y-56313080D01*
X149297588Y-56079731D01*
X149081355Y-55884822D01*
X148955745Y-55810000D01*
X149081355Y-55735178D01*
X149297588Y-55540269D01*
X149471641Y-55306920D01*
X149596825Y-55044099D01*
X149641476Y-54896890D01*
X149520155Y-54667000D01*
X148327000Y-54667000D01*
X148073000Y-54667000D01*
X145787000Y-54667000D01*
X145533000Y-54667000D01*
X144339845Y-54667000D01*
X144218524Y-54896890D01*
X140930873Y-54896890D01*
X140653343Y-54711451D01*
X140167963Y-54510400D01*
X139652686Y-54407905D01*
X139127314Y-54407905D01*
X138612037Y-54510400D01*
X138126657Y-54711451D01*
X137689826Y-55003332D01*
X137318332Y-55374826D01*
X137026451Y-55811657D01*
X136825400Y-56297037D01*
X136722905Y-56812314D01*
X134594399Y-56812314D01*
X134641476Y-56723110D01*
X134596825Y-56575901D01*
X134471641Y-56313080D01*
X134297588Y-56079731D01*
X134081355Y-55884822D01*
X133955745Y-55810000D01*
X134081355Y-55735178D01*
X134297588Y-55540269D01*
X134471641Y-55306920D01*
X134596825Y-55044099D01*
X134641476Y-54896890D01*
X134520155Y-54667000D01*
X133327000Y-54667000D01*
X133073000Y-54667000D01*
X130787000Y-54667000D01*
X130533000Y-54667000D01*
X129339845Y-54667000D01*
X129218524Y-54896890D01*
X125930873Y-54896890D01*
X125653343Y-54711451D01*
X125167963Y-54510400D01*
X124652686Y-54407905D01*
X124127314Y-54407905D01*
X123612037Y-54510400D01*
X123126657Y-54711451D01*
X122689826Y-55003332D01*
X122318332Y-55374826D01*
X122026451Y-55811657D01*
X121825400Y-56297037D01*
X121722905Y-56812314D01*
X119594399Y-56812314D01*
X119641476Y-56723110D01*
X119596825Y-56575901D01*
X119471641Y-56313080D01*
X119297588Y-56079731D01*
X119081355Y-55884822D01*
X118955745Y-55810000D01*
X119081355Y-55735178D01*
X119297588Y-55540269D01*
X119471641Y-55306920D01*
X119596825Y-55044099D01*
X119641476Y-54896890D01*
X119520155Y-54667000D01*
X118327000Y-54667000D01*
X118073000Y-54667000D01*
X115787000Y-54667000D01*
X115533000Y-54667000D01*
X114339845Y-54667000D01*
X114218524Y-54896890D01*
X110866042Y-54896890D01*
X110663343Y-54761451D01*
X110177963Y-54560400D01*
X109662686Y-54457905D01*
X109137314Y-54457905D01*
X108622037Y-54560400D01*
X108136657Y-54761451D01*
X107699826Y-55053332D01*
X107328332Y-55424826D01*
X107036451Y-55861657D01*
X106835400Y-56347037D01*
X106732905Y-56862314D01*
X104568013Y-56862314D01*
X104641476Y-56723110D01*
X104596825Y-56575901D01*
X104471641Y-56313080D01*
X104297588Y-56079731D01*
X104081355Y-55884822D01*
X103955745Y-55810000D01*
X104081355Y-55735178D01*
X104297588Y-55540269D01*
X104471641Y-55306920D01*
X104596825Y-55044099D01*
X104641476Y-54896890D01*
X104520155Y-54667000D01*
X103327000Y-54667000D01*
X103073000Y-54667000D01*
X100787000Y-54667000D01*
X100533000Y-54667000D01*
X99339845Y-54667000D01*
X99218524Y-54896890D01*
X93666042Y-54896890D01*
X93463343Y-54761451D01*
X92977963Y-54560400D01*
X92462686Y-54457905D01*
X91937314Y-54457905D01*
X91422037Y-54560400D01*
X90936657Y-54761451D01*
X90499826Y-55053332D01*
X90128332Y-55424826D01*
X89836451Y-55861657D01*
X89635400Y-56347037D01*
X89532905Y-56862314D01*
X85807566Y-56862314D01*
X85658363Y-56639017D01*
X85360983Y-56341637D01*
X85011302Y-56107988D01*
X84622756Y-55947047D01*
X84210279Y-55865000D01*
X83789721Y-55865000D01*
X83377244Y-55947047D01*
X82988698Y-56107988D01*
X82639017Y-56341637D01*
X82341637Y-56639017D01*
X82107988Y-56988698D01*
X81947047Y-57377244D01*
X81865000Y-57789721D01*
X68160000Y-57789721D01*
X68160000Y-50789721D01*
X81865000Y-50789721D01*
X81865000Y-51210279D01*
X81947047Y-51622756D01*
X82107988Y-52011302D01*
X82341637Y-52360983D01*
X82639017Y-52658363D01*
X82988698Y-52892012D01*
X83377244Y-53052953D01*
X83789721Y-53135000D01*
X84210279Y-53135000D01*
X84622756Y-53052953D01*
X85011302Y-52892012D01*
X85360983Y-52658363D01*
X85658363Y-52360983D01*
X85892012Y-52011302D01*
X86052953Y-51622756D01*
X86135000Y-51210279D01*
X86135000Y-51150000D01*
X99171928Y-51150000D01*
X99171928Y-52850000D01*
X99184188Y-52974482D01*
X99220498Y-53094180D01*
X99279463Y-53204494D01*
X99358815Y-53301185D01*
X99455506Y-53380537D01*
X99565820Y-53439502D01*
X99646466Y-53463966D01*
X99562412Y-53539731D01*
X99388359Y-53773080D01*
X99263175Y-54035901D01*
X99218524Y-54183110D01*
X99339845Y-54413000D01*
X100533000Y-54413000D01*
X100533000Y-54393000D01*
X100787000Y-54393000D01*
X100787000Y-54413000D01*
X103073000Y-54413000D01*
X103073000Y-54393000D01*
X103327000Y-54393000D01*
X103327000Y-54413000D01*
X104520155Y-54413000D01*
X104641476Y-54183110D01*
X104596825Y-54035901D01*
X104471641Y-53773080D01*
X104297588Y-53539731D01*
X104081355Y-53344822D01*
X103964466Y-53275195D01*
X104146632Y-53153475D01*
X104353475Y-52946632D01*
X104515990Y-52703411D01*
X104627932Y-52433158D01*
X104685000Y-52146260D01*
X104685000Y-51853740D01*
X104627932Y-51566842D01*
X104515990Y-51296589D01*
X104418043Y-51150000D01*
X114171928Y-51150000D01*
X114171928Y-52850000D01*
X114184188Y-52974482D01*
X114220498Y-53094180D01*
X114279463Y-53204494D01*
X114358815Y-53301185D01*
X114455506Y-53380537D01*
X114565820Y-53439502D01*
X114646466Y-53463966D01*
X114562412Y-53539731D01*
X114388359Y-53773080D01*
X114263175Y-54035901D01*
X114218524Y-54183110D01*
X114339845Y-54413000D01*
X115533000Y-54413000D01*
X115533000Y-54393000D01*
X115787000Y-54393000D01*
X115787000Y-54413000D01*
X118073000Y-54413000D01*
X118073000Y-54393000D01*
X118327000Y-54393000D01*
X118327000Y-54413000D01*
X119520155Y-54413000D01*
X119641476Y-54183110D01*
X119596825Y-54035901D01*
X119471641Y-53773080D01*
X119297588Y-53539731D01*
X119081355Y-53344822D01*
X118964466Y-53275195D01*
X119146632Y-53153475D01*
X119353475Y-52946632D01*
X119515990Y-52703411D01*
X119627932Y-52433158D01*
X119685000Y-52146260D01*
X119685000Y-51853740D01*
X119627932Y-51566842D01*
X119515990Y-51296589D01*
X119418043Y-51150000D01*
X129171928Y-51150000D01*
X129171928Y-52850000D01*
X129184188Y-52974482D01*
X129220498Y-53094180D01*
X129279463Y-53204494D01*
X129358815Y-53301185D01*
X129455506Y-53380537D01*
X129565820Y-53439502D01*
X129646466Y-53463966D01*
X129562412Y-53539731D01*
X129388359Y-53773080D01*
X129263175Y-54035901D01*
X129218524Y-54183110D01*
X129339845Y-54413000D01*
X130533000Y-54413000D01*
X130533000Y-54393000D01*
X130787000Y-54393000D01*
X130787000Y-54413000D01*
X133073000Y-54413000D01*
X133073000Y-54393000D01*
X133327000Y-54393000D01*
X133327000Y-54413000D01*
X134520155Y-54413000D01*
X134641476Y-54183110D01*
X134596825Y-54035901D01*
X134471641Y-53773080D01*
X134297588Y-53539731D01*
X134081355Y-53344822D01*
X133964466Y-53275195D01*
X134146632Y-53153475D01*
X134353475Y-52946632D01*
X134515990Y-52703411D01*
X134627932Y-52433158D01*
X134685000Y-52146260D01*
X134685000Y-51853740D01*
X134627932Y-51566842D01*
X134515990Y-51296589D01*
X134418043Y-51150000D01*
X144171928Y-51150000D01*
X144171928Y-52850000D01*
X144184188Y-52974482D01*
X144220498Y-53094180D01*
X144279463Y-53204494D01*
X144358815Y-53301185D01*
X144455506Y-53380537D01*
X144565820Y-53439502D01*
X144646466Y-53463966D01*
X144562412Y-53539731D01*
X144388359Y-53773080D01*
X144263175Y-54035901D01*
X144218524Y-54183110D01*
X144339845Y-54413000D01*
X145533000Y-54413000D01*
X145533000Y-54393000D01*
X145787000Y-54393000D01*
X145787000Y-54413000D01*
X148073000Y-54413000D01*
X148073000Y-54393000D01*
X148327000Y-54393000D01*
X148327000Y-54413000D01*
X149520155Y-54413000D01*
X149641476Y-54183110D01*
X149596825Y-54035901D01*
X149471641Y-53773080D01*
X149297588Y-53539731D01*
X149081355Y-53344822D01*
X148964466Y-53275195D01*
X149146632Y-53153475D01*
X149353475Y-52946632D01*
X149515990Y-52703411D01*
X149627932Y-52433158D01*
X149685000Y-52146260D01*
X149685000Y-51853740D01*
X149627932Y-51566842D01*
X149515990Y-51296589D01*
X149418043Y-51150000D01*
X159171928Y-51150000D01*
X159171928Y-52850000D01*
X159184188Y-52974482D01*
X159220498Y-53094180D01*
X159279463Y-53204494D01*
X159358815Y-53301185D01*
X159455506Y-53380537D01*
X159565820Y-53439502D01*
X159646466Y-53463966D01*
X159562412Y-53539731D01*
X159388359Y-53773080D01*
X159263175Y-54035901D01*
X159218524Y-54183110D01*
X159339845Y-54413000D01*
X160533000Y-54413000D01*
X160533000Y-54393000D01*
X160787000Y-54393000D01*
X160787000Y-54413000D01*
X163073000Y-54413000D01*
X163073000Y-54393000D01*
X163327000Y-54393000D01*
X163327000Y-54413000D01*
X164520155Y-54413000D01*
X164641476Y-54183110D01*
X164596825Y-54035901D01*
X164471641Y-53773080D01*
X164297588Y-53539731D01*
X164081355Y-53344822D01*
X163964466Y-53275195D01*
X164146632Y-53153475D01*
X164353475Y-52946632D01*
X164515990Y-52703411D01*
X164627932Y-52433158D01*
X164685000Y-52146260D01*
X164685000Y-51853740D01*
X164627932Y-51566842D01*
X164515990Y-51296589D01*
X164418043Y-51150000D01*
X174171928Y-51150000D01*
X174171928Y-52850000D01*
X174184188Y-52974482D01*
X174220498Y-53094180D01*
X174279463Y-53204494D01*
X174358815Y-53301185D01*
X174455506Y-53380537D01*
X174565820Y-53439502D01*
X174646466Y-53463966D01*
X174562412Y-53539731D01*
X174388359Y-53773080D01*
X174263175Y-54035901D01*
X174218524Y-54183110D01*
X174339845Y-54413000D01*
X175533000Y-54413000D01*
X175533000Y-54393000D01*
X175787000Y-54393000D01*
X175787000Y-54413000D01*
X178073000Y-54413000D01*
X178073000Y-54393000D01*
X178327000Y-54393000D01*
X178327000Y-54413000D01*
X179520155Y-54413000D01*
X179641476Y-54183110D01*
X179596825Y-54035901D01*
X179471641Y-53773080D01*
X179297588Y-53539731D01*
X179081355Y-53344822D01*
X178964466Y-53275195D01*
X179146632Y-53153475D01*
X179353475Y-52946632D01*
X179515990Y-52703411D01*
X179627932Y-52433158D01*
X179685000Y-52146260D01*
X179685000Y-51853740D01*
X179627932Y-51566842D01*
X179515990Y-51296589D01*
X179353475Y-51053368D01*
X179146632Y-50846525D01*
X178903411Y-50684010D01*
X178633158Y-50572068D01*
X178346260Y-50515000D01*
X178053740Y-50515000D01*
X177766842Y-50572068D01*
X177496589Y-50684010D01*
X177253368Y-50846525D01*
X177121513Y-50978380D01*
X177099502Y-50905820D01*
X177040537Y-50795506D01*
X176961185Y-50698815D01*
X176864494Y-50619463D01*
X176754180Y-50560498D01*
X176634482Y-50524188D01*
X176510000Y-50511928D01*
X174810000Y-50511928D01*
X174685518Y-50524188D01*
X174565820Y-50560498D01*
X174455506Y-50619463D01*
X174358815Y-50698815D01*
X174279463Y-50795506D01*
X174220498Y-50905820D01*
X174184188Y-51025518D01*
X174171928Y-51150000D01*
X164418043Y-51150000D01*
X164353475Y-51053368D01*
X164146632Y-50846525D01*
X163903411Y-50684010D01*
X163633158Y-50572068D01*
X163346260Y-50515000D01*
X163053740Y-50515000D01*
X162766842Y-50572068D01*
X162496589Y-50684010D01*
X162253368Y-50846525D01*
X162121513Y-50978380D01*
X162099502Y-50905820D01*
X162040537Y-50795506D01*
X161961185Y-50698815D01*
X161864494Y-50619463D01*
X161754180Y-50560498D01*
X161634482Y-50524188D01*
X161510000Y-50511928D01*
X159810000Y-50511928D01*
X159685518Y-50524188D01*
X159565820Y-50560498D01*
X159455506Y-50619463D01*
X159358815Y-50698815D01*
X159279463Y-50795506D01*
X159220498Y-50905820D01*
X159184188Y-51025518D01*
X159171928Y-51150000D01*
X149418043Y-51150000D01*
X149353475Y-51053368D01*
X149146632Y-50846525D01*
X148903411Y-50684010D01*
X148633158Y-50572068D01*
X148346260Y-50515000D01*
X148053740Y-50515000D01*
X147766842Y-50572068D01*
X147496589Y-50684010D01*
X147253368Y-50846525D01*
X147121513Y-50978380D01*
X147099502Y-50905820D01*
X147040537Y-50795506D01*
X146961185Y-50698815D01*
X146864494Y-50619463D01*
X146754180Y-50560498D01*
X146634482Y-50524188D01*
X146510000Y-50511928D01*
X144810000Y-50511928D01*
X144685518Y-50524188D01*
X144565820Y-50560498D01*
X144455506Y-50619463D01*
X144358815Y-50698815D01*
X144279463Y-50795506D01*
X144220498Y-50905820D01*
X144184188Y-51025518D01*
X144171928Y-51150000D01*
X134418043Y-51150000D01*
X134353475Y-51053368D01*
X134146632Y-50846525D01*
X133903411Y-50684010D01*
X133633158Y-50572068D01*
X133346260Y-50515000D01*
X133053740Y-50515000D01*
X132766842Y-50572068D01*
X132496589Y-50684010D01*
X132253368Y-50846525D01*
X132121513Y-50978380D01*
X132099502Y-50905820D01*
X132040537Y-50795506D01*
X131961185Y-50698815D01*
X131864494Y-50619463D01*
X131754180Y-50560498D01*
X131634482Y-50524188D01*
X131510000Y-50511928D01*
X129810000Y-50511928D01*
X129685518Y-50524188D01*
X129565820Y-50560498D01*
X129455506Y-50619463D01*
X129358815Y-50698815D01*
X129279463Y-50795506D01*
X129220498Y-50905820D01*
X129184188Y-51025518D01*
X129171928Y-51150000D01*
X119418043Y-51150000D01*
X119353475Y-51053368D01*
X119146632Y-50846525D01*
X118903411Y-50684010D01*
X118633158Y-50572068D01*
X118346260Y-50515000D01*
X118053740Y-50515000D01*
X117766842Y-50572068D01*
X117496589Y-50684010D01*
X117253368Y-50846525D01*
X117121513Y-50978380D01*
X117099502Y-50905820D01*
X117040537Y-50795506D01*
X116961185Y-50698815D01*
X116864494Y-50619463D01*
X116754180Y-50560498D01*
X116634482Y-50524188D01*
X116510000Y-50511928D01*
X114810000Y-50511928D01*
X114685518Y-50524188D01*
X114565820Y-50560498D01*
X114455506Y-50619463D01*
X114358815Y-50698815D01*
X114279463Y-50795506D01*
X114220498Y-50905820D01*
X114184188Y-51025518D01*
X114171928Y-51150000D01*
X104418043Y-51150000D01*
X104353475Y-51053368D01*
X104146632Y-50846525D01*
X103903411Y-50684010D01*
X103633158Y-50572068D01*
X103346260Y-50515000D01*
X103053740Y-50515000D01*
X102766842Y-50572068D01*
X102496589Y-50684010D01*
X102253368Y-50846525D01*
X102121513Y-50978380D01*
X102099502Y-50905820D01*
X102040537Y-50795506D01*
X101961185Y-50698815D01*
X101864494Y-50619463D01*
X101754180Y-50560498D01*
X101634482Y-50524188D01*
X101510000Y-50511928D01*
X99810000Y-50511928D01*
X99685518Y-50524188D01*
X99565820Y-50560498D01*
X99455506Y-50619463D01*
X99358815Y-50698815D01*
X99279463Y-50795506D01*
X99220498Y-50905820D01*
X99184188Y-51025518D01*
X99171928Y-51150000D01*
X86135000Y-51150000D01*
X86135000Y-50789721D01*
X86052953Y-50377244D01*
X85892012Y-49988698D01*
X85658363Y-49639017D01*
X85360983Y-49341637D01*
X85011302Y-49107988D01*
X84622756Y-48947047D01*
X84210279Y-48865000D01*
X83789721Y-48865000D01*
X83377244Y-48947047D01*
X82988698Y-49107988D01*
X82639017Y-49341637D01*
X82341637Y-49639017D01*
X82107988Y-49988698D01*
X81947047Y-50377244D01*
X81865000Y-50789721D01*
X68160000Y-50789721D01*
X68160000Y-48160000D01*
X181840001Y-48160000D01*
X181840000Y-104340000D01*
G37*
%TD.AperFunction*%
%TD*%
M02*
